<svg xmlns="http://www.w3.org/2000/svg" width="629.969" height="501.316" viewBox="0 0 629.969 501.316">
  <g id="Group_803" data-name="Group 803" transform="translate(-172 -2359.04)">
    <g id="Group_635" data-name="Group 635" transform="matrix(0.998, -0.07, 0.07, 0.998, 230.428, 2469.698)">
      <line id="Line_91" data-name="Line 91" x1="40.251" y2="40.254" transform="translate(308.511 41.861)" fill="none" stroke="#fff" stroke-linecap="round" stroke-linejoin="round" stroke-width="4"/>
      <path id="Path_384" data-name="Path 384" d="M0,32.052,22.526,16.306,45.38,0" transform="translate(378.758 179.447)" fill="none" stroke="#fff" stroke-linecap="round" stroke-linejoin="round" stroke-width="4"/>
      <g id="Group_515" data-name="Group 515" transform="translate(0 0)">
        <path id="Path_385" data-name="Path 385" d="M117.225,153.668,72.022,85.29,0,115.678,140.83,26.389A50.665,50.665,0,0,0,78.747,3.119m165.594,212.03L140.907,26.347" transform="translate(214.825 0)" fill="none" stroke="#fff" stroke-linecap="round" stroke-linejoin="round" stroke-width="4"/>
        <path id="Path_386" data-name="Path 386" d="M54.2,0m237.58,177.415c4.511-2.962,9.261-5.137,13.048-9.084a37.267,37.267,0,0,0,7.363-11.205,41.748,41.748,0,0,0-2.265-36.639M0,269.1" transform="translate(149.135 94.71)" fill="none" stroke="#fff" stroke-linecap="round" stroke-linejoin="round" stroke-width="4"/>
        <path id="Path_387" data-name="Path 387" d="M10.263,0,9.047,1.095,7.534,2.249,5.791,3.412,3.9,4.532,1.938,5.556,0,6.441" transform="translate(298.029 82.383)" fill="none" stroke="#fff" stroke-linecap="round" stroke-linejoin="round" stroke-width="4"/>
        <path id="Path_388" data-name="Path 388" d="M0,0" transform="translate(286.847 85.29)" fill="none" stroke="#fff" stroke-linecap="round" stroke-linejoin="round" stroke-width="4"/>
        <path id="Path_389" data-name="Path 389" d="M0,0" transform="translate(344.072 153.073)" fill="none" stroke="#fff" stroke-linecap="round" stroke-linejoin="round" stroke-width="4"/>
        <line id="Line_92" data-name="Line 92" x1="0.91" y2="0.838" transform="translate(345.168 151.355)" fill="none" stroke="#fff" stroke-linecap="round" stroke-linejoin="round" stroke-width="4"/>
        <path id="Path_390" data-name="Path 390" d="M3.014,11.349,2.041,9.383,1.22,7.325.589,5.268.176,3.3,0,1.521.068,0" transform="translate(283.406 73.162)" fill="none" stroke="#fff" stroke-linecap="round" stroke-linejoin="round" stroke-width="4"/>
        <path id="Path_391" data-name="Path 391" d="M0,6.257l1.938-.884L3.9,4.348,5.791,3.229,7.534,2.065l.48-.292A13.985,13.985,0,0,0,10.1.221L10.345,0" transform="translate(368.604 211.391)" fill="none" stroke="#fff" stroke-linecap="round" stroke-linejoin="round" stroke-width="4"/>
        <line id="Line_93" data-name="Line 93" y1="30.387" x2="72.022" transform="translate(214.398 84.511)" fill="none" stroke="#fff" stroke-linecap="round" stroke-linejoin="round" stroke-width="4"/>
        <line id="Line_94" data-name="Line 94" x2="35.484" y2="64.771" transform="translate(298.029 88.824)" fill="none" stroke="#fff" stroke-linecap="round" stroke-linejoin="round" stroke-width="4"/>
        <path id="Path_392" data-name="Path 392" d="M0,.551c4.555-1.6,9.067.429,11.608,4.313" transform="translate(286.42 83.96)" fill="none" stroke="#fff" stroke-linecap="round" stroke-linejoin="round" stroke-width="4"/>
        <path id="Path_393" data-name="Path 393" d="M0,7.261,1.888,6.4,3.8,5.406,5.651,4.32,7.366,3.188l1.5-1.129L10.1.981,11,0" transform="translate(161.639 139.056)" fill="none" stroke="#fff" stroke-linecap="round" stroke-linejoin="round" stroke-width="4"/>
        <path id="Path_394" data-name="Path 394" d="M0,.013a20.745,20.745,0,0,1,15.174,5.91" transform="translate(289.505 72.046)" fill="none" stroke="#fff" stroke-linecap="round" stroke-linejoin="round" stroke-width="4"/>
        <path id="Path_395" data-name="Path 395" d="M.435,13.1.173,11.033.026,8.88,0,6.738.1,4.7.31,2.841.634,1.253,1.052,0" transform="translate(358.98 199.384)" fill="none" stroke="#fff" stroke-linecap="round" stroke-linejoin="round" stroke-width="4"/>
        <path id="Path_396" data-name="Path 396" d="M.428,0,.186.126,0,.268" transform="translate(348.543 41.861)" fill="none" stroke="#fff" stroke-linecap="round" stroke-linejoin="round" stroke-width="4"/>
        <path id="Path_397" data-name="Path 397" d="M.435,13.1.173,11.033.026,8.881,0,6.738.1,4.7.31,2.841.634,1.253,1.052,0" transform="translate(250.014 204.774)" fill="none" stroke="#fff" stroke-linecap="round" stroke-linejoin="round" stroke-width="4"/>
        <path id="Path_398" data-name="Path 398" d="M0,7.261,1.888,6.4,3.8,5.406,5.651,4.32,7.366,3.188l1.5-1.129L10.1.981,11,0" transform="translate(178.747 170.284)" fill="none" stroke="#fff" stroke-linecap="round" stroke-linejoin="round" stroke-width="4"/>
        <line id="Line_95" data-name="Line 95" x1="40.251" y2="40.254" transform="translate(308.292 42.129)" fill="none" stroke="#fff" stroke-linecap="round" stroke-linejoin="round" stroke-width="4"/>
        <line id="Line_96" data-name="Line 96" x2="26.969" y2="49.227" transform="translate(312.947 90.88)" fill="none" stroke="#fff" stroke-linecap="round" stroke-linejoin="round" stroke-width="4"/>
        <path id="Path_399" data-name="Path 399" d="M.123.473.1.253,0,0" transform="translate(290.66 20.195)" fill="none" stroke="#fff" stroke-linecap="round" stroke-linejoin="round" stroke-width="4"/>
        <line id="Line_97" data-name="Line 97" y1="52.495" x2="7.308" transform="translate(283.475 20.667)" fill="none" stroke="#fff" stroke-linecap="round" stroke-linejoin="round" stroke-width="4"/>
        <path id="Path_400" data-name="Path 400" d="M.068,0,0,1.521.176,3.3.589,5.268,1.22,7.325l.821,2.058.973,1.966" transform="translate(147.1 130.672)" fill="none" stroke="#fff" stroke-linecap="round" stroke-linejoin="round" stroke-width="4"/>
        <path id="Path_401" data-name="Path 401" d="M.428,0,.186.126,0,.268" transform="translate(384.997 108.401)" fill="none" stroke="#fff" stroke-linecap="round" stroke-linejoin="round" stroke-width="4"/>
        <path id="Path_402" data-name="Path 402" d="M38.919,0,19.459,21.343,0,42.686" transform="translate(346.078 108.67)" fill="none" stroke="#fff" stroke-linecap="round" stroke-linejoin="round" stroke-width="4"/>
        <path id="Path_403" data-name="Path 403" d="M0,0,.033.058.065.116.1.174.129.232.192.349.254.465.375.7.493.936l.3.639" transform="translate(346.078 151.355)" fill="none" stroke="#fff" stroke-linecap="round" stroke-linejoin="round" stroke-width="4"/>
        <path id="Path_404" data-name="Path 404" d="M0,0" transform="translate(424.346 179.447)" fill="none" stroke="#fff" stroke-linecap="round" stroke-linejoin="round" stroke-width="4"/>
        <path id="Path_405" data-name="Path 405" d="M9.783,6.672A22.062,22.062,0,0,0,0,0" transform="translate(366.417 200.458)" fill="none" stroke="#fff" stroke-linecap="round" stroke-linejoin="round" stroke-width="4"/>
        <path id="Path_406" data-name="Path 406" d="M3.014,11.349,2.041,9.383,1.22,7.325.589,5.268.176,3.3,0,1.521.068,0" transform="translate(42.044 174.997)" fill="none" stroke="#fff" stroke-linecap="round" stroke-linejoin="round" stroke-width="4"/>
        <path id="Path_407" data-name="Path 407" d="M0,0,.1.253l.022.22" transform="translate(216.907 51.312)" fill="none" stroke="#fff" stroke-linecap="round" stroke-linejoin="round" stroke-width="4"/>
        <line id="Line_98" data-name="Line 98" x1="11.14" y2="47.582" transform="translate(205.89 51.785)" fill="none" stroke="#fff" stroke-linecap="round" stroke-linejoin="round" stroke-width="4"/>
        <path id="Path_408" data-name="Path 408" d="M0,17.962c.75-.412,1.472-.843,2.16-1.3A15.48,15.48,0,0,0,8.83,8.2,14.633,14.633,0,0,0,8.937,0" transform="translate(392.265 253.78)" fill="none" stroke="#fff" stroke-linecap="round" stroke-linejoin="round" stroke-width="4"/>
        <path id="Path_409" data-name="Path 409" d="M0,0" transform="translate(440.236 208.45)" fill="none" stroke="#fff" stroke-linecap="round" stroke-linejoin="round" stroke-width="4"/>
        <path id="Path_410" data-name="Path 410" d="M0,0" transform="translate(172.64 139.056)" fill="none" stroke="#fff" stroke-linecap="round" stroke-linejoin="round" stroke-width="4"/>
        <path id="Path_411" data-name="Path 411" d="M0,0" transform="translate(189.748 170.284)" fill="none" stroke="#fff" stroke-linecap="round" stroke-linejoin="round" stroke-width="4"/>
        <path id="Path_412" data-name="Path 412" d="M0,.3.186.146.458,0" transform="translate(195.677 97.673)" fill="none" stroke="#fff" stroke-linecap="round" stroke-linejoin="round" stroke-width="4"/>
        <path id="Path_413" data-name="Path 413" d="M0,0" transform="translate(152.615 129.256)" fill="none" stroke="#fff" stroke-linecap="round" stroke-linejoin="round" stroke-width="4"/>
        <path id="Path_414" data-name="Path 414" d="M0,0" transform="translate(169.171 134.779)" fill="none" stroke="#fff" stroke-linecap="round" stroke-linejoin="round" stroke-width="4"/>
        <path id="Path_415" data-name="Path 415" d="M.058.1.029.048,0,0" transform="translate(172.525 138.863)" fill="none" stroke="#fff" stroke-linecap="round" stroke-linejoin="round" stroke-width="4"/>
        <path id="Path_416" data-name="Path 416" d="M0,41.08,11.519,20.54,23.037,0" transform="translate(172.64 97.976)" fill="none" stroke="#fff" stroke-linecap="round" stroke-linejoin="round" stroke-width="4"/>
        <path id="Path_417" data-name="Path 417" d="M0,.546.042.309.026,0" transform="translate(387.458 158.738)" fill="none" stroke="#fff" stroke-linecap="round" stroke-linejoin="round" stroke-width="4"/>
        <path id="Path_418" data-name="Path 418" d="M0,40.1l5.2-7.6L13.713,20.05,23.763,5.357,27.427,0" transform="translate(360.031 159.284)" fill="none" stroke="#fff" stroke-linecap="round" stroke-linejoin="round" stroke-width="4"/>
        <path id="Path_419" data-name="Path 419" d="M0,0" transform="translate(265.628 204.054)" fill="none" stroke="#fff" stroke-linecap="round" stroke-linejoin="round" stroke-width="4"/>
        <path id="Path_420" data-name="Path 420" d="M0,0" transform="translate(339.916 200.379)" fill="none" stroke="#fff" stroke-linecap="round" stroke-linejoin="round" stroke-width="4"/>
        <path id="Path_421" data-name="Path 421" d="M0,.546.042.309.026,0" transform="translate(268.145 164.64)" fill="none" stroke="#fff" stroke-linecap="round" stroke-linejoin="round" stroke-width="4"/>
        <path id="Path_422" data-name="Path 422" d="M0,.3.186.146.458,0" transform="translate(216.62 135.902)" fill="none" stroke="#fff" stroke-linecap="round" stroke-linejoin="round" stroke-width="4"/>
        <line id="Line_99" data-name="Line 99" y1="39.588" x2="17.079" transform="translate(251.066 165.186)" fill="none" stroke="#fff" stroke-linecap="round" stroke-linejoin="round" stroke-width="4"/>
        <line id="Line_100" data-name="Line 100" y1="34.08" x2="26.872" transform="translate(189.748 136.205)" fill="none" stroke="#fff" stroke-linecap="round" stroke-linejoin="round" stroke-width="4"/>
        <path id="Path_423" data-name="Path 423" d="M25.267,16.383A65.185,65.185,0,0,1,15.515,12,65.022,65.022,0,0,1,0,0" transform="translate(200.485 184.42)" fill="none" stroke="#fff" stroke-linecap="round" stroke-linejoin="round" stroke-width="4"/>
        <line id="Line_101" data-name="Line 101" x1="105.057" y2="44.325" transform="translate(45.058 142.021)" fill="none" stroke="#fff" stroke-linecap="round" stroke-linejoin="round" stroke-width="4"/>
        <path id="Path_424" data-name="Path 424" d="M4.155,0,2.311,1.107.892,2.67,0,4.577" transform="translate(40.903 186.346)" fill="none" stroke="#fff" stroke-linecap="round" stroke-linejoin="round" stroke-width="4"/>
        <path id="Path_425" data-name="Path 425" d="M0,10.639a7.039,7.039,0,0,0,3.45-2.95c1.5-2.55.9-5.083-.034-7.689" transform="translate(385.879 255.414)" fill="none" stroke="#fff" stroke-linecap="round" stroke-linejoin="round" stroke-width="4"/>
        <line id="Line_102" data-name="Line 102" x1="20.69" y1="37.766" transform="translate(368.604 217.648)" fill="none" stroke="#fff" stroke-linecap="round" stroke-linejoin="round" stroke-width="4"/>
        <path id="Path_426" data-name="Path 426" d="M355.622,262.014,120.832,361.075,263.794,0,0,111.3" transform="translate(29.835 3.272)" fill="none" stroke="#fff" stroke-linecap="round" stroke-linejoin="round" stroke-width="4"/>
        <path id="Path_427" data-name="Path 427" d="M9.19,5.168A10.347,10.347,0,0,0,0,0" transform="translate(359.415 212.479)" fill="none" stroke="#fff" stroke-linecap="round" stroke-linejoin="round" stroke-width="4"/>
        <line id="Line_103" data-name="Line 103" x1="108.965" y2="5.391" transform="translate(250.45 212.485)" fill="none" stroke="#fff" stroke-linecap="round" stroke-linejoin="round" stroke-width="4"/>
        <path id="Path_428" data-name="Path 428" d="M71.7,40.331c-13.961.983-28.747-3.008-40.913-9.714C17.687,23.4,7.642,12.733,0,0" transform="translate(178.747 177.545)" fill="none" stroke="#fff" stroke-linecap="round" stroke-linejoin="round" stroke-width="4"/>
        <line id="Line_104" data-name="Line 104" x1="17.108" y1="31.229" transform="translate(161.639 146.317)" fill="none" stroke="#fff" stroke-linecap="round" stroke-linejoin="round" stroke-width="4"/>
        <path id="Path_429" data-name="Path 429" d="M11.527,4.828A9.881,9.881,0,0,0,0,.5" transform="translate(150.105 141.493)" fill="none" stroke="#fff" stroke-linecap="round" stroke-linejoin="round" stroke-width="4"/>
        <line id="Line_105" data-name="Line 105" y1="98.694" x2="233.918" transform="translate(151.965 266.064)" fill="none" stroke="#fff" stroke-linecap="round" stroke-linejoin="round" stroke-width="4"/>
        <path id="Path_430" data-name="Path 430" d="M0,0,.1.253.123.473" transform="translate(148.825 80.037)" fill="none" stroke="#fff" stroke-linecap="round" stroke-linejoin="round" stroke-width="4"/>
        <path id="Path_431" data-name="Path 431" d="M1.779,0,.889,25.081,0,50.162" transform="translate(147.168 80.51)" fill="none" stroke="#fff" stroke-linecap="round" stroke-linejoin="round" stroke-width="4"/>
        <line id="Line_106" data-name="Line 106" y1="52.495" x2="7.308" transform="translate(42.112 122.502)" fill="none" stroke="#fff" stroke-linecap="round" stroke-linejoin="round" stroke-width="4"/>
        <path id="Path_432" data-name="Path 432" d="M.123.473.1.253,0,0" transform="translate(49.297 122.029)" fill="none" stroke="#fff" stroke-linecap="round" stroke-linejoin="round" stroke-width="4"/>
        <path id="Path_433" data-name="Path 433" d="M0,0C6.614,9.5,13.625,17.3,24.744,21.59c10.621,4.1,23,4.377,33.566.076" transform="translate(123.429 342.116)" fill="none" stroke="#fff" stroke-linecap="round" stroke-linejoin="round" stroke-width="4"/>
        <line id="Line_107" data-name="Line 107" x2="91.265" y2="166.59" transform="translate(32.164 175.527)" fill="none" stroke="#fff" stroke-linecap="round" stroke-linejoin="round" stroke-width="4"/>
        <path id="Path_434" data-name="Path 434" d="M22.411,0c-10.3,4.945-18.2,13.151-21.2,24.444A37.6,37.6,0,0,0,5.455,53.389" transform="translate(26.885 122.029)" fill="none" stroke="#fff" stroke-linecap="round" stroke-linejoin="round" stroke-width="4"/>
        <line id="Line_108" data-name="Line 108" x1="99.528" y2="41.992" transform="translate(49.297 80.037)" fill="none" stroke="#fff" stroke-linecap="round" stroke-linejoin="round" stroke-width="4"/>
        <path id="Path_435" data-name="Path 435" d="M47.349,20.054A38.974,38.974,0,0,0,0,2.314" transform="translate(148.787 77.618)" fill="none" stroke="#fff" stroke-linecap="round" stroke-linejoin="round" stroke-width="4"/>
        <line id="Line_109" data-name="Line 109" x1="20.944" y1="38.229" transform="translate(196.135 97.673)" fill="none" stroke="#fff" stroke-linecap="round" stroke-linejoin="round" stroke-width="4"/>
        <path id="Path_436" data-name="Path 436" d="M51.092,28.738A58.5,58.5,0,0,1,0,0" transform="translate(217.079 135.902)" fill="none" stroke="#fff" stroke-linecap="round" stroke-linejoin="round" stroke-width="4"/>
        <line id="Line_110" data-name="Line 110" x1="119.313" y2="5.903" transform="translate(268.171 158.738)" fill="none" stroke="#fff" stroke-linecap="round" stroke-linejoin="round" stroke-width="4"/>
        <path id="Path_437" data-name="Path 437" d="M36.863,20.749C29.7,7.772,14.763-.478,0,.022" transform="translate(387.483 158.698)" fill="none" stroke="#fff" stroke-linecap="round" stroke-linejoin="round" stroke-width="4"/>
        <line id="Line_111" data-name="Line 111" x1="15.889" y1="29.004" transform="translate(424.346 179.447)" fill="none" stroke="#fff" stroke-linecap="round" stroke-linejoin="round" stroke-width="4"/>
        <path id="Path_438" data-name="Path 438" d="M0,53.5c9.808-5.25,17.555-12.048,20.813-23.124a38.093,38.093,0,0,0,1.16-15.589C21.27,9.348,18.948,5.029,17.133,0" transform="translate(423.102 208.45)" fill="none" stroke="#fff" stroke-linecap="round" stroke-linejoin="round" stroke-width="4"/>
        <line id="Line_112" data-name="Line 112" y1="101.835" x2="241.363" transform="translate(181.74 261.948)" fill="none" stroke="#fff" stroke-linecap="round" stroke-linejoin="round" stroke-width="4"/>
        <path id="Path_439" data-name="Path 439" d="M0,2.956c11.187-3.758,22.731-4.2,33.908.212a48.091,48.091,0,0,1,24.338,21.49" transform="translate(290.66 17.238)" fill="none" stroke="#fff" stroke-linecap="round" stroke-linejoin="round" stroke-width="4"/>
        <line id="Line_113" data-name="Line 113" x2="36.454" y2="66.54" transform="translate(348.971 41.861)" fill="none" stroke="#fff" stroke-linecap="round" stroke-linejoin="round" stroke-width="4"/>
        <path id="Path_440" data-name="Path 440" d="M24.51,0a30.162,30.162,0,0,1,.637,28.283C19.9,38.4,10.639,42.335,0,44.114" transform="translate(360.914 108.401)" fill="none" stroke="#fff" stroke-linecap="round" stroke-linejoin="round" stroke-width="4"/>
        <line id="Line_114" data-name="Line 114" x1="93.925" y2="4.647" transform="translate(266.989 152.515)" fill="none" stroke="#fff" stroke-linecap="round" stroke-linejoin="round" stroke-width="4"/>
        <path id="Path_441" data-name="Path 441" d="M42.982,24.193A48.366,48.366,0,0,1,0,0" transform="translate(224.006 132.979)" fill="none" stroke="#fff" stroke-linecap="round" stroke-linejoin="round" stroke-width="4"/>
        <line id="Line_115" data-name="Line 115" x1="20.944" y1="38.229" transform="translate(203.057 94.753)" fill="none" stroke="#fff" stroke-linecap="round" stroke-linejoin="round" stroke-width="4"/>
        <path id="Path_442" data-name="Path 442" d="M4.315,43.386A30.889,30.889,0,0,1,.874,20.365C3.033,11.65,8.832,4.9,16.586.676L18.074,0" transform="translate(198.833 51.312)" fill="none" stroke="#fff" stroke-linecap="round" stroke-linejoin="round" stroke-width="4"/>
        <line id="Line_116" data-name="Line 116" y1="31.117" x2="73.753" transform="translate(216.907 20.195)" fill="none" stroke="#fff" stroke-linecap="round" stroke-linejoin="round" stroke-width="4"/>
        <path id="Path_443" data-name="Path 443" d="M23.9,0C13.3,4.916,5,13.532,1.615,24.908A39.6,39.6,0,0,0,.358,41.432C1.125,47.11,3.791,51.656,5.68,56.965" transform="translate(5.939 114.571)" fill="none" stroke="#fff" stroke-linecap="round" stroke-linejoin="round" stroke-width="4"/>
        <line id="Line_117" data-name="Line 117" y1="111.299" x2="263.794" transform="translate(177.125 272.125)" fill="none" stroke="#fff" stroke-linecap="round" stroke-linejoin="round" stroke-width="4"/>
        <line id="Line_118" data-name="Line 118" x2="103.434" y2="188.802" transform="translate(11.588 171.547)" fill="none" stroke="#fff" stroke-linecap="round" stroke-linejoin="round" stroke-width="4"/>
        <path id="Path_444" data-name="Path 444" d="M0,0A51.217,51.217,0,0,0,26.5,23.119,50.85,50.85,0,0,0,44.465,26.4c5.2.007,13.119-.25,17.564-3.281" transform="translate(115.097 360.308)" fill="none" stroke="#fff" stroke-linecap="round" stroke-linejoin="round" stroke-width="4"/>
        <path id="Path_445" data-name="Path 445" d="M0,21.722l3.921-1.9,3.66-2.288,3.362-2.65,3.03-2.985L16.64,8.608l2.278-3.561L21.71,0" transform="translate(434.74 260.603)" fill="none" stroke="#fff" stroke-linecap="round" stroke-linejoin="round" stroke-width="4"/>
        <path id="Path_446" data-name="Path 446" d="M10.169,0C6.542,5.759,2.892,11.2,1.235,17.926A42.247,42.247,0,0,0,5.483,48.96" transform="translate(0 132.743)" fill="none" stroke="#fff" stroke-linecap="round" stroke-linejoin="round" stroke-width="4"/>
        <line id="Line_119" data-name="Line 119" y1="111.299" x2="263.794" transform="translate(170.946 282.325)" fill="none" stroke="#fff" stroke-linecap="round" stroke-linejoin="round" stroke-width="4"/>
        <line id="Line_120" data-name="Line 120" x2="103.434" y2="188.802" transform="translate(5.409 181.746)" fill="none" stroke="#fff" stroke-linecap="round" stroke-linejoin="round" stroke-width="4"/>
        <path id="Path_447" data-name="Path 447" d="M0,0A52.19,52.19,0,0,0,27.737,23.513a51.019,51.019,0,0,0,34.417-.3" transform="translate(108.842 370.548)" fill="none" stroke="#fff" stroke-linecap="round" stroke-linejoin="round" stroke-width="4"/>
      </g>
    </g>
    <text id="tworzywa_biodegradowalne_" data-name="tworzywa 
biodegradowalne " transform="translate(599.789 2359.04)" fill="#fff" font-size="24" font-family="CeraRoundPro-Bold, Cera Round Pro" font-weight="700"><tspan x="0" y="24">tworzywa </tspan><tspan x="0" y="54">biodegradowalne </tspan></text>
    <path id="Path_598" data-name="Path 598" d="M10335.6,2276.944H10145.5l-50.921,50.919" transform="translate(-9564.574 158.262)" fill="none" stroke="#fff" stroke-linejoin="bevel" stroke-width="4"/>
    <path id="Path_595" data-name="Path 595" d="M10094.575,2327.863h134.956l50.919-50.919" transform="translate(-9890.961 496.161)" fill="none" stroke="#fff" stroke-linejoin="bevel" stroke-width="4"/>
    <path id="Path_1389" data-name="Path 1389" d="M10117.61,2276.944h111.921l50.919,50.919" transform="translate(-9918.996 237.725)" fill="none" stroke="#fff" stroke-linejoin="bevel" stroke-width="4"/>
    <path id="Path_1388" data-name="Path 1388" d="M10280.45,2327.863h-134.956l-50.919-50.919" transform="translate(-9557.543 463.609)" fill="none" stroke="#fff" stroke-linejoin="bevel" stroke-width="4"/>
    <text id="polipropylen" transform="translate(172 2830.271)" fill="#fff" font-size="24" font-family="CeraRoundPro-Bold, Cera Round Pro" font-weight="700"><tspan x="0" y="24">polipropylen</tspan></text>
    <text id="biotworzywa" transform="translate(606.969 2797.719)" fill="#fff" font-size="24" font-family="CeraRoundPro-Bold, Cera Round Pro" font-weight="700"><tspan x="0" y="24">biotworzywa</tspan></text>
    <text id="WPC" transform="translate(172 2474.946)" fill="#fff" font-size="24" font-family="CeraRoundPro-Bold, Cera Round Pro" font-weight="700"><tspan x="0" y="24">WPC</tspan></text>
  </g>
</svg>
