<svg id="Group_806" data-name="Group 806" xmlns="http://www.w3.org/2000/svg" width="166.039" height="52" viewBox="0 0 166.039 52">
  <path id="Path_373" data-name="Path 373" d="M174.7,301.124H154.2a11.472,11.472,0,0,1-11.473-11.473v-20.5a20.027,20.027,0,0,1,20.027-20.027h20.477a11.5,11.5,0,0,1,11.5,11.5V281.1A20.027,20.027,0,0,1,174.7,301.124Z" transform="translate(-142.73 -249.124)" fill="#c30010"/>
  <path id="Path_374" data-name="Path 374" d="M181.851,276.487h0a11.729,11.729,0,0,0-23.061-3.042h11.305v.012a3.042,3.042,0,0,1,0,6.084c-.022,0-.041-.012-.063-.013H158.336V285.2h23.515a3.042,3.042,0,1,1,0,6.084H158.336v5.456A3.259,3.259,0,0,0,161.6,300h20.256a11.757,11.757,0,0,0,0-23.514Z" transform="translate(-149.972 -256.372)" fill="#fff"/>
  <path id="Path_375" data-name="Path 375" d="M273.61,303.3c0,4.058-3.2,6.9-7.76,6.9h-8.009a2.374,2.374,0,0,1-2.455-2.457V289.167a2.374,2.374,0,0,1,2.455-2.457h5.874c4.379,0,7.439,2.67,7.439,6.549a5.579,5.579,0,0,1-1.743,4.237A5.885,5.885,0,0,1,273.61,303.3ZM260.049,290.84v5.374h3.31c1.886,0,3.062-1.031,3.062-2.7s-1.175-2.669-3.062-2.669Zm8.792,12.28c0-1.852-1.247-2.955-3.346-2.955h-5.446v5.91h5.446C267.594,306.075,268.841,305.006,268.841,303.12Z" transform="translate(-195.011 -266.567)" fill="#fff"/>
  <path id="Path_376" data-name="Path 376" d="M299.573,283.187a3.009,3.009,0,1,1-2.989-2.92A2.963,2.963,0,0,1,299.573,283.187Zm-5.41,22V291.623a2.4,2.4,0,1,1,4.805,0v13.561a2.4,2.4,0,1,1-4.805,0Z" transform="translate(-212.725 -263.577)" fill="#fff"/>
  <path id="Path_377" data-name="Path 377" d="M375.812,304.021v8.9a2.339,2.339,0,0,1-2.385,2.457,2.38,2.38,0,0,1-2.384-2.457v-8.259a3.178,3.178,0,0,0-3.275-3.416,3.252,3.252,0,0,0-3.346,3.416v8.259a2.36,2.36,0,0,1-2.385,2.457,2.388,2.388,0,0,1-2.42-2.457V299.359A2.35,2.35,0,0,1,362,296.937a2.286,2.286,0,0,1,2.243,1.817,7.271,7.271,0,0,1,4.947-1.817C373.214,296.937,375.812,299.713,375.812,304.021Z" transform="translate(-243.381 -271.313)" fill="#fff"/>
  <path id="Path_378" data-name="Path 378" d="M411.937,305.2v.107a2.406,2.406,0,0,1-2.635,2.457H399.265c.569,2.206,2.349,3.487,4.948,3.487a6.954,6.954,0,0,0,3.666-1.033,1.944,1.944,0,0,1,1.033-.32,1.9,1.9,0,0,1,1.957,1.923,2.2,2.2,0,0,1-1.21,1.921,10,10,0,0,1-5.588,1.638c-5.553,0-9.647-3.951-9.647-9.221a9.008,9.008,0,0,1,9.148-9.219A8.073,8.073,0,0,1,411.937,305.2Zm-12.672-.818h8.008a3.564,3.564,0,0,0-3.807-3.56A4.284,4.284,0,0,0,399.265,304.378Z" transform="translate(-259.534 -271.313)" fill="#fff"/>
  <path id="Path_379" data-name="Path 379" d="M442.867,299.287a2.29,2.29,0,0,1-2.242,2.313,4.179,4.179,0,0,0-4.129,4.556v6.764a2.36,2.36,0,0,1-2.385,2.457,2.388,2.388,0,0,1-2.421-2.457V299.359a2.351,2.351,0,0,1,2.385-2.422,2.306,2.306,0,0,1,2.314,2.171,5.74,5.74,0,0,1,4.307-1.993A2.056,2.056,0,0,1,442.867,299.287Z" transform="translate(-276.828 -271.313)" fill="#fff"/>
  <path id="Path_380" data-name="Path 380" d="M330.845,307.181c-.177,0-.392.034-.676.034-2.243,0-3.168-.783-3.168-2.741v-6.941h3.239a2.029,2.029,0,0,0,0-4.058H327v-2.419a2.4,2.4,0,1,0-4.805,0v2.419h-7.444v-2.419a2.4,2.4,0,1,0-4.805,0v2.419h-1a2.029,2.029,0,1,0,0,4.058h1v7.37c0,4.306,2.456,6.621,7.047,6.621a4.3,4.3,0,0,0,2.082-.439,2.051,2.051,0,0,0,1.211-1.923,1.909,1.909,0,0,0-2.1-1.956c-.177,0,.018.01-.265.01-2.243,0-3.168-.783-3.168-2.741v-6.941H322.2v7.37c0,4.306,2.455,6.621,7.047,6.621a6.209,6.209,0,0,0,2.491-.464,2.05,2.05,0,0,0,1.211-1.923A1.909,1.909,0,0,0,330.845,307.181Z" transform="translate(-218.91 -267.46)" fill="#fff"/>
</svg>
