<svg xmlns="http://www.w3.org/2000/svg" width="46.915" height="46.915" viewBox="0 0 46.915 46.915">
  <g id="Group_895" data-name="Group 895" transform="translate(0 0)">
    <path id="Path_373" data-name="Path 373" d="M171.577,296.039h-18.5a10.351,10.351,0,0,1-10.351-10.351v-18.5A18.069,18.069,0,0,1,160.8,249.124h18.475A10.372,10.372,0,0,1,189.645,259.5v18.475A18.069,18.069,0,0,1,171.577,296.039Z" transform="translate(-142.73 -249.124)" fill="#c30010"/>
    <path id="Path_374" data-name="Path 374" d="M179.552,275.338h0a10.582,10.582,0,0,0-20.806-2.745h10.2v.011a2.745,2.745,0,1,1,0,5.489c-.02,0-.037-.011-.057-.012H158.336V283.2h21.216a2.744,2.744,0,1,1,0,5.489H158.336v4.923a2.94,2.94,0,0,0,2.94,2.94h18.275a10.608,10.608,0,1,0,0-21.215Z" transform="translate(-150.791 -257.19)" fill="#fff"/>
  </g>
</svg>
