<svg xmlns="http://www.w3.org/2000/svg" width="163.584" height="191.044" viewBox="0 0 163.584 191.044">
  <g id="Group_798" data-name="Group 798" transform="translate(-1328.809 -297.453)">
    <g id="Group_793" data-name="Group 793" transform="translate(1392.67 466.328)">
      <g id="Group_792" data-name="Group 792">
        <path id="Path_2300" data-name="Path 2300" d="M1381.8,438.075h7.727a14.675,14.675,0,0,1,3.23.34,7.248,7.248,0,0,1,2.63,1.137,5.568,5.568,0,0,1,1.77,2.111,8.221,8.221,0,0,1-.017,6.444,6.235,6.235,0,0,1-1.8,2.241,7.7,7.7,0,0,1-2.631,1.3,11.676,11.676,0,0,1-3.182.421H1386.6v7.177h-4.8Zm7.435,10.2q3.9,0,3.9-3.377a2.635,2.635,0,0,0-.99-2.338,5.122,5.122,0,0,0-2.906-.682H1386.6v6.4Z" transform="translate(-1381.796 -438.075)" fill="none" stroke="#fff" stroke-width="2"/>
        <path id="Path_2301" data-name="Path 2301" d="M1398.342,438.075h7.728a14.675,14.675,0,0,1,3.229.34,7.261,7.261,0,0,1,2.631,1.137,5.558,5.558,0,0,1,1.769,2.111,8.243,8.243,0,0,1-.016,6.444,6.24,6.24,0,0,1-1.8,2.241,7.665,7.665,0,0,1-2.63,1.3,11.661,11.661,0,0,1-3.181.421h-2.923v7.177h-4.805Zm7.436,10.2q3.9,0,3.9-3.377a2.635,2.635,0,0,0-.991-2.338,5.122,5.122,0,0,0-2.9-.682h-2.631v6.4Z" transform="translate(-1378.374 -438.075)" fill="none" stroke="#fff" stroke-width="2"/>
      </g>
    </g>
    <g id="Group_797" data-name="Group 797" transform="translate(1329.768 298.453)">
      <g id="Group_795" data-name="Group 795" transform="translate(66.747 72.724)">
        <g id="Group_794" data-name="Group 794">
          <path id="Path_2302" data-name="Path 2302" d="M1392.093,389.512a7.315,7.315,0,0,0,1.728,3.826,4.886,4.886,0,0,0,3.723,1.347,5.021,5.021,0,0,0,4.294-1.986,8.155,8.155,0,0,0,1.476-5,8.7,8.7,0,0,0-1.384-5,4.837,4.837,0,0,0-4.306-2.039,7.4,7.4,0,0,0-2.393.348,4.757,4.757,0,0,0-2.686,2.371l-6.81-.319,2.713-21.349h21.263v6.45h-15.783l-1.383,8.449a15.87,15.87,0,0,1,2.741-1.519,11.591,11.591,0,0,1,4.02-.613,12.066,12.066,0,0,1,8.357,3.225q3.568,3.226,3.566,9.383a14.729,14.729,0,0,1-3.433,9.566q-3.438,4.214-10.278,4.212a13.641,13.641,0,0,1-9.052-2.958,11.5,11.5,0,0,1-3.941-8.4Z" transform="translate(-1384.523 -361.715)" fill="none" stroke="#fff" stroke-width="2"/>
        </g>
      </g>
      <g id="Group_796" data-name="Group 796">
        <path id="Path_2303" data-name="Path 2303" d="M1429.056,347.829l-9.014,4.751a.427.427,0,0,0,.072.787l25.356,7.849a.429.429,0,0,0,.536-.282l7.855-25.354a.429.429,0,0,0-.609-.506l-9.016,4.752a.427.427,0,0,1-.576-.174c-10.214-18.77-20.093-38.523-39.326-38.2-18.241.332-27.048,17.281-46.162,54.019a.43.43,0,0,0,.18.58l13.7,7.132a.432.432,0,0,0,.579-.186c28.56-54.856,32.434-60.008,56.6-15.762A.433.433,0,0,1,1429.056,347.829Z" transform="translate(-1323.235 -301.453)" fill="none" stroke="#fff" stroke-width="2"/>
        <path id="Path_2304" data-name="Path 2304" d="M1448.813,357.205l-13.032,8.291a.432.432,0,0,0-.129.595c33.174,52.159,35.7,58.118-14.689,56.885a.434.434,0,0,1-.424-.445l.4-10.182a.428.428,0,0,0-.718-.331l-19.489,18.021a.428.428,0,0,0-.024.6l18.016,19.492a.428.428,0,0,0,.742-.274l.4-10.184a.428.428,0,0,1,.438-.412c21.4.556,43.435,1.891,52.754-14.921,8.845-15.956-1.38-31.992-23.653-67A.432.432,0,0,0,1448.813,357.205Z" transform="translate(-1314.452 -289.937)" fill="none" stroke="#fff" stroke-width="2"/>
        <path id="Path_2305" data-name="Path 2305" d="M1360.472,380.278l8.656,5.374a.428.428,0,0,0,.642-.461l-6.049-25.845a.427.427,0,0,0-.514-.319l-25.846,6.041a.429.429,0,0,0-.128.781l8.659,5.376a.429.429,0,0,1,.141.585c-11.148,18.5-23.061,36.887-13.072,53.24,9.172,15.02,26.214,14.719,69.946,12.517a.433.433,0,0,0,.41-.45l-.775-15.426a.432.432,0,0,0-.454-.405c-62.815,3.145-67.725,1.609-42.214-40.861A.432.432,0,0,1,1360.472,380.278Z" transform="translate(-1329.214 -289.549)" fill="none" stroke="#fff" stroke-width="2"/>
      </g>
    </g>
  </g>
</svg>
