<svg xmlns="http://www.w3.org/2000/svg" width="354.802" height="354.801" viewBox="0 0 354.802 354.801"><g transform="translate(-1264.443 -1374.611)"><path d="M740.129,1685.9a178.56,178.56,0,0,1,34.633,3.385A176.727,176.727,0,0,1,807.119,1699a1,1,0,0,1,.083,1.813,201.482,201.482,0,0,0-32.474,20.736,1,1,0,0,1-.853.19,146.276,146.276,0,0,0-33.746-3.941c-80.232,0-145.5,65.273-145.5,145.5A144.7,144.7,0,0,0,706.4,2004.868a710.122,710.122,0,0,1,4.352-97.533c-5.857-26.228-17.684-50.784-37.09-76.92,4.469,17.423,13.367,40.84,24.831,65.236,1.012,2.15,2.06,4.342,3.113,6.513a1,1,0,0,1-1.19,1.394,94.681,94.681,0,0,1-33.841-18.46,93.889,93.889,0,0,1-13.615-14.318,95.224,95.224,0,0,1-17.681-38.739,94.108,94.108,0,0,1,1.241-42.878,95.108,95.108,0,0,1,7.733-19.891,1,1,0,0,1,1.1-.512,104.469,104.469,0,0,1,28.329,10.527,96.163,96.163,0,0,1,22.174,16.946,111.5,111.5,0,0,1,16.627,22.143,146.423,146.423,0,0,1,10.655,23.063c2.322-8.618,4.9-16.964,7.681-24.851a281.047,281.047,0,0,1,10.793-26.4,226.582,226.582,0,0,1,13.3-24.324A185.7,185.7,0,0,1,770.94,1744.1a158.528,158.528,0,0,1,18.983-18.7,144.041,144.041,0,0,1,47.687-26.226,163.3,163.3,0,0,1,29.11-6.529,1,1,0,0,1,1.052.6,142.665,142.665,0,0,1,11.021,62.968,141.25,141.25,0,0,1-5.519,32.264,142.013,142.013,0,0,1-106.7,98.958,1,1,0,0,1-1.069-1.489c1.862-3.134,3.718-6.3,5.516-9.413,21.009-36.391,37.774-71.563,46.515-97.484-61.021,68.391-83.851,133.273-81.1,229.694,1.391.037,2.582.054,3.7.054,80.231,0,145.5-65.273,145.5-145.5a145.2,145.2,0,0,0-7.809-47.129,1,1,0,0,1,.02-.7,290.9,290.9,0,0,0,13.405-41.791,1,1,0,0,1,1.834-.276,176.544,176.544,0,0,1,24.446,89.9,178.715,178.715,0,0,1-3.6,35.752,176.434,176.434,0,0,1-26.694,63.436,177.913,177.913,0,0,1-78.05,64.271,176.522,176.522,0,0,1-33.3,10.337,179.131,179.131,0,0,1-71.5,0,176.432,176.432,0,0,1-63.436-26.693,177.91,177.91,0,0,1-64.272-78.05,176.52,176.52,0,0,1-10.337-33.3,179.129,179.129,0,0,1,0-71.5,176.433,176.433,0,0,1,26.694-63.436,177.913,177.913,0,0,1,78.05-64.272,176.514,176.514,0,0,1,33.3-10.337A178.713,178.713,0,0,1,740.129,1685.9Zm64.229,14.145a174.415,174.415,0,0,0-64.229-12.145c-96.716,0-175.4,78.684-175.4,175.4s78.685,175.4,175.4,175.4,175.4-78.684,175.4-175.4a175.25,175.25,0,0,0-22.923-86.733,293.644,293.644,0,0,1-12.769,39.31A147.421,147.421,0,0,1,740.129,2010.8c-1.378,0-2.87-.026-4.7-.082a1,1,0,0,1-.969-.969c-.382-12.648-.314-24.878.2-36.348.52-11.586,1.518-22.85,2.964-33.48a306.844,306.844,0,0,1,5.833-31.062,273.381,273.381,0,0,1,8.806-29.09c13.325-36.458,34.6-70,66.939-105.559a1,1,0,0,1,1.694.972c-3.965,12.632-10.336,28.442-18.427,45.72C794,1839,784,1858.059,772.751,1877.538c-1.423,2.462-2.882,4.959-4.351,7.446a140.023,140.023,0,0,0,97.825-190.253c-70.775,9.662-118.54,60.241-141.981,150.346a1,1,0,0,1-1.914.073c-14.071-40.969-39.86-65.954-76.658-74.271A92.406,92.406,0,0,0,698.8,1900.946c-.715-1.487-1.423-2.975-2.114-4.444-6.34-13.492-11.881-26.635-16.469-39.063a255.361,255.361,0,0,1-9.625-31.246,1,1,0,0,1,1.77-.826,248.284,248.284,0,0,1,25.53,40.111,178.881,178.881,0,0,1,14.852,41.589,1,1,0,0,1,.017.335,709.562,709.562,0,0,0-4.332,98.71,1,1,0,0,1-1.222,1,146.377,146.377,0,0,1-45.585-18.918,148.276,148.276,0,0,1-36.31-32.292,146.882,146.882,0,0,1-32.686-92.6,148.576,148.576,0,0,1,3-29.725,146.7,146.7,0,0,1,22.2-52.745,147.938,147.938,0,0,1,64.9-53.441,146.763,146.763,0,0,1,27.689-8.6,148.666,148.666,0,0,1,63.461.887A201.866,201.866,0,0,1,804.358,1700.042Z" transform="translate(701.715 -311.286)" fill="#e3b814"/><path d="M685.45,1881h0a66.3,66.3,0,0,1-8.022-.489,1,1,0,0,1-.525-1.755c1.344-1.138,2.583-2.2,3.79-3.249,13.44-11.667,25.143-23.417,32.865-32.943-10.523,6.311-23.8,16.248-37.234,27.91-1.235,1.072-2.5,2.181-3.749,3.3a1,1,0,0,1-1.664-.766,65.808,65.808,0,0,1,5.947-26.125,65.287,65.287,0,0,1,7-11.816,66.012,66.012,0,0,1,9.642-10.377,65.357,65.357,0,0,1,42.989-16.069,66.132,66.132,0,0,1,13.616,1.419,1,1,0,0,1,.791.912,65.917,65.917,0,0,1-4.676,29.162A65.548,65.548,0,0,1,685.45,1881Zm-5.475-2.235c1.821.156,3.654.235,5.474.235a63.624,63.624,0,0,0,63.5-67.161A63.623,63.623,0,0,0,673,1870.724q1.014-.892,2.016-1.762c7.794-6.767,15.507-12.936,22.924-18.335a176.928,176.928,0,0,1,19.025-12.313,1,1,0,0,1,1.28,1.474,176.744,176.744,0,0,1-14.863,17.106c-6.386,6.583-13.578,13.353-21.375,20.121C681.34,1877.591,680.668,1878.17,679.975,1878.764Z" transform="translate(773.104 -230.305)" fill="#e3b814"/></g></svg>