<svg xmlns="http://www.w3.org/2000/svg" width="143.308" height="143.299" viewBox="0 0 143.308 143.299">
  <g id="Group_696" data-name="Group 696" transform="translate(0)">
    <g id="Ellipse_102" data-name="Ellipse 102" transform="translate(0 97.285)" fill="none" stroke="#fff" stroke-miterlimit="10" stroke-width="5">
      <ellipse cx="23.007" cy="23.007" rx="23.007" ry="23.007" stroke="none"/>
      <ellipse cx="23.007" cy="23.007" rx="20.507" ry="20.507" fill="none"/>
    </g>
    <g id="Ellipse_103" data-name="Ellipse 103" transform="translate(0 48.643)" fill="none" stroke="#fff" stroke-miterlimit="10" stroke-width="5">
      <ellipse cx="23.007" cy="23.007" rx="23.007" ry="23.007" stroke="none"/>
      <ellipse cx="23.007" cy="23.007" rx="20.507" ry="20.507" fill="none"/>
    </g>
    <g id="Group_695" data-name="Group 695" transform="translate(49.73 49.721)">
      <g id="Ellipse_104" data-name="Ellipse 104" fill="none" stroke="#fff" stroke-miterlimit="10" stroke-width="5">
        <ellipse cx="46.789" cy="46.789" rx="46.789" ry="46.789" stroke="none"/>
        <ellipse cx="46.789" cy="46.789" rx="44.289" ry="44.289" fill="none"/>
      </g>
      <g id="Ellipse_105" data-name="Ellipse 105" transform="translate(23.782 23.782)" fill="none" stroke="#fff" stroke-miterlimit="10" stroke-width="5">
        <ellipse cx="23.007" cy="23.007" rx="23.007" ry="23.007" stroke="none"/>
        <ellipse cx="23.007" cy="23.007" rx="20.507" ry="20.507" fill="none"/>
      </g>
    </g>
    <g id="Ellipse_106" data-name="Ellipse 106" transform="translate(0 0)" fill="none" stroke="#fff" stroke-miterlimit="10" stroke-width="5">
      <ellipse cx="23.007" cy="23.007" rx="23.007" ry="23.007" stroke="none"/>
      <ellipse cx="23.007" cy="23.007" rx="20.507" ry="20.507" fill="none"/>
    </g>
    <g id="Ellipse_107" data-name="Ellipse 107" transform="translate(48.648 0)" fill="none" stroke="#fff" stroke-miterlimit="10" stroke-width="5">
      <ellipse cx="23.007" cy="23.007" rx="23.007" ry="23.007" stroke="none"/>
      <ellipse cx="23.007" cy="23.007" rx="20.507" ry="20.507" fill="none"/>
    </g>
    <g id="Ellipse_108" data-name="Ellipse 108" transform="translate(97.295 0)" fill="none" stroke="#fff" stroke-miterlimit="10" stroke-width="5">
      <ellipse cx="23.007" cy="23.007" rx="23.007" ry="23.007" stroke="none"/>
      <ellipse cx="23.007" cy="23.007" rx="20.507" ry="20.507" fill="none"/>
    </g>
  </g>
</svg>
