<svg xmlns="http://www.w3.org/2000/svg" width="141.489" height="142.41" viewBox="0 0 141.489 142.41">
  <g id="Group_697" data-name="Group 697" transform="translate(0)">
    <g id="Ellipse_109" data-name="Ellipse 109" transform="translate(18.633 0.003)" fill="none" stroke="#fff" stroke-miterlimit="10" stroke-width="5">
      <ellipse cx="26.168" cy="32.618" rx="26.168" ry="32.618" stroke="none"/>
      <ellipse cx="26.168" cy="32.618" rx="23.668" ry="30.118" fill="none"/>
    </g>
    <path id="Path_1394" data-name="Path 1394" d="M368.3,101.917v80.5" transform="translate(-323.501 -40.008)" fill="none" stroke="#fff" stroke-linejoin="round" stroke-width="5"/>
    <g id="Ellipse_110" data-name="Ellipse 110" transform="translate(0 110.257)" fill="none" stroke="#fff" stroke-miterlimit="10" stroke-width="5">
      <ellipse cx="14.365" cy="16.076" rx="14.365" ry="16.076" stroke="none"/>
      <ellipse cx="14.365" cy="16.076" rx="11.865" ry="13.576" fill="none"/>
    </g>
    <path id="Path_1395" data-name="Path 1395" d="M363.86,154.418V101.823" transform="translate(-349.498 -40.559)" fill="none" stroke="#fff" stroke-linejoin="round" stroke-width="5"/>
    <path id="Path_1396" data-name="Path 1396" d="M382.04,104.708v61.367" transform="translate(-243.052 -23.666)" fill="none" stroke="#fff" stroke-linejoin="round" stroke-width="5"/>
    <line id="Line_478" data-name="Line 478" y1="28.823" transform="translate(89.324 113.584)" fill="none" stroke="#fff" stroke-linejoin="round" stroke-width="5"/>
    <line id="Line_479" data-name="Line 479" y1="0.017" transform="translate(89.323 113.576)" fill="none" stroke="#fff" stroke-linecap="round" stroke-linejoin="round" stroke-width="5"/>
    <line id="Line_480" data-name="Line 480" y1="99.638" transform="translate(89.324 0)" fill="none" stroke="#fff" stroke-linejoin="round" stroke-width="5"/>
    <path id="Rectangle_562" data-name="Rectangle 562" d="M0,0H12.991A12.991,12.991,0,0,1,25.982,12.991V51.579A25.982,25.982,0,0,1,0,77.562H0a0,0,0,0,1,0,0V0A0,0,0,0,1,0,0Z" transform="translate(138.988 81.044) rotate(180)" fill="none" stroke="#fff" stroke-miterlimit="10" stroke-width="5"/>
    <path id="Path_1397" data-name="Path 1397" d="M372.449,150.19V122.269c0-8.2,7.2-14.848,16.082-14.848h0c8.884,0,16.082,6.649,16.082,14.848V150.19" transform="translate(-299.208 -7.782)" fill="none" stroke="#fff" stroke-linejoin="round" stroke-width="5"/>
  </g>
</svg>
