<svg xmlns="http://www.w3.org/2000/svg" width="144.813" height="144.813" viewBox="0 0 144.813 144.813">
  <g id="Group_694" data-name="Group 694" transform="translate(2.5 2.5)">
    <path id="Path_1392" data-name="Path 1392" d="M473.265,104.4l-2.877,33.8H458.98l-2.877-7.545H445.853l-2.877,7.545H431.568l-2.877-7.545H418.441l-2.877,7.545H404.156l-2.877-7.545H391.028l-2.877,7.545H376.744l-2.877-7.545h-10.25l-2.877,7.545H349.331l-2.877-33.8h-6.507V93.387H479.761V104.4Z" transform="translate(-339.948 -93.387)" fill="none" stroke="#fff" stroke-linejoin="round" stroke-width="5"/>
    <path id="Path_1393" data-name="Path 1393" d="M473.265,113.358l-2.877,65.475H458.98l-2.877-7.545H445.853l-2.877,7.545H431.568l-2.877-7.545H418.441l-2.877,7.545H404.156l-2.877-7.545H391.028l-2.877,7.545H376.744l-2.877-7.545h-10.25l-2.877,7.545H349.331l-2.877-65.475h-6.507V102.343H479.761v11.014Z" transform="translate(-339.948 -39.02)" fill="none" stroke="#fff" stroke-linejoin="round" stroke-width="5"/>
  </g>
</svg>
