<svg xmlns="http://www.w3.org/2000/svg" width="540.141" height="511.919" viewBox="0 0 540.141 511.919">
  <g id="Group_905" data-name="Group 905" transform="translate(-301.5 -5271.5)">
    <path id="Subtraction_2" data-name="Subtraction 2" d="M21.221,34.515H7.614A7.615,7.615,0,0,1,0,26.9V13.292A13.291,13.291,0,0,1,13.292,0H26.884a7.632,7.632,0,0,1,7.631,7.63v13.59A13.3,13.3,0,0,1,21.221,34.515ZM5.552,23.173v3.62a2.166,2.166,0,0,0,2.162,2.165H21.158a7.8,7.8,0,1,0,0-15.608A7.785,7.785,0,0,0,5.85,11.332h7.5v.007a2.019,2.019,0,1,1,0,4.038.075.075,0,0,1-.021,0,.092.092,0,0,0-.022,0H5.552v3.765H21.158a2.019,2.019,0,1,1,0,4.038Z" transform="translate(555 5506)" fill="#fff" stroke="rgba(0,0,0,0)" stroke-miterlimit="10" stroke-width="1"/>
    <g id="Group_652" data-name="Group 652" transform="translate(303 5273)">
      <g id="Warstwa_3" data-name="Warstwa 3" transform="translate(42.746 26.722)">
        <path id="Path_784" data-name="Path 784" d="M1011.584,2856.386c0-119.977-97.261-217.238-217.238-217.238s-217.238,97.261-217.238,217.238,97.26,217.238,217.238,217.238,217.238-97.26,217.238-217.238" transform="translate(-570.643 -2632.682)" fill="none" stroke="#fff" stroke-linecap="round" stroke-miterlimit="10" stroke-width="3"/>
        <path id="Path_785" data-name="Path 785" d="M572.475,2853.138c0,120.743,97.881,218.624,218.624,218.624s218.623-97.881,218.623-218.624S911.841,2634.515,791.1,2634.515,572.475,2732.4,572.475,2853.138" transform="translate(-567.395 -2629.435)" fill="none" stroke="#fff" stroke-linecap="round" stroke-miterlimit="10" stroke-width="3"/>
        <path id="Path_786" data-name="Path 786" d="M1002.9,2841.234c0-123.548-100.156-223.7-223.7-223.7s-223.7,100.155-223.7,223.7,100.156,223.7,223.7,223.7,223.7-100.156,223.7-223.7" transform="translate(-555.491 -2617.531)" fill="none" stroke="#fff" stroke-linecap="round" stroke-miterlimit="10" stroke-width="3"/>
        <path id="Path_787" data-name="Path 787" d="M804.058,3015.455A149.357,149.357,0,1,0,953.415,2866.1a149.357,149.357,0,0,0-149.357,149.357" transform="translate(-729.712 -2791.751)" fill="none" stroke="#fff" stroke-linecap="round" stroke-miterlimit="10" stroke-width="3"/>
        <path id="Path_788" data-name="Path 788" d="M820.727,3027.138A144.372,144.372,0,1,0,965.1,2882.767a144.372,144.372,0,0,0-144.372,144.371" transform="translate(-741.395 -2803.435)" fill="none" stroke="#fff" stroke-linecap="round" stroke-miterlimit="10" stroke-width="3"/>
        <path id="Path_789" data-name="Path 789" d="M987.662,3144.143A94.441,94.441,0,1,0,1082.1,3049.7a94.441,94.441,0,0,0-94.441,94.441" transform="translate(-858.4 -2920.44)" fill="none" stroke="#fff" stroke-linecap="round" stroke-miterlimit="10" stroke-width="3"/>
        <path id="Path_790" data-name="Path 790" d="M963.184,3126.986a101.763,101.763,0,1,0,101.763-101.762,101.763,101.763,0,0,0-101.763,101.762" transform="translate(-841.243 -2903.283)" fill="none" stroke="#fff" stroke-linecap="round" stroke-miterlimit="10" stroke-width="3"/>
        <path id="Path_791" data-name="Path 791" d="M680.1,3152.84a12.1,12.1,0,0,0,.79,9.449" transform="translate(-642.405 -2992.729)" fill="none" stroke="#fff" stroke-linecap="round" stroke-linejoin="round" stroke-width="3"/>
        <path id="Path_792" data-name="Path 792" d="M680.864,3546.473a12.047,12.047,0,0,0-.784,9.448" transform="translate(-642.381 -3268.626)" fill="none" stroke="#fff" stroke-linecap="round" stroke-linejoin="round" stroke-width="3"/>
        <path id="Path_793" data-name="Path 793" d="M1922.673,3546.473a11.982,11.982,0,0,1,.788,9.449" transform="translate(-1513.749 -3268.626)" fill="none" stroke="#fff" stroke-linecap="round" stroke-linejoin="round" stroke-width="3"/>
        <path id="Path_794" data-name="Path 794" d="M1922.672,3162.29a12.236,12.236,0,0,0,.789-9.449" transform="translate(-1513.748 -2992.729)" fill="none" stroke="#fff" stroke-linecap="round" stroke-linejoin="round" stroke-width="3"/>
        <path id="Path_795" data-name="Path 795" d="M684.029,3184.433c3.612,7.515,6.994,14.96,9.286,23.005a114.213,114.213,0,0,1,4.27,26.317q.127,2.937.1,5.878a114.084,114.084,0,0,1-13.711,53.056" transform="translate(-645.545 -3014.872)" fill="none" stroke="#fff" stroke-linecap="round" stroke-linejoin="round" stroke-width="3"/>
        <path id="Path_796" data-name="Path 796" d="M1890.649,3292.719c-7.71-15.861-12.919-32.147-13.587-49.907q-.05-1.326-.068-2.653a112.811,112.811,0,0,1,11.614-51.572q1.034-2.069,2.041-4.154" transform="translate(-1481.725 -3014.872)" fill="none" stroke="#fff" stroke-linecap="round" stroke-linejoin="round" stroke-width="3"/>
        <path id="Path_797" data-name="Path 797" d="M684.1,3183.321c1.925-1.031,4.295-.048,6.13,1.135a41.694,41.694,0,0,1,11.4,11.717,71.678,71.678,0,0,1,5.211,8.9c5.376,10.907,8.344,23.661,7.5,35.856-.1,1.483-.213,2.972-.367,4.452a72.171,72.171,0,0,1-13.412,34.9,38.22,38.22,0,0,1-10.875,10.562c-1.7,1.017-3.886,1.829-5.585.813" transform="translate(-645.635 -3013.79)" fill="none" stroke="#fff" stroke-linecap="round" stroke-linejoin="round" stroke-width="3"/>
        <path id="Path_798" data-name="Path 798" d="M1851.659,3183.046c-2.032-1.734-5.827.772-7.467,2.013a49.65,49.65,0,0,0-12.169,14.039,73.854,73.854,0,0,0-10.656,39.416c.295,16.484,6.493,34.525,18.073,46.53q1.651,1.71,3.457,3.261c2.114,1.813,5.882,4.694,8.763,3.028" transform="translate(-1442.735 -3013.486)" fill="none" stroke="#fff" stroke-linecap="round" stroke-linejoin="round" stroke-width="3"/>
        <path id="Path_799" data-name="Path 799" d="M1849.975,3151.509a3.292,3.292,0,0,0-2.313-.533,6.862,6.862,0,0,0-2.29.77c-8.364,4.239-13.935,13.609-17.953,21.7a95.2,95.2,0,0,0,.395,84.116c3.881,7.632,8.941,14.858,15.868,19.891,1.844,1.34,4.381,2.523,6.282,1.265" transform="translate(-1440.258 -2991.405)" fill="none" stroke="#fff" stroke-linecap="round" stroke-linejoin="round" stroke-width="3"/>
        <path id="Path_800" data-name="Path 800" d="M681.407,3278.818c2.183,1.581,5.35-.444,7.123-1.8,5.27-4.044,9.338-9.466,12.7-15.193a90.776,90.776,0,0,0,11.981-36.793,94.892,94.892,0,0,0-4.092-38.916,89.66,89.66,0,0,0-7.868-17.449c-3.413-5.806-7.55-11.3-12.913-15.372-2.018-1.533-4.722-2.893-6.981-1.744" transform="translate(-643.712 -2991.522)" fill="none" stroke="#fff" stroke-linecap="round" stroke-linejoin="round" stroke-width="3"/>
        <path id="Path_801" data-name="Path 801" d="M1023.738,2980.1c-1.264,3.305-2.7,6.548-4.228,9.751l-.349.726q-2.964,6.15-6.287,12.119-3.339,5.969-7.1,11.691-.435.66-.875,1.315-5.411,8.047-11.588,15.545c-4.119,5-8.546,9.524-13.122,14.085a185.78,185.78,0,0,1-25.113,20.922,196.907,196.907,0,0,1-28.293,16.334,205.539,205.539,0,0,1-30.616,11.562,208.678,208.678,0,0,1-32.082,6.608,205.054,205.054,0,0,1-32.69,1.473,196.146,196.146,0,0,1-32.44-3.844,184.925,184.925,0,0,1-31.18-9.283c-71.814-28.546-123.061-102.622-124.45-179.889s47.162-153.137,117.9-184.247,159.473-15.609,215.479,37.639q3.938,3.745,7.646,7.721t7.2,8.188q3.474,4.2,6.7,8.588a194.8,194.8,0,0,1,14.337,22.657,204.4,204.4,0,0,1,11.02,23.92,207.937,207.937,0,0,1,8.241,26.729q.7,2.964,1.313,5.946,1.1,5.351,1.919,10.753t1.351,10.835q.532,5.431.776,10.885t.2,10.906q-.049,5.45-.394,10.892t-.99,10.85q-.645,5.406-1.593,10.773t-2.2,10.667q-1.256,5.3-2.821,10.528c-1.383,4.613-3.012,9.138-4.587,13.687Q1024.3,2978.629,1023.738,2980.1Z" transform="translate(-617.036 -2681.679)" fill="none" stroke="#fff" stroke-linecap="round" stroke-linejoin="round" stroke-width="3"/>
      </g>
      <g id="Warstwa_5" data-name="Warstwa 5" transform="translate(0 0)">
        <g id="Group_651" data-name="Group 651" transform="translate(0)">
          <line id="Line_193" data-name="Line 193" y2="5.93" transform="translate(266.45 502.989)" fill="none" stroke="#fff" stroke-linecap="round" stroke-linejoin="round" stroke-width="3"/>
          <line id="Line_194" data-name="Line 194" y2="35.582" transform="translate(266.45 461.477)" fill="none" stroke="#fff" stroke-linecap="round" stroke-linejoin="round" stroke-width="3"/>
          <line id="Line_195" data-name="Line 195" y2="35.582" transform="translate(266.45 408.105)" fill="none" stroke="#fff" stroke-linecap="round" stroke-linejoin="round" stroke-width="3"/>
          <line id="Line_196" data-name="Line 196" y2="35.582" transform="translate(266.45 354.732)" fill="none" stroke="#fff" stroke-linecap="round" stroke-linejoin="round" stroke-width="3"/>
          <line id="Line_197" data-name="Line 197" y2="5.93" transform="translate(266.45 342.871)" fill="none" stroke="#fff" stroke-linecap="round" stroke-linejoin="round" stroke-width="3"/>
          <line id="Line_198" data-name="Line 198" y2="35.582" transform="translate(266.45 301.359)" fill="none" stroke="#fff" stroke-linecap="round" stroke-linejoin="round" stroke-width="3"/>
          <line id="Line_199" data-name="Line 199" y2="5.93" transform="translate(266.45 289.498)" fill="none" stroke="#fff" stroke-linecap="round" stroke-linejoin="round" stroke-width="3"/>
          <line id="Line_200" data-name="Line 200" y2="5.93" transform="translate(266.45 214.552)" fill="none" stroke="#fff" stroke-linecap="round" stroke-linejoin="round" stroke-width="3"/>
          <line id="Line_201" data-name="Line 201" y2="35.582" transform="translate(266.45 173.04)" fill="none" stroke="#fff" stroke-linecap="round" stroke-linejoin="round" stroke-width="3"/>
          <line id="Line_202" data-name="Line 202" y2="5.93" transform="translate(266.45 161.18)" fill="none" stroke="#fff" stroke-linecap="round" stroke-linejoin="round" stroke-width="3"/>
          <line id="Line_203" data-name="Line 203" y2="35.582" transform="translate(266.45 119.667)" fill="none" stroke="#fff" stroke-linecap="round" stroke-linejoin="round" stroke-width="3"/>
          <line id="Line_204" data-name="Line 204" y2="35.582" transform="translate(266.45 34.496)" fill="none" stroke="#fff" stroke-linecap="round" stroke-linejoin="round" stroke-width="3"/>
          <line id="Line_205" data-name="Line 205" y2="28.566" transform="translate(266.45)" fill="none" stroke="#fff" stroke-linecap="round" stroke-linejoin="round" stroke-width="3"/>
          <line id="Line_206" data-name="Line 206" x1="6.14" transform="translate(69.969 250.425)" fill="none" stroke="#fff" stroke-linecap="round" stroke-linejoin="round" stroke-width="3"/>
          <line id="Line_207" data-name="Line 207" x1="36.84" transform="translate(69.53 250.425)" fill="none" stroke="#fff" stroke-linecap="round" stroke-linejoin="round" stroke-width="3"/>
          <line id="Line_208" data-name="Line 208" x1="36.84" transform="translate(124.79 250.425)" fill="none" stroke="#fff" stroke-linecap="round" stroke-linejoin="round" stroke-width="3"/>
          <line id="Line_209" data-name="Line 209" x2="6.579" transform="translate(173.91 250.425)" fill="none" stroke="#fff" stroke-linecap="round" stroke-linejoin="round" stroke-width="3"/>
          <line id="Line_210" data-name="Line 210" x1="36.84" transform="translate(180.05 250.425)" fill="none" stroke="#fff" stroke-linecap="round" stroke-linejoin="round" stroke-width="3"/>
          <line id="Line_211" data-name="Line 211" x1="6.14" transform="translate(223.031 250.425)" fill="none" stroke="#fff" stroke-linecap="round" stroke-linejoin="round" stroke-width="3"/>
          <line id="Line_212" data-name="Line 212" x1="6.14" transform="translate(307.97 250.425)" fill="none" stroke="#fff" stroke-linecap="round" stroke-linejoin="round" stroke-width="3"/>
          <line id="Line_213" data-name="Line 213" x1="36.84" transform="translate(320.25 250.425)" fill="none" stroke="#fff" stroke-linecap="round" stroke-linejoin="round" stroke-width="3"/>
          <line id="Line_214" data-name="Line 214" x1="36.84" transform="translate(375.51 250.425)" fill="none" stroke="#fff" stroke-linecap="round" stroke-linejoin="round" stroke-width="3"/>
          <line id="Line_215" data-name="Line 215" x1="36.84" transform="translate(430.77 250.425)" fill="none" stroke="#fff" stroke-linecap="round" stroke-linejoin="round" stroke-width="3"/>
          <line id="Line_216" data-name="Line 216" x1="36.84" transform="translate(469.071 250.425)" fill="none" stroke="#fff" stroke-linecap="round" stroke-linejoin="round" stroke-width="3"/>
          <line id="Line_217" data-name="Line 217" x2="99.841" transform="translate(437.3 250.425)" fill="none" stroke="#fff" stroke-linecap="round" stroke-linejoin="round" stroke-width="3"/>
          <line id="Line_218" data-name="Line 218" x2="18.016" transform="translate(410.275 250.425)" fill="none" stroke="#fff" stroke-linecap="round" stroke-linejoin="round" stroke-width="3"/>
          <line id="Line_219" data-name="Line 219" x1="18.016" transform="translate(121.569 250.425)" fill="none" stroke="#fff" stroke-linecap="round" stroke-linejoin="round" stroke-width="3"/>
          <line id="Line_220" data-name="Line 220" x1="99.841" transform="translate(0 250.425)" fill="none" stroke="#fff" stroke-linecap="round" stroke-linejoin="round" stroke-width="3"/>
          <line id="Line_221" data-name="Line 221" y1="99.841" transform="translate(266.45 28.493)" fill="none" stroke="#fff" stroke-linecap="round" stroke-linejoin="round" stroke-width="3"/>
          <line id="Line_222" data-name="Line 222" y2="99.841" transform="translate(266.45 404.315)" fill="none" stroke="#fff" stroke-linecap="round" stroke-linejoin="round" stroke-width="3"/>
        </g>
        <line id="Line_223" data-name="Line 223" y2="5.93" transform="translate(266.45 449.616)" fill="none" stroke="#fff" stroke-linecap="round" stroke-linejoin="round" stroke-width="3"/>
        <line id="Line_224" data-name="Line 224" y2="5.93" transform="translate(266.45 396.244)" fill="none" stroke="#fff" stroke-linecap="round" stroke-linejoin="round" stroke-width="3"/>
        <line id="Line_225" data-name="Line 225" y2="5.93" transform="translate(266.45 107.807)" fill="none" stroke="#fff" stroke-linecap="round" stroke-linejoin="round" stroke-width="3"/>
        <line id="Line_226" data-name="Line 226" x1="6.14" transform="translate(14.709 250.425)" fill="none" stroke="#fff" stroke-linecap="round" stroke-linejoin="round" stroke-width="3"/>
        <line id="Line_227" data-name="Line 227" x1="36.84" transform="translate(26.989 250.425)" fill="none" stroke="#fff" stroke-linecap="round" stroke-linejoin="round" stroke-width="3"/>
        <line id="Line_228" data-name="Line 228" x1="6.14" transform="translate(125.23 250.425)" fill="none" stroke="#fff" stroke-linecap="round" stroke-linejoin="round" stroke-width="3"/>
        <line id="Line_229" data-name="Line 229" x2="10.819" transform="translate(352.411 250.425)" fill="none" stroke="#fff" stroke-linecap="round" stroke-linejoin="round" stroke-width="3"/>
        <line id="Line_230" data-name="Line 230" x1="6.14" transform="translate(401.531 250.425)" fill="none" stroke="#fff" stroke-linecap="round" stroke-linejoin="round" stroke-width="3"/>
        <line id="Line_231" data-name="Line 231" x1="6.14" transform="translate(456.791 250.425)" fill="none" stroke="#fff" stroke-linecap="round" stroke-linejoin="round" stroke-width="3"/>
        <line id="Line_232" data-name="Line 232" x1="6.14" transform="translate(512.052 250.425)" fill="none" stroke="#fff" stroke-linecap="round" stroke-linejoin="round" stroke-width="3"/>
        <line id="Line_233" data-name="Line 233" y1="18.016" transform="translate(266.45 105.543)" fill="none" stroke="#fff" stroke-linecap="round" stroke-linejoin="round" stroke-width="3"/>
        <line id="Line_234" data-name="Line 234" y2="18.017" transform="translate(266.45 377.29)" fill="none" stroke="#fff" stroke-linecap="round" stroke-linejoin="round" stroke-width="3"/>
      </g>
    </g>
  </g>
</svg>
