<svg id="Component_72_4" data-name="Component 72 – 4" xmlns="http://www.w3.org/2000/svg" width="86" height="86" viewBox="0 0 86 86">
  <g id="Ellipse_101" data-name="Ellipse 101" fill="none" stroke="#fff" stroke-width="2">
    <circle cx="43" cy="43" r="43" stroke="none"/>
    <circle cx="43" cy="43" r="42" fill="none"/>
  </g>
  <g id="Polygon_9" data-name="Polygon 9" transform="translate(61.867 28.231) rotate(90)" fill="none">
    <path d="M13.2,4.249a3,3,0,0,1,5.135,0l10.451,17.3A3,3,0,0,1,26.22,26.1H5.318A3,3,0,0,1,2.75,21.544Z" stroke="none"/>
    <path d="M 15.76905345916748 4.800651550292969 C 15.59943389892578 4.800651550292969 15.17650413513184 4.847690582275391 14.91318321228027 5.283472061157227 L 4.462133407592773 22.57867050170898 C 4.18951416015625 23.02981185913086 4.360754013061523 23.43424224853516 4.447032928466797 23.58718109130859 C 4.533313751220703 23.74012184143066 4.7908935546875 24.09585189819336 5.318002700805664 24.09585189819336 L 26.2201042175293 24.09584045410156 C 26.74708366394043 24.09584045410156 27.00468444824219 23.74007034301758 27.09096336364746 23.58710098266602 C 27.17725372314453 23.43415069580078 27.34852409362793 23.02970123291016 27.07597351074219 22.57867050170898 L 16.62492370605469 5.28346061706543 C 16.36160278320312 4.847702026367188 15.93866348266602 4.800651550292969 15.76905345916748 4.800651550292969 M 15.76905345916748 2.800649642944336 C 16.76111221313477 2.800649642944336 17.7531681060791 3.283466339111328 18.33667373657227 4.249101638793945 L 28.78772354125977 21.54430198669434 C 29.99590301513672 23.543701171875 28.55382537841797 26.09734725952148 26.2200927734375 26.09584045410156 L 5.318002700805664 26.09585189819336 C 2.981924057006836 26.09585189819336 1.542194366455078 23.543701171875 2.750383377075195 21.54430198669434 L 13.2014331817627 4.249101638793945 C 13.78493881225586 3.283466339111328 14.77699661254883 2.800649642944336 15.76905345916748 2.800649642944336 Z" stroke="none" fill="#fff"/>
  </g>
</svg>
