<svg xmlns="http://www.w3.org/2000/svg" width="282.517" height="204.657" viewBox="0 0 282.517 204.657">
  <g id="Group_897" data-name="Group 897" transform="translate(-359.6 -2691.553)">
    <text id="polipropylen" transform="translate(359.6 2873.494)" font-size="11" font-family="CeraRoundPro-Bold, Cera Round Pro" font-weight="700"><tspan x="0" y="11">polipropylen</tspan></text>
    <text id="tworzywa_biodegradowalne_" data-name="tworzywa 
biodegradowalne " transform="translate(542.117 2691.553)" font-size="11" font-family="CeraRoundPro-Bold, Cera Round Pro" font-weight="700"><tspan x="0" y="11">tworzywa </tspan><tspan x="0" y="29">biodegradowalne </tspan></text>
    <text id="WPC" transform="translate(592.979 2842.544)" font-size="11" font-family="CeraRoundPro-Bold, Cera Round Pro" font-weight="700"><tspan x="0" y="11">WPC</tspan></text>
    <text id="biotworzywa" transform="translate(365.292 2733.629)" font-size="11" font-family="CeraRoundPro-Bold, Cera Round Pro" font-weight="700"><tspan x="0" y="11">biotworzywa</tspan></text>
    <g id="Group_666" data-name="Group 666" transform="matrix(0.998, 0.07, -0.07, 0.998, 422.192, 2727.317)">
      <path id="Path_983" data-name="Path 983" d="M.792,112.408l-.48-.739-.265-.809L0,109.989M167.881,6.119l-.01.144m-23.686-3.5,2.244-.528,2.219-.442,2.175-.353,2.114-.26,2.033-.166,1.936-.07,1.821.027,1.692.123,1.548.219,1.39.313,1.221.4,1.042.491.853.574.657.652.456.725.251.792.043.852M143.642,1.706l2.1-.495L147.824.8l2.038-.331,1.98-.244,1.9-.156L155.561,0l1.707.025,1.586.115,1.452.2,1.3.292,1.146.377.979.458M165.6,2.514,163.736,1.47m-20.11.216L28.758,30.755M143.62,1.7l2.3-.538L148.2.722l2.22-.339,2.144-.233,2.045-.125M28.752,30.769l0-.01,0,0M13.5,36.833l1.637-.913,1.744-.883,1.837-.845,1.915-.8,1.977-.748,2.023-.69,2.051-.627,2.064-.558M5.861,43.653l.553-.922.736-.947.913-.965,1.082-.974,1.242-.975,1.392-.968,1.53-.953,1.655-.93,1.766-.9,1.862-.86,1.943-.815,2.007-.762,2.054-.7,2.084-.638,2.1-.568M0,109.989,4.309,47.512l.583-1.95.968-1.909M3.137,120.1l-.48-.739-.265-.809-.047-.872M170.226,13.808l-.01.144m-23.686-3.5,2.244-.528,2.219-.442,2.175-.353,2.114-.26,2.033-.166,1.935-.07,1.821.027,1.692.124,1.548.219,1.39.312,1.221.4,1.042.491.853.574.657.652.456.725.251.792.044.852M31.663,39.523,146.531,10.455M6.654,55.2l.164-.9.371-.949.574-.986.772-1.014L9.5,50.314l1.148-1.045,1.321-1.047,1.484-1.04,1.633-1.024,1.769-1,1.89-.967,1.995-.925,2.082-.876,2.152-.819,2.2-.755,2.236-.685,2.25-.609M2.355,117.534l-.48-.739-.265-.809-.047-.872M169.445,11.245l-.01.144M1.563,115.115,5.873,52.638M145.749,7.892l2.244-.528,2.219-.442,2.175-.353,2.114-.26,2.033-.166,1.935-.07,1.821.027,1.692.124,1.548.219,1.39.312,1.221.4,1.042.491.853.574.657.652.456.725.251.792.043.852M30.881,36.96,145.749,7.892M5.873,52.638l.164-.9.371-.949.574-.986.772-1.014.964-1.034,1.148-1.045,1.321-1.047,1.484-1.04L14.3,43.6l1.769-1,1.89-.966,1.995-.925,2.082-.876,2.152-.819,2.2-.755,2.236-.685,2.25-.609M7.424,49.218l-.968,1.47M3.918,122.66l-.48-.739-.265-.809-.047-.872M171.008,16.371,171,18.2M3.126,120.241,7.436,57.764M147.312,13.018l2.244-.528,2.219-.442,2.176-.353,2.114-.26,2.033-.166,1.935-.07,1.821.027,1.692.124,1.548.219,1.39.312,1.221.4,1.041.491.853.574.657.652.456.725.251.792.043.852m-2.277-3.6M32.444,42.087,147.312,13.018M7.436,57.764l.164-.9.371-.949.574-.986.772-1.014.964-1.034,1.148-1.045,1.321-1.047,1.484-1.04,1.633-1.024,1.769-1,1.89-.966,1.995-.925,2.082-.876,2.152-.819,2.2-.755,2.236-.685,2.25-.609M167.48,81.411l-.179.954-.408,1-.633,1.043-.852,1.073-1.063,1.093-1.263,1.1-1.452,1.1L160,89.869m1.181-3.716-.477.371-.5.37M19.15,127.709l-2.068.181-1.97.083-1.856-.016-1.725-.115-1.579-.212-1.419-.308-1.247-.4-1.065-.491-.872-.576-.672-.657-.467-.731-.257-.8-.045-.861M125.89,135.929l22.977-5.815m0,0,.306-.08.305-.085.562-.172.555-.189.551-.207.54-.223.539-.244.523-.26.531-.29.511-.308.53-.355.5-.379.422-.356.4-.379.341-.363.32-.385.28-.381.257-.4.224-.406.2-.422.166-.429.137-.442.1-.445.072-.452.019-.173.014-.173m-41.317,12.53.327.267.341.244.4.245.413.217.437.2.448.167.467.142.472.114.458.085.46.062.546.047.552.021.6-.006.611-.033.618-.059.624-.085.6-.1.6-.125.23-.055.23-.058M47.513,155.763l41.963-10.619m8.408-9.1-2.629-19.078M89.48,145.138l.478-.132.474-.144.511-.17.5-.185.479-.2.468-.211.466-.229.452-.243.494-.291.474-.308.5-.361.475-.384.395-.358.374-.381.314-.359.294-.38.257-.377.235-.4.2-.4.178-.418.149-.426.119-.437.087-.444.057-.451.026-.454-.013-.455-.025-.234-.037-.234M37.228,153.321l.149.219.16.209.3.336.325.31.339.284.354.26.369.236.381.21.4.189.405.163.428.144.433.119.468.1.472.076.523.057.528.031.585.006.592-.021.6-.048.611-.074.591-.094.594-.116.339-.076.339-.082M13.206,119.277l24.006,34.051" transform="translate(0 0)" fill="none" stroke="#000" stroke-linecap="round" stroke-linejoin="round" stroke-width="2"/>
      <path id="Path_984" data-name="Path 984" d="M18.635,16.511l-.033-.028-.032-.028M0,0,18.57,16.455" transform="translate(97.821 118.137)" fill="none" stroke="#000" stroke-linecap="round" stroke-linejoin="round" stroke-width="2"/>
      <path id="Path_985" data-name="Path 985" d="M29.38,99.731l.582-.145.581-.142,1.1-.259,1.1-.244,1.094-.229,1.088-.215,1.078-.2,1.069-.184,1.056-.168,1.045-.153,1.029-.137,1.015-.121,1-.105.98-.09.959-.073.94-.058.915-.042.895-.027.867-.011.844,0,.813.018.788.032.754.046.727.059.69.071.661.083.622.093.591.1.551.111.517.12.475.125.44.131.4.133.362.135.32.133.283.131.243.125.206.119.169.109.134.1.069.054.055.048M10.38,104.539l19-4.808M.058,101.961l.164.25.178.239.306.351.333.325.349.3.366.272.382.245.4.218.412.194.421.167.424.139.427.114.431.092.433.07.525.06.53.033.594.009.6-.019.517-.038.523-.057.584-.085.586-.107.419-.089.419-.1m-10.214-2.4-.016-.016L0,101.94M132.454,0l-4.309,62.477m-9.709,40.8,0-.049,0-.05m0,0,3.943-57.164" transform="translate(39.335 18.934)" fill="none" stroke="#000" stroke-linecap="round" stroke-linejoin="round" stroke-width="2"/>
      <path id="Path_986" data-name="Path 986" d="M164.169,4.2l.363.229M140.293.02,140.283,0l-.007,0M25.425,29.088,140.293.02M25.408,29.068l.007,0,.01.016M.1,113.873l-.059.035L0,113.961M166.514,11.892l.363.229m-1.145-2.792.363.229m1.2,4.9M8.069,123.74l-1.516-.258-1.337-.36-1.144-.459-.941-.552L2.4,121.47l-.507-.722-.281-.8-.053-.863m92.976,15.295-.013-.076-.063-.23-.1-.219-.061-.105-.07-.1-.038-.05-.041-.049-.021-.024-.022-.024-.011-.012-.011-.012-.011-.012-.011-.012m-7.938,10,.1-.124.051-.3M44.164,154.077l.1-.123.052-.3m-10.7-2.879.044.457.2.411m57.546-36.5,2.659,18.315m0,0,.072,1.107-.157,1.119-.379,1.082-.585,1-.766.876-.914.713-1.023.521m3.753-6.419-14.8-13.117m-39.376,32.69-1.176.176-1.192-.058-1.155-.29-1.065-.508-.928-.7-.75-.868m0,0M34.918,132l-1.3,18.777M9.67,97.2l.147.007.114.087m31.253,36.957-1.3,18.777m50.426-13.154-14.8-13.117m10.769,16.278.124-.032.124-.034.062-.018.062-.018.062-.018.062-.019.245-.078.24-.083.235-.087.231-.092.114-.048.113-.048.056-.025.055-.025.055-.025.055-.026.215-.1.205-.105.2-.107.188-.109.18-.111.171-.112.041-.028.041-.029.04-.029.04-.029.077-.057.074-.057.14-.115.129-.114.117-.114.106-.113.024-.028.024-.028.023-.028.022-.028.042-.056.038-.055.066-.108.052-.106.039-.1.024-.1,0-.025,0-.025,0-.024v-.071l0-.046-.021-.088-.037-.083-.053-.078-.07-.073m-46,13.781,41.963-10.619m-46.392,9.993.087.367.311.291.519.2.7.1.848-.007.953-.112,1.01-.212m34.946-33.316.072,1.107-.157,1.119-.379,1.083-.585,1-.766.876-.914.713-1.023.521m0,0-.6-.4-.789-.314-.966-.221-1.125-.125-1.263-.026-1.378.073-1.468.171-1.53.265-1.565.355m-1.2-6.522.3,1.112.276,1.128.236,1.1.188,1.017.131.894.068.734,0,.542m0,0-19,4.808m32.464-16.665.969,5.662m0,0-.694-.489-.884-.4-1.063-.316-1.229-.224-1.38-.129-1.513-.032-1.628.065-1.723.162-1.8.257-1.848.348-1.877.435M34.918,132l.749.868.928.7,1.065.508,1.155.29,1.192.058,1.176-.176m3.444-9.432.3,1.112.275,1.128.236,1.1.188,1.017.131.894.068.734,0,.542m0,0-.111.029-.111.03-.111.031-.111.032-.22.067-.217.07-.215.074-.212.077-.21.081-.207.084-.051.022-.051.022-.051.022L43.9,132l-.1.044-.1.045-.194.091-.188.093-.182.095-.177.1-.086.049-.085.05-.042.025-.042.025-.041.025-.041.025-.158.1-.15.1-.142.1-.134.1-.032.026-.032.026-.031.026-.031.026-.059.051-.057.051-.107.1-.1.1-.088.1-.078.1-.035.05-.033.049-.015.024-.015.024-.014.024-.013.024-.046.1-.035.093-.024.091-.012.088m21.751-16.657.693,2.416m0,0-19,4.808M9.931,97.292l12.494,17.352L34.918,132m8.671-9.759,1.039,2.579m0,0-.06.019-.06.019-.059.019-.06.019-.119.039-.119.04-.119.04-.119.041-.119.041-.118.042-.47.173-.464.181-.459.188-.452.2-.447.2-.441.211-.109.054-.109.055-.054.028-.054.028-.054.028-.054.028-.214.112-.211.113-.411.229-.4.233-.386.237-.373.24-.182.122-.178.123-.088.062-.087.062-.086.062-.085.063-.331.25-.313.251-.3.252-.278.253-.066.063-.066.063-.064.063-.063.063-.121.125-.116.125-.216.248-.2.245-.174.243-.153.24-.069.119-.063.118-.029.059-.028.059-.026.058-.025.058-.085.228-.062.222-.022.109-.016.107-.006.053,0,.052,0,.026V132m1.068-12.809-.04-.071-.06-.143-.036-.153-.009-.08,0-.081v-.041l0-.042,0-.021,0-.021V118.5l0-.011M162.121,78.457m4.309-62.477-4.309,62.477m-11.774,46.617,1.055-.377.95-.566.806-.733.629-.869.427-.971.208-1.032m4.9-100.08.058-.1.108-.06M1.685,118.992l-.072.035-.049.06m0,0L5.873,56.611M1.563,119.088l-1,2.03M154.29,67.91l1.072-.385.962-.581.813-.752.628-.891.418-.993.19-1.053m8.058-47.275,0,0,2.01,1.267m-2.007-1.7.006.213-.008.217M35.849,118.491l.75.868.928.7,1.065.508,1.155.29,1.192.058,1.176-.176M11.043,81.168l12.4,18.662,12.4,18.661M11.043,81.168,12.669,57.6m23.18,60.9L37.566,93.61m4.55,27.134,1.716-24.881M149.86,67.283l1.01-.212.953-.112.849-.007.7.1.519.2.311.291.087.367m0,0-3.943,57.164m0,0-.141.425-.363.461-.509.64-.74.464-.877.43-.941.423-1.046.393" transform="translate(3.284 1.708)" fill="none" stroke="#000" stroke-linecap="round" stroke-linejoin="round" stroke-width="2"/>
      <path id="Path_987" data-name="Path 987" d="M0,0" transform="translate(153.222 126.88)" fill="none" stroke="#000" stroke-linecap="round" stroke-linejoin="round" stroke-width="2"/>
      <path id="Path_988" data-name="Path 988" d="M0,0" transform="translate(157.165 69.716)" fill="none" stroke="#000" stroke-linecap="round" stroke-linejoin="round" stroke-width="2"/>
      <path id="Path_989" data-name="Path 989" d="M0,0,.207.646l.059.689" transform="translate(162.412 20.674)" fill="none" stroke="#000" stroke-linecap="round" stroke-linejoin="round" stroke-width="2"/>
      <line id="Line_336" data-name="Line 336" y1="42.644" x2="0.943" transform="translate(161.735 22.009)" fill="none" stroke="#000" stroke-linecap="round" stroke-linejoin="round" stroke-width="2"/>
      <line id="Line_337" data-name="Line 337" y1="29.068" x2="114.868" transform="translate(33.226 15.581)" fill="none" stroke="#000" stroke-linecap="round" stroke-linejoin="round" stroke-width="2"/>
      <path id="Path_990" data-name="Path 990" d="M0,12.838l.772-1.014.964-1.034L2.884,9.745,4.2,8.7l1.484-1.04L7.322,6.635l1.769-1,1.89-.966,1.995-.925,2.082-.876L17.21,2.05l2.2-.755L21.649.609,23.9,0" transform="translate(9.327 44.65)" fill="none" stroke="#000" stroke-linecap="round" stroke-linejoin="round" stroke-width="2"/>
      <path id="Path_991" data-name="Path 991" d="M0,12.8l.978-2.046L1.714,9.8l.913-.965,1.082-.974L4.951,6.89l1.392-.968,1.53-.953,1.655-.93,1.766-.9,1.862-.86L15.1,1.465,17.1.7,19.158,0" transform="translate(9.344 44.795)" fill="none" stroke="#000" stroke-linecap="round" stroke-linejoin="round" stroke-width="2"/>
      <path id="Path_992" data-name="Path 992" d="M0,.908.058.46.172,0" transform="translate(9.222 57.39)" fill="none" stroke="#000" stroke-linecap="round" stroke-linejoin="round" stroke-width="2"/>
      <path id="Path_993" data-name="Path 993" d="M.792,2.419l-.48-.739L.047.872,0,0" transform="translate(0.782 112.552)" fill="none" stroke="#000" stroke-linecap="round" stroke-linejoin="round" stroke-width="2"/>
      <line id="Line_338" data-name="Line 338" x1="0.01" y2="0.144" transform="translate(168.653 8.682)" fill="none" stroke="#000" stroke-linecap="round" stroke-linejoin="round" stroke-width="2"/>
      <path id="Path_994" data-name="Path 994" d="M0,1.819l2.244-.528L4.464.849,6.639.5,8.753.235,10.786.07,12.721,0l1.822.027,1.692.124L17.782.37l1.39.312,1.221.4,1.042.491.853.574.657.652.456.725.251.792.043.852" transform="translate(144.967 3.51)" fill="none" stroke="#000" stroke-linecap="round" stroke-linejoin="round" stroke-width="2"/>
      <line id="Line_339" data-name="Line 339" y1="29.068" x2="114.868" transform="translate(30.099 5.329)" fill="none" stroke="#000" stroke-linecap="round" stroke-linejoin="round" stroke-width="2"/>
      <path id="Path_995" data-name="Path 995" d="M0,15.678l.164-.9.371-.949.574-.986.772-1.014.964-1.034L3.993,9.746,5.314,8.7,6.8,7.659,8.431,6.635l1.769-1,1.89-.966,1.995-.925,2.082-.876,2.152-.819,2.2-.755L22.759.609,25.008,0" transform="translate(5.091 34.397)" fill="none" stroke="#000" stroke-linecap="round" stroke-linejoin="round" stroke-width="2"/>
      <line id="Line_340" data-name="Line 340" x1="0.782" y2="1.225" transform="translate(5.674 46.9)" fill="none" stroke="#000" stroke-linecap="round" stroke-linejoin="round" stroke-width="2"/>
      <path id="Path_996" data-name="Path 996" d="M4.406.71,4.184.772l-.22.056-.217.05L3.531.923,3.318.962,3.107,1,3.055,1,3,1.011l-.052.007L2.9,1.025l-.1.012-.1.011-.2.017-.192.011-.187.006H1.937l-.176-.005-.17-.011-.083-.007L1.426,1.05l-.04,0-.04-.005-.039-.006-.039-.006L1.12,1,.979.969.847.931.723.888.608.84.5.787.477.773.452.759.428.744.4.729.359.7.317.665.24.6.173.526.117.449.072.368.037.283.013.193l0-.023,0-.023L0,.122,0,.1,0,.05,0,0" transform="translate(45.42 122.563)" fill="none" stroke="#000" stroke-linecap="round" stroke-linejoin="round" stroke-width="2"/>
      <path id="Path_997" data-name="Path 997" d="M0,1.692,2.093,1.2,4.164.787,6.193.459,8.164.217l1.9-.153L11.863,0l1.7.027,1.575.117,1.44.206,1.293.294L19,1.024l.966.461.789.538.606.611.417.679" transform="translate(140.632 17.36)" fill="none" stroke="#000" stroke-linecap="round" stroke-linejoin="round" stroke-width="2"/>
      <path id="Path_998" data-name="Path 998" d="M0,.728,1.366.419,2.7.192,3.975.052,5.165,0,6.248.038,7.2.166l.8.215.641.3.463.374.277.443.085.5" transform="translate(152.263 62.655)" fill="none" stroke="#000" stroke-linecap="round" stroke-linejoin="round" stroke-width="2"/>
      <path id="Path_999" data-name="Path 999" d="M.039.233.009.094,0,0" transform="translate(39.238 44.468)" fill="none" stroke="#000" stroke-linecap="round" stroke-linejoin="round" stroke-width="2"/>
      <path id="Path_1000" data-name="Path 1000" d="M.947,5.587l0-.559-.073-.76L.733,3.341l-.2-1.052L.287,1.158,0,0" transform="translate(152.263 63.382)" fill="none" stroke="#000" stroke-linecap="round" stroke-linejoin="round" stroke-width="2"/>
      <line id="Line_341" data-name="Line 341" y1="25.649" x2="101.354" transform="translate(51.856 68.97)" fill="none" stroke="#000" stroke-linecap="round" stroke-linejoin="round" stroke-width="2"/>
      <path id="Path_1001" data-name="Path 1001" d="M6.266,2.253,5.09,2.428,3.9,2.37,2.743,2.08,1.678,1.572.749.868,0,0" transform="translate(40.915 95.296)" fill="none" stroke="#000" stroke-linecap="round" stroke-linejoin="round" stroke-width="2"/>
      <path id="Path_1002" data-name="Path 1002" d="M.947,5.587l0-.559-.073-.76L.733,3.341l-.2-1.052L.287,1.158,0,0" transform="translate(50.909 89.031)" fill="none" stroke="#000" stroke-linecap="round" stroke-linejoin="round" stroke-width="2"/>
      <path id="Path_1003" data-name="Path 1003" d="M0,2.93l.141-.425L.5,2.045,1.07,1.57l.74-.464.878-.43L3.659.3,4.675,0" transform="translate(47.181 94.618)" fill="none" stroke="#000" stroke-linecap="round" stroke-linejoin="round" stroke-width="2"/>
      <path id="Path_1004" data-name="Path 1004" d="M0,0,.042.805l.239.748.434.685.626.615" transform="translate(11.814 116.353)" fill="none" stroke="#000" stroke-linecap="round" stroke-linejoin="round" stroke-width="2"/>
      <path id="Path_1005" data-name="Path 1005" d="M6.76,0,5.854.546,5.211.96,4.6,1.376l-.581.42L3.47,2.22,3.4,2.273l-.066.053-.065.053-.065.053-.128.107-.125.106-.243.212-.233.211-.436.419-.4.416-.356.413-.315.409-.142.2-.132.2-.031.05-.031.05-.03.05-.029.05-.057.1-.054.1-.186.392-.141.383-.095.373L0,7.044" transform="translate(13.019 91.841)" fill="none" stroke="#000" stroke-linecap="round" stroke-linejoin="round" stroke-width="2"/>
      <line id="Line_342" data-name="Line 342" x1="1.205" y2="17.467" transform="translate(11.814 98.885)" fill="none" stroke="#000" stroke-linecap="round" stroke-linejoin="round" stroke-width="2"/>
      <path id="Path_1006" data-name="Path 1006" d="M0,0,.663.622l.461.7.254.763.046.824" transform="translate(168.344 14.69)" fill="none" stroke="#000" stroke-linecap="round" stroke-linejoin="round" stroke-width="2"/>
      <path id="Path_1007" data-name="Path 1007" d="M.122,0,.049.035,0,.1" transform="translate(9.222 58.202)" fill="none" stroke="#000" stroke-linecap="round" stroke-linejoin="round" stroke-width="2"/>
      <path id="Path_1008" data-name="Path 1008" d="M0,1.047.072.532.217,0" transform="translate(9.344 57.155)" fill="none" stroke="#000" stroke-linecap="round" stroke-linejoin="round" stroke-width="2"/>
      <path id="Path_1009" data-name="Path 1009" d="M0,0" transform="translate(9.222 58.297)" fill="none" stroke="#000" stroke-linecap="round" stroke-linejoin="round" stroke-width="2"/>
      <line id="Line_343" data-name="Line 343" y1="25.649" x2="101.354" transform="translate(39.278 19.052)" fill="none" stroke="#000" stroke-linecap="round" stroke-linejoin="round" stroke-width="2"/>
      <line id="Line_344" data-name="Line 344" x1="11.631" y1="44.33" transform="translate(140.632 19.052)" fill="none" stroke="#000" stroke-linecap="round" stroke-linejoin="round" stroke-width="2"/>
      <line id="Line_345" data-name="Line 345" y1="12.865" x2="50.837" transform="translate(50.909 76.166)" fill="none" stroke="#000" stroke-linecap="round" stroke-linejoin="round" stroke-width="2"/>
      <path id="Path_1010" data-name="Path 1010" d="M0,14.581l.153-.841L.5,12.858l.534-.917L1.75,11l.9-.962,1.067-.972L4.943,8.09l1.38-.967,1.519-.952,1.645-.929,1.758-.9,1.855-.86,1.937-.815,2-.762,2.049-.7,2.08-.637L23.26,0" transform="translate(16.018 44.701)" fill="none" stroke="#000" stroke-linecap="round" stroke-linejoin="round" stroke-width="2"/>
      <line id="Line_346" data-name="Line 346" x1="11.631" y1="44.33" transform="translate(39.278 44.701)" fill="none" stroke="#000" stroke-linecap="round" stroke-linejoin="round" stroke-width="2"/>
      <path id="Path_1011" data-name="Path 1011" d="M0,6.265.136,5.7l.332-.6.52-.631.7-.645.862-.645,1.008-.632,1.134-.606,1.237-.568L7.241.848,8.606.389,9.994,0" transform="translate(40.915 89.031)" fill="none" stroke="#000" stroke-linecap="round" stroke-linejoin="round" stroke-width="2"/>
      <line id="Line_347" data-name="Line 347" x1="24.897" y1="36.014" transform="translate(16.018 59.282)" fill="none" stroke="#000" stroke-linecap="round" stroke-linejoin="round" stroke-width="2"/>
      <path id="Path_1012" data-name="Path 1012" d="M.044.792,0,.4,0,0" transform="translate(1.782 110.522)" fill="none" stroke="#000" stroke-linecap="round" stroke-linejoin="round" stroke-width="2"/>
      <path id="Path_1013" data-name="Path 1013" d="M.1,0,.041.036,0,.089" transform="translate(1.786 110.433)" fill="none" stroke="#000" stroke-linecap="round" stroke-linejoin="round" stroke-width="2"/>
      <line id="Line_348" data-name="Line 348" x2="0.363" y2="0.229" transform="translate(168.3 8.453)" fill="none" stroke="#000" stroke-linecap="round" stroke-linejoin="round" stroke-width="2"/>
      <path id="Path_1014" data-name="Path 1014" d="M0,0,.642.6l.455.667L1.36,2l.069.787" transform="translate(165.071 4.485)" fill="none" stroke="#000" stroke-linecap="round" stroke-linejoin="round" stroke-width="2"/>
    </g>
    <g id="Group_667" data-name="Group 667" transform="matrix(0.996, 0.087, -0.087, 0.996, 500.528, 2823.25)">
      <path id="Path_1015" data-name="Path 1015" d="M6.557,3.692c-.142,1.1-1.366,2.189-2.965,2.638L.781,7.12c-.5.14-.826-.038-.776-.424l.648-5.04A1.259,1.259,0,0,1,1.6.747L3.663.168C5.2-.264,6.18.158,6.045,1.211a2.2,2.2,0,0,1-.76,1.321C6.177,2.523,6.655,2.929,6.557,3.692ZM2.232,1.65,2.044,3.108l1.162-.326C3.868,2.6,4.316,2.2,4.375,1.745s-.319-.608-.981-.422ZM4.889,4.114c.065-.5-.334-.679-1.071-.472L1.906,4.18,1.7,5.783l1.911-.537C4.348,5.039,4.823,4.626,4.889,4.114Z" transform="translate(0 7.728)"/>
      <path id="Path_1016" data-name="Path 1016" d="M2.671.55a1.6,1.6,0,0,1-1.15,1.077C.934,1.792.5,1.577.56,1.143A1.592,1.592,0,0,1,1.724.052C2.286-.106,2.729.1,2.671.55ZM0,7.051.478,3.372a1.253,1.253,0,0,1,.934-.9c.475-.133.8.045.752.422L1.691,6.577a1.265,1.265,0,0,1-.935.905C.281,7.616-.044,7.428,0,7.051Z" transform="translate(7.378 5.412)"/>
      <path id="Path_1017" data-name="Path 1017" d="M6,1.4,5.689,3.818a1.231,1.231,0,0,1-.923.9c-.475.133-.8-.055-.751-.431L4.3,2.048c.071-.55-.343-.8-1.03-.6A1.714,1.714,0,0,0,1.98,2.7L1.691,4.941a1.246,1.246,0,0,1-.923.9C.281,5.98-.044,5.792,0,5.415L.478,1.736A1.246,1.246,0,0,1,1.4.844c.388-.109.674.006.724.272a4.565,4.565,0,0,1,1.8-.981C5.335-.262,6.15.235,6,1.4Z" transform="translate(19.592 3.616)"/>
      <path id="Path_1018" data-name="Path 1018" d="M6.2,1.578l0,.029a1.287,1.287,0,0,1-1.011.926l-3.523.99c.123.542.7.715,1.615.458A4.3,4.3,0,0,0,4.6,3.339a1.211,1.211,0,0,1,.374-.189c.387-.109.658.029.62.329-.027.212-.172.4-.492.64a6.207,6.207,0,0,1-2.019,1C1.132,5.663-.167,4.995.017,3.565S1.726.674,3.55.162C5.237-.312,6.364.284,6.2,1.578ZM1.779,2.605l2.811-.79c.049-.563-.425-.811-1.212-.59A2.446,2.446,0,0,0,1.779,2.605Z" transform="translate(26.363 1.791)"/>
      <path id="Path_1019" data-name="Path 1019" d="M4.4.42a1.21,1.21,0,0,1-.868.849A2.151,2.151,0,0,0,1.927,2.912L1.691,4.747a1.245,1.245,0,0,1-.923.9C.281,5.786-.044,5.6,0,5.221L.478,1.542A1.246,1.246,0,0,1,1.4.65c.437-.123.742.034.736.361A3.616,3.616,0,0,1,3.717.045C4.167-.081,4.45.063,4.4.42Z" transform="translate(33.15 0)"/>
      <path id="Path_1020" data-name="Path 1020" d="M8.006,4.461c-.062.017-.139.048-.238.076-.787.221-1.085.1-1.016-.431l.242-1.883L8.13,1.9a1.041,1.041,0,0,0,.783-.75C8.954.835,8.684.687,8.272.8l-1.137.319L7.22.466c.049-.377-.278-.555-.753-.422a1.238,1.238,0,0,0-.934.9L5.449,1.6l-.35.1-1.126.316L2.836,2.33l.084-.656c.049-.377-.278-.555-.753-.422a1.238,1.238,0,0,0-.934.9L1.149,2.8.8,2.9a1.064,1.064,0,0,0-.8.754c-.041.319.242.462.654.347l.35-.1L.75,5.9c-.15,1.168.631,1.554,2.242,1.1a2.6,2.6,0,0,0,.746-.325.959.959,0,0,0,.492-.641c.041-.318-.219-.45-.669-.323-.062.017.006,0-.094.029-.787.221-1.085.1-1.016-.431l.242-1.883,1.137-.319L4.957,2.8l.35-.1-.257,2C4.9,5.865,5.68,6.251,7.292,5.8a3.722,3.722,0,0,0,.891-.371.959.959,0,0,0,.492-.641C8.716,4.467,8.456,4.335,8.006,4.461Z" transform="translate(10.147 4.482)"/>
    </g>
    <path id="Path_338" data-name="Path 338" d="M10041.635,2276.944h69.953l20.76,20.759" transform="translate(-9674.944 474.921)" fill="none" stroke="#e3b814" stroke-linejoin="bevel" stroke-width="2"/>
    <path id="Path_341" data-name="Path 341" d="M10212.738,2276.351h-97.405l-20.759,20.759" transform="translate(-9584.128 453.899)" fill="none" stroke="#e3b814" stroke-linejoin="bevel" stroke-width="2"/>
    <path id="Path_1021" data-name="Path 1021" d="M10035.971,2297.7h68.166l20.758-20.759" transform="translate(-9676.37 594.58)" fill="none" stroke="#e3b814" stroke-linejoin="bevel" stroke-width="2"/>
    <path id="Path_448" data-name="Path 448" d="M0,2.529,72.434,0" transform="matrix(0.999, 0.035, -0.035, 0.999, 533.377, 2853.712)" fill="none" stroke="#e3b814" stroke-linejoin="bevel" stroke-width="2"/>
  </g>
</svg>
