<svg xmlns="http://www.w3.org/2000/svg" width="1576.37" height="752.349" viewBox="0 0 1576.37 752.349">
  <g id="Group_811" data-name="Group 811" transform="translate(-229.762 -2430.992)">
    <text id="polipropylen" transform="translate(229.762 2599.764)" font-size="35" font-family="CeraRoundPro-Bold, Cera Round Pro" font-weight="700"><tspan x="0" y="35">polipropylen</tspan></text>
    <text id="tworzywa_biodegradowalne_" data-name="tworzywa 
biodegradowalne " transform="translate(1452.132 2433.141)" font-size="35" font-family="CeraRoundPro-Bold, Cera Round Pro" font-weight="700"><tspan x="0" y="35">tworzywa </tspan><tspan x="0" y="85">biodegradowalne </tspan></text>
    <path id="Path_338" data-name="Path 338" d="M10045.578,2276.986l294.234-.042,92.531,92.53" transform="translate(-9804.344 395.173)" fill="none" stroke="#e3b814" stroke-linejoin="bevel" stroke-width="4"/>
    <path id="Path_1021" data-name="Path 1021" d="M10035.971,2369.474h303.842l92.531-92.53" transform="translate(-9720.844 782.134)" fill="none" stroke="#e3b814" stroke-linejoin="bevel" stroke-width="4"/>
    <path id="Path_341" data-name="Path 341" d="M10504.059,2276.141l-316.953.8-92.531,92.53" transform="translate(-8804.707 270.903)" fill="none" stroke="#e3b814" stroke-linejoin="bevel" stroke-width="4"/>
    <text id="WPC" transform="translate(1470 2860.758)" font-size="35" font-family="CeraRoundPro-Bold, Cera Round Pro" font-weight="700"><tspan x="0" y="35">WPC</tspan></text>
    <text id="biotworzywa" transform="translate(290.5 3090.343)" font-size="35" font-family="CeraRoundPro-Bold, Cera Round Pro" font-weight="700"><tspan x="0" y="35">biotworzywa</tspan></text>
    <path id="Path_448" data-name="Path 448" d="M0,15.292,322.869,4.018" transform="matrix(0.999, 0.035, -0.035, 0.999, 1204.468, 2896.524)" fill="none" stroke="#e3b814" stroke-linejoin="bevel" stroke-width="4"/>
    <g id="Group_666" data-name="Group 666" transform="matrix(0.998, 0.07, -0.07, 0.998, 93.648, -298.222)">
      <path id="Path_983" data-name="Path 983" d="M697.909,3190.526l-2.139-3.292-1.18-3.6-.21-3.886M1442.7,2716.75l-.044.644M1337.077,2701.8l10-2.353,9.893-1.972,9.7-1.573,9.421-1.16,9.063-.739,8.628-.31,8.118.121,7.541.55,6.9.976,6.2,1.393,5.443,1.8,4.643,2.187,3.8,2.559,2.93,2.908,2.032,3.233,1.118,3.53.192,3.8m-108.043-19.668,9.371-2.205,9.267-1.847,9.085-1.475,8.827-1.09,8.491-.694,8.086-.294,7.61.11,7.07.511,6.47.909,5.815,1.3,5.11,1.679,4.362,2.043m8.331,4.654-8.331-4.653m-89.639.964-512.015,129.57m511.992-129.506,10.271-2.4,10.137-1.964,9.9-1.509,9.556-1.039,9.114-.558M822.541,2826.628l.009-.046.015-.018m-67.993,27.093,7.3-4.071,7.776-3.935,8.189-3.765,8.537-3.564,8.812-3.335,9.016-3.077,9.144-2.794,9.2-2.488m-102.036,57.429,2.465-4.108,3.28-4.222,4.069-4.3,4.823-4.342,5.536-4.347,6.2-4.316,6.818-4.249,7.375-4.145,7.871-4.008,8.3-3.835,8.659-3.631,8.945-3.4,9.155-3.133,9.29-2.843,9.345-2.53M694.38,3179.743l19.209-278.485,2.6-8.691,4.316-8.51M708.361,3224.8l-2.14-3.292-1.179-3.606-.21-3.886m748.319-462.993-.045.644m-105.577-15.588,10-2.354,9.893-1.971,9.7-1.573,9.421-1.161,9.063-.738,8.627-.311,8.119.121,7.541.551,6.9.976,6.2,1.393,5.443,1.8,4.643,2.188,3.8,2.559,2.93,2.908,2.033,3.232,1.117,3.53.194,3.8M835.514,2865.65l512.015-129.57M724.041,2935.532l.733-4.031,1.653-4.23,2.558-4.4,3.443-4.52,4.3-4.609,5.115-4.657,5.889-4.666,6.613-4.635,7.281-4.564,7.886-4.454,8.424-4.308,8.891-4.123,9.281-3.9,9.592-3.651,9.822-3.366,9.967-3.054,10.028-2.716M704.877,3213.376l-2.14-3.292-1.179-3.6-.21-3.886M1449.667,2739.6l-.045.644m-748.274,462.35,19.209-278.486m623.488-199.452,10-2.353,9.893-1.972,9.7-1.573,9.421-1.161,9.063-.738,8.627-.311,8.119.121,7.541.551,6.9.976,6.2,1.393,5.443,1.8,4.643,2.188,3.8,2.559,2.93,2.908,2.032,3.233,1.118,3.529.193,3.8M832.03,2854.225l512.015-129.57M720.557,2924.107l.733-4.03,1.653-4.231,2.558-4.394,3.443-4.521,4.3-4.609,5.115-4.657,5.889-4.666,6.613-4.634,7.281-4.565,7.886-4.454,8.424-4.307,8.891-4.123,9.281-3.9,9.592-3.65,9.822-3.367,9.967-3.054,10.028-2.716m-104.557,54.638-4.316,6.554m-11.313,320.809-2.139-3.293-1.179-3.605-.21-3.886m748.319-462.993-.045,8.161M708.316,3225.442l19.209-278.485M1351.013,2747.5l10-2.354,9.892-1.971,9.7-1.573,9.421-1.161,9.063-.739,8.627-.31,8.119.121,7.541.551,6.9.976,6.2,1.393,5.443,1.8,4.642,2.188,3.8,2.559,2.93,2.908,2.033,3.232,1.118,3.53.193,3.8m-10.15-16.066M839,2877.075l512.015-129.57M727.525,2946.957l.733-4.031,1.653-4.23,2.558-4.4,3.443-4.52,4.3-4.609,5.115-4.657,5.889-4.666,6.613-4.635,7.28-4.564,7.887-4.455,8.424-4.307,8.891-4.123,9.28-3.9,9.593-3.651,9.821-3.367,9.968-3.054L839,2877.075m601.911,175.284-.8,4.252-1.818,4.471-2.821,4.649-3.8,4.782-4.737,4.871-5.632,4.912-6.474,4.908-7.255,4.857m5.264-16.564-2.126,1.654-2.223,1.65M779.741,3258.729l-9.218.806-8.783.369-8.272-.071-7.689-.512-7.038-.946L732.415,3257l-5.56-1.789-4.745-2.189-3.887-2.569-3-2.927-2.08-3.26L712,3240.7l-.2-3.837m543.726,58.505,102.419-25.918m0,0,1.366-.358,1.36-.381,2.505-.767,2.476-.843,2.456-.923,2.4-.995,2.4-1.089,2.332-1.16,2.365-1.294,2.277-1.374,2.361-1.583L1384.5,3257l1.879-1.586,1.784-1.689,1.52-1.617,1.427-1.715,1.246-1.7,1.145-1.789,1-1.809.882-1.883.741-1.913.61-1.971.465-1.982.323-2.016.085-.769.064-.773M1213.5,3289.635l1.457,1.192,1.518,1.088,1.776,1.094,1.841.968,1.948.872,2,.746,2.083.634,2.105.507,2.04.378,2.049.276,2.433.21,2.461.092,2.691-.026,2.725-.148,2.753-.264,2.783-.377,2.653-.458,2.66-.558,1.026-.243,1.024-.258m-349.353,88.421,187.046-47.334m37.477-40.581-11.72-85.038m-25.738,125.592,2.132-.588,2.113-.642,2.279-.757,2.247-.826,2.136-.874,2.084-.939,2.077-1.023,2.013-1.082,2.2-1.3,2.113-1.373,2.228-1.607,2.116-1.712,1.76-1.6,1.669-1.7,1.4-1.6,1.312-1.7,1.145-1.682,1.046-1.767.911-1.791.794-1.862.663-1.9.53-1.948.388-1.978.253-2.01.116-2.025-.059-2.028-.113-1.045-.167-1.043M860.32,3372.9l.665.976.712.933,1.335,1.5,1.448,1.383,1.51,1.267,1.578,1.161,1.645,1.05,1.7.937,1.772.841,1.807.728,1.908.643,1.931.532,2.086.453,2.1.341,2.333.256,2.353.139,2.607.027,2.637-.095,2.693-.215,2.722-.329L900.5,3385l2.646-.517,1.51-.337,1.512-.367M753.245,3221.146l107.006,151.78" fill="none" stroke="#000" stroke-linecap="round" stroke-linejoin="round" stroke-width="4"/>
      <path id="Path_984" data-name="Path 984" d="M1213.475,3289.661l-.146-.125-.144-.127m-82.776-73.346,82.775,73.346" fill="none" stroke="#000" stroke-linecap="round" stroke-linejoin="round" stroke-width="4"/>
      <path id="Path_985" data-name="Path 985" d="M1000.67,3218.417l2.593-.648,2.59-.631,4.923-1.153,4.906-1.089,4.877-1.023,4.848-.957,4.8-.888,4.765-.821,4.707-.75,4.658-.681,4.586-.61,4.526-.54,4.441-.469,4.37-.4,4.273-.327,4.19-.258,4.079-.188,3.988-.121,3.863-.051,3.76.014,3.624.078,3.511.142,3.361.2,3.241.261,3.077.315,2.948.369,2.774.414,2.636.461,2.454.5,2.306.534,2.119.557,1.963.582,1.774.591,1.613.6,1.425.594,1.262.585,1.082.559.918.529.753.485.6.428.306.239.246.212m-214.428,23.785,84.689-21.431m-130.7,9.94.732,1.114.793,1.065,1.363,1.564,1.486,1.448,1.554,1.323,1.63,1.212,1.7,1.091,1.763.972,1.835.864,1.875.743,1.89.621,1.9.51,1.921.409,1.929.314,2.34.265,2.363.149,2.649.039,2.682-.086,2.306-.167,2.33-.254,2.6-.381,2.613-.478,1.869-.4,1.869-.442m-45.527-10.683-.071-.071-.66-.837m590.406-454.39-19.209,278.485m-43.278,181.866.018-.22.017-.221m0,0,17.576-254.8" fill="none" stroke="#000" stroke-linecap="round" stroke-linejoin="round" stroke-width="4"/>
      <path id="Path_986" data-name="Path 986" d="M1440.788,2715.826l1.618,1.02m-108.043-19.667-.043-.069-.032-.019m-511.94,129.658,512.015-129.57m-512.09,129.482.032.019.043.069M709.463,3204.67l-.264.158-.182.238M1451.24,2750.1l1.618,1.02m-5.1-12.445,1.618,1.02m5.35,21.83-709.74,487.127-6.756-1.151-5.958-1.6-5.1-2.044-4.193-2.462-3.242-2.855-2.259-3.219-1.254-3.553-.236-3.849m414.433,68.175-.058-.339-.28-1.025-.432-.977-.274-.469-.313-.456-.171-.224-.181-.22-.095-.109-.1-.108-.049-.054-.05-.053-.051-.053-.051-.053m-35.383,44.59.445-.554.229-1.332m-187.732,49.223.454-.548.232-1.341m-47.674-12.834.2,2.037.876,1.832m256.505-162.712,11.852,81.639m0,0,.319,4.933-.7,4.987-1.69,4.825-2.608,4.46-3.413,3.9-4.075,3.18-4.561,2.321m16.728-28.61-65.984-58.467M886.818,3379.2l-5.242.783-5.314-.26-5.147-1.292-4.749-2.266-4.138-3.138-3.341-3.868m0,0,5.774-83.7-5.774,83.7M752.119,3130.347l.655.032.509.386M892.591,3295.5l-5.773,83.7m224.77-58.635-65.983-58.466m48,72.56.555-.144.553-.151.277-.079.276-.08.277-.082.275-.084,1.091-.348,1.07-.37,1.048-.39,1.029-.41.507-.212.5-.216.25-.11.247-.112.247-.112.246-.114.957-.462.916-.469.878-.478.839-.486.8-.494.762-.5.185-.127.182-.127.18-.128.178-.128.345-.256.332-.256.625-.511.574-.508.523-.508.471-.5.109-.126.106-.126.1-.126.1-.124.185-.248.17-.245.295-.481.234-.471.172-.459.108-.449.017-.11.012-.11.008-.108,0-.106-.005-.21-.022-.2-.1-.392-.166-.37-.237-.347-.313-.324m-205.027,61.428,187.046-47.334M886.818,3379.2l.387,1.635,1.385,1.3,2.314.891,3.126.443,3.782-.029,4.248-.5,4.5-.944m155.771-148.505.32,4.933-.7,4.987-1.69,4.826-2.608,4.459-3.414,3.9-4.074,3.18-4.561,2.322m0,0-2.664-1.785-3.516-1.4-4.305-.987-5.013-.558-5.629-.118-6.142.324-6.542.761-6.822,1.182L998,3261.1m-5.365-29.073,1.348,4.955,1.228,5.027,1.054,4.883.836,4.532.582,3.987.3,3.272L998,3261.1m0,0-84.69,21.431m144.7-74.283,4.321,25.238m0,0-3.095-2.179-3.942-1.8-4.739-1.41-5.477-1-6.15-.573-6.745-.141-7.257.292-7.68.722-8.009,1.144-8.239,1.551-8.367,1.938m-127.971,53.433,3.34,3.869,4.138,3.137,4.749,2.266,5.148,1.292,5.314.26,5.241-.783m15.352-42.043,1.348,4.956,1.227,5.026,1.054,4.884.837,4.531.582,3.987.3,3.272.012,2.417m0,0-.5.129-.5.133-.5.138-.495.143-.981.3-.969.314-.958.329-.946.344-.935.36-.924.374-.229.1-.228.1-.228.1-.227.1-.447.2-.441.2-.864.407-.837.416-.813.423-.787.432-.384.219-.378.221-.187.111-.185.112-.183.112-.182.113-.7.452-.669.455-.635.458-.6.46-.144.115-.142.116-.139.115-.136.115-.265.229-.254.228-.477.455-.433.451-.392.447-.348.444-.157.221-.146.22-.069.109-.066.109-.062.109-.06.108-.207.425-.156.415-.1.4-.054.394m96.954-74.245,3.087,10.771m0,0-84.689,21.431m-154.66-122.69,55.689,77.346,55.689,77.346m38.651-43.5,4.631,11.5m0,0-.266.084-.266.085-.265.085-.266.086-.53.174-.531.177-.53.179-.53.183-.53.184-.528.188-2.1.772-2.069.806-2.044.84-2.017.875-1.991.907-1.965.942-.487.241-.486.243-.242.123-.242.123-.241.123-.241.124-.953.5-.939.5-1.834,1.019-1.777,1.037-1.719,1.054-1.661,1.071-.81.542-.794.547-.392.275-.388.276-.385.277-.381.279-1.474,1.116-1.4,1.12-1.316,1.123-1.238,1.128-.3.282-.292.282-.285.281-.279.281-.541.559-.517.556-.964,1.1-.871,1.093-.777,1.082-.683,1.071-.306.531-.281.528-.131.263-.125.262-.118.26-.112.258-.38,1.016-.275.988-.1.485-.071.477-.026.236-.018.234-.007.116-.005.116,0,.116v.115m4.759-57.1-.18-.316-.266-.637-.162-.68-.041-.355-.013-.363,0-.185.01-.188.008-.094.009-.095.005-.048.006-.048.006-.048.007-.048m562.845-178.448,19.209-278.485-19.209,278.485M1379.175,3254.6l4.7-1.682,4.234-2.525,3.593-3.267,2.8-3.875,1.9-4.327.925-4.6m21.861-446.1.258-.463.481-.269m-703.412,440-.322.158-.22.268m0,0,19.209-278.485m-19.209,278.485-4.477,9.049m685.243-237.17,4.779-1.717,4.289-2.588,3.622-3.35,2.8-3.971,1.862-4.425.847-4.694m35.916-210.726,0,0,8.959,5.648m-8.947-7.566.025.951-.037.967M868.813,3225.256l3.341,3.869,4.138,3.138,4.749,2.265,5.147,1.292,5.314.26,5.242-.783m-138.5-176.406,55.286,83.183,55.286,83.182M758.241,3058.891l7.247-105.071m103.325,271.436,7.65-110.907M896.744,3235.3l7.65-110.907M1377.008,2997l4.5-.944,4.247-.5,3.783-.029,3.126.442,2.313.892,1.385,1.3.387,1.635m0,0L1379.175,3254.6m0,0-.63,1.893-1.616,2.055-2.267,2.854-3.3,2.068-3.911,1.918-4.194,1.886-4.664,1.753" fill="none" stroke="#000" stroke-linecap="round" stroke-linejoin="round" stroke-width="4"/>
      <path id="Path_987" data-name="Path 987" d="M1377.355,3255.037" fill="none" stroke="#000" stroke-linecap="round" stroke-linejoin="round" stroke-width="4"/>
      <path id="Path_988" data-name="Path 988" d="M1394.931,3000.232" fill="none" stroke="#000" stroke-linecap="round" stroke-linejoin="round" stroke-width="4"/>
      <path id="Path_989" data-name="Path 989" d="M1418.318,2781.629l.925,2.878.262,3.071" fill="none" stroke="#000" stroke-linecap="round" stroke-linejoin="round" stroke-width="4"/>
      <line id="Line_336" data-name="Line 336" y1="190.082" x2="4.203" transform="translate(1415.301 2787.579)" fill="none" stroke="#000" stroke-linecap="round" stroke-linejoin="round" stroke-width="4"/>
      <line id="Line_337" data-name="Line 337" y1="129.57" x2="512.015" transform="translate(842.482 2758.93)" fill="none" stroke="#000" stroke-linecap="round" stroke-linejoin="round" stroke-width="4"/>
      <path id="Path_990" data-name="Path 990" d="M735.953,2945.726l3.442-4.521,4.3-4.609,5.115-4.657,5.889-4.666,6.613-4.635,7.281-4.564,7.886-4.455,8.424-4.307,8.891-4.123,9.281-3.9,9.592-3.651,9.822-3.367,9.967-3.054,10.028-2.715" fill="none" stroke="#000" stroke-linecap="round" stroke-linejoin="round" stroke-width="4"/>
      <path id="Path_991" data-name="Path 991" d="M736.029,2946.194l4.361-9.121,3.28-4.222,4.069-4.3,4.823-4.342,5.537-4.347,6.2-4.316,6.818-4.249,7.376-4.145,7.871-4.007,8.3-3.835,8.659-3.631,8.945-3.4,9.156-3.133" fill="none" stroke="#000" stroke-linecap="round" stroke-linejoin="round" stroke-width="4"/>
      <path id="Path_992" data-name="Path 992" d="M735.486,2949.333l.259-1.994.507-2.052" fill="none" stroke="#000" stroke-linecap="round" stroke-linejoin="round" stroke-width="4"/>
      <path id="Path_993" data-name="Path 993" d="M701.393,3201.951l-2.139-3.292-1.18-3.605-.209-3.886" fill="none" stroke="#000" stroke-linecap="round" stroke-linejoin="round" stroke-width="4"/>
      <line id="Line_338" data-name="Line 338" x1="0.044" y2="0.644" transform="translate(1446.138 2728.175)" fill="none" stroke="#000" stroke-linecap="round" stroke-linejoin="round" stroke-width="4"/>
      <path id="Path_994" data-name="Path 994" d="M1340.561,2713.23l10-2.354,9.893-1.972,9.7-1.573,9.421-1.16,9.063-.739,8.627-.31,8.119.121,7.541.551,6.9.976,6.2,1.393,5.443,1.8,4.642,2.188,3.8,2.559,2.93,2.908,2.032,3.232,1.117,3.53.193,3.8" fill="none" stroke="#000" stroke-linecap="round" stroke-linejoin="round" stroke-width="4"/>
      <line id="Line_339" data-name="Line 339" y1="129.57" x2="512.015" transform="translate(828.546 2713.23)" fill="none" stroke="#000" stroke-linecap="round" stroke-linejoin="round" stroke-width="4"/>
      <path id="Path_995" data-name="Path 995" d="M717.073,2912.682l.733-4.031,1.653-4.23,2.559-4.394,3.443-4.521,4.3-4.609,5.115-4.657,5.889-4.666,6.613-4.635,7.281-4.564,7.886-4.455,8.424-4.307,8.891-4.123,9.281-3.9,9.592-3.651,9.822-3.367,9.967-3.054,10.028-2.716" fill="none" stroke="#000" stroke-linecap="round" stroke-linejoin="round" stroke-width="4"/>
      <line id="Line_340" data-name="Line 340" x1="3.484" y2="5.461" transform="translate(719.673 2898.531)" fill="none" stroke="#000" stroke-linecap="round" stroke-linejoin="round" stroke-width="4"/>
      <path id="Path_996" data-name="Path 996" d="M916.474,3238.958l-.99.276-.98.25-.969.225-.959.2-.949.176-.939.152-.233.034-.233.032-.232.031-.231.03-.457.054-.451.048-.882.076-.857.051-.833.026h-.808l-.784-.023-.759-.048-.37-.033-.363-.04-.179-.022-.176-.024-.174-.025-.173-.027-.665-.122-.627-.145-.589-.167-.551-.191-.513-.213-.474-.237-.112-.063-.11-.064-.108-.066-.1-.067-.2-.139-.189-.144-.344-.3-.3-.322-.25-.341-.2-.361-.155-.381-.1-.4-.018-.1-.015-.1-.012-.106-.008-.107-.007-.217.007-.221" fill="none" stroke="#000" stroke-linecap="round" stroke-linejoin="round" stroke-width="4"/>
      <path id="Path_997" data-name="Path 997" d="M1321.236,2774.4l9.331-2.2,9.228-1.838,9.045-1.464,8.785-1.079,8.449-.684,8.041-.283,7.564.12,7.022.523,6.42.92,5.762,1.311,5.054,1.689,4.3,2.053,3.517,2.4,2.7,2.725,1.859,3.028" fill="none" stroke="#000" stroke-linecap="round" stroke-linejoin="round" stroke-width="4"/>
      <path id="Path_998" data-name="Path 998" d="M1373.08,2972l6.089-1.375,5.945-1.011,5.682-.626,5.307-.23,4.826.172,4.249.57,3.588.956,2.855,1.324,2.065,1.666,1.235,1.974.379,2.243" fill="none" stroke="#000" stroke-linecap="round" stroke-linejoin="round" stroke-width="4"/>
      <path id="Path_999" data-name="Path 999" d="M869.458,2888.728l-.136-.62-.04-.417" fill="none" stroke="#000" stroke-linecap="round" stroke-linejoin="round" stroke-width="4"/>
      <path id="Path_1000" data-name="Path 1000" d="M1377.3,2996.9l-.017-2.492-.323-3.389-.615-4.133-.88-4.691-1.105-5.039-1.28-5.16" fill="none" stroke="#000" stroke-linecap="round" stroke-linejoin="round" stroke-width="4"/>
      <line id="Line_341" data-name="Line 341" y1="114.326" x2="451.778" transform="translate(925.523 2996.904)" fill="none" stroke="#000" stroke-linecap="round" stroke-linejoin="round" stroke-width="4"/>
      <path id="Path_1001" data-name="Path 1001" d="M904.686,3124.293l-5.242.783-5.314-.26-5.147-1.292-4.749-2.265-4.138-3.138-3.341-3.869" fill="none" stroke="#000" stroke-linecap="round" stroke-linejoin="round" stroke-width="4"/>
      <path id="Path_1002" data-name="Path 1002" d="M925.523,3111.23l-.017-2.492-.323-3.389-.616-4.133-.88-4.691-1.1-5.039-1.281-5.16" fill="none" stroke="#000" stroke-linecap="round" stroke-linejoin="round" stroke-width="4"/>
      <path id="Path_1003" data-name="Path 1003" d="M904.686,3124.293l.631-1.893,1.616-2.055,2.521-2.115,3.3-2.068,3.912-1.918,4.329-1.672,4.529-1.341" fill="none" stroke="#000" stroke-linecap="round" stroke-linejoin="round" stroke-width="4"/>
      <path id="Path_1004" data-name="Path 1004" d="M747.041,3208.11l.186,3.588,1.065,3.334,1.936,3.051,2.791,2.742" fill="none" stroke="#000" stroke-linecap="round" stroke-linejoin="round" stroke-width="4"/>
      <path id="Path_1005" data-name="Path 1005" d="M782.542,3098.852l-4.035,2.434-2.866,1.843-2.727,1.858-2.589,1.873-2.448,1.889-.3.237-.294.238-.291.238-.289.238-.57.475-.558.474-1.083.945-1.038.941-1.941,1.87-1.763,1.854-1.585,1.839-1.405,1.823-.634.906-.588.9-.14.225-.137.225-.134.224-.131.224-.252.446-.24.444-.831,1.748-.627,1.705-.422,1.663-.215,1.62" fill="none" stroke="#000" stroke-linecap="round" stroke-linejoin="round" stroke-width="4"/>
      <line id="Line_342" data-name="Line 342" x1="5.371" y2="77.86" transform="translate(747.041 3130.25)" fill="none" stroke="#000" stroke-linecap="round" stroke-linejoin="round" stroke-width="4"/>
      <path id="Path_1006" data-name="Path 1006" d="M1444.761,2754.956l2.954,2.772,2.053,3.1,1.134,3.4.2,3.672" fill="none" stroke="#000" stroke-linecap="round" stroke-linejoin="round" stroke-width="4"/>
      <path id="Path_1007" data-name="Path 1007" d="M736.029,2948.907l-.322.157-.22.269" fill="none" stroke="#000" stroke-linecap="round" stroke-linejoin="round" stroke-width="4"/>
      <path id="Path_1008" data-name="Path 1008" d="M736.029,2948.907l.32-2.295.648-2.371" fill="none" stroke="#000" stroke-linecap="round" stroke-linejoin="round" stroke-width="4"/>
      <path id="Path_1009" data-name="Path 1009" d="M735.486,2949.333" fill="none" stroke="#000" stroke-linecap="round" stroke-linejoin="round" stroke-width="4"/>
      <line id="Line_343" data-name="Line 343" y1="114.326" x2="451.778" transform="translate(869.458 2774.402)" fill="none" stroke="#000" stroke-linecap="round" stroke-linejoin="round" stroke-width="4"/>
      <line id="Line_344" data-name="Line 344" x1="51.844" y1="197.598" transform="translate(1321.236 2774.402)" fill="none" stroke="#000" stroke-linecap="round" stroke-linejoin="round" stroke-width="4"/>
      <line id="Line_345" data-name="Line 345" y1="57.343" x2="226.601" transform="translate(921.302 3028.983)" fill="none" stroke="#000" stroke-linecap="round" stroke-linejoin="round" stroke-width="4"/>
      <path id="Path_1010" data-name="Path 1010" d="M765.781,2953.723l.682-3.749L768,2946.04l2.379-4.087,3.2-4.2,4-4.286,4.757-4.332,5.477-4.34,6.151-4.311,6.771-4.245,7.334-4.143,7.835-4.006,8.269-3.834,8.632-3.631,8.922-3.4,9.135-3.131,9.27-2.841,9.327-2.526" fill="none" stroke="#000" stroke-linecap="round" stroke-linejoin="round" stroke-width="4"/>
      <line id="Line_346" data-name="Line 346" x1="51.844" y1="197.598" transform="translate(869.458 2888.728)" fill="none" stroke="#000" stroke-linecap="round" stroke-linejoin="round" stroke-width="4"/>
      <path id="Path_1011" data-name="Path 1011" d="M876.756,3114.252l.608-2.524,1.478-2.7,2.319-2.813,3.112-2.873,3.842-2.874,4.494-2.817,5.055-2.7,5.512-2.533,5.857-2.312,6.083-2.044,6.185-1.735" fill="none" stroke="#000" stroke-linecap="round" stroke-linejoin="round" stroke-width="4"/>
      <line id="Line_347" data-name="Line 347" x1="110.975" y1="160.529" transform="translate(765.781 2953.723)" fill="none" stroke="#000" stroke-linecap="round" stroke-linejoin="round" stroke-width="4"/>
      <path id="Path_1012" data-name="Path 1012" d="M702.517,3185.649l-.195-1.736.019-1.794" fill="none" stroke="#000" stroke-linecap="round" stroke-linejoin="round" stroke-width="4"/>
      <path id="Path_1013" data-name="Path 1013" d="M702.788,3181.723l-.264.159-.182.238" fill="none" stroke="#000" stroke-linecap="round" stroke-linejoin="round" stroke-width="4"/>
      <line id="Line_348" data-name="Line 348" x2="1.618" y2="1.02" transform="translate(1444.565 2727.155)" fill="none" stroke="#000" stroke-linecap="round" stroke-linejoin="round" stroke-width="4"/>
      <path id="Path_1014" data-name="Path 1014" d="M1430.172,2709.469l2.863,2.666,2.027,2.973,1.174,3.255.31,3.509" fill="none" stroke="#000" stroke-linecap="round" stroke-linejoin="round" stroke-width="4"/>
    </g>
    <g id="Group_667" data-name="Group 667" transform="matrix(0.996, 0.087, -0.087, 0.996, -456.719, -217.619)">
      <path id="Path_1015" data-name="Path 1015" d="M1696.807,3037.348c-.631,4.907-6.087,9.757-13.215,11.76l-12.53,3.521c-2.226.625-3.681-.167-3.459-1.892l2.891-22.468c.222-1.724,2-3.425,4.224-4.051l9.19-2.582c6.851-1.925,11.223-.042,10.619,4.65a9.816,9.816,0,0,1-3.388,5.889C1695.115,3032.137,1697.245,3033.946,1696.807,3037.348Zm-19.279-9.1-.836,6.5,5.179-1.455c2.951-.829,4.95-2.593,5.21-4.616s-1.423-2.712-4.374-1.883Zm11.845,10.985c.288-2.239-1.491-3.025-4.776-2.1l-8.52,2.394-.919,7.147,8.52-2.394C1686.963,3043.351,1689.079,3041.51,1689.373,3039.229Z" transform="translate(0 -42.203)"/>
      <path id="Path_1016" data-name="Path 1016" d="M1752.667,3000.369c-.249,1.937-2.62,4.1-5.125,4.8-2.618.735-4.534-.22-4.285-2.156.255-1.982,2.57-4.126,5.188-4.862C1750.95,2997.448,1752.922,2998.387,1752.667,3000.369Zm-11.887,28.98,2.11-16.4c.216-1.679,1.992-3.383,4.164-3.993,2.115-.594,3.57.2,3.354,1.88l-2.11,16.4c-.216,1.678-2,3.424-4.169,4.035C1742.013,3031.865,1740.564,3031.027,1740.78,3029.349Z" transform="translate(-40.291 -29.555)"/>
      <path id="Path_1017" data-name="Path 1017" d="M1888.645,2986.358l-1.385,10.762c-.221,1.721-1.941,3.409-4.113,4.019-2.116.594-3.565-.244-3.348-1.922l1.285-9.988c.316-2.453-1.53-3.552-4.592-2.692s-5.457,3.192-5.767,5.6l-1.285,9.988c-.221,1.721-2,3.425-4.113,4.02-2.172.61-3.621-.229-3.4-1.907l2.11-16.4c.216-1.679,1.992-3.382,4.107-3.977,1.728-.486,3,.028,3.227,1.211a20.35,20.35,0,0,1,8.021-4.372C1885.683,2978.934,1889.315,2981.148,1888.645,2986.358Z" transform="translate(-106.991 -19.745)"/>
      <path id="Path_1018" data-name="Path 1018" d="M1956.686,2969.033l-.017.129c-.232,1.808-2.054,3.44-4.5,4.129l-15.7,4.413c.547,2.418,3.132,3.185,7.2,2.043a19.187,19.187,0,0,0,5.9-2.862,5.4,5.4,0,0,1,1.665-.84c1.726-.485,2.935.129,2.762,1.466-.122.947-.766,1.791-2.191,2.855a27.667,27.667,0,0,1-9,4.438c-8.687,2.441-14.477-.538-13.657-6.911.814-6.325,7.616-12.885,15.747-15.17C1952.4,2960.61,1957.428,2963.266,1956.686,2969.033Zm-19.7,4.581,12.528-3.52c.216-2.511-1.9-3.617-5.4-2.631A10.9,10.9,0,0,0,1936.988,2973.615Z" transform="translate(-143.969 -9.778)"/>
      <path id="Path_1019" data-name="Path 1019" d="M2016,2946.113c-.2,1.55-1.73,3.018-3.867,3.783-4.038,1.342-6.749,4.055-7.17,7.325l-1.053,8.18c-.221,1.721-2,3.425-4.113,4.019-2.172.61-3.621-.228-3.4-1.906l2.11-16.4c.216-1.678,1.992-3.382,4.107-3.977,1.949-.547,3.31.151,3.282,1.609a16.117,16.117,0,0,1,7.049-4.3C2014.946,2943.878,2016.206,2944.521,2016,2946.113Z" transform="translate(-181.03)"/>
      <path id="Path_1020" data-name="Path 1020" d="M1803.909,3008.581c-.277.078-.618.214-1.062.339-3.51.986-4.834.445-4.53-1.922l1.08-8.394,5.067-1.424c1.839-.517,3.307-1.924,3.49-3.344s-1.02-2.08-2.858-1.563l-5.067,1.424.376-2.926c.216-1.678-1.239-2.475-3.356-1.88-2.226.626-3.946,2.314-4.162,3.993l-.377,2.926-1.561.439-5.019,1.41-5.067,1.424.376-2.926c.216-1.679-1.238-2.475-3.356-1.88-2.226.626-3.946,2.314-4.162,3.992l-.376,2.926-1.561.438c-1.836.516-3.362,1.941-3.544,3.362s1.077,2.061,2.913,1.545l1.561-.439-1.147,8.912c-.67,5.207,2.811,6.927,10,4.909a11.61,11.61,0,0,0,3.325-1.447,4.275,4.275,0,0,0,2.193-2.858c.183-1.418-.977-2-2.982-1.441-.277.078.026,0-.417.129-3.509.986-4.834.446-4.53-1.923l1.08-8.394,5.067-1.424,5.019-1.41,1.561-.439-1.146,8.912c-.67,5.207,2.811,6.927,10,4.908a16.59,16.59,0,0,0,3.97-1.656,4.276,4.276,0,0,0,2.193-2.858C1807.073,3008.6,1805.913,3008.018,1803.909,3008.581Z" transform="translate(-55.413 -24.476)"/>
    </g>
  </g>
</svg>
