<svg xmlns="http://www.w3.org/2000/svg" width="296.968" height="218" viewBox="0 0 296.968 218">
  <g id="Group_711" data-name="Group 711" transform="translate(295.968 1) rotate(90)">
    <path id="Path_1539" data-name="Path 1539" d="M0,0A39.81,39.81,0,0,0,39.81,39.81" transform="translate(12.626 103.432)" fill="none" stroke="#040505" stroke-linecap="round" stroke-miterlimit="10" stroke-width="2"/>
    <path id="Path_1540" data-name="Path 1540" d="M0,0A35.588,35.588,0,0,0,35.588,35.588" transform="translate(3.844 255.458)" fill="none" stroke="#040505" stroke-linecap="round" stroke-miterlimit="10" stroke-width="2"/>
    <path id="Path_1541" data-name="Path 1541" d="M35.588,35.588A35.588,35.588,0,0,0,0,0" transform="translate(176.567 3.922)" fill="none" stroke="#040505" stroke-linecap="round" stroke-miterlimit="10" stroke-width="2"/>
    <path id="Path_1542" data-name="Path 1542" d="M0,35.588A35.588,35.588,0,0,0,35.588,0" transform="translate(176.567 255.458)" fill="none" stroke="#040505" stroke-linecap="round" stroke-miterlimit="10" stroke-width="2"/>
    <path id="Path_1543" data-name="Path 1543" d="M35.588,0A35.588,35.588,0,0,0,0,35.588" transform="translate(3.844 3.922)" fill="none" stroke="#040505" stroke-linecap="round" stroke-miterlimit="10" stroke-width="2"/>
    <path id="Path_1544" data-name="Path 1544" d="M39.81,0A39.81,39.81,0,0,0,0,39.81" transform="translate(12.626 12.704)" fill="none" stroke="#040505" stroke-linecap="round" stroke-miterlimit="10" stroke-width="2"/>
    <path id="Path_1545" data-name="Path 1545" d="M0,0" transform="translate(203.373 197.102)" fill="none" stroke="#040505" stroke-linecap="round" stroke-miterlimit="10" stroke-width="2"/>
    <path id="Path_1546" data-name="Path 1546" d="M39.81,39.81A39.81,39.81,0,0,0,0,0" transform="translate(163.563 12.704)" fill="none" stroke="#040505" stroke-linecap="round" stroke-miterlimit="10" stroke-width="2"/>
    <path id="Path_1547" data-name="Path 1547" d="M0,39.81A39.81,39.81,0,0,0,39.81,0" transform="translate(163.563 103.432)" fill="none" stroke="#040505" stroke-linecap="round" stroke-miterlimit="10" stroke-width="2"/>
    <path id="Path_1548" data-name="Path 1548" d="M0,0" transform="translate(202.913 197.102)" fill="none" stroke="#040505" stroke-linecap="round" stroke-miterlimit="10" stroke-width="2"/>
    <path id="Path_1549" data-name="Path 1549" d="M0,0" transform="translate(176.567 0.892)" fill="none" stroke="#040505" stroke-linecap="round" stroke-miterlimit="10" stroke-width="2"/>
    <path id="Path_1550" data-name="Path 1550" d="M0,0" transform="translate(215.186 39.51)" fill="none" stroke="#040505" stroke-linecap="round" stroke-miterlimit="10" stroke-width="2"/>
    <path id="Path_1551" data-name="Path 1551" d="M0,0" transform="translate(0.814 39.51)" fill="none" stroke="#040505" stroke-linecap="round" stroke-miterlimit="10" stroke-width="2"/>
    <path id="Path_1552" data-name="Path 1552" d="M0,0" transform="translate(39.433 0.892)" fill="none" stroke="#040505" stroke-linecap="round" stroke-miterlimit="10" stroke-width="2"/>
    <path id="Path_1553" data-name="Path 1553" d="M33.758,33.757A33.757,33.757,0,0,0,0,0" transform="translate(163.563 18.757)" fill="none" stroke="#040505" stroke-linecap="round" stroke-miterlimit="10" stroke-width="2"/>
    <path id="Path_1554" data-name="Path 1554" d="M33.757,0A33.757,33.757,0,0,0,0,33.757" transform="translate(18.679 18.757)" fill="none" stroke="#040505" stroke-linecap="round" stroke-miterlimit="10" stroke-width="2"/>
    <path id="Path_1555" data-name="Path 1555" d="M0,33.758A33.758,33.758,0,0,0,33.758,0" transform="translate(163.563 103.432)" fill="none" stroke="#040505" stroke-linecap="round" stroke-miterlimit="10" stroke-width="2"/>
    <path id="Path_1556" data-name="Path 1556" d="M0,0A33.757,33.757,0,0,0,33.757,33.758" transform="translate(18.679 103.432)" fill="none" stroke="#040505" stroke-linecap="round" stroke-miterlimit="10" stroke-width="2"/>
    <path id="Path_1557" data-name="Path 1557" d="M0,39.406A39.406,39.406,0,0,0,39.406,0" transform="translate(176.594 255.562)" fill="none" stroke="#040505" stroke-linecap="round" stroke-miterlimit="10" stroke-width="2"/>
    <path id="Path_1558" data-name="Path 1558" d="M39.406,39.406A39.407,39.407,0,0,0,0,0" transform="translate(176.594 0)" fill="none" stroke="#040505" stroke-linecap="round" stroke-miterlimit="10" stroke-width="2"/>
    <path id="Path_1559" data-name="Path 1559" d="M39.406,0A39.406,39.406,0,0,0,0,39.406" transform="translate(0 0)" fill="none" stroke="#040505" stroke-linecap="round" stroke-miterlimit="10" stroke-width="2"/>
    <path id="Path_1560" data-name="Path 1560" d="M0,0A39.406,39.406,0,0,0,39.406,39.406" transform="translate(0 255.562)" fill="none" stroke="#040505" stroke-linecap="round" stroke-miterlimit="10" stroke-width="2"/>
    <path id="Path_1561" data-name="Path 1561" d="M1.556,9.593A30.349,30.349,0,0,0,0,0" transform="translate(192.353 42.921)" fill="none" stroke="#040505" stroke-linecap="round" stroke-miterlimit="10" stroke-width="2"/>
    <path id="Path_1562" data-name="Path 1562" d="M0,9.593A30.345,30.345,0,0,0,1.556,0" transform="translate(192.353 103.432)" fill="none" stroke="#040505" stroke-linecap="round" stroke-miterlimit="10" stroke-width="2"/>
    <path id="Path_1563" data-name="Path 1563" d="M9.592,0A30.345,30.345,0,0,0,0,1.556" transform="translate(42.844 22.169)" fill="none" stroke="#040505" stroke-linecap="round" stroke-miterlimit="10" stroke-width="2"/>
    <path id="Path_1564" data-name="Path 1564" d="M0,0" transform="translate(25.932 37.213)" fill="none" stroke="#040505" stroke-linecap="round" stroke-miterlimit="10" stroke-width="2"/>
    <path id="Path_1565" data-name="Path 1565" d="M0,0A30.349,30.349,0,0,0,1.556,9.593" transform="translate(22.091 103.432)" fill="none" stroke="#040505" stroke-linecap="round" stroke-miterlimit="10" stroke-width="2"/>
    <path id="Path_1566" data-name="Path 1566" d="M1.556,0A30.353,30.353,0,0,0,0,9.593" transform="translate(22.091 42.921)" fill="none" stroke="#040505" stroke-linecap="round" stroke-miterlimit="10" stroke-width="2"/>
    <path id="Path_1567" data-name="Path 1567" d="M9.593,1.556A30.348,30.348,0,0,0,0,0" transform="translate(163.563 22.169)" fill="none" stroke="#040505" stroke-linecap="round" stroke-miterlimit="10" stroke-width="2"/>
    <path id="Path_1568" data-name="Path 1568" d="M28.295,91.926,16.63,80.261M28.295,17.778,16.63,29.443M150.986,80.261,139.322,91.926m11.665-62.483L139.322,17.778m.05,90.777.513.244.529.213.544.183.558.155.572.126.586.1.3.039.3.032.153.013.153.012.154.01.154.008.619.016.624-.011.628-.037.633-.062.637-.087.642-.111.646-.136.651-.16M139.371,1.148l.513-.243.529-.213.544-.183.558-.154.572-.126.586-.1.3-.039.3-.032.153-.013.153-.012.154-.01.154-.008L144.5,0l.624.011.628.037.633.062.637.087.642.111.646.136.65.16c6,1.51,15.427,8.859,19.2,19.2l.16.651.135.646.112.642.087.638.062.634.037.63.01.625-.017.621-.044.611-.071.6-.1.585-.126.571-.154.557-.183.543-.213.528-.243.513M16.63,80.261l-1.844-1.41-1.827-1.144-1.792-.867-1.739-.58-1.671-.289-1.587,0-1.487.3-1.373.59-1.246.875L.958,78.892,0,80.311M16.63,29.443V80.261m0-50.818-1.844,1.41L12.959,32l-1.792.866-1.739.581-1.671.289-1.587,0-1.487-.3-1.373-.59-1.246-.876L.958,30.811,0,29.393M150.986,80.261V29.443m16.63,50.868-.958-1.418-1.107-1.152-1.246-.875-1.373-.59-1.486-.3-1.587,0-1.671.289-1.74.58-1.791.867-1.827,1.144-1.844,1.41m16.63-50.868-.958,1.418-1.107,1.152-1.246.876-1.373.59-1.486.3-1.587,0-1.671-.289-1.74-.581L154.657,32l-1.827-1.144-1.844-1.41m18.731-.05h-2.1" transform="translate(24.192 23.122)" fill="none" stroke="#040505" stroke-linecap="round" stroke-linejoin="round" stroke-width="2"/>
    <path id="Path_1569" data-name="Path 1569" d="M2.1,30.346l-.243-.513L1.645,29.3l-.183-.544L1.308,28.2l-.126-.572-.1-.586-.039-.3-.032-.3L1,26.293.987,26.14l-.01-.154-.008-.154-.016-.619.011-.624L1,23.961l.062-.632.087-.637.111-.642L1.4,21.4l.16-.651c2.551-8.536,9.2-14.8,19.2-19.2L21.4,1.4l.647-.136.642-.111.639-.087L23.964,1l.63-.037.626-.01.62.016.611.043.6.071.585.1.571.126.557.154.543.183.528.213.513.243M141.422,92.879H30.4m-.05,16.63,1.419-.958,1.152-1.107.875-1.246.59-1.373.3-1.486,0-1.587L34.4,100.08l-.581-1.74-.866-1.791-1.143-1.827L30.4,92.879m111.027,0-1.41,1.844-1.144,1.827L138,98.34l-.58,1.74-.289,1.671,0,1.587.3,1.486.59,1.373.875,1.246,1.153,1.107,1.419.958m-.05-90.777H30.4m111.027,0-1.41-1.845-1.144-1.826L138,13.269l-.58-1.739-.289-1.671,0-1.586.3-1.487.59-1.373.875-1.246,1.153-1.107,1.419-.958M30.345,2.1l1.419.958,1.152,1.107.875,1.246.59,1.373.3,1.487,0,1.586L34.4,11.529l-.581,1.739-.866,1.792-1.143,1.826L30.4,18.731m-9.642,91.322.65.16.647.136.642.112.639.087.633.062.63.037.626.011.62-.017.611-.043.6-.071.585-.1.571-.126.557-.154.543-.183.528-.213.513-.244M0,81.264V30.346M30.345,0H141.472M0,81.264,171.818,30.346V81.264M2.1,81.264l-.243.514-.213.528-.183.544-.154.558-.126.572-.1.586-.039.3-.032.3L1,85.317l-.012.153-.01.154-.008.154L.953,86.4l.011.624L1,87.648l.062.633.087.637.111.642.136.646.16.65c2.362,7.535,6.46,12.664,10.792,15.6a25.556,25.556,0,0,0,14,4.313l116.233,1.263c.522.453,22.932-2.812,27.681-21.176l.16-.651.135-.646.112-.642.087-.638.062-.634.037-.629.01-.625-.017-.621-.043-.611-.071-.6-.1-.585-.126-.571-.154-.557-.183-.543-.212-.528-.244-.514" transform="translate(22.091 22.169)" fill="none" stroke="#040505" stroke-linecap="round" stroke-linejoin="round" stroke-width="2"/>
    <path id="Path_1570" data-name="Path 1570" d="M162.509,104.652l1.167-.894.962-1.112.718-1.284.442-1.4.149-1.462m0,0V57.45m0,0-.149-1.463-.442-1.4-.718-1.284-.962-1.112-1.167-.895M53.491,104.652l1.21.639,1.311.393,1.362.133m0,0H158.627m0,0,1.362-.133,1.311-.393,1.21-.639m0,0-18.256-6.187m0-40.983V98.465m0,0H71.746m0,0V57.482M53.491,51.3l-1.167.895L51.361,53.3l-.717,1.284-.443,1.4-.149,1.463m0,0V98.5m0,0,.149,1.462.443,1.4.717,1.284.962,1.112,1.167.894m0,0,18.255-6.187m0-40.983h72.508m0,0L162.509,51.3m0,0-1.21-.639-1.311-.393-1.362-.133m0,0H57.373m0,0-1.362.133-1.311.393-1.21.639m18.255,6.187L53.491,51.3M0,39.406V255.562M176.594,0H39.406M216,255.562V39.406M39.406,294.968H176.594M163.563,137.19H52.436m0-118.433H163.563M18.68,103.432V52.514M197.321,248.02m0-195.506v50.918M39.433.892m137.134,0M12.626,243.24a39.811,39.811,0,0,0,39.81,39.81m0-130.078a39.35,39.35,0,0,0-39.35,39.35m190.287,0a39.81,39.81,0,0,0-39.81-39.81m0,130.538a39.81,39.81,0,0,0,39.81-39.81m-6.053-50.918a33.758,33.758,0,0,0-33.758-33.758m-111.127,0A33.757,33.757,0,0,0,18.68,192.322M163.563,277a33.758,33.758,0,0,0,33.758-33.758m-178.641,0A33.757,33.757,0,0,0,52.436,277m141.472-84.676a30.344,30.344,0,0,0-1.556-9.593m0,70.1a30.347,30.347,0,0,0,1.556-9.593M52.436,161.976a30.345,30.345,0,0,0-9.592,1.556M25.932,177.02m-3.841,66.22a30.344,30.344,0,0,0,1.556,9.593m0-70.1a30.341,30.341,0,0,0-1.556,9.593m151.065-28.79a30.345,30.345,0,0,0-9.593-1.556M52.487,254.854,40.822,243.189m11.665-62.483L40.822,192.371m134.356,50.818-11.665,11.665m11.665-62.483-11.665-11.664m.05,90.778.513.243.528.213.544.183.558.155.573.126.586.1.3.039.3.032.152.013.153.012.154.01.154.008.618.016.624-.011.628-.036.633-.062.637-.087.642-.111.646-.136.651-.161m-9.593-107.952.513-.244.528-.212.544-.183.558-.155.572-.126.586-.1.3-.038.3-.032.152-.013.153-.012.154-.01.154-.008.618-.016.624.011.628.037.633.062.637.087.642.111.646.136.65.16c6,1.51,15.427,8.86,19.2,19.2l.16.651.136.646.112.643.087.638.062.634.037.629.01.625-.017.621-.043.611-.071.6-.1.585-.126.571-.154.557-.183.543-.213.528-.244.513M40.822,243.189l-1.844-1.41-1.827-1.144-1.792-.866-1.739-.581-1.671-.289-1.586.005-1.487.3-1.373.59-1.246.876-1.107,1.153-.958,1.418m16.63-50.869v50.818m0-50.818-1.844,1.41-1.827,1.144-1.792.867-1.739.58-1.671.289-1.586,0-1.487-.3-1.373-.59-1.246-.875L25.15,193.74l-.958-1.418m150.986,50.868V192.371m16.629,50.869-.958-1.418-1.107-1.153-1.246-.876-1.373-.59-1.486-.3-1.587-.005-1.671.289-1.74.581-1.791.866-1.827,1.144-1.844,1.41m16.629-50.868-.958,1.418-1.107,1.153-1.246.875-1.373.59-1.486.3-1.587,0-1.671-.289-1.74-.58-1.791-.867-1.827-1.144-1.844-1.41m18.731-.049h-2.1m-167.616,0-.243-.513-.213-.528-.183-.543-.154-.558-.126-.572-.1-.586-.039-.3-.032-.3-.013-.152-.012-.153-.01-.154-.008-.154-.016-.619.011-.624.037-.628.062-.633.087-.637.111-.642.136-.646.16-.65c2.55-8.536,9.2-14.8,19.2-19.2l.651-.16.647-.136.642-.112.639-.087.634-.062.63-.037.625-.011.62.017.611.043.6.071.585.1.571.126.557.154.543.183.528.212.513.244m111.077,90.777H52.487m-.05,16.63,1.419-.958,1.152-1.108.875-1.246.589-1.373.3-1.487,0-1.587-.289-1.671-.581-1.739-.866-1.792L53.9,256.7l-1.41-1.845m111.027,0L162.1,256.7l-1.144,1.826-.867,1.792-.58,1.739-.289,1.671,0,1.587.3,1.487.59,1.373.875,1.246,1.153,1.108,1.419.958m-.05-90.778H52.487m111.027,0-1.41-1.844-1.144-1.827-.867-1.791-.58-1.74-.289-1.671,0-1.586.3-1.486.59-1.373.875-1.247,1.153-1.107,1.419-.958m-111.127,0,1.419.958,1.152,1.107.875,1.247.589,1.373.3,1.486,0,1.586-.289,1.671-.581,1.74-.866,1.791L53.9,178.863l-1.41,1.844m-9.643,91.322.65.161.647.136.642.111.639.087.634.062.63.037.625.01.62-.016.611-.043.6-.071.585-.1.571-.126.557-.154.543-.183.528-.213.513-.243M22.091,243.24V192.322m30.345-30.346H163.563M22.091,243.24m171.818-50.918V243.24m-169.717,0-.243.513-.213.529-.183.543-.154.558-.126.572-.1.586-.039.3-.032.3-.013.152-.012.153-.01.154-.008.154-.016.619.011.624.037.629.062.632.087.637.111.642.136.646.16.651c2.362,7.535,6.459,12.664,10.792,15.6a25.556,25.556,0,0,0,14,4.312l116.233,1.263c.522.453,22.932-2.813,27.68-21.176l.16-.651.136-.646.112-.642.087-.638.062-.634.037-.63.01-.625-.017-.621-.043-.611-.071-.6-.1-.585-.126-.571-.154-.557-.183-.543-.213-.528-.244-.513m-29.3,1.219,1.167-.894.962-1.112.718-1.284.442-1.4.149-1.463m0,0V197.257m0,0-.149-1.462-.442-1.4-.718-1.284L163.676,192l-1.167-.894M53.491,244.459l1.21.639,1.311.393,1.362.133m0,0H158.627m0,0,1.362-.133,1.311-.393,1.21-.639m0,0-18.256-6.187m0-40.983v40.983m0,0H71.746m0,0V197.289M53.491,191.1,52.323,192l-.962,1.112-.717,1.284-.443,1.4-.149,1.462m0,0V238.3m0,0,.149,1.463.443,1.4.717,1.284.962,1.112,1.167.894m0,0,18.255-6.187m0-40.983h72.508m0,0,18.256-6.187m0,0-1.21-.639-1.311-.393-1.362-.133m0,0H57.373m0,0-1.362.133-1.311.393-1.21.639m18.255,6.187L53.491,191.1M163.563,277H52.436m0-118.433H163.563M18.68,243.24V192.322m178.641,0V243.24M.814,255.458m0-215.948" transform="translate(0 0)" fill="none" stroke="#040505" stroke-linecap="round" stroke-linejoin="round" stroke-width="2"/>
  </g>
</svg>
