<svg xmlns="http://www.w3.org/2000/svg" width="264.859" height="242.953" viewBox="0 0 264.859 242.953">
  <g id="Group_713" data-name="Group 713" transform="translate(1 1)">
    <path id="Path_1594" data-name="Path 1594" d="M239.079-226.223l-18.908-6.1m-5.958-.974-.7,0-.694.017-.278.013-.279.016-.458.035-.456.044-.467.055-.463.066-.489.081-.483.093-.494.108-.487.119-.49.135-.481.145-.478.161-.467.172-.459.186-.446.2-.435.212-.419.223-.406.235-.39.245-.373.256-.355.267-.337.276-.317.285-.289.286-.269.293m18.108-3.234-.242-.081-.243-.077-.542-.152-.553-.133-.528-.115-.536-.1-.471-.077-.474-.067-.374-.045-.377-.039-.436-.037-.438-.029-.369-.017-.369-.011m9.367-126.067,0-.012-.007-.012-.007-.012-.007-.011-.018-.022-.018-.02-.021-.02-.021-.018-.021-.018-.021-.017-.043-.032-.044-.031-.045-.029-.044-.029-.045-.027-.046-.027-.045-.026-.046-.026-.092-.048-.093-.048-.186-.087-.188-.082-.189-.077-.191-.072m-23.658,2.277,5.716.082,5.747.578,5.6,1.072,5.27,1.532,4.792,1.931M192.174-354.9l.862-1.137,1.472-.965,1.912-.638,2.058-.246M298.49-228.279l.064-.254m-1.088,3.628.891-2.857m.2-.77.022-.083.023-.083m-52.925,7.167.076.131m-.125-.241-.126-.216-.137-.212-.26-.352-.29-.342-.314-.335-.337-.325-.361-.314-.384-.3-.4-.293-.425-.281-.445-.269-.465-.256-.48-.241-.5-.229-.51-.215-.525-.2-.292-.1-.3-.094m56.352,5.512.325-.522.307-.529.282-.528.265-.533.463-1.039.4-1.048m.039-.15-.141.4-.145.4-.148.377-.158.375-.158.358-.165.355-.164.337-.171.335-.171.318-.176.314-.175.3-.181.293-.119.187m-1.982,2.608.468-.547.45-.56.488-.644.452-.669.06-.1.059-.1m-106.9-133.534-1.818-.665-2.158-.324-2.2.087-1.945.46m-16.193,4.753-.089.121-.088.126-.087.131-.086.137-.042.07-.042.072-.042.075-.039.077-.02.04-.02.04-.02.042-.018.044-.009.022-.01.023-.009.023-.007.023-.009.026-.007.026,0,.013,0,.013,0,.013v.015M180.4-354.7l-4.657,1.912-4.2,2.333-3.6,2.694-2.881,2.969-2.1,3.146m140.1,1.489-78.682-25.366m0,0-2.127-.648-2.17-.587-2.271-.539-2.31-.474-1.626-.29-1.64-.257-1.742-.236-1.755-.2-1.85-.169-1.856-.127-1.448-.07-1.449-.045-1.49-.021-1.488.006-1.522.033-1.517.061-1.477.087-1.471.113-1.308.123-1.3.144-1.142.143-1.136.16-.983.153-.978.165-.835.15-.829.16-.8.163-.792.171-.846.192-.839.2-.946.241-.937.253-1.054.3-1.04.315-1.166.377-1.148.4-1.251.46-1.226.482-1.3.548-1.27.573-1.429.692-1.383.725-1.257.708-1.214.734-1.1.712-1.059.735-.727.534-.707.544-.73.592-.706.6-.753.681-.72.693-.741.762-.7.776m68.778.829-.968-3.347-1.049-3.323m2.017,6.67-5.232-1.336-5.52-.976-5.7-.583-5.76-.174-5.7.235-5.516.625m-.083-6.272.02,3.14.064,3.132m-4.045-5.573.22,3.1.176,3.114m-25.558,12.611,3.038-2.794,3.629-2.59,4.158-2.322,4.6-2L183.347-353l5.178-1.261m-25.558,12.611.258-3.563.331-3.565m133.251,12.683-.2-.054-.2-.05-.2-.044-.2-.038-.1-.017-.1-.013-.1-.011-.1-.009-.05,0h-.1l-.05,0-.024,0-.024,0-.023,0-.023,0-.023.006-.021.01-.01,0-.01.006-.009.009-.007.009m19.136,15.735-3.315-2.829-4.008-2.565-4.6-2.214-5.041-1.792-5.319-1.329m22.692,11.2-.412-.473M202.056-229.078l-22.222,25.4M314.966-313.495l1.924.542,1.652.9,1.115,1.158.462,1.235m5.48-16.175-.521-.653-.547-.644-.592-.66-.619-.65-.644-.642-.67-.632-.693-.621-.719-.613-.742-.6-.767-.591-.789-.578-.812-.567-.834-.554-.855-.543-.875-.529-.9-.517-.916-.5-.935-.49-.954-.476-.971-.462-.989-.449-1.006-.433-1.021-.417-1.037-.4-1.05-.389-1.067-.37-.507-.166-.511-.161" transform="translate(-69.954 369.184)" fill="none" stroke="#1a1818" stroke-linecap="round" stroke-linejoin="round" stroke-width="2"/>
    <path id="Path_1595" data-name="Path 1595" d="M226.749-269.682l.487.494.471.509.425.516.4.539.356.54.328.558.287.558.254.573.443,1.332.246,1.379.031,1.241-.163,1.221-.566,1.624-.911,1.437-1.16,1.168-1.349.907-1.5.677-1.554.542m-19.488,3.437-.55.037-.55.026-.533.006-.533-.012-.517-.031-.516-.05-.5-.071-.5-.093-.482-.113-.478-.137-1.206-.481-1.121-.66-1.015-.858-.851-1.025-.672-1.2-.457-1.3-.27-1.626.011-1.642.082-.685.124-.676.177-.726.223-.71.295-.752.324-.74m41.283,30.986-.149.043m18.908,6.1.146-.049m58.4,1.154-.039.15m-2.032,4.188-.082.125M243.23-359.245l-.1.182-.057.227m-3.571-7.227.245-.126m67.043,27.432-.1.182-.057.227m-63.555-20.488-2.046-.624-2.088-.569m-60.024,10.587-1.18,1.143-1.089,1.177m17.629,83.167-2.06,1.625-1.747,1.752m3.807-3.377.165-.269.168-.268.169-.262.171-.262.172-.256.175-.253.177-.249.178-.247.18-.242.182-.241.183-.235.186-.234.187-.229.19-.226.19-.221.192-.22.193-.215.2-.212.2-.208.2-.207.2-.2.2-.2.2-.194.2-.192.2-.186.205-.185.207-.181.208-.177.208-.172.21-.171.21-.165.213-.164,1.949-1.313,2.1-1.081,2.135-.795,2.223-.536,2.29-.264,2.317.009,2.4.287,2.365.555.533.163.528.175.537.192.533.2.539.221.535.232.542.251.536.263.543.28.537.292.543.311.536.322.542.34.533.352.537.373.533.38m6.434,1.571-3.15-.889-3.284-.682m79.875-68.666-63.555-20.488m-9.887,90.725,9.887-90.725m43.274,107.864L233.182-268.11m-15.771,38.364.325-.061M318.179-340.7l.238-.126m17.056,30.5.718-5.577m-25.627-21.035-1.944-.734-2-.679m-7.99,73.325,7.99-73.325m7.33,108.976-.039.161m-52.982,7.331-1.516-2.071-2.329-1.692-2.775-1.186m0,0-18.908-6.1m0,0-2.563-.632-2.9-.311-3.043.092-2.947.52-2.61.906-2.1,1.191-1.51,1.351m0,0L195.4-204.273m-61.111,54.1-.18-.068-.626-.32-.709-.466-.864-.67-.915-.794-.855-.806-.861-.868-.918-.983-.913-1.011m0,0-.281.417m100.059-97.165,47.433,15.292m-51.386-16.252,2.019.416,1.934.544m-3.953-.96-19.488,3.437m-2.344,2.071,1.075-1.076,1.269-1m-33.872,38.115,31.528-36.043m38.029,107.512L237.9-137.7m-11.386,4.5-.105.048m-50.065-214.3.2.13.1.2m-71.209,80.74.2.13.1.2M135.118-149.9l-.951-.714-.646-1.365L133.2-153.8m57.267-106.774L176.642-347.12m0,0-70.911,81.067m84.732,5.476-37.447,42.811M206.9-129.712h-.024m.153-.051-.105.048m-10.169-3.6.35,1.91.7,1.388,1.036.654m27.673-3.838-19.488,3.437m-95.9-102.517-5.393-33.773m0,0-1,1.207-.9,1.235M127.45-156.159l-.234-.23-.232-.231-.23-.229-.227-.229-.225-.227-.224-.227-.22-.225-.219-.226-.216-.223-.215-.224-.21-.221-.21-.223-.207-.219-.207-.22-.2-.216-.2-.218-.2-.215-.2-.215-.193-.213-.191-.213-.188-.21-.187-.21-.183-.208-.181-.208-.179-.205-.177-.2-.174-.2-.172-.2-.169-.2-.166-.2-.164-.2-.163-.2-1.351-1.7-1.2-1.651-1-1.515-.817-1.416-.627-1.3-.428-1.165-.176-.708m-.467-50.81-4.534-1.645-4.388-1.993-4.138-2.339-3.778-2.667-3.312-2.963-2.75-3.211-2.112-3.4-1.423-3.509-.713-3.549-.011-3.512.654-3.406,1.261-3.24M328.149-298.51l-.153-.012-.114.062m-70.644,81.019-.153-.013-.115.062m83.206-82.5,0,0L261.464-209.9M133.2-153.8l-5.273-61.009M126.8-226.133l.054-.045.046-.007m63.455,20.541.054-.045.046-.006m3.255,7.746-78.681-25.366m124.446,82.469,13.059-57.195" transform="translate(-85.308 369.851)" fill="none" stroke="#1a1818" stroke-linecap="round" stroke-linejoin="round" stroke-width="2"/>
    <line id="Line_543" data-name="Line 543" x2="0.069" y2="0.746" transform="translate(250.166 59.527)" fill="none" stroke="#1a1818" stroke-linecap="round" stroke-linejoin="round" stroke-width="2"/>
    <path id="Path_1596" data-name="Path 1596" d="M287.546-312.48l.352-3.767-.473-3.75-1.261-3.64" transform="translate(-41.152 379.326)" fill="none" stroke="#1a1818" stroke-linecap="round" stroke-linejoin="round" stroke-width="2"/>
    <path id="Path_1597" data-name="Path 1597" d="M287.476-328.272l-.662,2.82-.65,2.847" transform="translate(-41.152 378.294)" fill="none" stroke="#1a1818" stroke-linecap="round" stroke-linejoin="round" stroke-width="2"/>
    <path id="Path_1598" data-name="Path 1598" d="M286.423-330.221l-.6,2.94-.614,2.915" transform="translate(-41.364 377.86)" fill="none" stroke="#1a1818" stroke-linecap="round" stroke-linejoin="round" stroke-width="2"/>
    <path id="Path_1599" data-name="Path 1599" d="M267.435-338.17l4.753,1.883,4.423,2.23,3.989,2.54,3.464,2.8,2.87,3,2.236,3.125" transform="translate(-45.322 376.09)" fill="none" stroke="#1a1818" stroke-linecap="round" stroke-linejoin="round" stroke-width="2"/>
    <path id="Path_1600" data-name="Path 1600" d="M267.435-337.258l1.554-2.534,1.59-2.471" transform="translate(-45.322 375.179)" fill="none" stroke="#1a1818" stroke-linecap="round" stroke-linejoin="round" stroke-width="2"/>
    <path id="Path_1601" data-name="Path 1601" d="M272.938-254.157l-.03.119-.142.545-.152.547-.165.561-.176.562-.192.575-.2.576" transform="translate(-44.332 394.798)" fill="none" stroke="#1a1818" stroke-linecap="round" stroke-linejoin="round" stroke-width="2"/>
    <line id="Line_544" data-name="Line 544" y1="47.955" x2="11.566" transform="translate(228.643 92.536)" fill="none" stroke="#1a1818" stroke-linecap="round" stroke-linejoin="round" stroke-width="2"/>
    <path id="Path_1602" data-name="Path 1602" d="M285.687-312.527l0-.013.005-.013.006-.013.007-.012.014-.024.014-.023.015-.022.015-.022.015-.021.015-.02.03-.04.03-.038.03-.037.03-.037.03-.036.03-.035.03-.034.03-.034.059-.066.059-.065.117-.125.116-.121.114-.117.113-.114" transform="translate(-41.258 381.559)" fill="none" stroke="#1a1818" stroke-linecap="round" stroke-linejoin="round" stroke-width="2"/>
    <path id="Path_1603" data-name="Path 1603" d="M286.088-312.828l-.906,1.257-1.012,1.228" transform="translate(-41.596 381.733)" fill="none" stroke="#1a1818" stroke-linecap="round" stroke-linejoin="round" stroke-width="2"/>
    <path id="Path_1604" data-name="Path 1604" d="M223.21-250.477l1.977.808,1.751,1.113,1.334,1.373.767,1.534" transform="translate(-55.17 395.618)" fill="none" stroke="#1a1818" stroke-linecap="round" stroke-linejoin="round" stroke-width="2"/>
    <line id="Line_545" data-name="Line 545" x2="18.908" y2="6.096" transform="translate(149.132 139.045)" fill="none" stroke="#1a1818" stroke-linecap="round" stroke-linejoin="round" stroke-width="2"/>
    <path id="Path_1605" data-name="Path 1605" d="M195.556-252.689l1.274-1.14,1.771-1,2.2-.764,2.486-.438,2.567-.077,2.443.262,2.162.533" transform="translate(-61.328 394.363)" fill="none" stroke="#1a1818" stroke-linecap="round" stroke-linejoin="round" stroke-width="2"/>
    <line id="Line_546" data-name="Line 546" y1="24.72" x2="21.623" transform="translate(112.605 141.674)" fill="none" stroke="#1a1818" stroke-linecap="round" stroke-linejoin="round" stroke-width="2"/>
    <path id="Path_1606" data-name="Path 1606" d="M120.011-194.07l.678.692.688.675.6.566.6.549.5.441.5.421.394.318.39.3.283.21.283.2.294.2.3.191.371.223.367.2.442.21.43.17" transform="translate(-78.151 408.179)" fill="none" stroke="#1a1818" stroke-linecap="round" stroke-linejoin="round" stroke-width="2"/>
    <path id="Path_1607" data-name="Path 1607" d="M125.822-189.524l.42.15.431.13" transform="translate(-76.857 409.191)" fill="none" stroke="#1a1818" stroke-linecap="round" stroke-linejoin="round" stroke-width="2"/>
    <path id="Path_1608" data-name="Path 1608" d="M110.462-207.782l.12.527.154.539.151.45.172.455.15.363.162.365.153.326.162.329.352.669.389.686.474.781.516.8.422.623.444.632.519.714.544.723.634.814.66.822.762.92.788.923.9,1.027.924,1.024,1.048,1.131,1.072,1.124" transform="translate(-80.277 405.125)" fill="none" stroke="#1a1818" stroke-linecap="round" stroke-linejoin="round" stroke-width="2"/>
    <line id="Line_547" data-name="Line 547" x1="49.05" y1="15.813" transform="translate(136.554 120.707)" fill="none" stroke="#1a1818" stroke-linecap="round" stroke-linejoin="round" stroke-width="2"/>
    <path id="Path_1609" data-name="Path 1609" d="M199.254-270.369l-2.059-.447-2.345-.058-2.294.4-1.888.8L189.4-268.63" transform="translate(-62.7 391.076)" fill="none" stroke="#1a1818" stroke-linecap="round" stroke-linejoin="round" stroke-width="2"/>
    <line id="Line_548" data-name="Line 548" x1="33.198" y2="37.954" transform="translate(93.497 122.446)" fill="none" stroke="#1a1818" stroke-linecap="round" stroke-linejoin="round" stroke-width="2"/>
    <line id="Line_549" data-name="Line 549" y1="81.068" x2="70.911" transform="translate(152.591 151.079)" fill="none" stroke="#1a1818" stroke-linecap="round" stroke-linejoin="round" stroke-width="2"/>
    <line id="Line_550" data-name="Line 550" y1="3.437" x2="19.488" transform="translate(121.612 236.699)" fill="none" stroke="#1a1818" stroke-linecap="round" stroke-linejoin="round" stroke-width="2"/>
    <path id="Path_1610" data-name="Path 1610" d="M209.469-177.9l.038-.035.038-.035.592-.583.553-.618.064-.076.063-.077" transform="translate(-58.23 411.463)" fill="none" stroke="#1a1818" stroke-linecap="round" stroke-linejoin="round" stroke-width="2"/>
    <line id="Line_551" data-name="Line 551" x1="0.023" y2="0.003" transform="translate(141.077 236.699)" fill="none" stroke="#1a1818" stroke-linecap="round" stroke-linejoin="round" stroke-width="2"/>
    <path id="Path_1611" data-name="Path 1611" d="M201.158-175.018l1.114-.2,1.124-.214.945-.191.943-.2.517-.118.51-.121.412-.1.4-.1.309-.084.3-.085.471-.141.449-.145.511-.182.475-.19.464-.214.438-.245.406-.284.386-.326" transform="translate(-60.081 411.72)" fill="none" stroke="#1a1818" stroke-linecap="round" stroke-linejoin="round" stroke-width="2"/>
    <line id="Line_552" data-name="Line 552" x2="63.555" y2="20.489" transform="translate(49.81 219.956)" fill="none" stroke="#1a1818" stroke-linecap="round" stroke-linejoin="round" stroke-width="2"/>
    <line id="Line_553" data-name="Line 553" x1="0.023" y2="0.003" transform="translate(121.589 240.136)" fill="none" stroke="#1a1818" stroke-linecap="round" stroke-linejoin="round" stroke-width="2"/>
    <path id="Path_1612" data-name="Path 1612" d="M179.164-172.221l.272.069.274.053.247.033.247.021.221.011.217,0,.26,0,.261-.01.4-.025.418-.036.57-.06.6-.075.756-.106.78-.119.931-.152.953-.165" transform="translate(-64.978 412.919)" fill="none" stroke="#1a1818" stroke-linecap="round" stroke-linejoin="round" stroke-width="2"/>
    <path id="Path_1613" data-name="Path 1613" d="M178.5-172.538l.421.132.421.132" transform="translate(-65.127 412.973)" fill="none" stroke="#1a1818" stroke-linecap="round" stroke-linejoin="round" stroke-width="2"/>
    <path id="Path_1614" data-name="Path 1614" d="M101.094-282.289l0-.007-.005-.005-.006,0-.006,0-.013,0h-.028l-.014,0-.014,0-.015,0-.029.011-.029.014-.03.015-.03.017-.03.018-.03.019-.03.019-.03.02-.059.042-.058.044-.116.094-.115.1-.114.106-.113.11" transform="translate(-82.567 388.529)" fill="none" stroke="#1a1818" stroke-linecap="round" stroke-linejoin="round" stroke-width="2"/>
    <path id="Path_1615" data-name="Path 1615" d="M96.124-266.994l1.408-4.293,2.7-4.051,3.834-3.615" transform="translate(-83.47 389.277)" fill="none" stroke="#1a1818" stroke-linecap="round" stroke-linejoin="round" stroke-width="2"/>
    <line id="Line_554" data-name="Line 554" x1="0.177" y2="0.133" transform="translate(18.693 132.437)" fill="none" stroke="#1a1818" stroke-linecap="round" stroke-linejoin="round" stroke-width="2"/>
    <path id="Path_1616" data-name="Path 1616" d="M103-278.208l-1.043-2.076-1.03-2.009" transform="translate(-82.4 388.533)" fill="none" stroke="#1a1818" stroke-linecap="round" stroke-linejoin="round" stroke-width="2"/>
    <path id="Path_1617" data-name="Path 1617" d="M103.451-278.952l-2.252,3.346-1.537,3.551-.761,3.675.04,3.707" transform="translate(-82.851 389.277)" fill="none" stroke="#1a1818" stroke-linecap="round" stroke-linejoin="round" stroke-width="2"/>
    <path id="Path_1618" data-name="Path 1618" d="M100.419-265.173l.474,2.619.49,2.646" transform="translate(-82.513 392.345)" fill="none" stroke="#1a1818" stroke-linecap="round" stroke-linejoin="round" stroke-width="2"/>
    <line id="Line_555" data-name="Line 555" x1="0.47" y1="0.747" transform="translate(18.87 132.437)" fill="none" stroke="#1a1818" stroke-linecap="round" stroke-linejoin="round" stroke-width="2"/>
    <line id="Line_556" data-name="Line 556" x2="9.73" y2="50.036" transform="translate(20.455 147.309)" fill="none" stroke="#1a1818" stroke-linecap="round" stroke-linejoin="round" stroke-width="2"/>
    <path id="Path_1619" data-name="Path 1619" d="M115.309-253.276l.2.058.2.062.2.065.2.069.1.036.1.038.125.05" transform="translate(-79.198 394.994)" fill="none" stroke="#1a1818" stroke-linecap="round" stroke-linejoin="round" stroke-width="2"/>
    <path id="Path_1620" data-name="Path 1620" d="M120.578-251.4l-.6-.2-.6-.2-1.122-.395-1.1-.415-.458-.183-.454-.187" transform="translate(-78.989 395.062)" fill="none" stroke="#1a1818" stroke-linecap="round" stroke-linejoin="round" stroke-width="2"/>
    <line id="Line_557" data-name="Line 557" y1="5.187" x2="2.932" transform="translate(4.474 105.92)" fill="none" stroke="#1a1818" stroke-linecap="round" stroke-linejoin="round" stroke-width="2"/>
    <line id="Line_558" data-name="Line 558" x1="70.911" y2="81.068" transform="translate(171.663 71.391)" fill="none" stroke="#1a1818" stroke-linecap="round" stroke-linejoin="round" stroke-width="2"/>
    <path id="Path_1621" data-name="Path 1621" d="M226.609-244.492l-.313.351-.321.349-.631.659-.667.646-.228.207-.233.206" transform="translate(-54.946 396.951)" fill="none" stroke="#1a1818" stroke-linecap="round" stroke-linejoin="round" stroke-width="2"/>
    <line id="Line_559" data-name="Line 559" x1="63.555" y1="20.489" transform="translate(41.589 143.665)" fill="none" stroke="#1a1818" stroke-linecap="round" stroke-linejoin="round" stroke-width="2"/>
    <path id="Path_1622" data-name="Path 1622" d="M176.462-233.6l-.107-.026-.107-.026-1.195-.308-1.178-.33-1.059-.314-1.048-.328" transform="translate(-66.625 399.081)" fill="none" stroke="#1a1818" stroke-linecap="round" stroke-linejoin="round" stroke-width="2"/>
    <path id="Path_1623" data-name="Path 1623" d="M223.759-241.818l.09-.118.088-.114.086-.11.084-.1.041-.05.041-.048.04-.046.039-.043.019-.02.019-.019.019-.017" transform="translate(-55.048 397.392)" fill="none" stroke="#1a1818" stroke-linecap="round" stroke-linejoin="round" stroke-width="2"/>
    <path id="Path_1624" data-name="Path 1624" d="M175.6-233.838l.011,0,.093.025.093.026.187.057.188.061.189.065.191.068" transform="translate(-65.771 399.323)" fill="none" stroke="#1a1818" stroke-linecap="round" stroke-linejoin="round" stroke-width="2"/>
    <path id="Path_1625" data-name="Path 1625" d="M210.667-231.324l4-1.6,3.68-1.9,3.274-2.17,2.794-2.391,2.262-2.556" transform="translate(-57.963 397.518)" fill="none" stroke="#1a1818" stroke-linecap="round" stroke-linejoin="round" stroke-width="2"/>
    <path id="Path_1626" data-name="Path 1626" d="M204.194-233.334l1.87.506,2.093.2,2.09-.149,1.862-.462" transform="translate(-59.405 399.435)" fill="none" stroke="#1a1818" stroke-linecap="round" stroke-linejoin="round" stroke-width="2"/>
    <path id="Path_1627" data-name="Path 1627" d="M200.955-232.635l1.994-.324,1.967-.374" transform="translate(-60.126 399.435)" fill="none" stroke="#1a1818" stroke-linecap="round" stroke-linejoin="round" stroke-width="2"/>
    <path id="Path_1628" data-name="Path 1628" d="M202.133-232.763l-1.058,1.022-1.542.839-1.877.55-1.992.218" transform="translate(-61.304 399.562)" fill="none" stroke="#1a1818" stroke-linecap="round" stroke-linejoin="round" stroke-width="2"/>
    <path id="Path_1629" data-name="Path 1629" d="M199.958-229.949l-4.867-.037-4.9-.39-4.82-.743-4.637-1.081-4.356-1.389" transform="translate(-65.598 399.379)" fill="none" stroke="#1a1818" stroke-linecap="round" stroke-linejoin="round" stroke-width="2"/>
    <path id="Path_1630" data-name="Path 1630" d="M100.448-261.307l2.776,2.427,3.274,2.245,3.713,2.008,4.072,1.727,4.335,1.413" transform="translate(-82.507 393.206)" fill="none" stroke="#1a1818" stroke-linecap="round" stroke-linejoin="round" stroke-width="2"/>
    <path id="Path_1631" data-name="Path 1631" d="M100.617-265.173l-.8,1.1-.282,1.246.3,1.252.819,1.124" transform="translate(-82.711 392.345)" fill="none" stroke="#1a1818" stroke-linecap="round" stroke-linejoin="round" stroke-width="2"/>
    <path id="Path_1632" data-name="Path 1632" d="M99.384-267.122l.591,1.2.674,1.184" transform="translate(-82.744 391.911)" fill="none" stroke="#1a1818" stroke-linecap="round" stroke-linejoin="round" stroke-width="2"/>
    <path id="Path_1633" data-name="Path 1633" d="M100.215-266.407l-1.737-.657L97.035-268l-.967-1.135-.413-1.2" transform="translate(-83.574 391.196)" fill="none" stroke="#1a1818" stroke-linecap="round" stroke-linejoin="round" stroke-width="2"/>
    <path id="Path_1634" data-name="Path 1634" d="M95.665-267.786l-.055-2.907.535-2.916,1.128-2.862,1.7-2.744,2.221-2.569" transform="translate(-83.584 388.646)" fill="none" stroke="#1a1818" stroke-linecap="round" stroke-linejoin="round" stroke-width="2"/>
    <path id="Path_1635" data-name="Path 1635" d="M178.87-362.136l-4,1.6-3.68,1.9-3.274,2.17-2.794,2.391-2.262,2.556" transform="translate(-68.608 370.753)" fill="none" stroke="#1a1818" stroke-linecap="round" stroke-linejoin="round" stroke-width="2"/>
    <path id="Path_1636" data-name="Path 1636" d="M183.869-361.932,182-362.438l-2.093-.2-2.09.149-1.862.462" transform="translate(-65.693 370.642)" fill="none" stroke="#1a1818" stroke-linecap="round" stroke-linejoin="round" stroke-width="2"/>
    <path id="Path_1637" data-name="Path 1637" d="M186.388-362.632l-1.994.324-1.967.374" transform="translate(-64.252 370.643)" fill="none" stroke="#1a1818" stroke-linecap="round" stroke-linejoin="round" stroke-width="2"/>
    <path id="Path_1638" data-name="Path 1638" d="M185.667-362.153l1.058-1.022,1.542-.84,1.877-.55,1.992-.218" transform="translate(-63.53 370.164)" fill="none" stroke="#1a1818" stroke-linecap="round" stroke-linejoin="round" stroke-width="2"/>
    <path id="Path_1639" data-name="Path 1639" d="M190.958-364.782l4.867.037,4.9.39,4.82.743,4.637,1.081,4.356,1.389" transform="translate(-62.352 370.164)" fill="none" stroke="#1a1818" stroke-linecap="round" stroke-linejoin="round" stroke-width="2"/>
    <path id="Path_1640" data-name="Path 1640" d="M289.483-332.3l-2.776-2.427-3.274-2.245-3.713-2.008-4.072-1.727-4.335-1.413" transform="translate(-44.459 375.211)" fill="none" stroke="#1a1818" stroke-linecap="round" stroke-linejoin="round" stroke-width="2"/>
    <path id="Path_1641" data-name="Path 1641" d="M286.209-329.36l.8-1.1.282-1.246-.3-1.252-.819-1.124" transform="translate(-41.149 376.999)" fill="none" stroke="#1a1818" stroke-linecap="round" stroke-linejoin="round" stroke-width="2"/>
    <path id="Path_1642" data-name="Path 1642" d="M287.468-327.838l-.591-1.2-.674-1.184" transform="translate(-41.143 377.86)" fill="none" stroke="#1a1818" stroke-linecap="round" stroke-linejoin="round" stroke-width="2"/>
    <path id="Path_1643" data-name="Path 1643" d="M287.237-328.272l1.737.657,1.443.942.967,1.135.412,1.2" transform="translate(-40.913 378.294)" fill="none" stroke="#1a1818" stroke-linecap="round" stroke-linejoin="round" stroke-width="2"/>
    <path id="Path_1644" data-name="Path 1644" d="M291.973-325.059l.055,2.907-.535,2.916-1.128,2.862-1.7,2.744-2.221,2.569" transform="translate(-41.089 379.01)" fill="none" stroke="#1a1818" stroke-linecap="round" stroke-linejoin="round" stroke-width="2"/>
    <line id="Line_560" data-name="Line 560" x2="78.681" y2="25.365" transform="translate(28.527 150.498)" fill="none" stroke="#1a1818" stroke-linecap="round" stroke-linejoin="round" stroke-width="2"/>
    <path id="Path_1645" data-name="Path 1645" d="M91.6-281.076l-2.24,2.926-1.773,3.173-1.22,3.385-.591,3.547.1,3.647.816,3.676,1.542,3.629,2.244,3.5,2.892,3.31,3.461,3.053,3.933,2.749,4.3,2.412,4.55,2.058,4.7,1.7" transform="translate(-85.774 388.804)" fill="none" stroke="#1a1818" stroke-linecap="round" stroke-linejoin="round" stroke-width="2"/>
    <line id="Line_561" data-name="Line 561" x1="78.713" y2="89.988" transform="translate(5.824 17.74)" fill="none" stroke="#1a1818" stroke-linecap="round" stroke-linejoin="round" stroke-width="2"/>
    <line id="Line_562" data-name="Line 562" x1="3.67" y2="3.574" transform="translate(84.537 14.166)" fill="none" stroke="#1a1818" stroke-linecap="round" stroke-linejoin="round" stroke-width="2"/>
    <path id="Path_1646" data-name="Path 1646" d="M296.515-303.38l2.323-3.053,1.813-3.319,1.206-3.545.515-3.713-.238-3.809-1.023-3.824-1.807-3.752-2.554-3.594-3.23-3.359" transform="translate(-39.514 376.719)" fill="none" stroke="#1a1818" stroke-linecap="round" stroke-linejoin="round" stroke-width="2"/>
    <line id="Line_563" data-name="Line 563" y1="89.988" x2="78.713" transform="translate(178.288 73.338)" fill="none" stroke="#1a1818" stroke-linecap="round" stroke-linejoin="round" stroke-width="2"/>
    <path id="Path_1647" data-name="Path 1647" d="M173.457-223.067l4.954,1.409,5.357,1.136,5.7.81,5.954.438,6.1.031,6.136-.4,6.04-.834,5.815-1.256,5.473-1.648,5.03-1.994,4.509-2.284,3.936-2.509,3.337-2.669,2.738-2.765" transform="translate(-66.249 398.93)" fill="none" stroke="#1a1818" stroke-linecap="round" stroke-linejoin="round" stroke-width="2"/>
    <line id="Line_564" data-name="Line 564" x1="5.275" y1="61.009" transform="translate(106.169 175.529)" fill="none" stroke="#1a1818" stroke-linecap="round" stroke-linejoin="round" stroke-width="2"/>
    <line id="Line_565" data-name="Line 565" x1="78.681" y1="25.365" transform="translate(154.19 3.788)" fill="none" stroke="#1a1818" stroke-linecap="round" stroke-linejoin="round" stroke-width="2"/>
    <path id="Path_1648" data-name="Path 1648" d="M297.88-304.073l2.1-2.745,1.315-4.123,1.144-3.175.555-3.327-.09-3.421-.766-3.448-1.447-3.4L298.587-331l-2.713-3.1-3.247-2.864-3.689-2.579-4.031-2.262-4.268-1.931-4.406-1.6" transform="translate(-43.363 374.493)" fill="none" stroke="#1a1818" stroke-linecap="round" stroke-linejoin="round" stroke-width="2"/>
    <line id="Line_566" data-name="Line 566" x1="70.911" y2="81.068" transform="translate(171.93 71.341)" fill="none" stroke="#1a1818" stroke-linecap="round" stroke-linejoin="round" stroke-width="2"/>
    <path id="Path_1649" data-name="Path 1649" d="M226.978-244.532l-1.524,1.614-1.694,1.551" transform="translate(-55.048 396.942)" fill="none" stroke="#1a1818" stroke-linecap="round" stroke-linejoin="round" stroke-width="2"/>
    <path id="Path_1650" data-name="Path 1650" d="M177.426-233.3l-2.91-.739-2.83-.846" transform="translate(-66.643 399.09)" fill="none" stroke="#1a1818" stroke-linecap="round" stroke-linejoin="round" stroke-width="2"/>
    <line id="Line_567" data-name="Line 567" x1="63.555" y1="20.489" transform="translate(41.488 143.717)" fill="none" stroke="#1a1818" stroke-linecap="round" stroke-linejoin="round" stroke-width="2"/>
    <path id="Path_1651" data-name="Path 1651" d="M120.686-251.277l-2.739-.95-2.638-1.05" transform="translate(-79.198 394.994)" fill="none" stroke="#1a1818" stroke-linecap="round" stroke-linejoin="round" stroke-width="2"/>
    <path id="Path_1652" data-name="Path 1652" d="M100.176-281.167l1.167-1.721,1.349-1.671" transform="translate(-82.567 388.029)" fill="none" stroke="#1a1818" stroke-linecap="round" stroke-linejoin="round" stroke-width="2"/>
    <line id="Line_568" data-name="Line 568" y1="81.068" x2="70.911" transform="translate(20.124 22.402)" fill="none" stroke="#1a1818" stroke-linecap="round" stroke-linejoin="round" stroke-width="2"/>
    <path id="Path_1653" data-name="Path 1653" d="M160.23-350.285l1.524-1.614,1.694-1.551" transform="translate(-69.195 372.688)" fill="none" stroke="#1a1818" stroke-linecap="round" stroke-linejoin="round" stroke-width="2"/>
    <path id="Path_1654" data-name="Path 1654" d="M210.241-361.806l2.91.739,2.83.846" transform="translate(-58.058 370.827)" fill="none" stroke="#1a1818" stroke-linecap="round" stroke-linejoin="round" stroke-width="2"/>
    <line id="Line_569" data-name="Line 569" x2="63.555" y2="20.489" transform="translate(157.922 10.606)" fill="none" stroke="#1a1818" stroke-linecap="round" stroke-linejoin="round" stroke-width="2"/>
    <path id="Path_1655" data-name="Path 1655" d="M266.915-343.753l2.74.95,2.638,1.05" transform="translate(-45.438 374.847)" fill="none" stroke="#1a1818" stroke-linecap="round" stroke-linejoin="round" stroke-width="2"/>
    <path id="Path_1656" data-name="Path 1656" d="M286.9-313.61l-1.167,1.721-1.349,1.671" transform="translate(-41.547 381.559)" fill="none" stroke="#1a1818" stroke-linecap="round" stroke-linejoin="round" stroke-width="2"/>
    <path id="Path_1657" data-name="Path 1657" d="M242.188-238.365l-2.61,2.636-3.181,2.544-3.752,2.392-4.3,2.177-4.795,1.9-5.217,1.571-5.543,1.2-5.757.8-5.849.381-5.819-.029-5.675-.418-5.431-.772-5.106-1.083-4.722-1.343" transform="translate(-66.032 398.315)" fill="none" stroke="#1a1818" stroke-linecap="round" stroke-linejoin="round" stroke-width="2"/>
  </g>
</svg>
