<svg xmlns="http://www.w3.org/2000/svg" width="264.808" height="194.539" viewBox="0 0 264.808 194.539">
  <g id="Group_709" data-name="Group 709" transform="translate(1 1)">
    <path id="Path_1429" data-name="Path 1429" d="M-1740.377,70.919a35.084,35.084,0,0,0-35.084-35.084" transform="translate(1991.54 -24.19)" fill="none" stroke="#040505" stroke-linecap="round" stroke-miterlimit="10" stroke-width="2"/>
    <path id="Path_1430" data-name="Path 1430" d="M-1739.96,70.073a35.5,35.5,0,0,0-35.5-35.5" transform="translate(1991.54 -23.344)" fill="none" stroke="#040505" stroke-linecap="round" stroke-miterlimit="10" stroke-width="2"/>
    <path id="Path_1431" data-name="Path 1431" d="M-2395.231,441.744a35.5,35.5,0,0,0,35.5,35.5" transform="translate(2406.459 -295.935)" fill="none" stroke="#040505" stroke-linecap="round" stroke-miterlimit="10" stroke-width="2"/>
    <path id="Path_1432" data-name="Path 1432" d="M-2359.73,34.572a35.5,35.5,0,0,0-35.5,35.5" transform="translate(2406.459 -23.344)" fill="none" stroke="#040505" stroke-linecap="round" stroke-miterlimit="10" stroke-width="2"/>
    <path id="Path_1433" data-name="Path 1433" d="M-1775.461,477.245a35.5,35.5,0,0,0,35.5-35.5" transform="translate(1991.54 -295.935)" fill="none" stroke="#040505" stroke-linecap="round" stroke-miterlimit="10" stroke-width="2"/>
    <path id="Path_1434" data-name="Path 1434" d="M-1775.461,476.828a35.084,35.084,0,0,0,35.084-35.084" transform="translate(1991.54 -295.935)" fill="none" stroke="#040505" stroke-linecap="round" stroke-miterlimit="10" stroke-width="2"/>
    <path id="Path_1435" data-name="Path 1435" d="M-2378.884,441.744a30.1,30.1,0,0,0,30.1,30.1" transform="translate(2395.515 -295.935)" fill="none" stroke="#040505" stroke-linecap="round" stroke-miterlimit="10" stroke-width="2"/>
    <path id="Path_1436" data-name="Path 1436" d="M-2429.2,476.822a35.135,35.135,0,0,0,35.135,35.135" transform="translate(2429.201 -319.419)" fill="none" stroke="#040505" stroke-linecap="round" stroke-miterlimit="10" stroke-width="2"/>
    <path id="Path_1437" data-name="Path 1437" d="M-1740.382,511.957a35.135,35.135,0,0,0,35.135-35.135" transform="translate(1968.055 -319.419)" fill="none" stroke="#040505" stroke-linecap="round" stroke-miterlimit="10" stroke-width="2"/>
    <path id="Path_1438" data-name="Path 1438" d="M-1705.247,35.737A35.135,35.135,0,0,0-1740.382.6" transform="translate(1968.055 -0.602)" fill="none" stroke="#040505" stroke-linecap="round" stroke-miterlimit="10" stroke-width="2"/>
    <path id="Path_1439" data-name="Path 1439" d="M-2394.066.6A35.135,35.135,0,0,0-2429.2,35.737" transform="translate(2429.201 -0.602)" fill="none" stroke="#040505" stroke-linecap="round" stroke-miterlimit="10" stroke-width="2"/>
    <path id="Path_1440" data-name="Path 1440" d="M-1775.461,516.9a27.289,27.289,0,0,0,13.643-3.656" transform="translate(1991.54 -343.8)" fill="none" stroke="#040505" stroke-linecap="round" stroke-miterlimit="10" stroke-width="2"/>
    <path id="Path_1441" data-name="Path 1441" d="M-1700.308,114.346a27.287,27.287,0,0,0-3.655-13.643" transform="translate(1943.674 -67.617)" fill="none" stroke="#040505" stroke-linecap="round" stroke-miterlimit="10" stroke-width="2"/>
    <path id="Path_1442" data-name="Path 1442" d="M-1696.413,124.656a27.054,27.054,0,0,0-1.388-8.553" transform="translate(1939.548 -77.927)" fill="none" stroke="#040505" stroke-linecap="round" stroke-miterlimit="10" stroke-width="2"/>
    <path id="Path_1443" data-name="Path 1443" d="M-2315.457,59.423a27.287,27.287,0,0,0-13.643,3.655" transform="translate(2362.186 -39.981)" fill="none" stroke="#040505" stroke-linecap="round" stroke-miterlimit="10" stroke-width="2"/>
    <path id="Path_1444" data-name="Path 1444" d="M-2370.38,441.744a27.289,27.289,0,0,0,3.655,13.643" transform="translate(2389.822 -295.935)" fill="none" stroke="#040505" stroke-linecap="round" stroke-miterlimit="10" stroke-width="2"/>
    <path id="Path_1445" data-name="Path 1445" d="M-2366.725,100.7a27.29,27.29,0,0,0-3.655,13.643" transform="translate(2389.822 -67.617)" fill="none" stroke="#040505" stroke-linecap="round" stroke-miterlimit="10" stroke-width="2"/>
    <path id="Path_1446" data-name="Path 1446" d="M-2329.1,513.241a27.288,27.288,0,0,0,13.643,3.656" transform="translate(2362.186 -343.8)" fill="none" stroke="#040505" stroke-linecap="round" stroke-miterlimit="10" stroke-width="2"/>
    <path id="Path_1447" data-name="Path 1447" d="M-1703.963,455.387a27.286,27.286,0,0,0,3.655-13.643" transform="translate(1943.674 -295.935)" fill="none" stroke="#040505" stroke-linecap="round" stroke-miterlimit="10" stroke-width="2"/>
    <path id="Path_1448" data-name="Path 1448" d="M-1761.818,63.078a27.289,27.289,0,0,0-13.643-3.655" transform="translate(1991.54 -39.981)" fill="none" stroke="#040505" stroke-linecap="round" stroke-miterlimit="10" stroke-width="2"/>
    <path id="Path_1449" data-name="Path 1449" d="M-2313.7,519.4a27.058,27.058,0,0,0,8.553,1.388" transform="translate(2351.876 -347.926)" fill="none" stroke="#040505" stroke-linecap="round" stroke-miterlimit="10" stroke-width="2"/>
    <path id="Path_1450" data-name="Path 1450" d="M-1766.908,61.51a27.051,27.051,0,0,0-8.553-1.388" transform="translate(1991.54 -40.449)" fill="none" stroke="#040505" stroke-linecap="round" stroke-miterlimit="10" stroke-width="2"/>
    <path id="Path_1451" data-name="Path 1451" d="M-1697.8,450.3a27.055,27.055,0,0,0,1.388-8.553" transform="translate(1939.548 -295.935)" fill="none" stroke="#040505" stroke-linecap="round" stroke-miterlimit="10" stroke-width="2"/>
    <line id="Line_483" data-name="Line 483" x1="10.4" y2="10.4" transform="translate(36.373 36.373)" fill="none" stroke="#040505" stroke-linecap="round" stroke-linejoin="round" stroke-width="2"/>
    <line id="Line_484" data-name="Line 484" y1="10.4" x2="10.4" transform="translate(216.034 145.765)" fill="none" stroke="#040505" stroke-linecap="round" stroke-linejoin="round" stroke-width="2"/>
    <line id="Line_485" data-name="Line 485" x1="10.4" y1="10.4" transform="translate(216.034 36.373)" fill="none" stroke="#040505" stroke-linecap="round" stroke-linejoin="round" stroke-width="2"/>
    <line id="Line_486" data-name="Line 486" x2="10.4" y2="10.4" transform="translate(36.373 145.765)" fill="none" stroke="#040505" stroke-linecap="round" stroke-linejoin="round" stroke-width="2"/>
    <line id="Line_487" data-name="Line 487" x1="0.496" transform="translate(218.209 141.408)" fill="none" stroke="#040505" stroke-linecap="round" stroke-linejoin="round" stroke-width="2"/>
    <path id="Path_1452" data-name="Path 1452" d="M-2349.186,142.024l-1.293,1.008-1.285.862-1.27.712-1.247.557-1.217.4-1.18.239-1.136.078-1.085-.084-1.028-.246-.965-.406-.9-.564-.822-.718-.743-.868-.66-1.013" transform="translate(2385.56 -95.251)" fill="none" stroke="#040505" stroke-linecap="round" stroke-linejoin="round" stroke-width="2"/>
    <path id="Path_1453" data-name="Path 1453" d="M-2364.013,433.845l.66-1.013.743-.868.822-.718.9-.564.965-.406,1.028-.246,1.085-.084,1.136.078,1.18.239,1.217.4,1.247.557,1.27.712,1.285.862,1.293,1.008" transform="translate(2385.56 -288.036)" fill="none" stroke="#040505" stroke-linecap="round" stroke-linejoin="round" stroke-width="2"/>
    <path id="Path_1454" data-name="Path 1454" d="M-1699.271,441.744l.217.458.19.471.163.485.138.5.113.51.088.522.035.266.029.269.012.136.011.136.009.137.007.137.014.552-.009.556-.033.56-.055.564-.078.568-.1.572-.121.576-.143.58" transform="translate(1940.532 -295.934)" fill="none" stroke="#040505" stroke-linecap="round" stroke-linejoin="round" stroke-width="2"/>
    <path id="Path_1455" data-name="Path 1455" d="M-2305.147,517.934l-.457.217-.471.19-.485.163-.5.138-.51.112-.522.088-.266.035-.269.029-.136.012-.136.01-.137.009-.137.007-.552.014-.556-.01-.56-.033-.564-.055-.568-.077-.572-.1-.576-.121-.58-.143" transform="translate(2351.876 -346.942)" fill="none" stroke="#040505" stroke-linecap="round" stroke-linejoin="round" stroke-width="2"/>
    <path id="Path_1456" data-name="Path 1456" d="M-2313.7,63.23l.58-.143.576-.121.573-.1.569-.077.565-.055.561-.033.557-.009.553.015.545.039.533.063.521.088.509.112.5.137.484.163.471.19.457.217" transform="translate(2351.876 -42.169)" fill="none" stroke="#040505" stroke-linecap="round" stroke-linejoin="round" stroke-width="2"/>
    <path id="Path_1457" data-name="Path 1457" d="M-2366.573,450.3l-.143-.58-.121-.576-.1-.573-.077-.569-.055-.565-.032-.561-.01-.557.014-.553.039-.545.063-.533.088-.521.112-.509.137-.5.163-.484.19-.471.217-.458" transform="translate(2387.634 -295.934)" fill="none" stroke="#040505" stroke-linecap="round" stroke-linejoin="round" stroke-width="2"/>
    <path id="Path_1458" data-name="Path 1458" d="M-2287.823,65.79l1.013.66.869.743.718.822.564.9.406.965.246,1.028.084,1.085-.078,1.136-.239,1.18-.4,1.217-.557,1.247-.712,1.27-.862,1.285-1.007,1.293" transform="translate(2334.552 -44.243)" fill="none" stroke="#040505" stroke-linecap="round" stroke-linejoin="round" stroke-width="2"/>
    <path id="Path_1459" data-name="Path 1459" d="M-1783.4,80.617l-1.008-1.293-.862-1.285-.712-1.27-.557-1.247-.4-1.217-.239-1.18-.078-1.136.084-1.085.246-1.028.406-.965.564-.9.718-.822.868-.743,1.013-.66" transform="translate(1999.438 -44.243)" fill="none" stroke="#040505" stroke-linecap="round" stroke-linejoin="round" stroke-width="2"/>
    <path id="Path_1460" data-name="Path 1460" d="M-2366.087,124.656l-.217-.458-.19-.471-.163-.485-.138-.5-.112-.51-.088-.522-.035-.266-.029-.269-.012-.136-.011-.136-.009-.137-.007-.137-.014-.552.01-.556.032-.56.055-.564.078-.568.1-.572.121-.576.143-.58" transform="translate(2387.634 -77.927)" fill="none" stroke="#040505" stroke-linecap="round" stroke-linejoin="round" stroke-width="2"/>
    <line id="Line_488" data-name="Line 488" x1="160.548" transform="translate(51.13 44.599)" fill="none" stroke="#040505" stroke-linecap="round" stroke-linejoin="round" stroke-width="2"/>
    <path id="Path_1461" data-name="Path 1461" d="M-2282.854,135.534l-1.111.1-1.078.285-1.013.465-.918.632" transform="translate(2333.984 -90.936)" fill="none" stroke="#040505" stroke-linecap="round" stroke-linejoin="round" stroke-width="2"/>
    <line id="Line_489" data-name="Line 489" x1="64.648" transform="translate(99.08 77.999)" fill="none" stroke="#040505" stroke-linecap="round" stroke-linejoin="round" stroke-width="2"/>
    <path id="Path_1462" data-name="Path 1462" d="M-1784.655,137.012l-.919-.632-1.013-.465-1.078-.285-1.111-.1" transform="translate(2000.453 -90.936)" fill="none" stroke="#040505" stroke-linecap="round" stroke-linejoin="round" stroke-width="2"/>
    <line id="Line_490" data-name="Line 490" y1="90.278" transform="translate(218.209 51.13)" fill="none" stroke="#040505" stroke-linecap="round" stroke-linejoin="round" stroke-width="2"/>
    <path id="Path_1463" data-name="Path 1463" d="M-1773.9,145.059l-.1-1.152-.3-1.115-.5-1.043-.675-.939-.83-.8" transform="translate(1992.107 -93.929)" fill="none" stroke="#040505" stroke-linecap="round" stroke-linejoin="round" stroke-width="2"/>
    <line id="Line_491" data-name="Line 491" y1="31.922" x2="52.07" transform="translate(163.728 46.077)" fill="none" stroke="#040505" stroke-linecap="round" stroke-linejoin="round" stroke-width="2"/>
    <line id="Line_492" data-name="Line 492" y1="36.54" transform="translate(163.728 77.999)" fill="none" stroke="#040505" stroke-linecap="round" stroke-linejoin="round" stroke-width="2"/>
    <path id="Path_1464" data-name="Path 1464" d="M-1776.309,433.482l.83-.8.675-.939.5-1.043.3-1.115.1-1.151" transform="translate(1992.107 -287.021)" fill="none" stroke="#040505" stroke-linecap="round" stroke-linejoin="round" stroke-width="2"/>
    <line id="Line_493" data-name="Line 493" y2="90.278" transform="translate(44.599 51.13)" fill="none" stroke="#040505" stroke-linecap="round" stroke-linejoin="round" stroke-width="2"/>
    <path id="Path_1465" data-name="Path 1465" d="M-2294.269,428.429l.1,1.151.305,1.115.5,1.043.675.939.83.8" transform="translate(2338.867 -287.021)" fill="none" stroke="#040505" stroke-linecap="round" stroke-linejoin="round" stroke-width="2"/>
    <line id="Line_494" data-name="Line 494" y2="36.54" transform="translate(99.08 77.999)" fill="none" stroke="#040505" stroke-linecap="round" stroke-linejoin="round" stroke-width="2"/>
    <line id="Line_495" data-name="Line 495" x1="52.07" y1="31.922" transform="translate(47.009 46.077)" fill="none" stroke="#040505" stroke-linecap="round" stroke-linejoin="round" stroke-width="2"/>
    <path id="Path_1466" data-name="Path 1466" d="M-2291.858,140.006l-.83.8-.675.939-.5,1.043-.305,1.115-.1,1.152" transform="translate(2338.867 -93.929)" fill="none" stroke="#040505" stroke-linecap="round" stroke-linejoin="round" stroke-width="2"/>
    <line id="Line_496" data-name="Line 496" x1="52.07" y1="31.922" transform="translate(163.728 114.539)" fill="none" stroke="#040505" stroke-linecap="round" stroke-linejoin="round" stroke-width="2"/>
    <line id="Line_497" data-name="Line 497" x2="64.648" transform="translate(99.08 114.539)" fill="none" stroke="#040505" stroke-linecap="round" stroke-linejoin="round" stroke-width="2"/>
    <line id="Line_498" data-name="Line 498" x1="52.07" y2="31.922" transform="translate(47.009 114.539)" fill="none" stroke="#040505" stroke-linecap="round" stroke-linejoin="round" stroke-width="2"/>
    <path id="Path_1467" data-name="Path 1467" d="M-2286.975,443.718l.918.632,1.013.465,1.078.285,1.111.1" transform="translate(2333.984 -297.256)" fill="none" stroke="#040505" stroke-linecap="round" stroke-linejoin="round" stroke-width="2"/>
    <line id="Line_499" data-name="Line 499" x2="160.548" transform="translate(51.13 147.94)" fill="none" stroke="#040505" stroke-linecap="round" stroke-linejoin="round" stroke-width="2"/>
    <path id="Path_1468" data-name="Path 1468" d="M-1788.776,445.2l1.111-.1,1.078-.285,1.013-.465.919-.632" transform="translate(2000.453 -297.256)" fill="none" stroke="#040505" stroke-linecap="round" stroke-linejoin="round" stroke-width="2"/>
    <line id="Line_500" data-name="Line 500" y1="99.08" transform="translate(243.366 46.729)" fill="none" stroke="#040505" stroke-linecap="round" stroke-linejoin="round" stroke-width="2"/>
    <line id="Line_501" data-name="Line 501" x2="169.349" transform="translate(46.729 173.096)" fill="none" stroke="#040505" stroke-linecap="round" stroke-linejoin="round" stroke-width="2"/>
    <line id="Line_502" data-name="Line 502" y2="99.08" transform="translate(19.442 46.729)" fill="none" stroke="#040505" stroke-linecap="round" stroke-linejoin="round" stroke-width="2"/>
    <line id="Line_503" data-name="Line 503" x1="169.349" transform="translate(46.729 19.442)" fill="none" stroke="#040505" stroke-linecap="round" stroke-linejoin="round" stroke-width="2"/>
    <path id="Path_1469" data-name="Path 1469" d="M-2349.332,493.009l-.768-.467-.742-.5-.719-.524-.7-.547-.68-.568-.664-.587-.326-.3-.323-.3-.319-.308-.315-.312-.312-.316-.309-.32-.305-.324-.3-.328-.3-.332-.294-.337-.146-.17-.144-.171-.143-.172-.142-.173-.552-.7-.526-.722-.5-.743-.466-.765" transform="translate(2382.418 -323.568)" fill="none" stroke="#040505" stroke-linecap="round" stroke-linejoin="round" stroke-width="2"/>
    <path id="Path_1470" data-name="Path 1470" d="M-2359.321,80.471l.468-.768.5-.742.523-.719.547-.7.568-.68.587-.664.3-.326.3-.323.308-.319.312-.316.316-.312.32-.309.323-.305.328-.3.332-.3.337-.294.17-.145.171-.144.172-.143.173-.142.7-.552.722-.526.742-.5.765-.466" transform="translate(2382.418 -47.385)" fill="none" stroke="#040505" stroke-linecap="round" stroke-linejoin="round" stroke-width="2"/>
    <path id="Path_1471" data-name="Path 1471" d="M-1724.2,80.471l-.466-.765-.5-.743-.526-.722-.552-.7-.142-.173-.143-.172-.144-.171-.145-.17-.294-.337-.3-.332-.3-.328-.305-.324-.309-.32-.312-.316-.316-.312-.319-.308-.323-.3-.326-.3-.664-.587-.68-.568-.7-.547-.719-.524-.742-.5-.768-.467" transform="translate(1963.906 -47.385)" fill="none" stroke="#040505" stroke-linecap="round" stroke-linejoin="round" stroke-width="2"/>
    <path id="Path_1472" data-name="Path 1472" d="M-1724.2,483.02l-.467.768-.5.742-.523.719-.547.7-.568.68-.587.664-.3.326-.3.323-.308.319-.312.316-.316.312-.32.309-.324.305-.328.3-.332.3-.337.294-.17.145-.171.144-.172.143-.173.142-.7.552-.722.526-.743.5-.765.466" transform="translate(1963.906 -323.568)" fill="none" stroke="#040505" stroke-linecap="round" stroke-linejoin="round" stroke-width="2"/>
    <line id="Line_504" data-name="Line 504" x1="192.538" transform="translate(35.135 0)" fill="none" stroke="#040505" stroke-linecap="round" stroke-linejoin="round" stroke-width="2"/>
    <line id="Line_505" data-name="Line 505" y1="122.269" transform="translate(262.808 35.135)" fill="none" stroke="#040505" stroke-linecap="round" stroke-linejoin="round" stroke-width="2"/>
    <line id="Line_506" data-name="Line 506" x2="192.538" transform="translate(35.135 192.538)" fill="none" stroke="#040505" stroke-linecap="round" stroke-linejoin="round" stroke-width="2"/>
    <line id="Line_507" data-name="Line 507" y2="122.269" transform="translate(0 35.135)" fill="none" stroke="#040505" stroke-linecap="round" stroke-linejoin="round" stroke-width="2"/>
    <path id="Path_1473" data-name="Path 1473" d="M-2287.779,473.074l1.007,1.293.862,1.285.712,1.27.557,1.247.4,1.217.239,1.18.078,1.136-.084,1.085-.246,1.028-.406.965-.564.9-.718.822-.869.743-1.013.66" transform="translate(2334.552 -316.91)" fill="none" stroke="#040505" stroke-linecap="round" stroke-linejoin="round" stroke-width="2"/>
    <path id="Path_1474" data-name="Path 1474" d="M-1783.36,487.9l-1.013-.66-.868-.743-.718-.822-.564-.9-.406-.965-.246-1.028-.084-1.085.078-1.136.239-1.18.4-1.217.557-1.247.712-1.27.862-1.285,1.008-1.293" transform="translate(1999.438 -316.91)" fill="none" stroke="#040505" stroke-linecap="round" stroke-linejoin="round" stroke-width="2"/>
    <path id="Path_1475" data-name="Path 1475" d="M-1766.908,518.42l-.58.143-.576.121-.573.1-.569.077-.565.055-.562.033-.557.009-.553-.015-.545-.039-.533-.063-.521-.088-.509-.112-.5-.138-.484-.163-.471-.19-.458-.217" transform="translate(1991.54 -346.942)" fill="none" stroke="#040505" stroke-linecap="round" stroke-linejoin="round" stroke-width="2"/>
    <path id="Path_1476" data-name="Path 1476" d="M-1698.785,116.1l.143.58.121.576.1.573.078.569.055.565.032.561.009.557-.015.553-.039.545-.063.533-.088.521-.112.509-.137.5-.163.484-.19.471-.217.458" transform="translate(1940.532 -77.927)" fill="none" stroke="#040505" stroke-linecap="round" stroke-linejoin="round" stroke-width="2"/>
    <path id="Path_1477" data-name="Path 1477" d="M-1744.13,433.8l1.293-1.008,1.285-.862,1.27-.712,1.247-.557,1.217-.4,1.18-.239,1.136-.078,1.085.084,1.028.246.965.406.9.564.822.718.743.868.659,1.013" transform="translate(1970.564 -288.036)" fill="none" stroke="#040505" stroke-linecap="round" stroke-linejoin="round" stroke-width="2"/>
    <path id="Path_1478" data-name="Path 1478" d="M-1697.4,141.98h-1.874" transform="translate(1940.532 -95.251)" fill="none" stroke="#040505" stroke-linecap="round" stroke-linejoin="round" stroke-width="2"/>
    <path id="Path_1479" data-name="Path 1479" d="M-1729.3,141.98l-.659,1.013-.743.868-.822.718-.9.564-.965.406-1.028.246-1.085.084-1.136-.078-1.18-.239-1.217-.4-1.247-.557-1.27-.712-1.285-.862-1.293-1.008" transform="translate(1970.564 -95.251)" fill="none" stroke="#040505" stroke-linecap="round" stroke-linejoin="round" stroke-width="2"/>
    <path id="Path_1480" data-name="Path 1480" d="M-1775.461,63.716l.458-.217.471-.19.485-.163.5-.138.51-.112.523-.088.266-.035.269-.029.136-.012.136-.01.137-.009.137-.007.552-.014.556.01.56.033.564.055.568.077.572.1.576.121.58.143" transform="translate(1991.54 -42.169)" fill="none" stroke="#040505" stroke-linecap="round" stroke-linejoin="round" stroke-width="2"/>
    <line id="Line_508" data-name="Line 508" y1="99.08" transform="translate(243.135 46.729)" fill="none" stroke="#040505" stroke-linecap="round" stroke-linejoin="round" stroke-width="2"/>
    <line id="Line_509" data-name="Line 509" x2="0.231" transform="translate(243.135 145.809)" fill="none" stroke="#040505" stroke-linecap="round" stroke-linejoin="round" stroke-width="2"/>
    <line id="Line_510" data-name="Line 510" y1="0.231" transform="translate(216.079 19.442)" fill="none" stroke="#040505" stroke-linecap="round" stroke-linejoin="round" stroke-width="2"/>
    <line id="Line_511" data-name="Line 511" y2="0.231" transform="translate(46.729 172.865)" fill="none" stroke="#040505" stroke-linecap="round" stroke-linejoin="round" stroke-width="2"/>
    <line id="Line_512" data-name="Line 512" x2="0.231" transform="translate(19.442 145.809)" fill="none" stroke="#040505" stroke-linecap="round" stroke-linejoin="round" stroke-width="2"/>
    <path id="Path_1481" data-name="Path 1481" d="M-2329.1,513.241l.619.321.624.3.629.282.634.264.64.245.644.227.162.054.162.053.163.051.163.05.325.1.325.092" transform="translate(2362.186 -343.8)" fill="none" stroke="#040505" stroke-linecap="round" stroke-linejoin="round" stroke-width="2"/>
    <path id="Path_1482" data-name="Path 1482" d="M-2365.483,467.621l.188.649.207.645.225.642.244.638.263.635.282.631.149.314.154.313.079.156.08.156.082.156.082.155" transform="translate(2386.544 -313.259)" fill="none" stroke="#040505" stroke-linecap="round" stroke-linejoin="round" stroke-width="2"/>
    <path id="Path_1483" data-name="Path 1483" d="M-2363.447,100.7l-.321.618-.3.624-.282.629-.264.634-.245.64-.227.645-.054.162-.053.162-.052.162-.05.163-.1.325-.092.326" transform="translate(2386.544 -67.617)" fill="none" stroke="#040505" stroke-linecap="round" stroke-linejoin="round" stroke-width="2"/>
    <path id="Path_1484" data-name="Path 1484" d="M-2324.01,64.32l-.649.188-.646.207-.642.225-.638.244-.635.263-.631.283-.314.149-.313.154-.156.079-.156.08-.156.081-.155.083" transform="translate(2362.186 -43.259)" fill="none" stroke="#040505" stroke-linecap="round" stroke-linejoin="round" stroke-width="2"/>
    <line id="Line_513" data-name="Line 513" x1="0.231" transform="translate(243.135 46.729)" fill="none" stroke="#040505" stroke-linecap="round" stroke-linejoin="round" stroke-width="2"/>
    <path id="Path_1485" data-name="Path 1485" d="M-1744.494,66.357l-.618-.321-.624-.3-.629-.282-.634-.264-.639-.245-.645-.227-.162-.054-.162-.053-.163-.051-.162-.05-.325-.1-.326-.092" transform="translate(1974.216 -43.259)" fill="none" stroke="#040505" stroke-linecap="round" stroke-linejoin="round" stroke-width="2"/>
    <path id="Path_1486" data-name="Path 1486" d="M-1701.926,105.793l-.188-.649-.207-.645-.225-.642-.244-.638-.264-.635-.283-.631-.149-.314-.154-.313-.079-.156-.08-.156-.082-.156-.083-.155" transform="translate(1943.674 -67.617)" fill="none" stroke="#040505" stroke-linecap="round" stroke-linejoin="round" stroke-width="2"/>
    <path id="Path_1487" data-name="Path 1487" d="M-1703.963,472.711l.321-.618.3-.624.282-.629.264-.634.245-.64.227-.645.054-.162.052-.162.052-.162.05-.163.1-.325.092-.326" transform="translate(1943.674 -313.259)" fill="none" stroke="#040505" stroke-linecap="round" stroke-linejoin="round" stroke-width="2"/>
    <path id="Path_1488" data-name="Path 1488" d="M-1749.584,515.278l.649-.188.646-.207.642-.225.638-.244.635-.263.631-.283.314-.149.313-.154.156-.079.156-.08.156-.081.156-.083" transform="translate(1974.216 -343.8)" fill="none" stroke="#040505" stroke-linecap="round" stroke-linejoin="round" stroke-width="2"/>
    <line id="Line_514" data-name="Line 514" x1="4.986" transform="translate(11.645 145.809)" fill="none" stroke="#040505" stroke-linecap="round" stroke-linejoin="round" stroke-width="2"/>
    <line id="Line_515" data-name="Line 515" y2="4.986" transform="translate(216.079 11.645)" fill="none" stroke="#040505" stroke-linecap="round" stroke-linejoin="round" stroke-width="2"/>
    <line id="Line_516" data-name="Line 516" y1="4.986" transform="translate(46.729 11.645)" fill="none" stroke="#040505" stroke-linecap="round" stroke-linejoin="round" stroke-width="2"/>
    <line id="Line_517" data-name="Line 517" x1="4.986" transform="translate(11.645 46.729)" fill="none" stroke="#040505" stroke-linecap="round" stroke-linejoin="round" stroke-width="2"/>
    <line id="Line_518" data-name="Line 518" y2="4.986" transform="translate(46.729 175.907)" fill="none" stroke="#040505" stroke-linecap="round" stroke-linejoin="round" stroke-width="2"/>
    <line id="Line_519" data-name="Line 519" y2="4.986" transform="translate(216.079 175.907)" fill="none" stroke="#040505" stroke-linecap="round" stroke-linejoin="round" stroke-width="2"/>
    <line id="Line_520" data-name="Line 520" x2="4.986" transform="translate(246.177 145.809)" fill="none" stroke="#040505" stroke-linecap="round" stroke-linejoin="round" stroke-width="2"/>
    <line id="Line_521" data-name="Line 521" x2="4.986" transform="translate(246.177 46.729)" fill="none" stroke="#040505" stroke-linecap="round" stroke-linejoin="round" stroke-width="2"/>
    <line id="Line_522" data-name="Line 522" x1="192.538" transform="translate(35.135 3.04)" fill="none" stroke="#040505" stroke-linecap="round" stroke-linejoin="round" stroke-width="2"/>
    <path id="Path_1489" data-name="Path 1489" d="M-1775.461,547.888v.418" transform="translate(1991.54 -366.996)" fill="none" stroke="#040505" stroke-linecap="round" stroke-linejoin="round" stroke-width="2"/>
    <line id="Line_523" data-name="Line 523" x1="169.349" transform="translate(46.729 11.228)" fill="none" stroke="#040505" stroke-linecap="round" stroke-linejoin="round" stroke-width="2"/>
    <line id="Line_524" data-name="Line 524" x2="169.349" transform="translate(46.729 181.31)" fill="none" stroke="#040505" stroke-linecap="round" stroke-linejoin="round" stroke-width="2"/>
    <line id="Line_525" data-name="Line 525" y1="122.269" transform="translate(259.768 35.135)" fill="none" stroke="#040505" stroke-linecap="round" stroke-linejoin="round" stroke-width="2"/>
    <path id="Path_1490" data-name="Path 1490" d="M-2287.823,34.989v-.418" transform="translate(2334.552 -23.344)" fill="none" stroke="#040505" stroke-linecap="round" stroke-linejoin="round" stroke-width="2"/>
    <path id="Path_1491" data-name="Path 1491" d="M-2287.823,547.888v.418" transform="translate(2334.552 -366.996)" fill="none" stroke="#040505" stroke-linecap="round" stroke-linejoin="round" stroke-width="2"/>
    <path id="Path_1492" data-name="Path 1492" d="M-2394.814,441.744h-.417" transform="translate(2406.459 -295.934)" fill="none" stroke="#040505" stroke-linecap="round" stroke-linejoin="round" stroke-width="2"/>
    <path id="Path_1493" data-name="Path 1493" d="M-2394.814,141.98h-.417" transform="translate(2406.459 -95.251)" fill="none" stroke="#040505" stroke-linecap="round" stroke-linejoin="round" stroke-width="2"/>
    <line id="Line_526" data-name="Line 526" y2="99.08" transform="translate(11.228 46.729)" fill="none" stroke="#040505" stroke-linecap="round" stroke-linejoin="round" stroke-width="2"/>
    <line id="Line_527" data-name="Line 527" x2="192.538" transform="translate(35.135 189.498)" fill="none" stroke="#040505" stroke-linecap="round" stroke-linejoin="round" stroke-width="2"/>
    <line id="Line_528" data-name="Line 528" y1="99.08" transform="translate(251.162 46.729)" fill="none" stroke="#040505" stroke-linecap="round" stroke-linejoin="round" stroke-width="2"/>
    <path id="Path_1494" data-name="Path 1494" d="M-1669.316,441.744h.417" transform="translate(1920.478 -295.934)" fill="none" stroke="#040505" stroke-linecap="round" stroke-linejoin="round" stroke-width="2"/>
    <line id="Line_529" data-name="Line 529" y1="99.08" transform="translate(251.58 46.729)" fill="none" stroke="#040505" stroke-linecap="round" stroke-linejoin="round" stroke-width="2"/>
    <path id="Path_1495" data-name="Path 1495" d="M-1669.316,141.98h.417" transform="translate(1920.478 -95.251)" fill="none" stroke="#040505" stroke-linecap="round" stroke-linejoin="round" stroke-width="2"/>
    <path id="Path_1496" data-name="Path 1496" d="M-1775.461,34.572v.418" transform="translate(1991.54 -23.344)" fill="none" stroke="#040505" stroke-linecap="round" stroke-linejoin="round" stroke-width="2"/>
    <line id="Line_530" data-name="Line 530" y2="122.269" transform="translate(3.04 35.135)" fill="none" stroke="#040505" stroke-linecap="round" stroke-linejoin="round" stroke-width="2"/>
  </g>
</svg>
