<svg xmlns="http://www.w3.org/2000/svg" width="309.708" height="256.982" viewBox="0 0 309.708 256.982">
  <g id="Group_715" data-name="Group 715" transform="matrix(0.999, 0.035, -0.035, 0.999, 6.383, 0.504)">
    <path id="Path_1778" data-name="Path 1778" d="M88.888,73.116l-1.172.674m26.427,1.686-1.078-.818M92.039,82.567l-1.691,1.38L89.215,85.84,88.931,88l.261.851,1.3,2.108M107.843.483V.456l0-.029,0-.015,0-.016,0-.016,0-.016-.005-.016-.005-.016-.005-.016L107.8.3l-.014-.034L107.777.23l-.009-.016L107.76.2l-.009-.016-.009-.015-.018-.03-.019-.03-.019-.028-.022-.026-.02-.026L107.624,0m4.788.637-.057.037L112.3.717l-.026.024-.026.024-.025.026L112.2.818l-.023.028-.021.029L112.135.9l-.016.029-.009.015L112.1.963,112.1.977l-.005.015-.005.014,0,.014,0,.014,0,.013m-4.5,4.451-1.217-1.486-1.791-1.185-2.143-.69L100.252,2m24.614,126.24-34.4-37.36m-89.2,33.946L.092,125.5m19.743,1.26-1.078-.818M77.446,4.708l-.173.117-.173.122-.172.126-.169.13-.084.068-.085.068-.083.072-.082.073-.042.037-.04.039L76.3,5.6l-.039.04-.019.02-.019.021-.019.021-.019.021-.018.023-.016.024-.008.011L76.14,5.8l-.006.011-.005.011M100.252,2,94.434,2.7l-5.7,1.383-5.4,2.049L78.41,8.781l-4.318,3.154M111.5,6.019l1.659-1.1,2.107-.669,2.278-.1,2.124.438m35.717,123.331,1.349,2.268.147,2.694M110.8,79.5l44.584,48.417M99.733,78.026l2.06-.862,2.488-.331,2.576.342,2.267.963L110.8,79.5M92.039,82.567l7.694-4.541m40.88-63.631,0-.013,0-.014,0-.013-.005-.014-.01-.027-.011-.026-.011-.026-.013-.027-.013-.025-.013-.025-.027-.049-.028-.048-.028-.047-.028-.047-.029-.047-.029-.046-.029-.045-.029-.045-.059-.087-.059-.087-.121-.169-.122-.164-.125-.162-.128-.156m-20.016-8.4L125,6.759l4.988,2.8,4.476,3.364,3.825,3.816,3.076,4.14M6.813,132.179l-.664-.025-.661.009-.268.014-.266.019-.441.043-.437.059-.447.077-.442.093-.467.116-.457.135-.467.159-.456.177-.458.2-.442.221-.223.127L0,133.735m14.565,1.945-.072-.083-.073-.082m0,0-.018-.021-.018-.02L14,135.092l-.422-.352-.435-.336-.454-.317-.468-.29-.489-.269-.491-.241-.5-.22-.482-.184-.492-.163-.417-.122-.422-.106-.361-.079-.364-.069-.451-.069-.452-.054-.242-.023-.244-.018M160,125.209,115.4,76.773m0,0-2.349-2.127L110.093,72.8l-3.471-1.409-3.813-.837-3.923-.192L95.1,70.8l-3.442,1L88.7,73.223m0,0L85.514,75.1m0,0-2.5,1.93-1.9,2.582-.967,3.032m83.144,48.135-1.352-3L160,125.209M87.716,73.79l-.2.117" transform="translate(90.945 10.401)" fill="none" stroke="#1a1818" stroke-linecap="round" stroke-linejoin="round" stroke-width="2"/>
    <path id="Path_1779" data-name="Path 1779" d="M155.112,69.874l-1.046-.287-1.037-.321-.94-.351-.916-.414-.829-.446-.791-.51L148.841,67l-.654-.612-.569-.654-.495-.709-.406-.755-.309-.8-.249-1.082-.076-1.1.114-1.257.3-1.224.559-1.362.758-1.255,1.12-1.33,1.247-1.231m36.787,4.891.338.5.326.509.289.5.266.515.236.506.212.516.182.506.158.515.127.5.1.51.135,1.481-.124,1.482-.351,1.267-.582,1.181-.81,1.055-1,.891-1.156.714-1.253.535-1.383.388-1.417.228-1.526.1-1.532.019M152.066,75.79l-1.192.684m-2,1.2-1.19.685m86.263,51.523.1-.22.324-.668.355-.673.373-.655.405-.656.427-.636.457-.627.48-.6.5-.582.529-.554.544-.515.571-.482.574-.427.819-.51.794-.384.846-.285.789-.143.661-.02.6.086.584.2.545.266M135.466,10.022l.136.2.066.206m-3.39,1.475.135.2.066.206m3.19-1.882-3.19,1.882m7.7,45.54-3.19,1.883M77.812,138.152l.151.162m-13.469-10.84-1.19.685m165.673-1.917,3.238,4.572M184.376,77.806l44.6,48.436m-50.77-53.3,3.323,2.233,2.845,2.628m-6.168-4.861-23.1-3.071M147.6,72.915l3.6-1.771,3.919-1.27m-10.7,4.923,3.19-1.882m-8.877,7.065,2.59-2.921,3.1-2.262M63.593,136.411l-.238-.119M240.231,151.42l-.04-.045m5.044-29.578-.612,2.02M206.948,19.907l-1.445-1.5-1.527-1.446M175.441,3.614,173.329,3.3,171.2,3.051M139.491,8.386l-1.941.986-1.882,1.057m14.515,43.2.251-.172.252-.169.252-.165.253-.163.254-.16.254-.158.254-.154.255-.151.255-.149.255-.145.255-.143.256-.14.256-.138.256-.135.256-.131.258-.129.256-.125.257-.124.258-.12.257-.117.256-.114.259-.112.257-.109.257-.106.258-.1.259-.1.258-.1.258-.095.257-.092.258-.088.258-.086.257-.085.256-.079.258-.078.257-.076.256-.072,2.523-.568,2.571-.317,2.518-.054,2.512.2,2.482.461,2.423.711,2.41.978,2.3,1.21.415.249.411.257.412.268.408.274.408.285.4.292.4.3.4.309.4.321.394.327.394.338.388.346.387.355.381.362.381.374.375.38.375.39.369.4.365.409.362.413M64.918,122.6l-1.048-.285L62.832,122l-.939-.352-.916-.414-.829-.446-.793-.51-.708-.548-.654-.612-.57-.653-.495-.711L56.523,117l-.311-.8-.247-1.08-.076-1.1L56,112.761l.3-1.223.559-1.362.76-1.255,1.12-1.332,1.247-1.231m36.786,4.892.338.5.326.507.29.5.266.515.235.507.213.515.182.507.156.514.128.5.1.511.135,1.479-.125,1.482-.351,1.267-.582,1.183-.81,1.055-1,.891-1.155.714-1.255.534-1.382.389-1.417.227-1.527.1-1.531.019m0,0-23.1-3.072m-4.929-16.245.251-.17.253-.17.251-.165L61,105.69l.253-.16.255-.157.254-.154.254-.153.255-.148.256-.146.255-.143.256-.14.255-.138.257-.134.256-.131.256-.129.257-.126.258-.122.256-.12.257-.117.258-.115.259-.111.256-.109.259-.106.257-.1.258-.1.257-.1.258-.1.257-.091.259-.09.256-.086.258-.083.258-.081.257-.078.256-.074.257-.073,2.523-.568,2.571-.317,2.518-.053,2.512.2,2.482.461,2.422.709,2.41.979,2.3,1.209.417.25.41.256.413.268.406.274.409.285.4.292.4.3.4.31.4.321.393.327.394.338.387.345.388.356.383.362.381.374.375.379.375.391.367.4.366.409.361.414M5.045,139.289l.336-.064.342-.049.331-.021.338,0,.326.025.329.047.318.066.323.088,1.183.509,1.2.829.969.938.9,1.142.66,1.083.564,1.159.475,1.231.367,1.233.289,1.313.182,1.271.1,1.37.037,1.334m-1.571-19.911.389,2.224.814,2.61,1.221,2.817,1.54,2.787,1.718,2.527,1.742,2.1M112.508,37.284l-.293-3.958m-75.9,119.185-.183-.125-.1.078m-11.1-1.641-1.19.684m60.064-21.465,1.3,1.015M207.241,19.565l-.187.159-.106.183M77.937,138.241l-.305.037M132.478,12.31l-2.2,1.387-2.085,1.5m8.792,44.539-3.412,2.317-3.116,2.806-2.677,3.265M251.842,68l-.187.158-.106.183m0,0-44.6-48.436m32.779,93.687-44.6-48.436M0,168.869l.006.038m1.373,2.965-.086-.157m121.228,14.944-.307.035M35.969,163.01,264.58,94.328l.649-3.135M119.085,196.815l.239.117M137.249.233,136.771,0M48.1,62.112l-.066-.206-.136-.2m92.5,122.156,2.324-1.559,2.355-1.984,2.184-2.292,1.815-2.413,1.311-2.327.762-2.073m-4.718-3.731-44.6-48.437" transform="translate(27.583 7.833)" fill="none" stroke="#1a1818" stroke-linecap="round" stroke-linejoin="round" stroke-width="2"/>
    <path id="Path_1780" data-name="Path 1780" d="M182.848.131l-1.5-.078-1.5-.044-.6-.006-.6,0-1,.01-1,.025-1.033.042-1.03.059-1.1.082-1.1.1-1.142.126L170.1.592l-1.169.172-1.161.194-1.183.222-1.176.244-1.188.272-1.179.294-1.185.322-1.175.346-1.175.374-1.164.4-1.162.422-1.145.451-.555.232-.549.241m54.1,2.978-.866-.483-1.146-.6-1.166-.578-1.18-.553L203.481,5l-1.208-.5-1.223-.477-1.229-.449-1.243-.424-1.245-.394-1.256-.37-1.247-.338-1.256-.313-1.224-.279L191.119,1.2l-1.2-.223-1.2-.2L187.867.65l-.856-.117-.855-.1L185.3.335,184.076.221,182.848.131m-107.411,144-27.279,16.1M249,162.934l.458-.422.451-.44.432-.449.423-.463.791-.932.754-.974M140.275,23.028l-.009,0-.01,0h-.025l-.025,0-.028.006-.028.006-.028.009-.028.009-.028.009-.058.021-.057.023-.057.023-.058.025-.115.053-.116.056-.115.058-.115.059-.229.125-.228.13-.227.135-.226.14m5.223,1.882-5.181,2.787-4.654,3.467L129.916,36.1l-3.081,4.481-2.144,4.745M259,147.478l.117-.31m-6.8,12.086.852-1.171.82-1.188.694-1.055.669-1.067.559-.935.535-.942.442-.813.424-.817.268-.54m-5.3,8.482-.365.495-.369.486-.358.449-.366.435-.352.4-.358.389-.345.356-.351.342-.4.367m-5.834,4.225.235-.133.233-.135.934-.579.906-.615.891-.639.875-.658.857-.679.822-.716.042-.039.042-.039m-9.018,6.123,3.19-1.883M216.81,31.282l-.334-3.24-.418-3.248M201.422,74.9l15.387-43.62-3.933-3.558L208.4,24.509l-4.939-2.793-5.3-2.3-5.545-1.773-5.667-1.219m.574-4.973-.308,2.483-.266,2.49m-3.662-5.536-.11,2.509-.154,2.5m-33.486,6.438,4.944-2.377,5.348-1.908,5.65-1.383,5.834-.824,5.89-.252,5.821.307M158.279,67.865l-8.742-45.529.976-3.065,1.06-3.052M49.626,162.526l-1.693,1.38L46.8,165.8l-.284,2.157.261.851,1.3,2.108m78.146-123.63.052.045.051.049.025.026.025.027.024.028.024.028.023.029.023.029.019.028.019.029.008.015.009.014.006.014.006.013.01.026.006.024M44.13,165.515l-.115.539m0,1.564.29-2.772,1.362-2.476,2.105-1.861m.391-.274-.173.1-.174.1M126.547,50.268l-.008-.019-.011-.014-.006-.005-.008,0-.008,0h-.039l-.01,0-.021.006-.023.009-.013.005-.011.006-.013.008-.011.008-.024.016-.024.018-.025.02-.024.021-.024.023-.025.024m92.508,123.569,1.2.058,1.2.02h.492l.492-.008.814-.028.814-.044.844-.063.842-.083.9-.109.9-.129.93-.158.925-.18.948-.211.94-.233.954-.265.945-.289.952-.321.94-.346.94-.375.928-.4.923-.432.908-.458.776-.42.764-.443M211.867,172.9l1.811.4.731.136.735.124.69.1.692.09,1.1.116,1.1.087M98.395,64.328v-.059l0-.016v-.016l0-.016,0-.018,0-.016-.005-.018-.005-.018-.005-.018-.011-.035-.013-.034-.013-.034L98.313,64l-.015-.033-.016-.031-.018-.029-.018-.029-.018-.029-.019-.026M134.6,194.491,90.019,146.075m11.9-81.341-.073.024-.072.03-.035.016-.035.019-.016.01-.018.01-.016.01-.016.011-.033.023-.03.025-.014.013-.014.013-.014.014-.013.014-.011.014-.011.014-.009.015-.009.014-.008.015-.006.014-.006.014,0,.015m38.823-42.053.1.077.1.076.1.077.1.078.1.078.1.079.1.079.1.081.1.081.1.082.1.082.1.083.106.085.106.083.106.086.106.086.107.087.107.087.107.088.107.088.109.09.109.09.11.092.109.091.11.092.11.093.11.093.111.095.111.095.111.1.111.1.112.1M127.476,51.947l.491-4.241,1.141-4.227,1.795-4.115,2.421-3.907,3-3.61,3.487-3.24,3.882-2.815M127.476,51.947l-.462-2.1-.461-2.137m0,0-.03,1.28.024,1.28m0,0,.228.934.23.945.23.956.231.966m2.247,10.419-1.6-5.184-.642-5.236M12.082,176.736l.589,1.4.679,1.366M100.544,69.958l1.867-.674,2.133-.217,2.134.3,1.874.745M9.907,169.818l.957,3.48,1.218,3.438M91.2,65.255l2.142.323,2.035.867,1.621,1.324,1.016,1.569M13.376,179.548l-.282-.54-.524-1.14-.488-1.166m1.295,2.841.528.934.557.916.6.916.63.9.66.886.692.865.639.75.663.733M133.7,197.22m-1.136-.905,1.349,2.268.145,2.694-.447.959-1.734,1.98m.027-.077-.351.269-.393.231M66.7,66.267l-.236.133-.235.138L66,66.678l-.231.148-.115.076-.115.078-.114.079-.114.082-.057.042-.056.043-.056.044-.054.045-.028.024-.028.023L65,67.386l-.027.025-.025.025-.024.027-.011.014-.011.014L64.9,67.5l-.005.008-.005.008,0,.008M62.007,74l4.035-2.675,4.516-2.262,4.9-1.776,5.162-1.238,5.291-.677,5.285-.119m45.582,134.451-.044-.549M121.294,75.7l0-.015-.005-.015-.006-.016-.006-.015-.014-.03-.015-.03-.015-.029-.015-.029-.016-.028-.016-.028-.034-.056-.034-.053-.034-.053-.035-.053-.071-.1-.073-.1-.073-.1-.073-.1-.149-.191-.151-.186-.154-.182-.155-.178m-11.591-4,4.129,2.571,3.745,2.979,3.269,3.322,2.723,3.586m12.212,112-.026-.071m.026.071,1.305,1.852.732,2.195-.024,2.34-.818,2.224M267.473,80.227l-.149-.143-.15-.138-.151-.132-.153-.129-.077-.062-.077-.059-.078-.058-.077-.054-.039-.027-.038-.024-.039-.024-.039-.021-.019-.009-.019-.01-.018-.008-.019-.006-.018-.005-.018,0h-.023l-.006,0m10.077,23.348-1.489-5.734-2.739-5.545L268.229,86.3,263.4,81.879M89.3,215.638l-41.249-44.8m83.116,33.805-19.516,11.519M87.977,147.9l44.583,48.417M76.9,146.426l2.06-.862,2.487-.331,2.577.343,2.266.962,1.682,1.361M49.626,162.526l27.279-16.1m196.848-41.335.01-.021.013-.023.008-.013.009-.013.009-.011.01-.013.01-.013.011-.011.011-.013.013-.013.025-.024.026-.024.014-.011.014-.011.014-.011.014-.011.029-.021.029-.02.029-.02.029-.019.03-.018.029-.018m-118.532,114.1.12-.067.12-.067.872-.535.846-.571.831-.593.813-.616.791-.641.769-.665.746-.69.721-.712.7-.735.67-.755.644-.776.615-.8.586-.814.558-.833.526-.849.495-.867.462-.882.434-.9.409-.906.356-.925.013-.037.011-.035M121.294,75.7l.043.218.042.217.04.22.042.22.04.222.04.221.04.222.039.223.04.225.039.223.039.226.038.226.039.228.038.227.038.228.037.23.038.23.037.231.037.232.037.232.035.234.035.233.035.236.034.235.035.237.033.237.034.237.034.239.033.24.033.241M100.544,69.958l5.006,1.626,4.8,2.121,4.473,2.579,4.05,2.979,3.549,3.306L110.9,127.874M100.544,69.958l.208-1.224.221-1.222.232-1.218.246-1.213m-3.057-.752-.17,2.509-.215,2.5M62.007,74l4.507-2.137,4.9-1.708L76.6,68.933l5.378-.7,5.44-.155,5.381.377,5.207.878M67.971,122.315,62.007,74l.088-.215.087-.215.088-.213.088-.213.088-.211.088-.212.088-.209.088-.21.09-.208.088-.208.09-.206.09-.207.09-.2.09-.206.09-.2.091-.2.09-.2.091-.2.09-.2.091-.2.091-.2.091-.2.091-.2.091-.2.091-.194.092-.2.091-.193.092-.193.092-.193L64.7,67.9l.092-.189.092-.191m208.6,41.067-.045-.044-.045-.038-.023-.015-.023-.014-.023-.013-.023-.009-.021-.006-.02,0h-.019l-.019,0-.008,0-.008,0-.008.005-.006.006-.006.006-.005.008-.005.008,0,.01M95.889,137.875l-1.979-1.744-2.542-1.46-2.989-1-3.221-.428-3.192.183-2.917.733-2.473,1.152m0,0L37.015,158.656m0,0-2.993,2.216-2.444,2.894L30,167.2l-.515,3.7m107.3,28.814-.51,3.217M85.725,215.8,46.009,172.667m0,0-1.342-1.919-.728-2.278.077-2.418m-27-70.412-.006-.005-.008,0-.009,0h-.009l-.02,0h-.02l-.023,0-.022,0-.023,0-.024,0-.045.01-.047.013-.047.013-.048.015-.048.015-.047.016-.048.018-.048.018-.1.037-.095.039-.192.082L15.9,96l-.189.092-.191.1M.2,116l2.542-4.238,3.328-3.947,4.034-3.519,4.612-2.983,5.032-2.37M75.537,135.9l-.15.088m21.8,2.9-1.906-1.725m52.876,57.079L97.186,138.89m51.868,56.438-.9-1.084m-72.77-58.252L35.825,159.34M18.339,186.447l44.6,48.436M273.172,108.5l-.7,1.868-.708,1.9m1.409-3.77.334-1.7.246-1.709m0,0-.727,2.028-.723,1.993m-8.9-27.233,3.082,4.06L269,90.313l1.871,4.6,1.181,4.736.475,4.765-.22,4.7m-8.9-27.233,1.434-1.32,1.433-1.238m-7.148,67.831-1.5,3.469-.2.414-.211.413-.218.419-.223.418-.232.422-.236.423-.246.427-.25.425-.259.43-.264.428-.271.434-.276.432-.285.435-.29.434-.3.438-.3.437-.311.44-.317.438-.324.442-.328.439m12.452-32.543,3.153-4.563,2.358-4.842,1.529-4.992m-12.646,34.887,1.021-2.743m-2.714-13.239.006-.01.009-.01.009-.009.01-.01.022-.018.021-.019.023-.016.024-.018.023-.016.024-.016.048-.032.048-.03.048-.03.048-.03.048-.029.049-.029.048-.028.049-.028.1-.056.1-.054.192-.106.192-.1.191-.1.189-.1m-1.387.784-1.8,1.233-1.868,1.16M0,116.453.2,116M116.051,242.2l39.561-23.348m98.275-85.4-3.19,1.882m-183,103.891.3.207.328.2.4.2.432.193.51.2.539.192.616.2.647.189M1.014,117.852l.045.049.044.052.023.028.021.029.021.029.02.029.02.03.019.03.018.029.016.03.006.015.008.014,0,.014.006.014,0,.013.005.013,0,.013,0,.013M67.7,239.23l-.072-.062m-4.686-4.29.085.1.085.1.772.813.812.783.834.765.857.743.649.528.665.511m183-103.88-.568.329-.574.323-1.111.594-1.135.564-.76.352-.771.337M105.939,245.395l.726,0,.7-.022.654-.035.625-.054.576-.072.529-.095.469-.116.417-.139m-.011,0h.006l.005,0,1.013-.414.993-.456.988-.48.973-.5.726-.4.713-.419M.722,121.7l-.006-.02-.01-.016L.7,121.651l-.006-.006-.009-.006-.009-.005-.009,0-.01,0-.011,0H.632l-.023,0H.558l-.014,0-.014,0-.028.008-.028.009-.029.011-.029.013-.029.015-.029.015m212.123,19.262L210.9,140.6l-1.561-.415m-.385.056.073-.02.071-.018.035-.006.034-.005.016,0,.016,0h.1l.014,0,.02,0m3.14.774h.005l.005,0,.006,0,.013.009.014.011.015.014.016.016.016.019.016.019.018.021.018.024.019.024.019.025" transform="translate(15.501 0)" fill="none" stroke="#1a1818" stroke-linecap="round" stroke-linejoin="round" stroke-width="2"/>
    <path id="Path_1781" data-name="Path 1781" d="M0,.856.236.726.47.6.7.471.932.347,1.046.286l.113-.06L1.272.167,1.383.111,1.439.083,1.494.057,1.548.031,1.6.007,1.618,0" transform="translate(259.669 137.847)" fill="none" stroke="#1a1818" stroke-linecap="round" stroke-linejoin="round" stroke-width="2"/>
    <path id="Path_1782" data-name="Path 1782" d="M1.35,1.134,1.185.964,1.018.8.85.636.68.48.595.4.509.331.423.259.336.191.292.158.249.126.206.1.162.067.14.053.119.041.1.029.076.018.056.009.036,0,.026,0H.008L0,0" transform="translate(193.004 136.733)" fill="none" stroke="#1a1818" stroke-linecap="round" stroke-linejoin="round" stroke-width="2"/>
    <path id="Path_1783" data-name="Path 1783" d="M10.971,14.73,8.917,10.37,6.47,6.625l-3-3.482L0,0" transform="translate(189.79 138.897)" fill="none" stroke="#1a1818" stroke-linecap="round" stroke-linejoin="round" stroke-width="2"/>
    <path id="Path_1784" data-name="Path 1784" d="M4.014,0,1.437,1.6,0,4.063" transform="translate(13.143 125.776)" fill="none" stroke="#1a1818" stroke-linecap="round" stroke-linejoin="round" stroke-width="2"/>
    <path id="Path_1785" data-name="Path 1785" d="M0,0,.986.273l1.03.271.915.231L3.877,1,4.7,1.2l.844.189.713.155.727.153.591.121.6.119.46.09.465.089.324.061.326.06.223.041.224.041.569.1.574.1.772.13.78.127.969.152.978.146,1.016.145,1.021.138,1.348.172,1.348.16L20.9,3.83l1.323.133,1.329.121,1.311.108,1.091.081,1.073.071,1.184.068,1.158.057,1.265.05,1.228.036,1.329.025,1.281.009" transform="translate(86.968 240.806)" fill="none" stroke="#1a1818" stroke-linecap="round" stroke-linejoin="round" stroke-width="2"/>
    <path id="Path_1786" data-name="Path 1786" d="M0,0" transform="translate(200.761 153.898)" fill="none" stroke="#1a1818" stroke-linecap="round" stroke-linejoin="round" stroke-width="2"/>
    <path id="Path_1787" data-name="Path 1787" d="M0,.47.01.444.024.415.032.4.041.384.05.368.06.353.071.337.081.32.093.3.1.288.128.256.152.225.164.21.177.194.189.179.2.164.226.135.251.107.276.079.3.052.326.026.35,0" transform="translate(199.801 154.581)" fill="none" stroke="#1a1818" stroke-linecap="round" stroke-linejoin="round" stroke-width="2"/>
    <path id="Path_1788" data-name="Path 1788" d="M0,0,1.378,1.61,2.732,3.3" transform="translate(32.515 95.64)" fill="none" stroke="#1a1818" stroke-linecap="round" stroke-linejoin="round" stroke-width="2"/>
    <path id="Path_1789" data-name="Path 1789" d="M0,23.689,1.353,19.15l2.039-4.426,2.7-4.214L9.411,6.6l3.852-3.524L17.554,0" transform="translate(17.694 98.939)" fill="none" stroke="#1a1818" stroke-linecap="round" stroke-linejoin="round" stroke-width="2"/>
    <path id="Path_1790" data-name="Path 1790" d="M.891,4.334.442,2.184,0,0" transform="translate(16.803 118.294)" fill="none" stroke="#1a1818" stroke-linecap="round" stroke-linejoin="round" stroke-width="2"/>
    <path id="Path_1791" data-name="Path 1791" d="M.58,0,.246,1.694,0,3.4" transform="translate(16.223 118.294)" fill="none" stroke="#1a1818" stroke-linecap="round" stroke-linejoin="round" stroke-width="2"/>
    <path id="Path_1792" data-name="Path 1792" d="M.934,4.081.469,2.023,0,0" transform="translate(16.223 121.695)" fill="none" stroke="#1a1818" stroke-linecap="round" stroke-linejoin="round" stroke-width="2"/>
    <path id="Path_1793" data-name="Path 1793" d="M.166,0,0,5.919l.94,5.989,2.046,5.858" transform="translate(16.991 125.776)" fill="none" stroke="#1a1818" stroke-linecap="round" stroke-linejoin="round" stroke-width="2"/>
    <line id="Line_609" data-name="Line 609" x1="0.041" y1="0.173" transform="translate(25.405 169.808)" fill="none" stroke="#1a1818" stroke-linecap="round" stroke-linejoin="round" stroke-width="2"/>
    <line id="Line_610" data-name="Line 610" x2="0.431" y2="1.852" transform="translate(24.975 167.959)" fill="none" stroke="#1a1818" stroke-linecap="round" stroke-linejoin="round" stroke-width="2"/>
    <path id="Path_1794" data-name="Path 1794" d="M0,0,.149.145.3.292.449.441.6.593.676.671.752.749.828.828.9.909.942.951.979.992l.037.042.037.043.018.022.018.022.018.022.017.023.017.023.016.023.008.012.007.012.006.011.005.011" transform="translate(22.499 146.172)" fill="none" stroke="#1a1818" stroke-linecap="round" stroke-linejoin="round" stroke-width="2"/>
    <path id="Path_1795" data-name="Path 1795" d="M0,0,1.286,1.613,2.661,3.179" transform="translate(23.683 147.431)" fill="none" stroke="#1a1818" stroke-linecap="round" stroke-linejoin="round" stroke-width="2"/>
    <path id="Path_1796" data-name="Path 1796" d="M.352.13.3.089.248.054.222.039.2.027.171.016.146.008.122,0,.1,0H.076L.056,0l-.01,0-.009,0L.03.017.022.023.009.038,0,.056" transform="translate(199.794 157.555)" fill="none" stroke="#1a1818" stroke-linecap="round" stroke-linejoin="round" stroke-width="2"/>
    <path id="Path_1797" data-name="Path 1797" d="M3.045,4.108,2.014,1.763,0,0" transform="translate(198.354 161.476)" fill="none" stroke="#1a1818" stroke-linecap="round" stroke-linejoin="round" stroke-width="2"/>
    <path id="Path_1798" data-name="Path 1798" d="M3.214,0l-.1.064-.1.064-.1.065-.1.065L2.7.324,2.6.391l-.1.067-.1.068-.1.068-.1.069L2.075.732,1.97.8,1.863.873,1.757.944l-.107.072-.107.072-.108.073-.108.073-.109.074-.109.074L1,1.458l-.11.076L.78,1.61l-.11.077-.111.078-.111.078-.112.079L.225,2l-.112.08L0,2.161" transform="translate(189.79 136.736)" fill="none" stroke="#1a1818" stroke-linecap="round" stroke-linejoin="round" stroke-width="2"/>
    <path id="Path_1799" data-name="Path 1799" d="M0,15.674l2.787-5.031,1.765-5.29L5.279,0" transform="translate(193.076 161.476)" fill="none" stroke="#1a1818" stroke-linecap="round" stroke-linejoin="round" stroke-width="2"/>
    <path id="Path_1800" data-name="Path 1800" d="M1.439,0,.721,1.914,0,3.865" transform="translate(198.354 157.611)" fill="none" stroke="#1a1818" stroke-linecap="round" stroke-linejoin="round" stroke-width="2"/>
    <path id="Path_1801" data-name="Path 1801" d="M0,2.56.031,1.281.007,0" transform="translate(199.794 155.051)" fill="none" stroke="#1a1818" stroke-linecap="round" stroke-linejoin="round" stroke-width="2"/>
    <path id="Path_1802" data-name="Path 1802" d="M0,4.3.36,3.242l.359-1.07.359-1.081L1.436,0" transform="translate(198.364 155.051)" fill="none" stroke="#1a1818" stroke-linecap="round" stroke-linejoin="round" stroke-width="2"/>
    <path id="Path_1803" data-name="Path 1803" d="M8.574,20.457l-.459-4.309L7,11.854,5.25,7.671,2.894,3.692,0,0" transform="translate(189.79 138.897)" fill="none" stroke="#1a1818" stroke-linecap="round" stroke-linejoin="round" stroke-width="2"/>
    <line id="Line_611" data-name="Line 611" y1="6.653" x2="2.475" transform="translate(184.22 196.905)" fill="none" stroke="#1a1818" stroke-linecap="round" stroke-linejoin="round" stroke-width="2"/>
    <path id="Path_1804" data-name="Path 1804" d="M0,1.234l.01-.013.012-.013L.035,1.2l.013-.012L.075,1.16.1,1.136l.029-.023.029-.022L.19,1.07l.029-.021.058-.042L.336.966.394.926.452.886.569.808.686.731.8.655.918.58,1.149.433,1.378.287,1.606.143,1.832,0" transform="translate(186.072 181.058)" fill="none" stroke="#1a1818" stroke-linecap="round" stroke-linejoin="round" stroke-width="2"/>
    <path id="Path_1805" data-name="Path 1805" d="M4.3,0,3.63.513l-.684.5-1.015.7L.887,2.376l-.441.271L0,2.914" transform="translate(181.816 182.222)" fill="none" stroke="#1a1818" stroke-linecap="round" stroke-linejoin="round" stroke-width="2"/>
    <line id="Line_612" data-name="Line 612" x1="44.601" y1="48.436" transform="translate(26.325 150.569)" fill="none" stroke="#1a1818" stroke-linecap="round" stroke-linejoin="round" stroke-width="2"/>
    <path id="Path_1806" data-name="Path 1806" d="M3.1,3.06l-1.6-1.5L0,0" transform="translate(70.926 199.005)" fill="none" stroke="#1a1818" stroke-linecap="round" stroke-linejoin="round" stroke-width="2"/>
    <line id="Line_613" data-name="Line 613" x1="39.561" y2="23.348" transform="translate(142.255 185.135)" fill="none" stroke="#1a1818" stroke-linecap="round" stroke-linejoin="round" stroke-width="2"/>
    <path id="Path_1807" data-name="Path 1807" d="M4.025,0l-.6.348L2.819.689l-1.17.633-1.2.6-.225.106L0,2.13" transform="translate(138.23 208.484)" fill="none" stroke="#1a1818" stroke-linecap="round" stroke-linejoin="round" stroke-width="2"/>
    <path id="Path_1808" data-name="Path 1808" d="M4.307.571,3.688.509,3.07.44,1.729.268.393.066.2.033,0,0" transform="translate(102.412 215.294)" fill="none" stroke="#1a1818" stroke-linecap="round" stroke-linejoin="round" stroke-width="2"/>
    <path id="Path_1809" data-name="Path 1809" d="M0,.1.056.072.11.044.136.032.162.022.186.013.208.007.23,0l.02,0H.272" transform="translate(102.142 215.294)" fill="none" stroke="#1a1818" stroke-linecap="round" stroke-linejoin="round" stroke-width="2"/>
    <path id="Path_1810" data-name="Path 1810" d="M0,0H0L.011,0,.018,0,.033.011.049.021.058.026.067.033.076.04.085.047.1.063l.02.018L.144.1.165.121.186.143.207.167" transform="translate(106.716 215.867)" fill="none" stroke="#1a1818" stroke-linecap="round" stroke-linejoin="round" stroke-width="2"/>
    <path id="Path_1811" data-name="Path 1811" d="M0,0,0,0H.012L.018,0,.029.01.041.018l.013.01L.068.04.081.053.1.066.123.093.152.123.181.153.21.185.239.218l.03.033L.3.285l.03.034.06.07L.45.46.573.606.7.755.823.907l.127.155" transform="translate(73.952 202.019)" fill="none" stroke="#1a1818" stroke-linecap="round" stroke-linejoin="round" stroke-width="2"/>
    <path id="Path_1812" data-name="Path 1812" d="M0,.727.174.612.346.5.517.389.686.282.769.23.852.179.934.13,1.015.083l.04-.022.04-.022.039-.02L1.172,0h0" transform="translate(137.063 210.62)" fill="none" stroke="#1a1818" stroke-linecap="round" stroke-linejoin="round" stroke-width="2"/>
    <line id="Line_614" data-name="Line 614" x2="55.216" y2="59.964" transform="translate(11.063 152.852)" fill="none" stroke="#1a1818" stroke-linecap="round" stroke-linejoin="round" stroke-width="2"/>
    <path id="Path_1813" data-name="Path 1813" d="M21.522,0,17.234,2.823,13.2,6.123,9.534,9.885l-3.2,4.191L3.712,18.64,1.744,23.5.5,28.565,0,33.729l.259,5.157.986,5.044L2.9,48.766l2.251,4.55,2.753,4.2,3.156,3.813" transform="translate(0 91.521)" fill="none" stroke="#1a1818" stroke-linecap="round" stroke-linejoin="round" stroke-width="2"/>
    <line id="Line_615" data-name="Line 615" x1="141.121" y2="83.288" transform="translate(21.522 8.232)" fill="none" stroke="#1a1818" stroke-linecap="round" stroke-linejoin="round" stroke-width="2"/>
    <path id="Path_1814" data-name="Path 1814" d="M24.746,0,17.8,1.074,11.286,2.817l-5.96,2.31L0,7.888" transform="translate(162.643 0.344)" fill="none" stroke="#1a1818" stroke-linecap="round" stroke-linejoin="round" stroke-width="2"/>
    <path id="Path_1815" data-name="Path 1815" d="M27.2,16l-4.09-3.955-4.819-3.7L12.774,5.026,6.639,2.207,0,0" transform="translate(211.719 2.373)" fill="none" stroke="#1a1818" stroke-linecap="round" stroke-linejoin="round" stroke-width="2"/>
    <line id="Line_616" data-name="Line 616" x1="55.216" y1="59.964" transform="translate(238.917 18.375)" fill="none" stroke="#1a1818" stroke-linecap="round" stroke-linejoin="round" stroke-width="2"/>
    <path id="Path_1816" data-name="Path 1816" d="M0,61.331l4.288-2.823,4.032-3.3,3.669-3.762,3.2-4.191,2.625-4.564,1.968-4.86,1.248-5.064.5-5.165-.259-5.157L20.276,17.4l-1.657-4.837L16.368,8.015l-2.753-4.2L10.459,0" transform="translate(283.674 78.339)" fill="none" stroke="#1a1818" stroke-linecap="round" stroke-linejoin="round" stroke-width="2"/>
    <line id="Line_617" data-name="Line 617" y1="83.288" x2="141.121" transform="translate(142.553 139.67)" fill="none" stroke="#1a1818" stroke-linecap="round" stroke-linejoin="round" stroke-width="2"/>
    <path id="Path_1817" data-name="Path 1817" d="M0,0,3.616,3.541l4.2,3.348,4.762,3.067,5.281,2.7L23.586,14.9l6.076,1.724,6.309,1.148,6.412.543,6.382-.067,6.222-.657,5.946-1.205,5.574-1.693,5.13-2.108,4.637-2.444" transform="translate(66.28 212.816)" fill="none" stroke="#1a1818" stroke-linecap="round" stroke-linejoin="round" stroke-width="2"/>
    <path id="Path_1818" data-name="Path 1818" d="M0,0,4.061,2.518l3.689,2.9,3.236,3.219" transform="translate(124.66 65.474)" fill="none" stroke="#1a1818" stroke-linecap="round" stroke-linejoin="round" stroke-width="2"/>
    <path id="Path_1819" data-name="Path 1819" d="M7.056,10.956l-1.8-3.85L2.884,3.427,0,0" transform="translate(194.353 137.866)" fill="none" stroke="#1a1818" stroke-linecap="round" stroke-linejoin="round" stroke-width="2"/>
    <path id="Path_1820" data-name="Path 1820" d="M0,5.759,1.185,4.007l.438-2.021L1.258,0" transform="translate(200.15 148.822)" fill="none" stroke="#1a1818" stroke-linecap="round" stroke-linejoin="round" stroke-width="2"/>
    <path id="Path_1821" data-name="Path 1821" d="M1.928,6.125l.252-2.13L1.5,1.828,0,0" transform="translate(200.146 157.685)" fill="none" stroke="#1a1818" stroke-linecap="round" stroke-linejoin="round" stroke-width="2"/>
    <path id="Path_1822" data-name="Path 1822" d="M0,17.248l3.868-2.78L7.3,11.277l2.9-3.533,2.3-3.791L14.17,0" transform="translate(187.904 163.81)" fill="none" stroke="#1a1818" stroke-linecap="round" stroke-linejoin="round" stroke-width="2"/>
    <path id="Path_1823" data-name="Path 1823" d="M0,7.4l4.956-.542L9.838,5.827l4.7-1.511,4.411-1.959L22.981,0" transform="translate(114.082 211.347)" fill="none" stroke="#1a1818" stroke-linecap="round" stroke-linejoin="round" stroke-width="2"/>
    <path id="Path_1824" data-name="Path 1824" d="M0,0,1.953,1.549l2.535.957,2.67.207" transform="translate(106.924 216.034)" fill="none" stroke="#1a1818" stroke-linecap="round" stroke-linejoin="round" stroke-width="2"/>
    <path id="Path_1825" data-name="Path 1825" d="M7.745,0,5.363.972,2.62,1.228,0,.731" transform="translate(94.397 215.398)" fill="none" stroke="#1a1818" stroke-linecap="round" stroke-linejoin="round" stroke-width="2"/>
    <path id="Path_1826" data-name="Path 1826" d="M19.495,13.048l-4.556-1.806L10.617,8.986,6.631,6.32,3.069,3.3,0,0" transform="translate(74.902 203.081)" fill="none" stroke="#1a1818" stroke-linecap="round" stroke-linejoin="round" stroke-width="2"/>
    <path id="Path_1827" data-name="Path 1827" d="M0,0,.808,4.018,2.221,7.991l2,3.837,2.549,3.617L9.8,18.768" transform="translate(12.697 127.404)" fill="none" stroke="#1a1818" stroke-linecap="round" stroke-linejoin="round" stroke-width="2"/>
    <path id="Path_1828" data-name="Path 1828" d="M3.163,0,1.3,1.534.182,3.556,0,5.707" transform="translate(12.697 121.697)" fill="none" stroke="#1a1818" stroke-linecap="round" stroke-linejoin="round" stroke-width="2"/>
    <path id="Path_1829" data-name="Path 1829" d="M1.662,6.276.392,4.325,0,2.1.543,0" transform="translate(14.853 111.575)" fill="none" stroke="#1a1818" stroke-linecap="round" stroke-linejoin="round" stroke-width="2"/>
    <path id="Path_1830" data-name="Path 1830" d="M0,15.386l2.112-3.63L4.787,8.328,7.98,5.181l3.642-2.794,4-2.387" transform="translate(15.396 96.189)" fill="none" stroke="#1a1818" stroke-linecap="round" stroke-linejoin="round" stroke-width="2"/>
    <path id="Path_1831" data-name="Path 1831" d="M0,5.735,4.461,3.6,9.283,1.921,14.356.749l5.2-.64L24.771,0" transform="translate(82.202 60.532)" fill="none" stroke="#1a1818" stroke-linecap="round" stroke-linejoin="round" stroke-width="2"/>
    <path id="Path_1832" data-name="Path 1832" d="M0,0,2.617.437,5,1.6l1.736,1.69" transform="translate(106.973 60.532)" fill="none" stroke="#1a1818" stroke-linecap="round" stroke-linejoin="round" stroke-width="2"/>
    <path id="Path_1833" data-name="Path 1833" d="M0,.388,2.44,0,4.982.263l2.262.866" transform="translate(117.416 64.345)" fill="none" stroke="#1a1818" stroke-linecap="round" stroke-linejoin="round" stroke-width="2"/>
    <path id="Path_1834" data-name="Path 1834" d="M0,5.713,1.87,4.178,2.989,2.154,3.172,0" transform="translate(289.64 99.026)" fill="none" stroke="#1a1818" stroke-linecap="round" stroke-linejoin="round" stroke-width="2"/>
    <path id="Path_1835" data-name="Path 1835" d="M0,0,1.275,1.953l.394,2.225L1.124,6.285" transform="translate(288.983 108.588)" fill="none" stroke="#1a1818" stroke-linecap="round" stroke-linejoin="round" stroke-width="2"/>
    <path id="Path_1836" data-name="Path 1836" d="M15.668,0,13.55,3.635,10.868,7.069l-3.2,3.15-3.652,2.8L0,15.4" transform="translate(274.44 114.873)" fill="none" stroke="#1a1818" stroke-linecap="round" stroke-linejoin="round" stroke-width="2"/>
    <path id="Path_1837" data-name="Path 1837" d="M24.771,0,20.31,2.136,15.488,3.814,10.415,4.986l-5.2.64L0,5.735" transform="translate(234.898 138.703)" fill="none" stroke="#1a1818" stroke-linecap="round" stroke-linejoin="round" stroke-width="2"/>
    <path id="Path_1838" data-name="Path 1838" d="M6.738,3.286,4.122,2.849,1.736,1.69,0,0" transform="translate(228.16 141.151)" fill="none" stroke="#1a1818" stroke-linecap="round" stroke-linejoin="round" stroke-width="2"/>
    <path id="Path_1839" data-name="Path 1839" d="M7.244.741,4.8,1.129,2.262.866,0,0" transform="translate(217.211 139.495)" fill="none" stroke="#1a1818" stroke-linecap="round" stroke-linejoin="round" stroke-width="2"/>
    <path id="Path_1840" data-name="Path 1840" d="M10.985,8.637,6.924,6.119l-3.689-2.9L0,0" transform="translate(206.226 130.859)" fill="none" stroke="#1a1818" stroke-linecap="round" stroke-linejoin="round" stroke-width="2"/>
    <path id="Path_1841" data-name="Path 1841" d="M0,0,1.8,3.85,4.171,7.529l2.884,3.427" transform="translate(140.462 56.147)" fill="none" stroke="#1a1818" stroke-linecap="round" stroke-linejoin="round" stroke-width="2"/>
    <path id="Path_1842" data-name="Path 1842" d="M1.622,0,.438,1.752,0,3.773.364,5.759" transform="translate(140.098 50.388)" fill="none" stroke="#1a1818" stroke-linecap="round" stroke-linejoin="round" stroke-width="2"/>
    <path id="Path_1843" data-name="Path 1843" d="M.252,0,0,2.13.678,4.3l1.5,1.827" transform="translate(139.545 41.159)" fill="none" stroke="#1a1818" stroke-linecap="round" stroke-linejoin="round" stroke-width="2"/>
    <path id="Path_1844" data-name="Path 1844" d="M14.169,0,10.3,2.78,6.873,5.971,3.974,9.5,1.671,13.3,0,17.248" transform="translate(139.797 23.912)" fill="none" stroke="#1a1818" stroke-linecap="round" stroke-linejoin="round" stroke-width="2"/>
    <path id="Path_1845" data-name="Path 1845" d="M23.012,0,18.048.544,13.158,1.58,8.453,3.1,4.037,5.062,0,7.426" transform="translate(168.392 7.682)" fill="none" stroke="#1a1818" stroke-linecap="round" stroke-linejoin="round" stroke-width="2"/>
    <path id="Path_1846" data-name="Path 1846" d="M7.166,2.719,5.212,1.166,2.674.207,0,0" transform="translate(191.404 7.682)" fill="none" stroke="#1a1818" stroke-linecap="round" stroke-linejoin="round" stroke-width="2"/>
    <path id="Path_1847" data-name="Path 1847" d="M0,1.233,2.385.257,5.131,0,7.755.5" transform="translate(203.357 9.804)" fill="none" stroke="#1a1818" stroke-linecap="round" stroke-linejoin="round" stroke-width="2"/>
    <path id="Path_1848" data-name="Path 1848" d="M0,0,4.564,1.811,8.893,4.072l3.992,2.673,3.566,3.028,3.07,3.31" transform="translate(211.112 10.302)" fill="none" stroke="#1a1818" stroke-linecap="round" stroke-linejoin="round" stroke-width="2"/>
    <path id="Path_1849" data-name="Path 1849" d="M9.837,18.8l-.811-4.026-1.418-3.98L5.6,6.95,3.041,3.327,0,0" transform="translate(282.974 80.227)" fill="none" stroke="#1a1818" stroke-linecap="round" stroke-linejoin="round" stroke-width="2"/>
    <path id="Path_1850" data-name="Path 1850" d="M3.056.752,1.536.355,0,0" transform="translate(113.896 64.328)" fill="none" stroke="#1a1818" stroke-linecap="round" stroke-linejoin="round" stroke-width="2"/>
    <path id="Path_1851" data-name="Path 1851" d="M4.709,0l-2.4,1.152L0,2.424" transform="translate(75.679 67.521)" fill="none" stroke="#1a1818" stroke-linecap="round" stroke-linejoin="round" stroke-width="2"/>
    <path id="Path_1852" data-name="Path 1852" d="M.411,9.314,1.686,7.049l.337-2.543L1.387,2.054,0,0" transform="translate(149.798 194.528)" fill="none" stroke="#1a1818" stroke-linecap="round" stroke-linejoin="round" stroke-width="2"/>
    <line id="Line_618" data-name="Line 618" x1="44.584" y1="48.418" transform="translate(105.214 146.111)" fill="none" stroke="#1a1818" stroke-linecap="round" stroke-linejoin="round" stroke-width="2"/>
    <path id="Path_1853" data-name="Path 1853" d="M14.038,3.33,12.318,1.867,10.056.715,7.417.059,4.677,0,2.131.513,0,1.463" transform="translate(91.177 142.781)" fill="none" stroke="#1a1818" stroke-linecap="round" stroke-linejoin="round" stroke-width="2"/>
    <path id="Path_1854" data-name="Path 1854" d="M.2.407.136.2,0,0" transform="translate(35.917 92.887)" fill="none" stroke="#1a1818" stroke-linecap="round" stroke-linejoin="round" stroke-width="2"/>
    <line id="Line_619" data-name="Line 619" x1="39.561" y2="23.348" transform="translate(36.119 69.945)" fill="none" stroke="#1a1818" stroke-linecap="round" stroke-linejoin="round" stroke-width="2"/>
    <path id="Path_1855" data-name="Path 1855" d="M0,4.848,2.674,2.226,5.851,0" transform="translate(42.197 155.78)" fill="none" stroke="#1a1818" stroke-linecap="round" stroke-linejoin="round" stroke-width="2"/>
    <line id="Line_620" data-name="Line 620" x1="1.033" y2="6.056" transform="translate(41.164 160.628)" fill="none" stroke="#1a1818" stroke-linecap="round" stroke-linejoin="round" stroke-width="2"/>
    <line id="Line_621" data-name="Line 621" x2="0.914" y2="1.073" transform="translate(167.977 191.694)" fill="none" stroke="#1a1818" stroke-linecap="round" stroke-linejoin="round" stroke-width="2"/>
    <line id="Line_622" data-name="Line 622" x2="50.97" y2="55.353" transform="translate(117.007 136.341)" fill="none" stroke="#1a1818" stroke-linecap="round" stroke-linejoin="round" stroke-width="2"/>
    <path id="Path_1856" data-name="Path 1856" d="M0,3.124,2.863,1.713,6.161.656,9.794.06,13.612,0l3.819.508,3.629,1.05,3.273,1.515,2.8,1.868L29.4,7.034" transform="translate(87.609 129.307)" fill="none" stroke="#1a1818" stroke-linecap="round" stroke-linejoin="round" stroke-width="2"/>
    <line id="Line_623" data-name="Line 623" y1="23.348" x2="39.561" transform="translate(48.048 132.432)" fill="none" stroke="#1a1818" stroke-linecap="round" stroke-linejoin="round" stroke-width="2"/>
    <line id="Line_624" data-name="Line 624" x2="0.749" y2="1.544" transform="translate(33.09 184.903)" fill="none" stroke="#1a1818" stroke-linecap="round" stroke-linejoin="round" stroke-width="2"/>
    <path id="Path_1857" data-name="Path 1857" d="M2.635,3.145l-1.274-1.6L0,0" transform="translate(279.133 76.176)" fill="none" stroke="#1a1818" stroke-linecap="round" stroke-linejoin="round" stroke-width="2"/>
    <path id="Path_1858" data-name="Path 1858" d="M0,0,.121.118l.12.12L.359.359.475.483.587.607.7.733.807.86.914.989l.024.029" transform="translate(272.817 129.629)" fill="none" stroke="#1a1818" stroke-linecap="round" stroke-linejoin="round" stroke-width="2"/>
    <line id="Line_625" data-name="Line 625" x1="0.302" y1="4.421" transform="translate(15.396 111.575)" fill="none" stroke="#1a1818" stroke-linecap="round" stroke-linejoin="round" stroke-width="2"/>
    <line id="Line_626" data-name="Line 626" y1="1.549" x2="1.092" transform="translate(171.112 217.298)" fill="none" stroke="#1a1818" stroke-linecap="round" stroke-linejoin="round" stroke-width="2"/>
    <path id="Path_1859" data-name="Path 1859" d="M.2.1.084.007,0,0" transform="translate(269.387 133.452)" fill="none" stroke="#1a1818" stroke-linecap="round" stroke-linejoin="round" stroke-width="2"/>
    <line id="Line_627" data-name="Line 627" x2="0.75" y2="1.545" transform="translate(77.691 233.339)" fill="none" stroke="#1a1818" stroke-linecap="round" stroke-linejoin="round" stroke-width="2"/>
    <path id="Path_1860" data-name="Path 1860" d="M.2.1.084.007,0,0" transform="translate(266.198 135.334)" fill="none" stroke="#1a1818" stroke-linecap="round" stroke-linejoin="round" stroke-width="2"/>
    <line id="Line_628" data-name="Line 628" y1="1.55" x2="1.093" transform="translate(131.55 240.646)" fill="none" stroke="#1a1818" stroke-linecap="round" stroke-linejoin="round" stroke-width="2"/>
    <path id="Path_1861" data-name="Path 1861" d="M0,.341.105.158.292,0" transform="translate(190.549 133.454)" fill="none" stroke="#1a1818" stroke-linecap="round" stroke-linejoin="round" stroke-width="2"/>
    <line id="Line_629" data-name="Line 629" y1="4.363" x2="0.856" transform="translate(200.553 148.822)" fill="none" stroke="#1a1818" stroke-linecap="round" stroke-linejoin="round" stroke-width="2"/>
    <line id="Line_630" data-name="Line 630" x1="4.506" y1="47.423" transform="translate(36.119 93.294)" fill="none" stroke="#1a1818" stroke-linecap="round" stroke-linejoin="round" stroke-width="2"/>
    <path id="Path_1862" data-name="Path 1862" d="M3.6,0,1.767,1.139,0,2.346" transform="translate(32.515 93.294)" fill="none" stroke="#1a1818" stroke-linecap="round" stroke-linejoin="round" stroke-width="2"/>
    <path id="Path_1863" data-name="Path 1863" d="M0,4.47l.3-.42.2-.256.2-.25L.9,3.3l.212-.239.22-.236.225-.229.232-.225.237-.218.245-.214.249-.206.257-.2.261-.195.27-.19L3.584.963,3.866.786l.286-.17L4.445.451l.3-.156L5.05.145,5.359,0" transform="translate(27.268 147.122)" fill="none" stroke="#1a1818" stroke-linecap="round" stroke-linejoin="round" stroke-width="2"/>
    <path id="Path_1864" data-name="Path 1864" d="M2.138,6.721l-.111-.284-.11-.284L1.81,5.871,1.7,5.589l-.1-.281-.1-.281-.1-.279-.1-.279L1.21,4.191l-.093-.278-.091-.276L.937,3.362.851,3.088.766,2.814.684,2.542.6,2.27.524,2,.448,1.73.374,1.462.3,1.194.231.928.163.662.1.4.032.134,0,0" transform="translate(25.446 169.98)" fill="none" stroke="#1a1818" stroke-linecap="round" stroke-linejoin="round" stroke-width="2"/>
    <line id="Line_631" data-name="Line 631" y1="45.251" x2="11.822" transform="translate(178.727 133.795)" fill="none" stroke="#1a1818" stroke-linecap="round" stroke-linejoin="round" stroke-width="2"/>
    <line id="Line_632" data-name="Line 632" x1="3.992" y1="5.548" transform="translate(178.727 179.046)" fill="none" stroke="#1a1818" stroke-linecap="round" stroke-linejoin="round" stroke-width="2"/>
    <line id="Line_633" data-name="Line 633" x1="2.034" y1="10.339" transform="translate(31.056 174.564)" fill="none" stroke="#1a1818" stroke-linecap="round" stroke-linejoin="round" stroke-width="2"/>
    <path id="Path_1865" data-name="Path 1865" d="M.25.026.15,0,0,.057" transform="translate(26.075 150.543)" fill="none" stroke="#1a1818" stroke-linecap="round" stroke-linejoin="round" stroke-width="2"/>
    <path id="Path_1866" data-name="Path 1866" d="M.25.026.15,0,0,.057" transform="translate(70.676 198.979)" fill="none" stroke="#1a1818" stroke-linecap="round" stroke-linejoin="round" stroke-width="2"/>
    <line id="Line_634" data-name="Line 634" y1="14.37" x2="4.287" transform="translate(172.204 202.928)" fill="none" stroke="#1a1818" stroke-linecap="round" stroke-linejoin="round" stroke-width="2"/>
    <path id="Path_1867" data-name="Path 1867" d="M0,0,.084.007.2.1" transform="translate(181.816 185.135)" fill="none" stroke="#1a1818" stroke-linecap="round" stroke-linejoin="round" stroke-width="2"/>
    <path id="Path_1868" data-name="Path 1868" d="M0,0,.084.007.2.1" transform="translate(142.255 208.484)" fill="none" stroke="#1a1818" stroke-linecap="round" stroke-linejoin="round" stroke-width="2"/>
    <line id="Line_635" data-name="Line 635" x1="2.551" y1="12.966" transform="translate(75.141 220.372)" fill="none" stroke="#1a1818" stroke-linecap="round" stroke-linejoin="round" stroke-width="2"/>
    <line id="Line_636" data-name="Line 636" y1="14.915" x2="4.45" transform="translate(132.643 225.731)" fill="none" stroke="#1a1818" stroke-linecap="round" stroke-linejoin="round" stroke-width="2"/>
    <path id="Path_1869" data-name="Path 1869" d="M0,0,2.2,1.938,4.225,3.991" transform="translate(135.645 74.111)" fill="none" stroke="#1a1818" stroke-linecap="round" stroke-linejoin="round" stroke-width="2"/>
    <line id="Line_637" data-name="Line 637" x2="50.97" y2="55.353" transform="translate(139.871 78.101)" fill="none" stroke="#1a1818" stroke-linecap="round" stroke-linejoin="round" stroke-width="2"/>
    <path id="Path_1870" data-name="Path 1870" d="M0,0,1.85,2.159,3.512,4.412" transform="translate(190.841 133.454)" fill="none" stroke="#1a1818" stroke-linecap="round" stroke-linejoin="round" stroke-width="2"/>
    <path id="Path_1871" data-name="Path 1871" d="M0,0,.043,1.553,0,3.1" transform="translate(200.146 154.581)" fill="none" stroke="#1a1818" stroke-linecap="round" stroke-linejoin="round" stroke-width="2"/>
    <path id="Path_1872" data-name="Path 1872" d="M5.893,0,3.062,2.193,0,4.174" transform="translate(182.011 181.058)" fill="none" stroke="#1a1818" stroke-linecap="round" stroke-linejoin="round" stroke-width="2"/>
    <line id="Line_638" data-name="Line 638" x1="39.561" y2="23.348" transform="translate(142.45 185.232)" fill="none" stroke="#1a1818" stroke-linecap="round" stroke-linejoin="round" stroke-width="2"/>
    <path id="Path_1873" data-name="Path 1873" d="M5.387,0,2.75,1.453,0,2.766" transform="translate(137.063 208.58)" fill="none" stroke="#1a1818" stroke-linecap="round" stroke-linejoin="round" stroke-width="2"/>
    <path id="Path_1874" data-name="Path 1874" d="M4.782.636,2.383.363,0,0" transform="translate(102.142 215.398)" fill="none" stroke="#1a1818" stroke-linecap="round" stroke-linejoin="round" stroke-width="2"/>
    <path id="Path_1875" data-name="Path 1875" d="M4.226,4.044l-2.19-1.97L0,0" transform="translate(70.676 199.036)" fill="none" stroke="#1a1818" stroke-linecap="round" stroke-linejoin="round" stroke-width="2"/>
    <line id="Line_639" data-name="Line 639" x1="44.601" y1="48.436" transform="translate(26.075 150.6)" fill="none" stroke="#1a1818" stroke-linecap="round" stroke-linejoin="round" stroke-width="2"/>
    <path id="Path_1876" data-name="Path 1876" d="M3.576,4.428,1.7,2.258,0,0" transform="translate(22.499 146.172)" fill="none" stroke="#1a1818" stroke-linecap="round" stroke-linejoin="round" stroke-width="2"/>
    <path id="Path_1877" data-name="Path 1877" d="M0,3.845l.272-1.93L.656,0" transform="translate(15.86 117.852)" fill="none" stroke="#1a1818" stroke-linecap="round" stroke-linejoin="round" stroke-width="2"/>
    <path id="Path_1878" data-name="Path 1878" d="M0,3.3,2.38,1.587,4.894,0" transform="translate(31.023 92.887)" fill="none" stroke="#1a1818" stroke-linecap="round" stroke-linejoin="round" stroke-width="2"/>
    <line id="Line_640" data-name="Line 640" y1="23.348" x2="39.561" transform="translate(35.917 69.539)" fill="none" stroke="#1a1818" stroke-linecap="round" stroke-linejoin="round" stroke-width="2"/>
    <path id="Path_1879" data-name="Path 1879" d="M0,3.272,3.27,1.516,6.724,0" transform="translate(75.478 66.267)" fill="none" stroke="#1a1818" stroke-linecap="round" stroke-linejoin="round" stroke-width="2"/>
    <path id="Path_1880" data-name="Path 1880" d="M0,0,1.863.426,3.705.915" transform="translate(113.711 63.818)" fill="none" stroke="#1a1818" stroke-linecap="round" stroke-linejoin="round" stroke-width="2"/>
    <path id="Path_1881" data-name="Path 1881" d="M71.552,17.183l-3.393-3.322L64.22,10.72,59.752,7.842,54.8,5.311,49.426,3.2l-5.7-1.617L37.808.51,31.792,0,25.806.063,19.969.68,14.391,1.81,9.162,3.4,4.35,5.375,0,7.668" transform="translate(164.832 0.399)" fill="none" stroke="#1a1818" stroke-linecap="round" stroke-linejoin="round" stroke-width="2"/>
    <path id="Path_1882" data-name="Path 1882" d="M20.189,0,16.167,2.649l-3.783,3.1L8.943,9.273l-3,3.932L3.482,17.486l-1.846,4.56L.465,26.8,0,31.642l.243,4.837.925,4.732,1.555,4.537,2.112,4.268,2.583,3.942,2.961,3.577" transform="translate(3.521 91.355)" fill="none" stroke="#1a1818" stroke-linecap="round" stroke-linejoin="round" stroke-width="2"/>
    <line id="Line_641" data-name="Line 641" x2="55.216" y2="59.964" transform="translate(13.9 148.89)" fill="none" stroke="#1a1818" stroke-linecap="round" stroke-linejoin="round" stroke-width="2"/>
    <line id="Line_642" data-name="Line 642" y1="83.288" x2="141.121" transform="translate(140.668 135.08)" fill="none" stroke="#1a1818" stroke-linecap="round" stroke-linejoin="round" stroke-width="2"/>
    <path id="Path_1883" data-name="Path 1883" d="M0,57.534l4.022-2.649L7.8,51.79l3.441-3.53,3-3.931,2.462-4.281,1.846-4.56,1.171-4.751.465-4.845-.243-4.837-.925-4.732-1.555-4.537L15.354,7.519,12.772,3.577,9.811,0" transform="translate(281.789 77.546)" fill="none" stroke="#1a1818" stroke-linecap="round" stroke-linejoin="round" stroke-width="2"/>
    <line id="Line_643" data-name="Line 643" x1="55.216" y1="59.964" transform="translate(236.384 17.582)" fill="none" stroke="#1a1818" stroke-linecap="round" stroke-linejoin="round" stroke-width="2"/>
    <path id="Path_1884" data-name="Path 1884" d="M.657,0,.385,1.932,0,3.849" transform="translate(288.983 104.739)" fill="none" stroke="#1a1818" stroke-linecap="round" stroke-linejoin="round" stroke-width="2"/>
    <path id="Path_1885" data-name="Path 1885" d="M4.857,0,2.494,1.7,0,3.273" transform="translate(269.583 130.275)" fill="none" stroke="#1a1818" stroke-linecap="round" stroke-linejoin="round" stroke-width="2"/>
    <line id="Line_644" data-name="Line 644" x1="3.189" y2="1.882" transform="translate(266.393 133.548)" fill="none" stroke="#1a1818" stroke-linecap="round" stroke-linejoin="round" stroke-width="2"/>
    <path id="Path_1886" data-name="Path 1886" d="M6.724,0,3.454,1.756,0,3.272" transform="translate(259.669 135.431)" fill="none" stroke="#1a1818" stroke-linecap="round" stroke-linejoin="round" stroke-width="2"/>
    <path id="Path_1887" data-name="Path 1887" d="M3.7.914,1.842.488,0,0" transform="translate(224.455 140.237)" fill="none" stroke="#1a1818" stroke-linecap="round" stroke-linejoin="round" stroke-width="2"/>
    <path id="Path_1888" data-name="Path 1888" d="M4.226,3.991l-2.2-1.938L0,0" transform="translate(202.001 126.868)" fill="none" stroke="#1a1818" stroke-linecap="round" stroke-linejoin="round" stroke-width="2"/>
    <line id="Line_645" data-name="Line 645" x1="50.97" y1="55.353" transform="translate(151.03 71.515)" fill="none" stroke="#1a1818" stroke-linecap="round" stroke-linejoin="round" stroke-width="2"/>
    <path id="Path_1889" data-name="Path 1889" d="M3.512,4.412,1.662,2.253,0,0" transform="translate(147.518 67.103)" fill="none" stroke="#1a1818" stroke-linecap="round" stroke-linejoin="round" stroke-width="2"/>
    <path id="Path_1890" data-name="Path 1890" d="M.038,3.1,0,1.551.043,0" transform="translate(141.683 47.284)" fill="none" stroke="#1a1818" stroke-linecap="round" stroke-linejoin="round" stroke-width="2"/>
    <path id="Path_1891" data-name="Path 1891" d="M0,4.174,2.831,1.982,5.893,0" transform="translate(153.967 19.737)" fill="none" stroke="#1a1818" stroke-linecap="round" stroke-linejoin="round" stroke-width="2"/>
    <line id="Line_646" data-name="Line 646" y1="1.882" x2="3.189" transform="translate(159.86 17.855)" fill="none" stroke="#1a1818" stroke-linecap="round" stroke-linejoin="round" stroke-width="2"/>
    <path id="Path_1892" data-name="Path 1892" d="M0,2.746,2.616,1.3,5.342,0" transform="translate(163.049 15.109)" fill="none" stroke="#1a1818" stroke-linecap="round" stroke-linejoin="round" stroke-width="2"/>
    <path id="Path_1893" data-name="Path 1893" d="M0,0,2.4.273,4.787.636" transform="translate(198.57 10.401)" fill="none" stroke="#1a1818" stroke-linecap="round" stroke-linejoin="round" stroke-width="2"/>
    <path id="Path_1894" data-name="Path 1894" d="M0,0,2.171,1.955,4.19,4.014" transform="translate(230.634 23.386)" fill="none" stroke="#1a1818" stroke-linecap="round" stroke-linejoin="round" stroke-width="2"/>
    <line id="Line_647" data-name="Line 647" x2="44.601" y2="48.436" transform="translate(234.823 27.399)" fill="none" stroke="#1a1818" stroke-linecap="round" stroke-linejoin="round" stroke-width="2"/>
    <path id="Path_1895" data-name="Path 1895" d="M0,0,1.859,2.153,3.55,4.391" transform="translate(279.424 75.835)" fill="none" stroke="#1a1818" stroke-linecap="round" stroke-linejoin="round" stroke-width="2"/>
    <path id="Path_1896" data-name="Path 1896" d="M0,0,3.392,3.322,7.332,6.463,11.8,9.341l4.954,2.531,5.372,2.107,5.7,1.617,5.918,1.077,6.015.51,5.986-.063,5.837-.617,5.578-1.131,5.229-1.588L67.2,11.807l4.35-2.293" transform="translate(69.116 208.854)" fill="none" stroke="#1a1818" stroke-linecap="round" stroke-linejoin="round" stroke-width="2"/>
    <line id="Line_648" data-name="Line 648" x1="30.737" y2="18.068" transform="translate(46.562 121.427)" fill="none" stroke="#1a1818" stroke-linecap="round" stroke-linejoin="round" stroke-width="2"/>
  </g>
</svg>
