<svg xmlns="http://www.w3.org/2000/svg" width="247.301" height="194.351" viewBox="0 0 247.301 194.351">
  <g id="Group_723" data-name="Group 723" transform="translate(1 193.351) rotate(-90)">
    <path id="Path_2002" data-name="Path 2002" d="M0,0A28.636,28.636,0,0,0,28.636,28.636" transform="translate(0 216.665)" fill="none" stroke="#040505" stroke-linecap="round" stroke-miterlimit="10" stroke-width="2"/>
    <path id="Path_2003" data-name="Path 2003" d="M26.7,0A26.7,26.7,0,0,0,0,26.7" transform="translate(1.935 1.935)" fill="none" stroke="#040505" stroke-linecap="round" stroke-miterlimit="10" stroke-width="2"/>
    <path id="Path_2004" data-name="Path 2004" d="M0,26.7A26.7,26.7,0,0,0,26.7,0" transform="translate(163.714 216.665)" fill="none" stroke="#040505" stroke-linecap="round" stroke-miterlimit="10" stroke-width="2"/>
    <path id="Path_2005" data-name="Path 2005" d="M28.636,0A28.636,28.636,0,0,0,0,28.637" fill="none" stroke="#040505" stroke-linecap="round" stroke-miterlimit="10" stroke-width="2"/>
    <path id="Path_2006" data-name="Path 2006" d="M28.636,28.637A28.636,28.636,0,0,0,0,0" transform="translate(163.714)" fill="none" stroke="#040505" stroke-linecap="round" stroke-miterlimit="10" stroke-width="2"/>
    <path id="Path_2007" data-name="Path 2007" d="M0,0A26.7,26.7,0,0,0,26.7,26.7" transform="translate(1.935 216.665)" fill="none" stroke="#040505" stroke-linecap="round" stroke-miterlimit="10" stroke-width="2"/>
    <path id="Path_2008" data-name="Path 2008" d="M0,28.636A28.636,28.636,0,0,0,28.636,0" transform="translate(163.714 216.665)" fill="none" stroke="#040505" stroke-linecap="round" stroke-miterlimit="10" stroke-width="2"/>
    <path id="Path_2009" data-name="Path 2009" d="M26.7,26.7A26.7,26.7,0,0,0,0,0" transform="translate(163.714 1.935)" fill="none" stroke="#040505" stroke-linecap="round" stroke-miterlimit="10" stroke-width="2"/>
    <path id="Path_2010" data-name="Path 2010" d="M17.166,9.136A20.7,20.7,0,0,0,0,0" transform="translate(30.48 11.89)" fill="none" stroke="#040505" stroke-linecap="round" stroke-miterlimit="10" stroke-width="2"/>
    <path id="Path_2011" data-name="Path 2011" d="M0,20.166A20.166,20.166,0,0,0,20.166,0" transform="translate(162.4 106.849)" fill="none" stroke="#040505" stroke-linecap="round" stroke-miterlimit="10" stroke-width="2"/>
    <path id="Path_2012" data-name="Path 2012" d="M27.177,27.177A27.177,27.177,0,0,0,0,0" transform="translate(155.388 9.782)" fill="none" stroke="#040505" stroke-linecap="round" stroke-miterlimit="10" stroke-width="2"/>
    <path id="Path_2013" data-name="Path 2013" d="M0,0A16.927,16.927,0,0,0,2.887,9.454" transform="translate(61.415 26.708)" fill="none" stroke="#040505" stroke-linecap="round" stroke-miterlimit="10" stroke-width="2"/>
    <path id="Path_2014" data-name="Path 2014" d="M0,0A16.93,16.93,0,0,0,14.043,7.474" transform="translate(120.45 119.541)" fill="none" stroke="#040505" stroke-linecap="round" stroke-miterlimit="10" stroke-width="2"/>
    <path id="Path_2015" data-name="Path 2015" d="M20.7,0A20.7,20.7,0,0,0,0,20.7" transform="translate(9.784 11.89)" fill="none" stroke="#040505" stroke-linecap="round" stroke-miterlimit="10" stroke-width="2"/>
    <path id="Path_2016" data-name="Path 2016" d="M0,0" transform="translate(54.34 235.517)" fill="none" stroke="#040505" stroke-linecap="round" stroke-miterlimit="10" stroke-width="2"/>
    <path id="Path_2017" data-name="Path 2017" d="M16.926,0A16.926,16.926,0,0,0,0,16.926" transform="translate(61.415 9.782)" fill="none" stroke="#040505" stroke-linecap="round" stroke-miterlimit="10" stroke-width="2"/>
    <path id="Path_2018" data-name="Path 2018" d="M152.611,122.5m-26.255,0,46.426,75.515,0-55.343M54.517,26.381m56.148,83.378,41.95,7.474-27.907,0-64.7,99.2,40.6-76.573M145.6,0,68.557,0,0,22.8,172.781,97.067m0-69.89M145.065,225.736m-56.133,0-44.376,0,66.436-93.989M74.166,201.19,98.6,101.435,37.861,11.244" transform="translate(9.784 9.782)" fill="none" stroke="#040505" stroke-linecap="round" stroke-linejoin="round" stroke-width="2"/>
    <path id="Path_2019" data-name="Path 2019" d="M127.421,147.6l.576-.949.663-.905.732-.836.8-.764,1.166-.906,1.267-.767,1.344-.614,1.052-.355,1.082-.263,1.095-.165,1.1-.068,1.108-.008,1.109,0h15.526l1.109,0h1.109l1.109,0,1.1.035,1.746.227,1.7.444,1.638.65,1.549.844,1.434,1.025,1.294,1.192,1.137,1.34.966,1.468.783,1.577.586,1.666.259,1.069.175,1.077.088,1.086.019,1.093,0,2.19,0,2.19v8.759l0,17.519v17.519l.01,2.19-.017,2.189-.186,2.188-.439,2.16-.683,2.085-.92,1.99-1.151,1.88-1.355,1.731-1.548,1.562-1.723,1.376-1.858,1.16-1.981.937-2.088.707-2.148.46-1.088.134-1.1.07-1.106.016-1.109,0H106.272l-.554-.008-.551-.027-.543-.058-1.068-.194-1.048-.286-1.027-.38-.991-.47-1.245-.758-1.151-.9L97.055,222.7l-.917-1.137-.783-1.236-.638-1.314-.483-1.379-.323-1.427-.156-1.448.014-1.455.184-1.446.353-1.408.375-1.019.473-.992.522-.98.521-.981,1.041-1.962,1.042-1.962,2.081-3.926,2.082-3.925,4.163-7.851L110.768,179l4.164-7.851,4.163-7.851,2.082-3.926,2.082-3.925,1.041-1.963,1.041-1.963,1.045-1.97,1.037-1.956m-21.707,10.447,3.955-7.442.971-1.87.888-1.9.771-1.939.658-1.973.7-2.688.505-2.744.3-2.776.09-2.78-.116-2.77-.324-2.76-.534-2.741-.736-2.694-.931-2.621-.823-1.911-.931-1.867-1.047-1.82-1.14-1.774-2.354-3.5-2.359-3.5M49.1,235.314a48.27,48.27,0,0,0,8.3-.3,17.23,17.23,0,0,0,7.692-3.473,22.856,22.856,0,0,0,5.5-7.251c1.893-3.451,3.687-6.947,5.665-10.354l5.337-9.2,4.436-7.644.594-1.023M10.29,192v19.869l.391,2.07.55,2.037.709,2,.861,1.941,1,1.856,1.139,1.773,1.281,1.691,1.41,1.591,2.051,1.933,2.235,1.711,2.408,1.478,2.542,1.224,2.642.951M9.988,32.513,28.636,243.528v-.162M192.351,28.637h-1.773m-63.731,191.45h27.737l1.254-.045,1.238-.15,1.454-.361,1.4-.538,1.332-.7,1.236-.858,1.118-1,.982-1.133.837-1.246.681-1.34.515-1.413.339-1.466.134-1.238.033-1.238,0-1.239V155.953l0-.929-.073-.924-.284-1.211-.486-1.156-.673-1.062-.842-.932-.982-.776-1.094-.6-.883-.327-.918-.214-.934-.09-.942-.011-3.776,0-3.777,0h-11.33l-.944,0-.944.009-.941.1-.914.256-1.124.574-.975.808-.775,1-.459.825-.435.839-.442.834-.443.834-1.77,3.338-1.77,3.337-7.08,13.35-7.079,13.35-3.54,6.675-3.54,6.675-1.77,3.338-1.77,3.338-.886,1.669-.884,1.669-.45.832-.432.838-.328.879-.168.923.031,1.249.306,1.212.563,1.116.578.74.692.633.787.508.864.366.452.126.459.087.469.04.475.008.95,0,.949,0,1.9,0h17.1M18.5,36.993l.007-.23.011-.225.015-.227.019-.227.049-.452.065-.45.176-.893.237-.877.646-1.685.871-1.588,1.082-1.459,1.265-1.294,1.422-1.113,1.558-.914,1.67-.7,1.752-.468,1.8-.234,1.809.008,1.793.255,1.749.495,1.666.722,1.545.937,1.4,1.139,1.237,1.322.542.723.508.746.5.75.5.749,2.018,3,2.018,3L52.47,43.79l4.036,5.992L72.647,73.75,88.788,97.72l4.035,5.992,4.034,5.993,2.021,2.994,2.017,3,.976,1.517.892,1.566.788,1.627.688,1.684.758,2.343.562,2.427.351,2.464.134,2.48-.08,2.489-.3,2.475-.507,2.43-.713,2.372-.921,2.313-.825,1.689-.884,1.664-.882,1.663-.881,1.664L85.947,177.171,71.835,203.777l-3.526,6.653L64.78,217.08l-.442.831-.44.832-.438.833-.463.816-1.09,1.525L60.592,223.3l-1.2.972-1.3.827-1.389.674-1.454.512-1.5.341-.957.125-.969.055-.972,0-.972-.006H47.927l-1.944,0H42.094l-3.889,0-.972,0-.972-.034-.97-.086-.961-.135-1.881-.415-1.829-.6-1.77-.791-1.676-.964-1.562-1.124-1.448-1.286-1.31-1.427L21.7,218.39l-.993-1.661-.82-1.756-.633-1.819-.446-1.875-.247-1.923-.07-1.94,0-7.747V36.993m172.079-8.356h-.162M0,28.637V216.665M28.636,1.774V0M54.389,219.5l.208-.1.214-.112.2-.117.2-.124.385-.27.366-.3.651-.661.538-.731.446-.786.415-.8.423-.8.425-.8,1.7-3.2,1.7-3.2,3.39-6.4,3.391-6.4,6.784-12.791L82.6,169.134l3.391-6.4,3.392-6.4,3.387-6.4,3.4-6.392.836-1.606.744-1.642.6-1.687.458-1.726.39-2.358.133-2.391-.126-2.386-.267-1.777-.41-1.75-.54-1.682-.66-1.6-.778-1.527-.885-1.456-.945-1.417-.956-1.41-15.228-22.6L63.317,71.921l-7.612-11.3-7.612-11.3-3.805-5.652-3.806-5.651L39.531,36.6l-.952-1.413-.475-.707-.475-.707-.487-.7-.546-.654-.857-.744-.972-.584-1.06-.411-1.114-.222-1.131-.03-1.116.161-1.075.349-1,.528-.9.691-.769.835-.615.951-.444,1.04-.21.826-.1.844-.015.843.006.843V203.608l0,1.686v2.53l.029.843.087.842.144.831.456,1.615.671,1.537.875,1.433,1.065,1.3,1.238,1.144,1.381.963,1.5.766,1.581.553,1.649.324,1.687.107,1.691,0h5.076l3.383,0,1.692,0,1.692,0,.846-.009.835-.081.813-.193.786-.3M1.935,216.665H1.773m188.642,0V28.637M28.636,1.935V1.774m0,243.528v-1.773M1.935,28.637V216.665m188.642,0h-.162M1.935,28.637H1.773M28.636,245.3H163.714m28.637-28.636h-1.773M75.548,37.263l-.084-.14-.082-.139-.08-.141-.078-.143-.15-.288-.142-.292-.26-.595-.226-.606-.353-1.238-.22-1.273-.079-1.73.162-1.724.4-1.686.626-1.613.844-1.51,1.041-1.382,1.216-1.229,1.37-1.051,1.5-.847,1.2-.489,1.242-.357.63-.128.637-.093.647-.051.656-.018,1.316,0,1.315.007h1.316l1.315,0,5.262,0h5.262l21.048,0,21.048,0h5.262l5.262,0,1.316.01,1.314.071,1.3.168,1.281.258,1.673.484,1.625.64,1.557.788,1.472.928,1.377,1.062,1.278,1.192,1.16,1.3,1.026,1.4.893,1.495.752,1.576.6,1.636.443,1.682.229,1.29.137,1.308.045,1.313v1.314l0,5.254.005,5.254v52.541l0,1.314-.006,1.313-.082,1.3-.2,1.294L173.1,108.4l-.671,1.658-.867,1.562-1.055,1.441-1.228,1.305-1.374,1.142-1.5.963-1.617.775-1.7.569-1.315.287-1.34.162-1.344.043-1.345-.005H138.917l-1.346.009-1.344-.03-1.778-.231-1.733-.477-1.654-.714-1.539-.935-1.392-1.138-1.22-1.325-.795-1.094-.75-1.124-.754-1.121L123.857,109,111.779,91.065,99.7,73.131l-6.038-8.967L87.625,55.2l-3.019-4.483-3.019-4.483-1.51-2.242-1.51-2.242-.755-1.121L77.057,39.5l-.377-.56-.377-.561-.38-.564-.375-.556m116.8,179.4V28.637M163.714,1.774V0m-2.562,111.414.579-.15.578-.2.554-.243.533-.286.982-.686.865-.836.721-.961.558-1.06.385-1.133.2-1.159.029-.581,0-.583V58.062l0-18.656,0-1.166,0-1.166-.062-1.167-.167-1.154-.4-1.5-.593-1.432-.771-1.34-.941-1.228-1.1-1.1-1.226-.944-1.34-.774-1.433-.595-1.5-.4-1.154-.169-1.17-.059-1.169,0-1.17,0H138.912l-18.711,0-18.71,0-4.678,0-4.678,0-2.339,0-2.339,0-.585,0-.584,0H85.7l-.582.022-1.137.228-1.055.477-.921.694-.757.876-.562,1.015-.339,1.112-.092,1.157.16,1.144.174.551.236.531.3.5L81.45,34l2.594,3.852L86.637,41.7,97.014,57.114l10.377,15.409,10.376,15.409,10.378,15.409,1.3,1.926,1.3,1.926.645.966.655.958.76.871.917.7,1.035.513,1.116.3,1.149.087,1.15-.009h20.693l1.151-.024,1.143-.146m2.562,132.114v-.162m0-241.431V1.774M1.773,216.665H0M163.714,0H28.636M1.773,28.637H0M138.546,132.489l-1.323,0-1.324.009-1.318.07-1.3.17-1.7.382-1.661.551-1.594.714-1.505.867-1.41,1.015-1.308,1.162-1.187,1.286-1.046,1.392-.9,1.508m61.4,19.614V155.88l0-1.337v-1.336l-.013-1.336-.079-1.335-.251-1.773-.411-1.748-.563-1.7-.714-1.641-.862-1.576-1-1.49-1.123-1.39-1.245-1.287-1.36-1.172-1.456-1.043-1.537-.905-1.619-.767-1.681-.619-1.716-.462L165,132.659l-1.749-.144-1.762-.029m-19.3,102.829h5.453l2.726,0H153.1l1.363,0,1.362-.021,1.359-.08,1.355-.149,2.685-.5,2.613-.759,2.513-1.009,2.418-1.261,2.282-1.491,2.106-1.7,1.925-1.9,1.742-2.091,1.528-2.248,1.289-2.37,1.055-2.5.807-2.6.543-2.649.28-2.661.04-1.335,0-1.336v-2.673M91.02,198.072l-2.494,4.705-2.5,4.7-.624,1.176-.623,1.177-.626,1.175-.579,1.2-.625,1.681-.446,1.754-.252,1.79-.051,1.807.146,1.808.341,1.776.536,1.726.724,1.663.9,1.57,1.066,1.461,1.222,1.34,1.357,1.2,1.48,1.037,1.59.872,1.672.691,1.735.5,1.786.31,1.812.119,2.726.009,2.727-.008h5.453l5.453,0m6.036-93.7-9.983,18.819M28.636,243.366H163.714m0-241.431H28.636M163.714,245.3v-1.773" fill="none" stroke="#040505" stroke-linecap="round" stroke-linejoin="round" stroke-width="2"/>
    <path id="Path_2020" data-name="Path 2020" d="M12.069,18.171,4.869,7.549,0,0" transform="translate(108.381 101.37)" fill="none" stroke="#040505" stroke-linecap="round" stroke-miterlimit="10" stroke-width="2"/>
    <line id="Line_788" data-name="Line 788" x2="11.462" y2="17.423" transform="translate(47.646 21.025)" fill="none" stroke="#040505" stroke-linecap="round" stroke-linejoin="round" stroke-width="2"/>
    <line id="Line_789" data-name="Line 789" y2="7.96" transform="translate(9.785 32.585)" fill="none" stroke="#040505" stroke-linecap="round" stroke-linejoin="round" stroke-width="2"/>
    <line id="Line_790" data-name="Line 790" y1="6.75" x2="0.002" transform="translate(182.565 100.098)" fill="none" stroke="#040505" stroke-linecap="round" stroke-miterlimit="10" stroke-width="2"/>
    <line id="Line_791" data-name="Line 791" x1="0.908" transform="translate(161.492 127.014)" fill="none" stroke="#040505" stroke-linecap="round" stroke-linejoin="round" stroke-width="2"/>
    <line id="Line_792" data-name="Line 792" x2="4.054" transform="translate(134.493 127.014)" fill="none" stroke="#040505" stroke-linecap="round" stroke-linejoin="round" stroke-width="2"/>
  </g>
</svg>
