<svg xmlns="http://www.w3.org/2000/svg" width="295.825" height="193.368" viewBox="0 0 295.825 193.368">
  <g id="Group_712" data-name="Group 712" transform="translate(1.001 1.145)">
    <path id="Path_1571" data-name="Path 1571" d="M71.229,498.524S83.79,437.766,84.56,435.2s11.281-21.791,43.069-25.124,173.3-1.538,173.3-1.538,43.325,5.127,49.478,24.1,14.613,66.4,14.613,66.4,1.794,32.3-51.017,34.353-192.016.256-192.016.256S70.2,528.006,71.229,498.524Z" transform="translate(-71.214 -408.058)" fill="none" stroke="#1a1818" stroke-miterlimit="10" stroke-width="2"/>
    <path id="Path_1572" data-name="Path 1572" d="M87.162,493.18s11.18-53.517,11.864-55.775,10.039-19.194,38.331-22.13,154.235-1.355,154.235-1.355,38.56,4.516,44.035,21.227,13.006,58.485,13.006,58.485,1.6,28.453-45.4,30.259-170.892.226-170.892.226S86.249,519.149,87.162,493.18Z" transform="translate(-69.958 -407.629)" fill="none" stroke="#1a1818" stroke-miterlimit="10" stroke-width="2"/>
    <path id="Path_1573" data-name="Path 1573" d="M94.752,519.475s9.742,46.4,10,47.684,2.307,4.1,3.076,4.1,17.433,11.793,17.433,11.793,10.51,6.153,13.075,6.153,15.381,1.025,16.663.257,23.073-.769,23.073-.769,2.82,1.537,3.846,1.537,23.073-.768,23.073-.768l1.025-.769,22.3-.257,3.334,1.282h23.073l2.82-1.538,19.226,1.026,4.359,1.282L296,589.719l12.049-5.9,16.407-12.305a22.2,22.2,0,0,0,3.589-1.794c1.026-.769,11.024-49.479,11.024-49.479" transform="translate(-69.358 -399.271)" fill="none" stroke="#1a1818" stroke-miterlimit="10" stroke-width="2"/>
    <path id="Path_1574" data-name="Path 1574" d="M89.45,502.468s2.132-10.239,2.9-10.239a5.117,5.117,0,0,1,1.358.312,1.135,1.135,0,0,0,1.475-.844l1.161-5.616a1.317,1.317,0,0,0-.173-.967l-2.284-3.653,2.564-16.151,1.742-.348A1.4,1.4,0,0,0,99.257,464l1.008-3.362a1.9,1.9,0,0,0-.345-1.746l-2.7-3.321s2.051-9.485,3.589-11.792a40.138,40.138,0,0,1,6.922-7.948,30.171,30.171,0,0,1,2.9-2.147s1.7,2.163,3.247,1.365l9.416-4.12a1.064,1.064,0,0,0,.549-1.422c-.415-.87-.721-2.074.551-2.392,2.051-.512,29.225-5.127,36.66-4.1" transform="translate(-69.776 -406.89)" fill="none" stroke="#1a1818" stroke-miterlimit="10" stroke-width="2"/>
    <path id="Path_1575" data-name="Path 1575" d="M121.842,427.107c2.051-.512,29.183-4.752,36.66-4.1l2.8,2.886a3.936,3.936,0,0,0,2.869,1.2l8.871-.082a4.031,4.031,0,0,0,2.608-.988l2.659-2.311,27.431.193,1.752,2.11a3.536,3.536,0,0,0,2.739,1.277l8.54-.049a2.624,2.624,0,0,0,2.043-.995l1.653-2.089,29.225-.192,1.116,1.743a3.2,3.2,0,0,0,2.67,1.472l7.911.046a3.2,3.2,0,0,0,2.247-.9c.928-.9,2.235-2.15,2.4-2.232.256-.128,31.019-1.026,37.877,3.589a26.149,26.149,0,0,1,.834,4.614l10.767,4.935s3.333-2.243,5.384-.833,11.216,12.434,10.511,19.419l-2.4,3.628a.979.979,0,0,0-.141.75l1.163,5.393a.622.622,0,0,0,.854.44l3.022-1.3s3.846,16.407,2.82,17.625a34.781,34.781,0,0,0-2.749,4.668.805.805,0,0,0-.065.558l1.193,4.982a.936.936,0,0,0,1.1.7l2.895-.589,1.987,11.248" transform="translate(-67.222 -406.885)" fill="none" stroke="#1a1818" stroke-miterlimit="10" stroke-width="2"/>
    <line id="Line_531" data-name="Line 531" x1="4.418" y2="21.646" transform="translate(265.74 86.204)" fill="none" stroke="#1a1818" stroke-miterlimit="10" stroke-width="2"/>
    <line id="Line_532" data-name="Line 532" x1="11.088" y2="53.884" transform="translate(253.878 59.077)" fill="none" stroke="#1a1818" stroke-miterlimit="10" stroke-width="2"/>
    <path id="Path_1576" data-name="Path 1576" d="M294.212,431.443l-12.955,63.666s7.4-.192,11.344,3.75,5.288,4.614,5.288,4.614l7.018-67.056" transform="translate(-54.65 -406.214)" fill="none" stroke="#1a1818" stroke-miterlimit="10" stroke-width="2"/>
    <line id="Line_533" data-name="Line 533" x1="8.172" y2="61.143" transform="translate(245.45 34.579)" fill="none" stroke="#1a1818" stroke-miterlimit="10" stroke-width="2"/>
    <path id="Path_1577" data-name="Path 1577" d="M256.169,426.275l2.2,73.44-18.907.192,4.927-73.608" transform="translate(-57.946 -406.621)" fill="none" stroke="#1a1818" stroke-miterlimit="10" stroke-width="2"/>
    <path id="Path_1578" data-name="Path 1578" d="M314.777,504.779c.769,1.633,1.441,8.941.192,10.478s-3.557.193-4.134.193-14.132-7.114-14.132-7.114-11.3-5.653-12.657-6.634c-1.6-1.153-1.346-5.063-1.346-5.063l-10.7-.032-.59,1.76a3.6,3.6,0,0,1-3.392,2.453l-17.2.1a4.474,4.474,0,0,1-3.624-1.816l-.637-.863-1.025-1.41-17.177.385s-2.378,3.13-2.836,3.188c-2.259.288-14.436.305-19,.441a2.333,2.333,0,0,1-2.02-1.051c-.671-1.014-1.659-2.37-2.147-2.37-.914,0-16.808.048-17.705.048-.534,0-2.024,1.547-3.142,2.8A4.611,4.611,0,0,1,178,501.8l-15.312-.2a4.14,4.14,0,0,1-3.1-1.462l-1.024-2.953-10.479.384s.673,2.5-2.308,4.134c-2.63,1.442-21.758,11.793-23.938,12.562s-4.614,1.666-5.384,1.41a6.377,6.377,0,0,1-1.794-1.283s-.641-5.768.769-9.485-8.075-60.757-8.075-60.757" transform="translate(-68.365 -405.212)" fill="none" stroke="#1a1818" stroke-miterlimit="10" stroke-width="2"/>
    <path id="Path_1579" data-name="Path 1579" d="M111.267,434.849l6.794,69.762s1.41-5.384,8.845-7.69,7.05-1.41,7.05-1.41l-11.824-65.5" transform="translate(-68.056 -406.327)" fill="none" stroke="#1a1818" stroke-miterlimit="10" stroke-width="2"/>
    <path id="Path_1580" data-name="Path 1580" d="M159.5,426.545l-1.935,74.181,18.214.028-3.99-74.249" transform="translate(-64.405 -406.603)" fill="none" stroke="#1a1818" stroke-miterlimit="10" stroke-width="2"/>
    <line id="Line_534" data-name="Line 534" x1="4.615" y1="49.991" transform="translate(110.892 39.321)" fill="none" stroke="#1a1818" stroke-miterlimit="10" stroke-width="2"/>
    <path id="Path_1581" data-name="Path 1581" d="M201.764,426.253l-2.932,74.025,18.026-.433L214,426.613" transform="translate(-61.15 -406.623)" fill="none" stroke="#1a1818" stroke-miterlimit="10" stroke-width="2"/>
    <line id="Line_535" data-name="Line 535" y1="51.705" x2="2.58" transform="translate(134.846 39.065)" fill="none" stroke="#1a1818" stroke-miterlimit="10" stroke-width="2"/>
    <line id="Line_536" data-name="Line 536" x1="4.743" y1="60.245" transform="translate(154.73 30.477)" fill="none" stroke="#1a1818" stroke-miterlimit="10" stroke-width="2"/>
    <path id="Path_1582" data-name="Path 1582" d="M152.589,526.6s1.538,59.989-1.282,61.014" transform="translate(-64.898 -398.709)" fill="none" stroke="#1a1818" stroke-miterlimit="10" stroke-width="2"/>
    <path id="Path_1583" data-name="Path 1583" d="M111.861,525.416s9.23,54.605,12.05,57.169" transform="translate(-68.009 -398.803)" fill="none" stroke="#1a1818" stroke-miterlimit="10" stroke-width="2"/>
    <path id="Path_1584" data-name="Path 1584" d="M166.277,525.653s2.308,60.246,6.153,62.553" transform="translate(-63.717 -398.784)" fill="none" stroke="#1a1818" stroke-miterlimit="10" stroke-width="2"/>
    <path id="Path_1585" data-name="Path 1585" d="M201.8,526.366s-2.564,62.04-4.871,62.553" transform="translate(-61.3 -398.728)" fill="none" stroke="#1a1818" stroke-miterlimit="10" stroke-width="2"/>
    <path id="Path_1586" data-name="Path 1586" d="M215.228,526.129s.256,59.475,3.588,61.783" transform="translate(-59.857 -398.747)" fill="none" stroke="#1a1818" stroke-miterlimit="10" stroke-width="2"/>
    <path id="Path_1587" data-name="Path 1587" d="M252.384,524.7s-4.871,62.3-7.691,63.578" transform="translate(-57.533 -398.859)" fill="none" stroke="#1a1818" stroke-miterlimit="10" stroke-width="2"/>
    <path id="Path_1588" data-name="Path 1588" d="M265.057,525.891s-4.1,57.938-1.282,60.5a15.333,15.333,0,0,0,5.64,3.333" transform="translate(-56.106 -398.765)" fill="none" stroke="#1a1818" stroke-miterlimit="10" stroke-width="2"/>
    <path id="Path_1589" data-name="Path 1589" d="M306.3,524.465s-11.793,57.426-13.844,58.964" transform="translate(-53.767 -398.878)" fill="none" stroke="#1a1818" stroke-miterlimit="10" stroke-width="2"/>
    <path id="Path_1590" data-name="Path 1590" d="M281.2,488.7s-7.429.99-9.037,2.019a5.247,5.247,0,0,0-2.339,2.66" transform="translate(-55.552 -401.698)" fill="none" stroke="#1a1818" stroke-miterlimit="10" stroke-width="2"/>
    <path id="Path_1591" data-name="Path 1591" d="M301.723,493.982c1.233,1.09,3.717,11.713,3.717,11.713l11.328-48.789" transform="translate(-53.036 -404.206)" fill="none" stroke="#1a1818" stroke-miterlimit="10" stroke-width="2"/>
    <line id="Line_537" data-name="Line 537" x1="7.675" y2="30.039" transform="translate(260.992 80.327)" fill="none" stroke="#1a1818" stroke-miterlimit="10" stroke-width="2"/>
    <path id="Path_1592" data-name="Path 1592" d="M145.772,493.723s-5.159-5.192-8.684-4.871-5,1.667-5,1.667" transform="translate(-66.413 -401.688)" fill="none" stroke="#1a1818" stroke-miterlimit="10" stroke-width="2"/>
    <line id="Line_538" data-name="Line 538" x1="3.076" y2="10.96" transform="translate(41.097 88.479)" fill="none" stroke="#1a1818" stroke-miterlimit="10" stroke-width="2"/>
    <line id="Line_539" data-name="Line 539" x1="13.952" y1="59.616" transform="translate(30.574 53.025)" fill="none" stroke="#1a1818" stroke-miterlimit="10" stroke-width="2"/>
    <line id="Line_540" data-name="Line 540" x2="10.543" y2="52.827" transform="translate(29.24 57.908)" fill="none" stroke="#1a1818" stroke-miterlimit="10" stroke-width="2"/>
    <line id="Line_541" data-name="Line 541" x2="8.232" y2="30.079" transform="translate(26.548 78.585)" fill="none" stroke="#1a1818" stroke-miterlimit="10" stroke-width="2"/>
    <line id="Line_542" data-name="Line 542" x2="4.174" y2="19.924" transform="translate(24.842 85.603)" fill="none" stroke="#1a1818" stroke-miterlimit="10" stroke-width="2"/>
    <path id="Path_1593" data-name="Path 1593" d="M137.762,516.855a24.292,24.292,0,0,1,1.09-5.512c.769-1.794,3.461-3.717,6.41-3.973s131.706-.961,131.706-.961,9.485-.769,10.126,5.9c.433,4.5.128,4.871.128,4.871" transform="translate(-65.966 -400.304)" fill="none" stroke="#1a1818" stroke-miterlimit="10" stroke-width="2"/>
  </g>
</svg>
