<svg xmlns="http://www.w3.org/2000/svg" width="291.848" height="119.421" viewBox="0 0 291.848 119.421">
  <g id="Group_717" data-name="Group 717" transform="translate(1.058 1)">
    <path id="Path_1906" data-name="Path 1906" d="M52.837,511.233l-8.364-5.665a7.349,7.349,0,0,1-3.012-7.848l10.8-43.658A11.437,11.437,0,0,1,57.83,446.8l12.883-7.12a20.23,20.23,0,0,1,9.851-2.523l74.4.249a17.289,17.289,0,0,1,11.134,4.109l6.038,5.127a4.72,4.72,0,0,1-.123,7.3l-26.663,21.133a10.185,10.185,0,0,0-1.922,13.959l4.348,6a8.213,8.213,0,0,1-1.116,10.887l-8.986,8.2a6.778,6.778,0,0,1-4.666,1.769l-68.646-1.018A21.105,21.105,0,0,1,52.837,511.233Z" transform="translate(-28.187 -430.039)" fill="none" stroke="#1a1818" stroke-miterlimit="10" stroke-width="2"/>
    <path id="Path_1907" data-name="Path 1907" d="M44.757,521.345,305.722,523.6a14.331,14.331,0,0,0,13.91-18.244L304.138,450.8A25.53,25.53,0,0,0,279.7,432.241l-207.117-.967a27.809,27.809,0,0,0-26.872,20.18l-14.7,51.517A14.42,14.42,0,0,0,44.757,521.345Z" transform="translate(-30.454 -431.274)" fill="none" stroke="#1a1818" stroke-miterlimit="10" stroke-width="2"/>
    <path id="Path_1908" data-name="Path 1908" d="M178.3,442.128,128.8,479.246l11.725,21.073a33.507,33.507,0,0,0,29.2,17.217l92.927.224a19.539,19.539,0,0,0,12.074-4.14l7.051-5.509a11.559,11.559,0,0,0,4.049-12.1l-11.382-42.462a12.777,12.777,0,0,0-7.211-8.394l-13.164-5.771a11.726,11.726,0,0,0-4.611-.986l-58.309-.494A21.125,21.125,0,0,0,178.3,442.128Z" transform="translate(-9.796 -429.882)" fill="none" stroke="#1a1818" stroke-miterlimit="10" stroke-width="2"/>
    <path id="Path_1909" data-name="Path 1909" d="M144.189,502.252,181.97,472.9a15.116,15.116,0,0,1,9.355-3.181l49.2.247A10.991,10.991,0,0,1,246,471.45l4.755,2.764a12.943,12.943,0,0,1,6.2,8.711l5.49,28.169" transform="translate(-6.564 -423.199)" fill="none" stroke="#1a1818" stroke-miterlimit="10" stroke-width="2"/>
    <path id="Path_1910" data-name="Path 1910" d="M269.482,509.894l-6.874-31.251a14.773,14.773,0,0,0-8.1-10.052l-6.586-3.107a10.58,10.58,0,0,0-4.558-1.009l-52.643.254a12.934,12.934,0,0,0-7.991,2.815L141.457,500.4" transform="translate(-7.138 -424.3)" fill="none" stroke="#1a1818" stroke-miterlimit="10" stroke-width="2"/>
    <path id="Path_1911" data-name="Path 1911" d="M134.15,489.454l46.617-35.193a18.823,18.823,0,0,1,11.253-3.8l53.929-.241a20.438,20.438,0,0,1,8.1,1.636l7.592,3.236a13.6,13.6,0,0,1,7.792,8.951l11.214,41.367" transform="translate(-8.673 -427.294)" fill="none" stroke="#1a1818" stroke-miterlimit="10" stroke-width="2"/>
    <path id="Path_1912" data-name="Path 1912" d="M166.458,455.32l-5.365-4.123a7.907,7.907,0,0,0-4.667-1.583L78.494,448.8a6.829,6.829,0,0,0-3.23.773L60.824,457.1a10.169,10.169,0,0,0-5.359,6.5L45.189,504.435" transform="translate(-27.359 -427.593)" fill="none" stroke="#1a1818" stroke-miterlimit="10" stroke-width="2"/>
    <path id="Path_1913" data-name="Path 1913" d="M53.581,507.525l8.044-32.245a6.934,6.934,0,0,1,3.466-4.448l12.973-6.918a6.92,6.92,0,0,1,3.32-.816l69.725-.266" transform="translate(-25.596 -424.645)" fill="none" stroke="#1a1818" stroke-miterlimit="10" stroke-width="2"/>
    <path id="Path_1914" data-name="Path 1914" d="M139.658,470.34l-58.024-.127a7.372,7.372,0,0,0-3.866.979l-8.924,5.126a7.388,7.388,0,0,0-3.518,4.747l-6,26.745" transform="translate(-24.389 -423.095)" fill="none" stroke="#1a1818" stroke-miterlimit="10" stroke-width="2"/>
    <path id="Path_1915" data-name="Path 1915" d="M120.962,473.495" transform="translate(-11.443 -422.405)" fill="none" stroke="#1a1818" stroke-miterlimit="10" stroke-width="2"/>
    <path id="Path_1916" data-name="Path 1916" d="M125.817,475.337s-3.451,21.924-5.751,24.224a42.411,42.411,0,0,0-3.63,4.246,3.384,3.384,0,0,0-.682,2.047l-.108,1.794" transform="translate(-12.56 -422.018)" fill="none" stroke="#1a1818" stroke-miterlimit="10" stroke-width="2"/>
    <path id="Path_1917" data-name="Path 1917" d="M143.3,506.7l-1.134,10.1a17.247,17.247,0,0,1-17.292,14.954l-56.048-.641a11.635,11.635,0,0,1-7.159-2.568l-6.715-5.4a15.959,15.959,0,0,1-4.916-6.768L46.11,506.05" transform="translate(-27.166 -415.567)" fill="none" stroke="#1a1818" stroke-miterlimit="10" stroke-width="2"/>
    <path id="Path_1918" data-name="Path 1918" d="M139.5,507l6.292,11.557a27.275,27.275,0,0,0,24.1,14.231l83.594-.461a13.95,13.95,0,0,0,8.1-2.649l4.792-3.466a18.577,18.577,0,0,0,6.9-9.709l2.506-8.354" transform="translate(-7.55 -415.368)" fill="none" stroke="#1a1818" stroke-miterlimit="10" stroke-width="2"/>
  </g>
</svg>
