<svg xmlns="http://www.w3.org/2000/svg" width="276.74" height="98.256" viewBox="0 0 276.74 98.256">
  <g id="Group_716" data-name="Group 716" transform="translate(1.057 1)">
    <path id="Path_1897" data-name="Path 1897" d="M313.768,451.819l-14.033,37.03c-3.99,9.552,10.819,14.634,17.674,14.569l246.6-2.013a9.733,9.733,0,0,0,8.664-13.986l-18.314-37.7A25.854,25.854,0,0,0,531.1,435.156H337.934A25.855,25.855,0,0,0,313.768,451.819Z" transform="translate(-299.064 -435.156)" fill="none" stroke="#1a1818" stroke-miterlimit="10" stroke-width="2"/>
    <path id="Path_1898" data-name="Path 1898" d="M324.012,497.6l227.653-1.239a9.722,9.722,0,0,0,8.715-13.887l-15.07-31.781a20.9,20.9,0,0,0-18.834-11.947L341.5,438.278a20.9,20.9,0,0,0-19.719,13.816l-11.866,32.926C307.626,491.385,317.248,497.648,324.012,497.6Z" transform="translate(-297.64 -434.733)" fill="none" stroke="#1a1818" stroke-miterlimit="10" stroke-width="2"/>
    <path id="Path_1899" data-name="Path 1899" d="M324.173,494.479l-1.349-1.754,1.469-4.53a1.066,1.066,0,0,0-.1-.877l-.459-.764,1.616-7.574a1.274,1.274,0,0,1,.511-.774l1.009-.71a1.272,1.272,0,0,0,.511-.768l1.378-6.263.5-2.073a8.768,8.768,0,0,1,8.82-6.727l9.031.3.4.8a1.481,1.481,0,0,0,1.325.819H357.7a1.323,1.323,0,0,0,1-.458l1.191-1.374a.549.549,0,0,1,.421-.188h16.443a.925.925,0,0,1,.813.483l.342.628a1.762,1.762,0,0,0,1.531.92l11.43.116a1.758,1.758,0,0,0,1.425-.7l1.084-1.445,14.034-.253a1.361,1.361,0,0,1,1.29.857l.111.277a1.361,1.361,0,0,0,1.289.856l14.209-.241a1.9,1.9,0,0,0,1.315-.557l.517-.517a1.9,1.9,0,0,1,1.346-.557h11.062a2.074,2.074,0,0,1,1.587.74l.508.606a2.077,2.077,0,0,0,1.6.74l13.686-.059a2.073,2.073,0,0,0,1.735-.951h0a2.072,2.072,0,0,1,1.725-.952l12.921-.007a2.881,2.881,0,0,1,1.945.756l.762.7a2.884,2.884,0,0,0,1.984.756l11.031-.152a2.877,2.877,0,0,0,2.182-1.049h0a2.879,2.879,0,0,1,2.245-1.049l9.713.079a1.943,1.943,0,0,1,1.791,1.229h0a1.944,1.944,0,0,0,1.782,1.227l12.8.17a1.945,1.945,0,0,0,1.733-1.013l.064-.118a1.943,1.943,0,0,1,1.818-1.009l5.161.3a4.913,4.913,0,0,1,3.806,2.179l2.28,3.42a2.336,2.336,0,0,1-.119,2.756h0a.032.032,0,0,0,0,.033l1.017,2.618a3.483,3.483,0,0,0,3.246,2.22h.181l2.9,6.746-.913,2.439a1.33,1.33,0,0,0-.008,1.061l3.281,7.7" transform="translate(-295.845 -431.613)" fill="none" stroke="#1a1818" stroke-miterlimit="10" stroke-width="2"/>
    <path id="Path_1900" data-name="Path 1900" d="M312.665,492.368a54.913,54.913,0,0,1,2.177-6.487,1.5,1.5,0,0,0-.585-1.808L313,483.262l4.317-12.411,2.159.269.949-2.531a.86.86,0,0,0-.4-1.062l-1.357-.724,4.856-11.332,1.349.27,1.08-2.591a1.1,1.1,0,0,0-.2-1.164l-1.011-1.1a30.164,30.164,0,0,1,3.507-4.418c2.968-3.372,7.158-4.416,11.939-4.721a60.677,60.677,0,0,1,6.847-.169c.182.012.954.241,1.024.409h0a2.188,2.188,0,0,0,2.019,1.346h6.161a1.359,1.359,0,0,0,1.015-.455l.139-.156a1.794,1.794,0,0,1,1.342-.6l20.991-.341a1.509,1.509,0,0,1,1.289.684l.21.322a1.512,1.512,0,0,0,1.264.684h6.447a1.511,1.511,0,0,0,1.371-.878h0a1.51,1.51,0,0,1,1.37-.877H411.64a1.794,1.794,0,0,1,1.46.752l.276.385a1.8,1.8,0,0,0,1.46.753h6.256a1.794,1.794,0,0,0,1.452-.74h0a1.8,1.8,0,0,1,1.462-.739l21.249-.262a1.678,1.678,0,0,1,1.487.861h0a1.678,1.678,0,0,0,1.5.862l5.321-.1a1.678,1.678,0,0,0,1.314-.673l.209-.28a1.68,1.68,0,0,1,1.324-.673l20.319-.039a1.7,1.7,0,0,1,1.372.688l.136.185a1.7,1.7,0,0,0,1.378.688l6.353-.04a1.7,1.7,0,0,0,1.441-.811h0a1.7,1.7,0,0,1,1.455-.812l20.165.048a1.148,1.148,0,0,1,.877.408l.973,1.149a1.153,1.153,0,0,0,.9.408l6.446-.112a1.152,1.152,0,0,0,1.058-.744h0a1.153,1.153,0,0,1,.972-.74,41.758,41.758,0,0,1,9.679.392c6.611.945,8.9,3.913,9.579,4.721s2.293,2.834,2.293,2.834l-.434.578a1.98,1.98,0,0,0-.135,2.17l1.066,1.866a1.983,1.983,0,0,0,1.331.959l.089.017a1.981,1.981,0,0,1,1.45,1.206l3.563,8.908a.976.976,0,0,1-.349,1.164l-.952.662a.976.976,0,0,0-.286,1.292l1.788,3.076a.976.976,0,0,0,.863.485l.763-.015a1.821,1.821,0,0,1,1.691,1.058l3.8,8.242a1.574,1.574,0,0,1-.317,1.771h0a1.571,1.571,0,0,0-.342,1.712l2.837,6.871" transform="translate(-297.221 -434.291)" fill="none" stroke="#1a1818" stroke-miterlimit="10" stroke-width="2"/>
    <line id="Line_649" data-name="Line 649" x2="4.452" y2="20.809" transform="translate(23.336 34.131)" fill="none" stroke="#1a1818" stroke-miterlimit="10" stroke-width="2"/>
    <line id="Line_650" data-name="Line 650" x2="4.722" y2="24.216" transform="translate(22.257 36.829)" fill="none" stroke="#1a1818" stroke-miterlimit="10" stroke-width="2"/>
    <line id="Line_651" data-name="Line 651" x2="3.777" y2="24.148" transform="translate(27.653 21.45)" fill="none" stroke="#1a1818" stroke-miterlimit="10" stroke-width="2"/>
    <line id="Line_652" data-name="Line 652" x2="4.857" y2="17.808" transform="translate(28.766 18.144)" fill="none" stroke="#1a1818" stroke-miterlimit="10" stroke-width="2"/>
    <line id="Line_653" data-name="Line 653" x2="0.481" y2="23.061" transform="translate(51.667 8.768)" fill="none" stroke="#1a1818" stroke-miterlimit="10" stroke-width="2"/>
    <line id="Line_654" data-name="Line 654" x2="2.462" y2="22.968" transform="translate(59.626 9.038)" fill="none" stroke="#1a1818" stroke-miterlimit="10" stroke-width="2"/>
    <line id="Line_655" data-name="Line 655" x1="2.125" y1="13.12" transform="translate(62.088 16.829)" fill="none" stroke="#1a1818" stroke-miterlimit="10" stroke-width="2"/>
    <line id="Line_656" data-name="Line 656" x1="1.922" y2="22.732" transform="translate(82.527 9.173)" fill="none" stroke="#1a1818" stroke-miterlimit="10" stroke-width="2"/>
    <line id="Line_657" data-name="Line 657" x2="2.943" y2="22.639" transform="translate(92.679 9.173)" fill="none" stroke="#1a1818" stroke-miterlimit="10" stroke-width="2"/>
    <line id="Line_658" data-name="Line 658" x1="2.462" y1="12.209" transform="translate(95.073 17.74)" fill="none" stroke="#1a1818" stroke-miterlimit="10" stroke-width="2"/>
    <line id="Line_659" data-name="Line 659" x1="3.659" y2="22.411" transform="translate(113.319 9.291)" fill="none" stroke="#1a1818" stroke-miterlimit="10" stroke-width="2"/>
    <line id="Line_660" data-name="Line 660" y1="14.772" x2="1.99" transform="translate(112.51 14.907)" fill="none" stroke="#1a1818" stroke-miterlimit="10" stroke-width="2"/>
    <line id="Line_661" data-name="Line 661" x2="4.418" y2="22.327" transform="translate(124.82 9.106)" fill="none" stroke="#1a1818" stroke-miterlimit="10" stroke-width="2"/>
    <line id="Line_662" data-name="Line 662" x1="3.406" y1="15.211" transform="translate(127.451 14.603)" fill="none" stroke="#1a1818" stroke-miterlimit="10" stroke-width="2"/>
    <line id="Line_663" data-name="Line 663" x1="4.351" y2="22.9" transform="translate(145.663 9.308)" fill="none" stroke="#1a1818" stroke-miterlimit="10" stroke-width="2"/>
    <line id="Line_664" data-name="Line 664" y1="13.356" x2="3.288" transform="translate(143.69 16.526)" fill="none" stroke="#1a1818" stroke-miterlimit="10" stroke-width="2"/>
    <line id="Line_665" data-name="Line 665" x2="4.013" y2="22.732" transform="translate(157.198 9.106)" fill="none" stroke="#1a1818" stroke-miterlimit="10" stroke-width="2"/>
    <line id="Line_666" data-name="Line 666" x1="1.518" y2="22.614" transform="translate(180.014 9.089)" fill="none" stroke="#1a1818" stroke-miterlimit="10" stroke-width="2"/>
    <line id="Line_667" data-name="Line 667" x2="3.575" y2="22.816" transform="translate(189.694 9.038)" fill="none" stroke="#1a1818" stroke-miterlimit="10" stroke-width="2"/>
    <line id="Line_668" data-name="Line 668" x1="4.654" y2="22.648" transform="translate(209.306 9.713)" fill="none" stroke="#1a1818" stroke-miterlimit="10" stroke-width="2"/>
    <line id="Line_669" data-name="Line 669" y1="18.212" x2="3.541" transform="translate(207.586 11.871)" fill="none" stroke="#1a1818" stroke-miterlimit="10" stroke-width="2"/>
    <line id="Line_670" data-name="Line 670" x2="1.889" y2="22.799" transform="translate(221.785 9.308)" fill="none" stroke="#1a1818" stroke-miterlimit="10" stroke-width="2"/>
    <path id="Path_1901" data-name="Path 1901" d="M326.745,493.22s3.237-10.522,4.451-12.006,1.08.674,4.048,0,19.021-7.15,20.641-8.5a3.936,3.936,0,0,0,1.484-3.1l150.286.27s-1.349,1.079-.4,2.023,18.212,8.634,20.505,8.634a5.913,5.913,0,0,0,3.373-.81l6.476,12.546" transform="translate(-295.314 -430.488)" fill="none" stroke="#1a1818" stroke-miterlimit="10" stroke-width="2"/>
    <path id="Path_1902" data-name="Path 1902" d="M509.546,479.672c0-.945,2.293-9.714-2.968-12.951s-14.57-1.214-17.674,1.484-2.833,2.294-2.833,2.294" transform="translate(-273.731 -431.106)" fill="none" stroke="#1a1818" stroke-miterlimit="10" stroke-width="2"/>
    <path id="Path_1903" data-name="Path 1903" d="M356.838,470.4s-8.356-6.636-13.753-6.636-8.777,2.589-10.4,6.906S330.665,482,330.665,482" transform="translate(-294.783 -431.28)" fill="none" stroke="#1a1818" stroke-miterlimit="10" stroke-width="2"/>
    <path id="Path_1904" data-name="Path 1904" d="M314.477,495.426l3.339,12.2a9.657,9.657,0,0,0,2.79,4.578c1.323,1.213,2.991,2.538,4.158,2.75a57.952,57.952,0,0,0,7.487.606c1.214,0,15.581,7.893,15.581,7.893s174.637-.405,175.852-1.215,12.749-6.88,13.963-7.284,10.32-1.821,11.736-3.036,7.488-18.01,7.488-18.01" transform="translate(-296.976 -427.197)" fill="none" stroke="#1a1818" stroke-miterlimit="10" stroke-width="2"/>
    <line id="Line_671" data-name="Line 671" x1="1.383" y1="17.336" transform="translate(34.669 70.961)" fill="none" stroke="#1a1818" stroke-miterlimit="10" stroke-width="2"/>
    <line id="Line_672" data-name="Line 672" x1="3.609" y2="26.003" transform="translate(71.127 70.354)" fill="none" stroke="#1a1818" stroke-miterlimit="10" stroke-width="2"/>
    <line id="Line_673" data-name="Line 673" x1="5.902" y1="26.408" transform="translate(85.461 69.949)" fill="none" stroke="#1a1818" stroke-miterlimit="10" stroke-width="2"/>
    <line id="Line_674" data-name="Line 674" x1="4.654" y2="26.712" transform="translate(109.34 69.342)" fill="none" stroke="#1a1818" stroke-miterlimit="10" stroke-width="2"/>
    <line id="Line_675" data-name="Line 675" x2="5.059" y2="27.723" transform="translate(125.326 68.33)" fill="none" stroke="#1a1818" stroke-miterlimit="10" stroke-width="2"/>
    <line id="Line_676" data-name="Line 676" x2="3.288" y2="26.408" transform="translate(165.798 69.139)" fill="none" stroke="#1a1818" stroke-miterlimit="10" stroke-width="2"/>
    <path id="Path_1905" data-name="Path 1905" d="M479.477,495.868" transform="translate(-274.624 -426.931)" fill="none" stroke="#1a1818" stroke-miterlimit="10" stroke-width="2"/>
    <line id="Line_677" data-name="Line 677" x1="3.035" y1="27.319" transform="translate(203.64 68.532)" fill="none" stroke="#1a1818" stroke-miterlimit="10" stroke-width="2"/>
    <line id="Line_678" data-name="Line 678" x1="6.121" y2="26.914" transform="translate(184.972 68.735)" fill="none" stroke="#1a1818" stroke-miterlimit="10" stroke-width="2"/>
    <line id="Line_679" data-name="Line 679" x1="6.071" y2="26.914" transform="translate(148.345 68.785)" fill="none" stroke="#1a1818" stroke-miterlimit="10" stroke-width="2"/>
    <line id="Line_680" data-name="Line 680" x1="3.238" y2="20.641" transform="translate(240.672 67.116)" fill="none" stroke="#1a1818" stroke-miterlimit="10" stroke-width="2"/>
    <line id="Line_681" data-name="Line 681" x1="7.791" y2="27.723" transform="translate(226.405 67.52)" fill="none" stroke="#1a1818" stroke-miterlimit="10" stroke-width="2"/>
    <line id="Line_682" data-name="Line 682" x2="4.25" y2="26.509" transform="translate(45.596 69.342)" fill="none" stroke="#1a1818" stroke-miterlimit="10" stroke-width="2"/>
    <line id="Line_683" data-name="Line 683" x1="6.273" y2="21.838" transform="translate(237.434 17.284)" fill="none" stroke="#1a1818" stroke-miterlimit="10" stroke-width="2"/>
    <line id="Line_684" data-name="Line 684" x1="3.423" y2="23.255" transform="translate(242.156 20.927)" fill="none" stroke="#1a1818" stroke-miterlimit="10" stroke-width="2"/>
    <line id="Line_685" data-name="Line 685" x1="5.868" y2="20.135" transform="translate(243.935 33.878)" fill="none" stroke="#1a1818" stroke-miterlimit="10" stroke-width="2"/>
    <line id="Line_686" data-name="Line 686" x1="4.907" y2="23.356" transform="translate(247.35 38.026)" fill="none" stroke="#1a1818" stroke-miterlimit="10" stroke-width="2"/>
    <line id="Line_687" data-name="Line 687" x1="4.157" y2="11.72" transform="translate(253.893 50.269)" fill="none" stroke="#1a1818" stroke-miterlimit="10" stroke-width="2"/>
  </g>
</svg>
