<svg xmlns="http://www.w3.org/2000/svg" width="288.814" height="112.834" viewBox="0 0 288.814 112.834">
  <g id="Group_718" data-name="Group 718" transform="translate(1.047 1)">
    <path id="Path_1919" data-name="Path 1919" d="M601.832,509.048a20.617,20.617,0,0,1-11.141-3.459l-8.083-5.4a6.952,6.952,0,0,1-2.911-7.477l15.11-43.2c.74-2.945,2.648-6.066,5.342-7.533l9.108-4.246c2.914-1.587,10.092-1.928,13.423-1.917l9.6.047q8.483.043,16.964.084c6.254.029,12.475-.138,18.724.292a52.168,52.168,0,0,1,12.231,1.932,28.62,28.62,0,0,1,9.9,5.66c3.428,2.911,6.715,5.986,10.175,8.861,2.793,2.319,5.266,5.192,5.311,9.02a9.048,9.048,0,0,1-3.74,7.781l-59.9,38.569Z" transform="translate(-566.904 -430.207)" fill="none" stroke="#1a1818" stroke-miterlimit="10" stroke-width="2"/>
    <path id="Path_1920" data-name="Path 1920" d="M587.846,514.154,837.8,511.62c9.242.078,19.644-5.549,17.119-14.312L833.04,447.581c-3-10.419-14.8-16.58-25.783-16.63l-193.524.41c-12.051-.055-22.854,4.465-26.159,15.887l-18.495,50.036C565.864,507.168,578.64,514.076,587.846,514.154Z" transform="translate(-568.572 -430.951)" fill="none" stroke="#1a1818" stroke-miterlimit="10" stroke-width="2"/>
    <path id="Path_1921" data-name="Path 1921" d="M703.9,462.35l-36.3,24.308c-2.021,2.13-2.63,5.078-1.155,7.216,4.991,7.233,10.627,10.353,20.665,10.377l119.4-.85a20.245,20.245,0,0,0,12.079-3.945L822.844,496c3.533-2.721,5.4-5.56,4.237-9.828l-4.965-12.121a15.129,15.129,0,0,0-7.987-8.15l-12.722-5.5a11.476,11.476,0,0,0-4.456-.941l-86.912,1.683A26.211,26.211,0,0,0,703.9,462.35Z" transform="translate(-553.746 -426.596)" fill="none" stroke="#1a1818" stroke-miterlimit="10" stroke-width="2"/>
    <path id="Path_1922" data-name="Path 1922" d="M785.372,496.653" transform="translate(-535.456 -420.915)" fill="none" stroke="#1a1818" stroke-miterlimit="10" stroke-width="2"/>
    <path id="Path_1923" data-name="Path 1923" d="M698.52,499.824l4.739-3.861a14.747,14.747,0,0,1,9.041-3.031l73.823.011a10.74,10.74,0,0,1,5.284,1.418l6.34,3.818" transform="translate(-548.722 -421.483)" fill="none" stroke="#1a1818" stroke-miterlimit="10" stroke-width="2"/>
    <path id="Path_1924" data-name="Path 1924" d="M807.557,499.079c-.982-4.206-4.189-5.692-8.149-7.533l-5.784-3.086a10.351,10.351,0,0,0-4.406-.961l-77.146.466a12.614,12.614,0,0,0-7.723,2.681l-11.769,9.186" transform="translate(-549.63 -422.313)" fill="none" stroke="#1a1818" stroke-miterlimit="10" stroke-width="2"/>
    <path id="Path_1925" data-name="Path 1925" d="M673.688,499.612l30.163-22.3a18.367,18.367,0,0,1,10.876-3.617l78.39-.452a19.966,19.966,0,0,1,7.832,1.559l7.336,3.082a13.006,13.006,0,0,1,7.53,8.526l2.983,9.979" transform="translate(-552.516 -424.49)" fill="none" stroke="#1a1818" stroke-miterlimit="10" stroke-width="2"/>
    <path id="Path_1926" data-name="Path 1926" d="M583.489,499.525l13.857-37.682c.441-2.285,3.047-6.416,5.787-7.824l13.2-5.136c.964-.495,8.543-.617,12.378-.412l41.135.341a13.843,13.843,0,0,1,4.31.727l5.351,1.808a13.823,13.823,0,0,1,5.1,3.08l14.634,13.921" transform="translate(-566.293 -428.289)" fill="none" stroke="#1a1818" stroke-miterlimit="10" stroke-width="2"/>
    <path id="Path_1927" data-name="Path 1927" d="M595.091,504.519l7.775-30.718a6.616,6.616,0,0,1,3.35-4.238l10.484-4.574a18.8,18.8,0,0,1,5.445-.89l42.871.543a3.567,3.567,0,0,1,.8.1l8.971,2.173a6.29,6.29,0,0,1,2.886,1.586l6.716,6.485" transform="translate(-564.521 -425.888)" fill="none" stroke="#1a1818" stroke-miterlimit="10" stroke-width="2"/>
    <path id="Path_1928" data-name="Path 1928" d="M598.837,503.793l5.6-24.159a7.041,7.041,0,0,1,3.4-4.522l7.643-4.086a9.129,9.129,0,0,1,4.176-1.164l44.081.542a3.616,3.616,0,0,1,.98.149l7.071,2.089a6.3,6.3,0,0,1,2.6,1.522l3.887,3.78" transform="translate(-563.949 -425.008)" fill="none" stroke="#1a1818" stroke-miterlimit="10" stroke-width="2"/>
    <path id="Path_1929" data-name="Path 1929" d="M698.523,457.961l-9.918-8.249a3.779,3.779,0,0,1-1.351-2.633h0a3.774,3.774,0,0,1,1.721-3.442l8.092-5.214a17.543,17.543,0,0,1,9.352-2.793l75.036-.614a17.511,17.511,0,0,1,6.616,1.237l7.908,3.14a18.563,18.563,0,0,1,10.861,11.7h0a1.029,1.029,0,0,1-.414,1.167l-7.958,5.276a14.544,14.544,0,0,1-7.888,2.421l-84,.868A12.4,12.4,0,0,1,698.523,457.961Z" transform="translate(-550.445 -430.33)" fill="none" stroke="#1a1818" stroke-miterlimit="10" stroke-width="2"/>
    <path id="Path_1930" data-name="Path 1930" d="M694.956,453.306l2.563-1.5a17.538,17.538,0,0,1,8.655-2.387l71.891-.74a17.549,17.549,0,0,1,6.41,1.143l13.03,5.533" transform="translate(-549.267 -428.243)" fill="none" stroke="#1a1818" stroke-miterlimit="10" stroke-width="2"/>
    <path id="Path_1931" data-name="Path 1931" d="M585.56,503.662l5.4,13.17a17.476,17.476,0,0,0,5.916,7.518l4.43,3.209a17.478,17.478,0,0,0,10.254,3.323h20.3a17.481,17.481,0,0,0,9.953-3.11l36.7-25.446" transform="translate(-565.977 -420.049)" fill="none" stroke="#1a1818" stroke-miterlimit="10" stroke-width="2"/>
    <path id="Path_1932" data-name="Path 1932" d="M669.857,502.518l5.127,17.813a8.309,8.309,0,0,0,2.775,4.172l4.574,3.681a8.3,8.3,0,0,0,5.287,1.834l111.05-1.078a8.223,8.223,0,0,0,4.507-1.4l8.017-5.39a8.212,8.212,0,0,0,3.093-3.887l6.568-17.186" transform="translate(-553.101 -420.239)" fill="none" stroke="#1a1818" stroke-miterlimit="10" stroke-width="2"/>
    <path id="Path_1933" data-name="Path 1933" d="M819.549,503.842l-7,5.182a8.216,8.216,0,0,1-4.808,1.633l-123.415,1.681a8.313,8.313,0,0,1-4.146-1.044l-9.16-5.089" transform="translate(-552.924 -419.817)" fill="none" stroke="#1a1818" stroke-miterlimit="10" stroke-width="2"/>
    <path id="Path_1934" data-name="Path 1934" d="M586.48,506.018l7.476,5.08a12.608,12.608,0,0,0,7.086,2.179h39.816a12.6,12.6,0,0,0,4.247-.737l27.8-9.946" transform="translate(-565.836 -420.008)" fill="none" stroke="#1a1818" stroke-miterlimit="10" stroke-width="2"/>
  </g>
</svg>
