<svg xmlns="http://www.w3.org/2000/svg" width="270.698" height="234.982" viewBox="0 0 270.698 234.982">
  <g id="Group_705" data-name="Group 705" transform="matrix(0.999, 0.052, -0.052, 0.999, 8.658, 0.412)">
    <path id="Path_910" data-name="Path 910" d="M135.889,31.618a45.5,45.5,0,0,0,5.592,10.412M102.718,63.967a42.869,42.869,0,0,1-5.586-10.415M55.617,90.621a52.025,52.025,0,0,1-5.591-10.413M5.584,118.935A46.188,46.188,0,0,1,0,108.518M124.887,0l11.006,31.616M97.132,53.552l-11.023-31.8" transform="translate(34.548 13.169)" fill="none" stroke="#000" stroke-linecap="round" stroke-linejoin="round" stroke-width="2"/>
    <path id="Path_911" data-name="Path 911" d="M184.705,9.889l-1.076-1.365C179.72,3.568,172.783.762,166.662.145a31.98,31.98,0,0,0-18.149,3.787m.011.01L0,87.991" transform="translate(12.796 0)" fill="none" stroke="#000" stroke-linecap="round" stroke-linejoin="round" stroke-width="2"/>
    <path id="Path_912" data-name="Path 912" d="M12.74,0C10.218,1.878,7.7,3.4,5.6,5.81A23.062,23.062,0,0,0,.927,14,19.4,19.4,0,0,0,3.755,31.5" transform="translate(0 88.033)" fill="none" stroke="#000" stroke-linecap="round" stroke-linejoin="round" stroke-width="2"/>
    <line id="Line_288" data-name="Line 288" x1="63.974" y1="88.431" transform="translate(197.474 9.889)" fill="none" stroke="#000" stroke-linecap="round" stroke-linejoin="round" stroke-width="2"/>
    <path id="Path_913" data-name="Path 913" d="M0,0" transform="translate(261.44 98.381)" fill="none" stroke="#000" stroke-linecap="round" stroke-linejoin="round" stroke-width="2"/>
    <path id="Path_914" data-name="Path 914" d="M0,31.548c5.559-3.4,10.062-8.024,11.934-14.43A20.1,20.1,0,0,0,9.057,0" transform="translate(252.382 98.381)" fill="none" stroke="#000" stroke-linecap="round" stroke-linejoin="round" stroke-width="2"/>
    <line id="Line_289" data-name="Line 289" x2="63.974" y2="88.431" transform="translate(3.702 119.6)" fill="none" stroke="#000" stroke-linecap="round" stroke-linejoin="round" stroke-width="2"/>
    <line id="Line_290" data-name="Line 290" y1="84.049" x2="148.523" transform="translate(103.859 129.929)" fill="none" stroke="#000" stroke-linecap="round" stroke-linejoin="round" stroke-width="2"/>
    <line id="Line_291" data-name="Line 291" y1="21.935" x2="38.762" transform="translate(120.696 13.02)" fill="none" stroke="#000" stroke-linecap="round" stroke-linejoin="round" stroke-width="2"/>
    <path id="Path_915" data-name="Path 915" d="M0,3.667A29.9,29.9,0,0,1,17.912.249a24.177,24.177,0,0,1,15.814,8.96" transform="translate(159.457 9.354)" fill="none" stroke="#000" stroke-linecap="round" stroke-linejoin="round" stroke-width="2"/>
    <line id="Line_292" data-name="Line 292" x2="56.448" y2="78.028" transform="translate(193.182 18.563)" fill="none" stroke="#000" stroke-linecap="round" stroke-linejoin="round" stroke-width="2"/>
    <path id="Path_916" data-name="Path 916" d="M8.442,0a18.761,18.761,0,0,1,2.622,16.126C9.316,21.918,5.061,26.315,0,29.405" transform="translate(241.188 96.591)" fill="none" stroke="#000" stroke-linecap="round" stroke-linejoin="round" stroke-width="2"/>
    <line id="Line_293" data-name="Line 293" x1="38.762" y2="21.935" transform="translate(202.427 125.996)" fill="none" stroke="#000" stroke-linecap="round" stroke-linejoin="round" stroke-width="2"/>
    <path id="Path_917" data-name="Path 917" d="M33.725,5.543l-1.612.843-1.672.74-1.725.634-1.768.524-1.8.411-1.823.3-1.836.178-1.837.06L17.821,9.17l-1.812-.176L14.227,8.7l-1.745-.409-1.7-.522L9.145,7.139,7.573,6.4l-1.5-.841L4.663,4.621,3.342,3.589,2.119,2.471,1,1.273,0,0" transform="translate(168.702 142.388)" fill="none" stroke="#000" stroke-linecap="round" stroke-linejoin="round" stroke-width="2"/>
    <line id="Line_294" data-name="Line 294" x1="56.448" y1="78.028" transform="translate(112.253 64.36)" fill="none" stroke="#000" stroke-linecap="round" stroke-linejoin="round" stroke-width="2"/>
    <path id="Path_918" data-name="Path 918" d="M3.427,29.405C2.317,26.849.8,24.868.291,22.006A18.81,18.81,0,0,1,.7,13.616C2.382,7.677,6.7,3.144,11.868,0" transform="translate(108.827 34.955)" fill="none" stroke="#000" stroke-linecap="round" stroke-linejoin="round" stroke-width="2"/>
    <line id="Line_295" data-name="Line 295" x2="56.448" y2="78.028" transform="translate(15.122 119.327)" fill="none" stroke="#000" stroke-linecap="round" stroke-linejoin="round" stroke-width="2"/>
    <path id="Path_919" data-name="Path 919" d="M11.875,0A23.72,23.72,0,0,0,.81,13.232,18.068,18.068,0,0,0,3.5,29.364" transform="translate(11.688 89.922)" fill="none" stroke="#000" stroke-linecap="round" stroke-linejoin="round" stroke-width="2"/>
    <line id="Line_296" data-name="Line 296" x1="50.034" y2="28.314" transform="translate(23.563 61.608)" fill="none" stroke="#000" stroke-linecap="round" stroke-linejoin="round" stroke-width="2"/>
    <path id="Path_920" data-name="Path 920" d="M33.769,9.195A24.193,24.193,0,0,0,17.987.256,30.027,30.027,0,0,0,0,3.64" transform="translate(73.578 57.945)" fill="none" stroke="#000" stroke-linecap="round" stroke-linejoin="round" stroke-width="2"/>
    <line id="Line_297" data-name="Line 297" x1="56.448" y1="78.028" transform="translate(107.322 67.151)" fill="none" stroke="#000" stroke-linecap="round" stroke-linejoin="round" stroke-width="2"/>
    <path id="Path_921" data-name="Path 921" d="M0,29.405l1.54-.94A21.606,21.606,0,0,0,11.3,15.447C12.46,10.592,11.89,3.886,8.443,0" transform="translate(155.328 145.179)" fill="none" stroke="#000" stroke-linecap="round" stroke-linejoin="round" stroke-width="2"/>
    <line id="Line_298" data-name="Line 298" y1="28.314" x2="50.034" transform="translate(105.294 174.584)" fill="none" stroke="#000" stroke-linecap="round" stroke-linejoin="round" stroke-width="2"/>
    <path id="Path_922" data-name="Path 922" d="M0,0A24.173,24.173,0,0,0,15.6,8.912,29.094,29.094,0,0,0,33.743,5.543" transform="translate(71.551 197.355)" fill="none" stroke="#000" stroke-linecap="round" stroke-linejoin="round" stroke-width="2"/>
    <path id="Path_923" data-name="Path 923" d="M0,0C1.618,2.7,4.754,4.916,7.449,6.426a27.088,27.088,0,0,0,9.524,3.189A32.218,32.218,0,0,0,36.2,5.973" transform="translate(67.677 208.031)" fill="none" stroke="#000" stroke-linecap="round" stroke-linejoin="round" stroke-width="2"/>
    <path id="Path_924" data-name="Path 924" d="M0,0" transform="translate(4.092 121.664)" fill="none" stroke="#000" stroke-linecap="round" stroke-linejoin="round" stroke-width="2"/>
    <path id="Path_925" data-name="Path 925" d="M0,3.914l.489-.292.473-.314.495-.364.475-.389.454-.414.433-.436.409-.457L3.61.77,4.147,0" transform="translate(239.536 141.715)" fill="none" stroke="#000" stroke-linecap="round" stroke-linejoin="round" stroke-width="2"/>
    <line id="Line_299" data-name="Line 299" y1="21.935" x2="38.762" transform="translate(200.775 145.629)" fill="none" stroke="#000" stroke-linecap="round" stroke-linejoin="round" stroke-width="2"/>
    <path id="Path_926" data-name="Path 926" d="M0,1.567l.05,0,.6-.039.6-.068.6-.1.59-.127.586-.157L3.592.889l.57-.216L4.721.429l.42-.206L5.553,0" transform="translate(195.223 167.564)" fill="none" stroke="#000" stroke-linecap="round" stroke-linejoin="round" stroke-width="2"/>
    <path id="Path_927" data-name="Path 927" d="M0,0,.309,2.211l.348,1.9L1.195,5.96l.723,1.8.9,1.729L3.9,11.135" transform="translate(0.975 114.656)" fill="none" stroke="#000" stroke-linecap="round" stroke-linejoin="round" stroke-width="2"/>
    <path id="Path_928" data-name="Path 928" d="M0,3.914l.489-.292.474-.314.493-.364.475-.389.455-.413.431-.436.41-.458L3.611.77,4.148,0" transform="translate(153.676 190.303)" fill="none" stroke="#000" stroke-linecap="round" stroke-linejoin="round" stroke-width="2"/>
    <line id="Line_300" data-name="Line 300" y1="28.314" x2="50.034" transform="translate(103.643 194.217)" fill="none" stroke="#000" stroke-linecap="round" stroke-linejoin="round" stroke-width="2"/>
    <path id="Path_929" data-name="Path 929" d="M0,1.2l1.1.226.586.078.59.049.595.02.6-.009.6-.039.6-.068.6-.1.589-.127.586-.157L7.008.889l.57-.216L8.136.429l.42-.207L8.968,0" transform="translate(94.674 222.531)" fill="none" stroke="#000" stroke-linecap="round" stroke-linejoin="round" stroke-width="2"/>
    <path id="Path_930" data-name="Path 930" d="M0,28.218A22.994,22.994,0,0,0,10.82,17.051C13.393,11.3,12.762,5.944,11.591,0" transform="translate(253.493 107.783)" fill="none" stroke="#000" stroke-linecap="round" stroke-linejoin="round" stroke-width="2"/>
    <line id="Line_301" data-name="Line 301" x2="63.975" y2="88.431" transform="translate(4.871 125.791)" fill="none" stroke="#000" stroke-linecap="round" stroke-linejoin="round" stroke-width="2"/>
    <line id="Line_302" data-name="Line 302" y1="84.049" x2="148.523" transform="translate(105.028 136.121)" fill="none" stroke="#000" stroke-linecap="round" stroke-linejoin="round" stroke-width="2"/>
    <path id="Path_931" data-name="Path 931" d="M0,0A25.612,25.612,0,0,0,17.145,9.638,32.233,32.233,0,0,0,36.2,5.972" transform="translate(68.845 214.223)" fill="none" stroke="#000" stroke-linecap="round" stroke-linejoin="round" stroke-width="2"/>
    <path id="Path_932" data-name="Path 932" d="M7.473,0,7.207.831C6.13,4.183,2.9,6.556,0,8.27" transform="translate(178.605 47.381)" fill="none" stroke="#000" stroke-linecap="round" stroke-linejoin="round" stroke-width="2"/>
    <path id="Path_933" data-name="Path 933" d="M0,0" transform="translate(161.958 4.174)" fill="none" stroke="#000" stroke-linecap="round" stroke-linejoin="round" stroke-width="2"/>
    <path id="Path_934" data-name="Path 934" d="M9.843,2.238A8.24,8.24,0,0,0,5,.042,11.626,11.626,0,0,0,0,.9" transform="translate(87.809 91.765)" fill="none" stroke="#000" stroke-linecap="round" stroke-linejoin="round" stroke-width="2"/>
    <line id="Line_303" data-name="Line 303" y1="21.935" x2="38.762" transform="translate(137.302 55.233)" fill="none" stroke="#000" stroke-linecap="round" stroke-linejoin="round" stroke-width="2"/>
    <path id="Path_935" data-name="Path 935" d="M.257,2.216.04,1.765,0,1.27.141.78.448.342.893,0" transform="translate(136.409 77.168)" fill="none" stroke="#000" stroke-linecap="round" stroke-linejoin="round" stroke-width="2"/>
    <line id="Line_304" data-name="Line 304" x2="54.286" y2="75.039" transform="translate(178.605 55.651)" fill="none" stroke="#000" stroke-linecap="round" stroke-linejoin="round" stroke-width="2"/>
    <path id="Path_936" data-name="Path 936" d="M0,.237A2.127,2.127,0,0,1,2.544.652" transform="translate(176.064 54.996)" fill="none" stroke="#000" stroke-linecap="round" stroke-linejoin="round" stroke-width="2"/>
    <line id="Line_305" data-name="Line 305" x1="11.023" y1="31.797" transform="translate(73.597 61.608)" fill="none" stroke="#000" stroke-linecap="round" stroke-linejoin="round" stroke-width="2"/>
    <line id="Line_306" data-name="Line 306" y1="10.795" x2="19.075" transform="translate(34.586 110.924)" fill="none" stroke="#000" stroke-linecap="round" stroke-linejoin="round" stroke-width="2"/>
    <line id="Line_307" data-name="Line 307" x1="52.251" y1="72.226" transform="translate(136.666 79.384)" fill="none" stroke="#000" stroke-linecap="round" stroke-linejoin="round" stroke-width="2"/>
    <path id="Path_937" data-name="Path 937" d="M0,.968C1.012,2.04,2.957,2,4.29,1.747A15.294,15.294,0,0,0,8.852,0" transform="translate(127.814 79.384)" fill="none" stroke="#000" stroke-linecap="round" stroke-linejoin="round" stroke-width="2"/>
    <path id="Path_938" data-name="Path 938" d="M0,0" transform="translate(92.318 104.48)" fill="none" stroke="#000" stroke-linecap="round" stroke-linejoin="round" stroke-width="2"/>
    <path id="Path_939" data-name="Path 939" d="M0,0" transform="translate(91.842 104.464)" fill="none" stroke="#000" stroke-linecap="round" stroke-linejoin="round" stroke-width="2"/>
    <line id="Line_308" data-name="Line 308" x1="11.023" y1="31.797" transform="translate(23.563 89.922)" fill="none" stroke="#000" stroke-linecap="round" stroke-linejoin="round" stroke-width="2"/>
    <path id="Path_940" data-name="Path 940" d="M2.572,0A5.925,5.925,0,0,0,.245,3.725,8.016,8.016,0,0,0,.922,9.3" transform="translate(28.458 124.517)" fill="none" stroke="#000" stroke-linecap="round" stroke-linejoin="round" stroke-width="2"/>
    <path id="Path_941" data-name="Path 941" d="M0,8.242C3.259,6.538,6.348,3.549,7.489,0" transform="translate(92.73 95.968)" fill="none" stroke="#000" stroke-linecap="round" stroke-linejoin="round" stroke-width="2"/>
    <line id="Line_309" data-name="Line 309" x1="54.286" y1="75.039" transform="translate(92.744 104.239)" fill="none" stroke="#000" stroke-linecap="round" stroke-linejoin="round" stroke-width="2"/>
    <path id="Path_942" data-name="Path 942" d="M2.54.666A2.086,2.086,0,0,0,0,.264" transform="translate(90.21 103.568)" fill="none" stroke="#000" stroke-linecap="round" stroke-linejoin="round" stroke-width="2"/>
    <line id="Line_310" data-name="Line 310" x1="50.034" y2="28.314" transform="translate(40.169 103.821)" fill="none" stroke="#000" stroke-linecap="round" stroke-linejoin="round" stroke-width="2"/>
    <path id="Path_943" data-name="Path 943" d="M.858,0A1.609,1.609,0,0,0,.207,2.2" transform="translate(39.32 132.152)" fill="none" stroke="#000" stroke-linecap="round" stroke-linejoin="round" stroke-width="2"/>
    <line id="Line_311" data-name="Line 311" x2="52.251" y2="72.226" transform="translate(39.534 134.351)" fill="none" stroke="#000" stroke-linecap="round" stroke-linejoin="round" stroke-width="2"/>
    <path id="Path_944" data-name="Path 944" d="M0,.975C1.174,2.127,3.127,2.01,4.606,1.68A14.556,14.556,0,0,0,8.848,0" transform="translate(30.682 134.344)" fill="none" stroke="#000" stroke-linecap="round" stroke-linejoin="round" stroke-width="2"/>
    <path id="Path_945" data-name="Path 945" d="M0,0" transform="translate(195.819 9.739)" fill="none" stroke="#000" stroke-linecap="round" stroke-linejoin="round" stroke-width="2"/>
    <line id="Line_312" data-name="Line 312" x1="7.104" y2="28.817" transform="translate(186.078 18.563)" fill="none" stroke="#000" stroke-linecap="round" stroke-linejoin="round" stroke-width="2"/>
    <line id="Line_313" data-name="Line 313" x1="7.039" y2="28.554" transform="translate(242.592 96.591)" fill="none" stroke="#000" stroke-linecap="round" stroke-linejoin="round" stroke-width="2"/>
    <line id="Line_314" data-name="Line 314" x2="15.561" y2="15.992" transform="translate(112.253 64.36)" fill="none" stroke="#000" stroke-linecap="round" stroke-linejoin="round" stroke-width="2"/>
    <line id="Line_315" data-name="Line 315" x1="50.047" y1="69.18" transform="translate(127.814 80.352)" fill="none" stroke="#000" stroke-linecap="round" stroke-linejoin="round" stroke-width="2"/>
    <path id="Path_946" data-name="Path 946" d="M0,0" transform="translate(259.794 98.171)" fill="none" stroke="#000" stroke-linecap="round" stroke-linejoin="round" stroke-width="2"/>
    <line id="Line_316" data-name="Line 316" y1="28.817" x2="7.104" transform="translate(100.218 67.151)" fill="none" stroke="#000" stroke-linecap="round" stroke-linejoin="round" stroke-width="2"/>
    <line id="Line_317" data-name="Line 317" x1="31.77" y1="43.916" transform="translate(124.787 129.929)" fill="none" stroke="#000" stroke-linecap="round" stroke-linejoin="round" stroke-width="2"/>
    <path id="Path_947" data-name="Path 947" d="M9.842,2.238A8.24,8.24,0,0,0,5,.042,11.626,11.626,0,0,0,0,.9" transform="translate(172.636 42.335)" fill="none" stroke="#000" stroke-linecap="round" stroke-linejoin="round" stroke-width="2"/>
    <line id="Line_318" data-name="Line 318" y1="10.795" x2="19.075" transform="translate(132.016 56.311)" fill="none" stroke="#000" stroke-linecap="round" stroke-linejoin="round" stroke-width="2"/>
    <path id="Path_948" data-name="Path 948" d="M2.573,0A5.927,5.927,0,0,0,.245,3.725,8.018,8.018,0,0,0,.922,9.3" transform="translate(125.888 69.904)" fill="none" stroke="#000" stroke-linecap="round" stroke-linejoin="round" stroke-width="2"/>
    <line id="Line_319" data-name="Line 319" x1="31.77" y1="43.916" transform="translate(209.615 80.5)" fill="none" stroke="#000" stroke-linecap="round" stroke-linejoin="round" stroke-width="2"/>
    <path id="Path_949" data-name="Path 949" d="M0,0" transform="translate(172.727 146.568)" fill="none" stroke="#000" stroke-linecap="round" stroke-linejoin="round" stroke-width="2"/>
    <path id="Path_950" data-name="Path 950" d="M0,0" transform="translate(168.675 142.404)" fill="none" stroke="#000" stroke-linecap="round" stroke-linejoin="round" stroke-width="2"/>
    <line id="Line_320" data-name="Line 320" y1="28.554" x2="7.039" transform="translate(156.731 145.179)" fill="none" stroke="#000" stroke-linecap="round" stroke-linejoin="round" stroke-width="2"/>
    <line id="Line_321" data-name="Line 321" x2="15.561" y2="15.992" transform="translate(15.122 119.327)" fill="none" stroke="#000" stroke-linecap="round" stroke-linejoin="round" stroke-width="2"/>
    <line id="Line_322" data-name="Line 322" x2="50.047" y2="69.18" transform="translate(30.682 135.319)" fill="none" stroke="#000" stroke-linecap="round" stroke-linejoin="round" stroke-width="2"/>
  </g>
</svg>
