<svg xmlns="http://www.w3.org/2000/svg" width="279.846" height="121.505" viewBox="0 0 279.846 121.505">
  <g id="Group_720" data-name="Group 720" transform="translate(1.023 1)">
    <path id="Path_1944" data-name="Path 1944" d="M312.585,65.344l-8.809,29.51c-1.589,7.241,2.888,14.442,10.373,16.682l4.077,1.221h0c-1.83,9.144,5.579,17.618,15.464,17.69l216.29,1.581c10.591.077,18.941-10.408,19.185-20.374h0c8.486-1.564,13.793-9.563,11.563-17.427l-8.262-27.8c-2.341-7.75-10.151-13.673-18.695-14.168l-.34-.375-.73-.8c-3-8.054-12.7-14.248-29.667-13.708L356.942,36.96c-9.514-.026-23.06,3.473-23.677,12.409h0C323.331,49.249,314.6,56.185,312.585,65.344Z" transform="translate(-303.457 -36.96)" fill="none" stroke="#1a1818" stroke-miterlimit="10" stroke-width="2"/>
    <path id="Path_1945" data-name="Path 1945" d="M383.388,106.722c.427-2.366,3.583-2.515,3.851-5.5a18.133,18.133,0,0,1,4.136-8.2c4.493-4.411,25.888-16.517,28.668-19.684.57-.648,11.482-18.331,12.979-20.7s-.249-3.457-.462-5.963a4.371,4.371,0,0,1,.178-1.509c.789-2.864,5.586-4.708,8.557-4.707l62.285.044c15.718-.475,23.306,5.463,26.084,12.552h0l.339.909c7.915.436,14.661,5.292,16.829,12.114L554.805,92.8c2.066,6.923-2.851,13.964-10.713,15.341h0c-.226,8.773-8.281,15.76-18.092,15.691l-129.426-.9a13.448,13.448,0,0,1-13.358-13.889A19.656,19.656,0,0,1,383.388,106.722Z" transform="translate(-287.469 -36.257)" fill="none" stroke="#1a1818" stroke-miterlimit="10" stroke-width="2"/>
    <path id="Path_1946" data-name="Path 1946" d="M339.919,122.451c-9.158-.064-16.021-7.522-14.326-15.572h0l-3.777-1.074c-6.935-1.972-11.083-8.311-9.61-14.684l5.582-24.161c1.862-8.062,9.857-13.81,19.061-13.7h0c.571-7.867,11.376-12.869,20.189-12.846l75.331.053a8.076,8.076,0,0,1,4.205,1.176c1.544.941,3.375,2.316,3.537,3.617.15,1.194.221,2.547.254,3.563a3.223,3.223,0,0,1-1.138,2.565h0a3.232,3.232,0,0,0-.963,3.519l.133.389a3.234,3.234,0,0,1-.507,3.043l-12.28,15.752a6.2,6.2,0,0,1-1.842,1.587L402.419,87.731a4.856,4.856,0,0,0-2.32,3.047h0a4.843,4.843,0,0,1-1.409,2.383l-2.016,1.866a2.644,2.644,0,0,0-.842,1.775h0a2.648,2.648,0,0,1-1.064,1.958l-1.028.761a6.506,6.506,0,0,0-2.612,4.778l-.084,1.22a17.946,17.946,0,0,1-17.79,16.72Z" transform="translate(-301.762 -36.268)" fill="none" stroke="#1a1818" stroke-miterlimit="10" stroke-width="2"/>
    <path id="Path_1947" data-name="Path 1947" d="M418.9,70.28a1.869,1.869,0,0,0-1.162.375L415.8,72.091a1.871,1.871,0,0,1-1.119.376h-8.19a1.955,1.955,0,0,1-1.7-1.047,1.937,1.937,0,0,0-1.681-1.018H393.025a1.891,1.891,0,0,0-1.34.567l-.909.911a1.892,1.892,0,0,1-1.39.565l-8.546-.228a1.925,1.925,0,0,1-1.52-.838l-.387-.552a1.921,1.921,0,0,0-1.568-.838h-9.9a1.872,1.872,0,0,0-1.065.336l-1.237.856a2.09,2.09,0,0,1-1.018.336c-3.516.328-5.655-1.125-9.019-1.1a8.051,8.051,0,0,0-5.879,2.805,12.607,12.607,0,0,0-2.126,2.792,4.785,4.785,0,0,0-.184,3.376,4.833,4.833,0,0,1-1,4.1A6.483,6.483,0,0,1,341.4,85.82c-7.092.393-11.1,3.393-12.654,10.917l-2.83,13.958" transform="translate(-298.955 -30.339)" fill="none" stroke="#1a1818" stroke-miterlimit="10" stroke-width="2"/>
    <path id="Path_1948" data-name="Path 1948" d="M532.751,109.82l-1.334-12.484c-.881-6.5-4.765-9.056-10.784-9.606a10.638,10.638,0,0,1-5.192-1.948l-2.63-1.876c-1.186-.848-.7-2.144-.773-3.33-.229-3.766-3.893-5.778-6.785-7.763a8.684,8.684,0,0,0-8.743-.505,1.9,1.9,0,0,1-.94.234l-7.211-.114a1.959,1.959,0,0,1-1.6-.9,1.951,1.951,0,0,0-1.629-.9h-10.1a1.917,1.917,0,0,0-1.25.469l-.989.851a1.923,1.923,0,0,1-1.25.468h-8.45a1.935,1.935,0,0,1-1.456-.673l-.384-.442a1.933,1.933,0,0,0-1.456-.673h-8.726a1.9,1.9,0,0,0-1.032.307l-1.391.9a1.906,1.906,0,0,1-1.034.307H437.072c-.843,0-1.247-.643-1.941-1.03-.55-.3-1.244-.749-1.819-1-.81-.352-1.94-.8-2.813-.291-.7.409-1.4.631-1.788,1.753-.357,1.034-.391,8.7,2.568,5.811,1.151-1.122,5.581-5.313,5.581-5.313" transform="translate(-278.381 -30.42)" fill="none" stroke="#1a1818" stroke-miterlimit="10" stroke-width="2"/>
    <path id="Path_1949" data-name="Path 1949" d="M518.695,116.845l-4.388-26.432a29.885,29.885,0,0,1-12.623-3.75,15.869,15.869,0,0,1-7.24-9.086L445.315,77.5c-.318,2.637-.7,5.27-1.127,7.892a51.267,51.267,0,0,1-1.682,8.2,24.134,24.134,0,0,1-3.939,7.038c-2.556,3.275-5.706,6.012-8.607,8.963-1.388,1.411-2.789,2.811-4.257,4.139a9.67,9.67,0,0,1-2.781,2.112" transform="translate(-279.508 -28.833)" fill="none" stroke="#1a1818" stroke-miterlimit="10" stroke-width="2"/>
    <path id="Path_1950" data-name="Path 1950" d="M335.18,116.975l4.144-27.539s9.02-1.1,13.164-5.067a35.427,35.427,0,0,0,6.582-9.032l50.063-.713" transform="translate(-297.097 -29.41)" fill="none" stroke="#1a1818" stroke-miterlimit="10" stroke-width="2"/>
    <path id="Path_1951" data-name="Path 1951" d="M320.034,112.14s1.317,4.749,3.51,7.02,8.118,4.337,8.118,4.337" transform="translate(-300.134 -21.889)" fill="none" stroke="#1a1818" stroke-miterlimit="10" stroke-width="2"/>
    <path id="Path_1952" data-name="Path 1952" d="M533.5,116.272l-.8,10.395s-.292,3.3-5.265,7.3a59.629,59.629,0,0,1-10.462,6.5,2.336,2.336,0,0,1-1.056.234l-8.1-.114a2.262,2.262,0,0,1-1.8-.9h0a2.272,2.272,0,0,0-1.832-.9H492.829a2.316,2.316,0,0,0-1.4.469l-1.113.851a2.316,2.316,0,0,1-1.4.469h-9.5a2.293,2.293,0,0,1-1.636-.675l-.432-.441a2.3,2.3,0,0,0-1.637-.675H465.9a2.337,2.337,0,0,0-1.161.307l-1.563.9a2.327,2.327,0,0,1-1.162.309H450.169a2.323,2.323,0,0,1-1.26-.37l-1.214-.785a2.329,2.329,0,0,0-1.233-.369l-9.44-.119a2.316,2.316,0,0,0-1.5.519l-1.056.87a2.314,2.314,0,0,1-1.493.519l-10.559-.12a2.318,2.318,0,0,1-1.31-.419l-1.186-.837a2.317,2.317,0,0,0-1.288-.419l-12.015-.246a2.324,2.324,0,0,0-1.319.375l-2.2,1.438a2.333,2.333,0,0,1-1.273.376s-11.947-5.615-12.518-7.4-3.636-17.758-3.636-17.758" transform="translate(-286.975 -21.205)" fill="none" stroke="#1a1818" stroke-miterlimit="10" stroke-width="2"/>
    <path id="Path_1953" data-name="Path 1953" d="M329.722,115.627s-.22,9.912,1.316,13.009,14.7,11.289,16.893,11.289c1.771,0,6.11-.09,7.721-.125a2.291,2.291,0,0,0,1.144-.335l1.406-.856a2.3,2.3,0,0,1,1.2-.337h11.257c.7,0,1.168.537,1.781.839l.09.025a5.746,5.746,0,0,0,3.431-.029c3.363-1.15,5.1-4.22,5.458-4.4.427-.214,3.1-19.361,3.1-19.361" transform="translate(-298.194 -21.246)" fill="none" stroke="#1a1818" stroke-miterlimit="10" stroke-width="2"/>
    <path id="Path_1954" data-name="Path 1954" d="M519.854,113.059s-2.761,5.711-3.93,6.675-7.167,4.13-7.167,4.13" transform="translate(-262.302 -21.705)" fill="none" stroke="#1a1818" stroke-miterlimit="10" stroke-width="2"/>
    <line id="Line_716" data-name="Line 716" x1="2.633" y2="24.573" transform="translate(220.275 94.794)" fill="none" stroke="#1a1818" stroke-miterlimit="10" stroke-width="2"/>
    <line id="Line_717" data-name="Line 717" x1="2.779" y2="24.418" transform="translate(203.016 94.535)" fill="none" stroke="#1a1818" stroke-miterlimit="10" stroke-width="2"/>
    <line id="Line_718" data-name="Line 718" x1="1.463" y2="25.451" transform="translate(191.462 94.174)" fill="none" stroke="#1a1818" stroke-miterlimit="10" stroke-width="2"/>
    <line id="Line_719" data-name="Line 719" x1="2.633" y2="24.253" transform="translate(175.666 94.656)" fill="none" stroke="#1a1818" stroke-miterlimit="10" stroke-width="2"/>
    <line id="Line_720" data-name="Line 720" x2="1.024" y2="23.97" transform="translate(160.894 94.911)" fill="none" stroke="#1a1818" stroke-miterlimit="10" stroke-width="2"/>
    <line id="Line_721" data-name="Line 721" x1="1.024" y2="24.78" transform="translate(146.853 94.587)" fill="none" stroke="#1a1818" stroke-miterlimit="10" stroke-width="2"/>
    <line id="Line_722" data-name="Line 722" x2="1" y2="23.249" transform="translate(132.251 94.488)" fill="none" stroke="#1a1818" stroke-miterlimit="10" stroke-width="2"/>
    <line id="Line_723" data-name="Line 723" x1="0.818" y2="23.264" transform="translate(118.721 94.174)" fill="none" stroke="#1a1818" stroke-miterlimit="10" stroke-width="2"/>
    <path id="Path_1955" data-name="Path 1955" d="M388.559,115.613" transform="translate(-286.397 -21.193)" fill="none" stroke="#1a1818" stroke-miterlimit="10" stroke-width="2"/>
    <path id="Path_1956" data-name="Path 1956" d="M378.391,115.351" transform="translate(-288.435 -21.245)" fill="none" stroke="#1a1818" stroke-miterlimit="10" stroke-width="2"/>
    <line id="Line_724" data-name="Line 724" x2="0.96" y2="23.168" transform="translate(72.617 94.143)" fill="none" stroke="#1a1818" stroke-miterlimit="10" stroke-width="2"/>
    <line id="Line_725" data-name="Line 725" x1="0.96" y2="23.95" transform="translate(59.451 93.83)" fill="none" stroke="#1a1818" stroke-miterlimit="10" stroke-width="2"/>
    <line id="Line_726" data-name="Line 726" y2="36.86" transform="translate(209.123 4.76)" fill="none" stroke="#1a1818" stroke-miterlimit="10" stroke-width="2"/>
    <line id="Line_727" data-name="Line 727" x1="4.168" y2="37.892" transform="translate(193.656 4.244)" fill="none" stroke="#1a1818" stroke-miterlimit="10" stroke-width="2"/>
    <line id="Line_728" data-name="Line 728" x2="1.645" y2="37.273" transform="translate(182.577 4.554)" fill="none" stroke="#1a1818" stroke-miterlimit="10" stroke-width="2"/>
    <line id="Line_729" data-name="Line 729" x1="2.413" y2="37.686" transform="translate(169.413 4.037)" fill="none" stroke="#1a1818" stroke-miterlimit="10" stroke-width="2"/>
    <line id="Line_730" data-name="Line 730" x2="0.109" y2="37.365" transform="translate(158.334 4.141)" fill="none" stroke="#1a1818" stroke-miterlimit="10" stroke-width="2"/>
    <line id="Line_731" data-name="Line 731" x2="0.187" y2="25.175" transform="translate(130.033 4.278)" fill="none" stroke="#1a1818" stroke-miterlimit="10" stroke-width="2"/>
    <line id="Line_732" data-name="Line 732" x1="0.66" y2="35.771" transform="translate(120.159 4.554)" fill="none" stroke="#1a1818" stroke-miterlimit="10" stroke-width="2"/>
    <line id="Line_733" data-name="Line 733" x2="1.316" y2="35.828" transform="translate(103.268 4.244)" fill="none" stroke="#1a1818" stroke-miterlimit="10" stroke-width="2"/>
    <line id="Line_734" data-name="Line 734" x1="0.876" y2="35.503" transform="translate(93.206 4.45)" fill="none" stroke="#1a1818" stroke-miterlimit="10" stroke-width="2"/>
    <line id="Line_735" data-name="Line 735" x2="0.82" y2="35.449" transform="translate(78.319 4.485)" fill="none" stroke="#1a1818" stroke-miterlimit="10" stroke-width="2"/>
    <line id="Line_736" data-name="Line 736" x1="1.097" y2="35.311" transform="translate(67.069 4.76)" fill="none" stroke="#1a1818" stroke-miterlimit="10" stroke-width="2"/>
    <path id="Path_1957" data-name="Path 1957" d="M485.535,76.912l-.293-33.177s14.427.958,19.014,6.883c3.437,4.439,2.486,4.681,2.486,4.681l-4.388,30.01" transform="translate(-267.015 -35.602)" fill="none" stroke="#1a1818" stroke-miterlimit="10" stroke-width="2"/>
    <line id="Line_737" data-name="Line 737" y1="26.638" x2="7.898" transform="translate(247.186 29.54)" fill="none" stroke="#1a1818" stroke-miterlimit="10" stroke-width="2"/>
    <path id="Path_1958" data-name="Path 1958" d="M356.036,75.985l-.2-32.7s-10.142.118-13.947,5.929c-2.852,4.354-2.064,4.591-2.064,4.591l4.137,29.1" transform="translate(-296.185 -35.692)" fill="none" stroke="#1a1818" stroke-miterlimit="10" stroke-width="2"/>
    <line id="Line_738" data-name="Line 738" x1="5.079" y1="36.82" transform="translate(27.499 23.18)" fill="none" stroke="#1a1818" stroke-miterlimit="10" stroke-width="2"/>
    <line id="Line_739" data-name="Line 739" x1="10.007" y2="21.258" transform="translate(252.683 42.136)" fill="none" stroke="#1a1818" stroke-miterlimit="10" stroke-width="2"/>
    <line id="Line_740" data-name="Line 740" x2="13.448" y2="36.578" transform="translate(15.22 33.739)" fill="none" stroke="#1a1818" stroke-miterlimit="10" stroke-width="2"/>
    <path id="Path_1959" data-name="Path 1959" d="M437.152,75.946s-1.694,1.158-1.694,2.335a21.426,21.426,0,0,0-.472,3.5c0,.2.15.469.151.672a18.365,18.365,0,0,1-.606,4.983c-.429.963-.829.107-1.043.429s-1.827,2.816-1.72,3.672c.041.325-.331.9-.181,1.162a1.342,1.342,0,0,1-.1,1.513c-1.064,1.341-2.651,3.729-3.155,4.337-.353.424-.7.456-1.178.092-.577-.442-3.232,4.463-3.646,4.876-.454.455-2.142.8-2.2,1.043-.214.856.312,2.131.205,2.558s-5.269,4.787-6.018,4.787a1.345,1.345,0,0,1-1.07-.427l-7.916,4.385-6.631-37.975" transform="translate(-284.129 -29.145)" fill="none" stroke="#1a1818" stroke-miterlimit="10" stroke-width="2"/>
    <line id="Line_741" data-name="Line 741" x2="4.386" y2="33.589" transform="translate(109.112 53.13)" fill="none" stroke="#1a1818" stroke-miterlimit="10" stroke-width="2"/>
    <line id="Line_742" data-name="Line 742" x1="6.454" y1="39.544" transform="translate(124.48 43.003)" fill="none" stroke="#1a1818" stroke-miterlimit="10" stroke-width="2"/>
    <line id="Line_743" data-name="Line 743" x2="7.06" y2="38.795" transform="translate(130.292 39.152)" fill="none" stroke="#1a1818" stroke-miterlimit="10" stroke-width="2"/>
    <line id="Line_744" data-name="Line 744" x2="5.349" y2="40.935" transform="translate(138.065 28.455)" fill="none" stroke="#1a1818" stroke-miterlimit="10" stroke-width="2"/>
    <line id="Line_745" data-name="Line 745" x2="6.145" y2="41.657" transform="translate(141.488 22.75)" fill="none" stroke="#1a1818" stroke-miterlimit="10" stroke-width="2"/>
    <line id="Line_746" data-name="Line 746" x2="5.973" y2="39.865" transform="translate(144.002 19.042)" fill="none" stroke="#1a1818" stroke-miterlimit="10" stroke-width="2"/>
    <line id="Line_747" data-name="Line 747" x2="5.019" y2="35.497" transform="translate(146.097 14.781)" fill="none" stroke="#1a1818" stroke-miterlimit="10" stroke-width="2"/>
    <path id="Path_1960" data-name="Path 1960" d="M436.318,85.109" transform="translate(-276.823 -27.308)" fill="none" stroke="#1a1818" stroke-miterlimit="10" stroke-width="2"/>
    <path id="Path_1961" data-name="Path 1961" d="M429.576,58.139" transform="translate(-278.174 -32.714)" fill="none" stroke="#1a1818" stroke-miterlimit="10" stroke-width="2"/>
    <line id="Line_748" data-name="Line 748" x2="1.373" y2="24.889" transform="translate(50.776 93.28)" fill="none" stroke="#1a1818" stroke-miterlimit="10" stroke-width="2"/>
  </g>
</svg>
