<svg xmlns="http://www.w3.org/2000/svg" width="264.473" height="121.503" viewBox="0 0 264.473 121.503">
  <g id="Group_719" data-name="Group 719" transform="translate(1.022 1)">
    <path id="Path_1935" data-name="Path 1935" d="M90.077,68.744,84.392,96.257a14.472,14.472,0,0,0,9.788,16.72l3.846,1.224h0a14.965,14.965,0,0,0,14.591,17.732l204.069,1.585a18.291,18.291,0,0,0,18.427-17.869h0a14.1,14.1,0,0,0,10.91-17.468L337.9,67.76A19.035,19.035,0,0,0,320.76,53.966l-.345-1.035h0c-2.828-8.072-10.556-14.834-26.564-14.293l-163.8-.128c-8.976-.027-19.979,5.67-20.561,14.627h0A19.568,19.568,0,0,0,90.077,68.744Z" transform="translate(-84.09 -38.51)" fill="none" stroke="#1a1818" stroke-miterlimit="10" stroke-width="2"/>
    <path id="Path_1936" data-name="Path 1936" d="M97.88,69.107,92.613,93.923A13.021,13.021,0,0,0,101.68,109l3.563,1.1h0A13.6,13.6,0,0,0,118.761,126.1l189.053,1.43a16.741,16.741,0,0,0,17.07-16.118h0a12.712,12.712,0,0,0,10.108-15.756L327.468,68.22a17.539,17.539,0,0,0-15.879-12.442l-.319-.934h0c-2.62-7.281-9.779-13.38-24.609-12.892l-151.747-.115c-8.316-.024-18.509,5.114-19.048,13.194h0A18.023,18.023,0,0,0,97.88,69.107Z" transform="translate(-82.76 -37.973)" fill="none" stroke="#1a1818" stroke-miterlimit="10" stroke-width="2"/>
    <path id="Path_1937" data-name="Path 1937" d="M320.807,113.752l-1.38-13.937c-.833-6.516-4.5-9.078-10.174-9.628a9.69,9.69,0,0,1-4.9-1.954l-2.482-1.882c-1.12-.848-.661-2.148-.729-3.337-.217-3.775-3.674-5.792-6.4-7.782a7.79,7.79,0,0,0-8.25-.508,1.691,1.691,0,0,1-.887.235l-6.8-.114a1.825,1.825,0,0,1-1.509-.9,1.82,1.82,0,0,0-1.538-.9h-9.53a1.746,1.746,0,0,0-1.179.47l-.934.853a1.748,1.748,0,0,1-1.179.47h-7.972a1.783,1.783,0,0,1-1.374-.676l-.362-.441a1.783,1.783,0,0,0-1.374-.676h-8.232a1.715,1.715,0,0,0-.976.308l-1.312.9a1.713,1.713,0,0,1-.974.309h-9.944a1.723,1.723,0,0,1-1.058-.37l-1.02-.787a1.737,1.737,0,0,0-1.034-.369l-7.926-.118a1.748,1.748,0,0,0-1.256.52l-.886.871a1.755,1.755,0,0,1-1.254.52l-8.865-.12a1.745,1.745,0,0,1-1.1-.42l-1-.84a1.746,1.746,0,0,0-1.081-.419l-10.087-.246a1.734,1.734,0,0,0-1.108.375L190.9,74.591a1.727,1.727,0,0,1-1.067.376h-7.81a1.838,1.838,0,0,1-1.6-1.02l-.016-.03a1.838,1.838,0,0,0-1.6-1.02h-9.622a1.764,1.764,0,0,0-1.278.568l-.866.913a1.758,1.758,0,0,1-1.325.567l-8.151-.229a1.817,1.817,0,0,1-1.449-.84l-.368-.553a1.808,1.808,0,0,0-1.5-.841H144.8a1.718,1.718,0,0,0-1.015.338l-1.18.857a1.713,1.713,0,0,1-.971.337c-1.36.035-6.829-.152-10.037-.127-4.97.041-6.831,4-7.52,4.969s1.517,3.1,1.517,3.1.179,2.338-.626,3.2L123.5,86.718a5.291,5.291,0,0,1-3.563,1.634c-6.763.394-10.582,3.4-12.069,10.943l-2.7,13.991" transform="translate(-80.687 -33.025)" fill="none" stroke="#1a1818" stroke-miterlimit="10" stroke-width="2"/>
    <path id="Path_1938" data-name="Path 1938" d="M115.761,119.275,119.28,93.4s7.659-1.035,11.178-4.761a33.532,33.532,0,0,0,5.589-8.487l145.722.207a15.9,15.9,0,0,0,6.831,9.108,67.759,67.759,0,0,0,12.213,5.8l4.139,26.5" transform="translate(-78.977 -31.786)" fill="none" stroke="#1a1818" stroke-miterlimit="10" stroke-width="2"/>
    <path id="Path_1939" data-name="Path 1939" d="M100.256,116.154s1.243,4.761,3.312,7.037,7.659,4.347,7.659,4.347" transform="translate(-81.48 -25.974)" fill="none" stroke="#1a1818" stroke-miterlimit="10" stroke-width="2"/>
    <path id="Path_1940" data-name="Path 1940" d="M109.7,119.718s-.207,9.936,1.242,13.041,13.869,11.315,15.939,11.315c1.666,0,5.745-.088,7.274-.124a2.083,2.083,0,0,0,1.091-.336l1.326-.858a2.1,2.1,0,0,1,1.141-.337h10.611a2.1,2.1,0,0,1,1.681.84l.415.554a2.1,2.1,0,0,0,1.628.84l9.162.229a2.1,2.1,0,0,0,1.489-.568l.973-.913a2.1,2.1,0,0,1,1.437-.568h10.813a2.1,2.1,0,0,1,1.8,1.02l.017.03a2.1,2.1,0,0,0,1.8,1.02h8.777a2.1,2.1,0,0,0,1.2-.376l2.072-1.44a2.1,2.1,0,0,1,1.245-.376l11.337.246a2.108,2.108,0,0,1,1.215.42l1.118.839a2.1,2.1,0,0,0,1.236.42l9.963.12a2.1,2.1,0,0,0,1.409-.519l1-.872a2.1,2.1,0,0,1,1.412-.52l8.906.12a2.091,2.091,0,0,1,1.163.369l1.145.787a2.105,2.105,0,0,0,1.19.369h11.176a2.1,2.1,0,0,0,1.1-.309l1.475-.9a2.109,2.109,0,0,1,1.1-.308h9.252a2.1,2.1,0,0,1,1.544.676l.409.443a2.1,2.1,0,0,0,1.544.676h8.959a2.1,2.1,0,0,0,1.325-.47l1.05-.854a2.1,2.1,0,0,1,1.325-.47h10.71a2.1,2.1,0,0,1,1.728.9h0a2.1,2.1,0,0,0,1.7.9l7.646.115a2.11,2.11,0,0,0,1-.235,56.008,56.008,0,0,0,9.871-6.519c4.691-4,4.968-7.314,4.968-7.314l.755-10.421" transform="translate(-79.957 -25.398)" fill="none" stroke="#1a1818" stroke-miterlimit="10" stroke-width="2"/>
    <path id="Path_1941" data-name="Path 1941" d="M294.646,118.114s-2.484,4.554-3.588,5.52-6.762,4.139-6.762,4.139" transform="translate(-51.766 -25.657)" fill="none" stroke="#1a1818" stroke-miterlimit="10" stroke-width="2"/>
    <line id="Line_688" data-name="Line 688" x1="2.484" y2="24.632" transform="translate(207.829 94.734)" fill="none" stroke="#1a1818" stroke-miterlimit="10" stroke-width="2"/>
    <line id="Line_689" data-name="Line 689" x1="2.622" y2="24.477" transform="translate(191.546 94.475)" fill="none" stroke="#1a1818" stroke-miterlimit="10" stroke-width="2"/>
    <line id="Line_690" data-name="Line 690" x1="1.38" y2="25.512" transform="translate(180.644 94.113)" fill="none" stroke="#1a1818" stroke-miterlimit="10" stroke-width="2"/>
    <line id="Line_691" data-name="Line 691" x1="2.484" y2="24.311" transform="translate(165.741 94.596)" fill="none" stroke="#1a1818" stroke-miterlimit="10" stroke-width="2"/>
    <line id="Line_692" data-name="Line 692" x2="0.966" y2="24.027" transform="translate(151.803 94.852)" fill="none" stroke="#1a1818" stroke-miterlimit="10" stroke-width="2"/>
    <line id="Line_693" data-name="Line 693" x1="0.966" y2="24.839" transform="translate(138.556 94.527)" fill="none" stroke="#1a1818" stroke-miterlimit="10" stroke-width="2"/>
    <line id="Line_694" data-name="Line 694" x2="0.943" y2="23.304" transform="translate(124.779 94.428)" fill="none" stroke="#1a1818" stroke-miterlimit="10" stroke-width="2"/>
    <line id="Line_695" data-name="Line 695" x1="0.943" y2="24.092" transform="translate(111.842 94.113)" fill="none" stroke="#1a1818" stroke-miterlimit="10" stroke-width="2"/>
    <line id="Line_696" data-name="Line 696" x2="0.906" y2="23.371" transform="translate(96.39 94.36)" fill="none" stroke="#1a1818" stroke-miterlimit="10" stroke-width="2"/>
    <line id="Line_697" data-name="Line 697" x1="0.906" y2="24.161" transform="translate(83.967 94.044)" fill="none" stroke="#1a1818" stroke-miterlimit="10" stroke-width="2"/>
    <line id="Line_698" data-name="Line 698" x2="0.906" y2="23.223" transform="translate(68.515 94.082)" fill="none" stroke="#1a1818" stroke-miterlimit="10" stroke-width="2"/>
    <line id="Line_699" data-name="Line 699" x1="0.906" y2="24.008" transform="translate(56.092 93.768)" fill="none" stroke="#1a1818" stroke-miterlimit="10" stroke-width="2"/>
    <line id="Line_700" data-name="Line 700" y2="36.948" transform="translate(197.307 4.485)" fill="none" stroke="#1a1818" stroke-miterlimit="10" stroke-width="2"/>
    <line id="Line_701" data-name="Line 701" x1="3.933" y2="37.983" transform="translate(182.714 3.968)" fill="none" stroke="#1a1818" stroke-miterlimit="10" stroke-width="2"/>
    <line id="Line_702" data-name="Line 702" x2="1.552" y2="37.362" transform="translate(172.261 4.278)" fill="none" stroke="#1a1818" stroke-miterlimit="10" stroke-width="2"/>
    <line id="Line_703" data-name="Line 703" x1="2.277" y2="37.776" transform="translate(159.842 3.761)" fill="none" stroke="#1a1818" stroke-miterlimit="10" stroke-width="2"/>
    <line id="Line_704" data-name="Line 704" x2="0.103" y2="37.052" transform="translate(149.388 3.864)" fill="none" stroke="#1a1818" stroke-miterlimit="10" stroke-width="2"/>
    <line id="Line_705" data-name="Line 705" x1="1.656" y2="37.052" transform="translate(136.244 4.278)" fill="none" stroke="#1a1818" stroke-miterlimit="10" stroke-width="2"/>
    <line id="Line_706" data-name="Line 706" x2="1.024" y2="35.437" transform="translate(122.686 4.002)" fill="none" stroke="#1a1818" stroke-miterlimit="10" stroke-width="2"/>
    <line id="Line_707" data-name="Line 707" x1="0.622" y2="35.857" transform="translate(113.37 4.278)" fill="none" stroke="#1a1818" stroke-miterlimit="10" stroke-width="2"/>
    <line id="Line_708" data-name="Line 708" x2="1.242" y2="35.913" transform="translate(97.433 3.968)" fill="none" stroke="#1a1818" stroke-miterlimit="10" stroke-width="2"/>
    <line id="Line_709" data-name="Line 709" x1="0.826" y2="35.588" transform="translate(87.94 4.175)" fill="none" stroke="#1a1818" stroke-miterlimit="10" stroke-width="2"/>
    <line id="Line_710" data-name="Line 710" x2="0.774" y2="35.534" transform="translate(73.894 4.209)" fill="none" stroke="#1a1818" stroke-miterlimit="10" stroke-width="2"/>
    <line id="Line_711" data-name="Line 711" x1="1.035" y2="35.396" transform="translate(63.28 4.485)" fill="none" stroke="#1a1818" stroke-miterlimit="10" stroke-width="2"/>
    <path id="Path_1942" data-name="Path 1942" d="M261.641,78.539l-.276-33.256s13.612.961,17.94,6.9c3.243,4.451,2.346,4.692,2.346,4.692L277.51,86.957" transform="translate(-55.468 -37.416)" fill="none" stroke="#1a1818" stroke-miterlimit="10" stroke-width="2"/>
    <line id="Line_712" data-name="Line 712" y1="26.702" x2="7.452" transform="translate(233.22 29.324)" fill="none" stroke="#1a1818" stroke-miterlimit="10" stroke-width="2"/>
    <path id="Path_1943" data-name="Path 1943" d="M135.172,76.59l.23-32.614s-11.294.942-14.885,6.765c-2.691,4.365-1.947,4.6-1.947,4.6l3.436,29.5" transform="translate(-78.539 -37.627)" fill="none" stroke="#1a1818" stroke-miterlimit="10" stroke-width="2"/>
    <line id="Line_713" data-name="Line 713" x1="4.829" y1="35.79" transform="translate(24.734 24.665)" fill="none" stroke="#1a1818" stroke-miterlimit="10" stroke-width="2"/>
    <line id="Line_714" data-name="Line 714" x1="9.441" y2="21.309" transform="translate(238.407 41.951)" fill="none" stroke="#1a1818" stroke-miterlimit="10" stroke-width="2"/>
    <line id="Line_715" data-name="Line 715" x2="12.006" y2="34.499" transform="translate(14.36 33.533)" fill="none" stroke="#1a1818" stroke-miterlimit="10" stroke-width="2"/>
  </g>
</svg>
