<svg xmlns="http://www.w3.org/2000/svg" width="271.213" height="219.986" viewBox="0 0 271.213 219.986">
  <g id="Group_704" data-name="Group 704" transform="translate(1 1)">
    <g id="Group_661" data-name="Group 661" transform="translate(0 0)">
      <path id="Path_887" data-name="Path 887" d="M10201.563,3186.815l-1.12-1.457-1.24-1.388-1.353-1.312-1.458-1.228-1.557-1.137-1.644-1.04-1.724-.937-1.792-.828-1.854-.716-1.9-.6-1.941-.479-1.968-.355-1.985-.231-1.991-.1-1.985.022-1.969.149-1.942.274-1.9.4-1.854.52-1.8.64-1.725.755" transform="translate(-10003.114 -3175.003)" fill="none" stroke="#000" stroke-linecap="round" stroke-linejoin="round" stroke-width="2"/>
      <path id="Path_888" data-name="Path 888" d="M10159.29,3878.229m-1.247.6" transform="translate(-9997.913 -3711.284)" fill="none" stroke="#000" stroke-linecap="round" stroke-linejoin="round" stroke-width="2"/>
      <path id="Path_889" data-name="Path 889" d="M9678.848,3355.559m113.66-66-66.714-93.886m-36.7-9.054-148.106,71.244m243.106,62.451,1.646-.866,1.559-.973,1.46-1.074,1.356-1.169,1.241-1.258,1.124-1.339,1-1.413.866-1.479.729-1.537.589-1.586.444-1.626.3-1.657.15-1.679,0-1.692-.148-1.7-.293-1.688-.442-1.673-.585-1.648-.726-1.613-.862-1.57-.993-1.518M9688.544,3350.9m0,0-1.032.5,0,0-8.629,4.151,0,0" transform="translate(-9527.345 -3183.865)" fill="none" stroke="#000" stroke-linecap="round" stroke-linejoin="round" stroke-width="2"/>
      <path id="Path_890" data-name="Path 890" d="M9651.592,3260.636m-1.59-.218-84.074,40.441m-49.549,24.592,6.105-3.4-6.185,3.455-.854.7a2.243,2.243,0,0,0-.738,1.105h0a2.136,2.136,0,0,0,.055,1.347l.26.694m4.456,1.844,48.739,68.593,144.345-56.813-58.3-81.573m-1.476-.475,1.476.475-.536-.451a3.394,3.394,0,0,0-1.37-.7h0a3.39,3.39,0,0,0-1.506-.027l-.731.153m-135.431,67.329-.217-1.219.435-.406.483-.4,0,0,135.889-65.159,2.185.095,58.864,82.841-215.16-65.484-1.646.866-1.559.973-1.461,1.074-1.355,1.169-1.242,1.258-1.123,1.339-1,1.413-.865,1.479-.729,1.537-.588,1.586-.445,1.626-.3,1.657-.152,1.679v1.692l.147,1.7.295,1.689.44,1.673.585,1.648.726,1.613.862,1.57.994,1.518m0,0,66.713,93.887m36.7,9.053,148.106-71.244m-180.707,51.83,1.044,1.358,1.155,1.294,1.262,1.223,1.358,1.144,1.45,1.06,1.531.969,1.607.873,1.671.772,1.728.667,1.772.558,1.809.446,1.835.332,1.85.216,1.855.1,1.852-.02,1.835-.139,1.811-.256,1.772-.371,1.729-.485,1.674-.6,1.607-.7m-93.071-91.28,58.864,82.841m-51.023-111.507-1.533.808-1.453.907-1.36,1-1.265,1.09-1.158,1.172-1.047,1.248-.929,1.317-.808,1.378-.68,1.433-.548,1.478-.415,1.516-.279,1.545-.139,1.566,0,1.577.139,1.58.275,1.574.41,1.559.545,1.536.678,1.5.8,1.463.927,1.415m143.354-93.851-135.514,65.186m169.721-56.747-1.045-1.358-1.155-1.294-1.261-1.223-1.359-1.144-1.449-1.06-1.533-.969-1.605-.873-1.672-.772-1.727-.667-1.773-.558-1.809-.446-1.834-.332-1.851-.216-1.856-.1-1.85.021-1.836.138-1.81.256-1.774.372-1.727.485-1.674.6-1.607.7m93.07,91.28-58.863-82.841m51.022,111.506,1.534-.807,1.451-.907,1.361-1,1.264-1.089,1.158-1.172,1.047-1.248.931-1.317.806-1.378.68-1.433.549-1.478.415-1.516.278-1.545.141-1.565v-1.577l-.136-1.58-.275-1.574-.412-1.559-.545-1.536-.676-1.5-.8-1.464-.927-1.414M9593.77,3400.7l135.513-65.186m-173.819,67.108,1.119,1.457,1.24,1.388,1.354,1.312,1.458,1.228,1.556,1.137,1.645,1.04,1.723.937,1.793.829,1.854.716,1.9.6,1.941.479,1.969.356,1.984.231,1.991.1,1.985-.022,1.969-.148,1.941-.274,1.9-.4,1.854-.521,1.795-.64,1.726-.755m147.324-66.957,1.663-.876,1.572-.985,1.473-1.088,1.366-1.184,1.249-1.274,1.127-1.357,1-1.432.863-1.5.725-1.557.581-1.607.433-1.646.285-1.677m-267.439-32.228-.3,1.621-.157,1.644-.02,1.658.12,1.662.258,1.657.4,1.642.53,1.618.661,1.584.79,1.541.912,1.489m.391.6,66.712,93.887m36.7,9.053,148.106-71.244m-184.807,62.19,1.121,1.457,1.239,1.388,1.353,1.312,1.458,1.228,1.557,1.137,1.644,1.04,1.724.937,1.792.829,1.853.716,1.9.6,1.941.479,1.969.356,1.984.231,1.991.1,1.985-.022,1.969-.148,1.942-.274,1.9-.4,1.854-.521,1.8-.64,1.725-.755m147.715-69.1,1.664-.876,1.57-.985,1.475-1.087,1.365-1.185,1.251-1.274,1.127-1.357,1-1.432.864-1.5.724-1.557.582-1.607.433-1.646.284-1.678m-267.389-32.228-.328,1.681-.175,1.705-.021,1.72.132,1.724.287,1.718.438,1.7.586,1.678.731,1.642.873,1.6,1.011,1.544" transform="translate(-9483.521 -3203.978)" fill="none" stroke="#000" stroke-linecap="round" stroke-linejoin="round" stroke-width="2"/>
      <path id="Path_891" data-name="Path 891" d="M9836.913,4080.183l.354.3.413.328.431.31.444.292.457.272.471.253.48.233.5.213.5.19.515.169.521.147.529.124.534.1.542.077.545.053.549.029.549,0,.553-.021.549-.045.549-.07.545-.095.541-.12.534-.144.528-.169.52-.192.385-.161.377-.174" transform="translate(-9753.019 -3865.295)" fill="none" stroke="#000" stroke-linecap="round" stroke-linejoin="round" stroke-width="2"/>
      <line id="Line_276" data-name="Line 276" x2="66.713" y2="93.887" transform="translate(4.057 111.187)" fill="none" stroke="#000" stroke-linecap="round" stroke-linejoin="round" stroke-width="2"/>
      <line id="Line_277" data-name="Line 277" y1="71.244" x2="148.107" transform="translate(107.47 142.883)" fill="none" stroke="#000" stroke-linecap="round" stroke-linejoin="round" stroke-width="2"/>
      <path id="Path_892" data-name="Path 892" d="M9781.628,4038.842l1.12,1.457,1.24,1.388,1.352,1.312,1.459,1.228,1.557,1.137,1.644,1.04,1.722.937,1.794.829,1.853.716,1.9.6,1.94.479,1.968.356,1.986.231,1.99.1,1.986-.022,1.969-.148,1.941-.274,1.9-.4,1.853-.521,1.8-.64,1.725-.755" transform="translate(-9710.857 -3833.769)" fill="none" stroke="#000" stroke-linecap="round" stroke-linejoin="round" stroke-width="2"/>
      <path id="Path_893" data-name="Path 893" d="M10196.815,3362.678l-.392-.521-.45-.482-.5-.436-.553-.385-.592-.329-.625-.27-.651-.206-.668-.14-.677-.073-.675,0-.668.065-.651.133-.626.2-.593.263" transform="translate(-10021.132 -3315.955)" fill="none" stroke="#000" stroke-linecap="round" stroke-linejoin="round" stroke-width="2"/>
      <path id="Path_894" data-name="Path 894" d="M10201.158,3387.991l1.09-.563,1.087-.642,1.067-.708,1.033-.765.978-.808.909-.838.822-.855.728-.858.618-.847.5-.822" transform="translate(-10030.793 -3331.551)" fill="none" stroke="#000" stroke-linecap="round" stroke-linejoin="round" stroke-width="2"/>
      <path id="Path_895" data-name="Path 895" d="M9621.929,3686.691" transform="translate(-9589.07 -3565.218)" fill="none" stroke="#000" stroke-linecap="round" stroke-linejoin="round" stroke-width="2"/>
      <path id="Path_896" data-name="Path 896" d="M10176.126,3374.818l-.671-1-.643-1.069-.606-1.122-.561-1.157-.5-1.173-.44-1.171-.367-1.149-.29-1.109-.209-1.051-.123-.976" transform="translate(-10008.339 -3319.013)" fill="none" stroke="#000" stroke-linecap="round" stroke-linejoin="round" stroke-width="2"/>
      <path id="Path_897" data-name="Path 897" d="M9604.892,3649.659l-.607-1.021-.584-1.094-.551-1.148-.507-1.185-.457-1.2-.4-1.2-.334-1.176-.264-1.135-.189-1.076-.111-1" transform="translate(-9573.025 -3528.412)" fill="none" stroke="#000" stroke-linecap="round" stroke-linejoin="round" stroke-width="2"/>
      <line id="Line_278" data-name="Line 278" y1="28.704" x2="15.542" transform="translate(179.196 20.03)" fill="none" stroke="#000" stroke-linecap="round" stroke-linejoin="round" stroke-width="2"/>
      <line id="Line_279" data-name="Line 279" x1="2.843" y1="33.239" transform="translate(160.532 11.591)" fill="none" stroke="#000" stroke-linecap="round" stroke-linejoin="round" stroke-width="2"/>
      <path id="Path_898" data-name="Path 898" d="M10551.784,3608.33" transform="translate(-10298.182 -3505.459)" fill="none" stroke="#000" stroke-linecap="round" stroke-linejoin="round" stroke-width="2"/>
      <path id="Path_899" data-name="Path 899" d="M10201.157,3412.749" transform="translate(-10030.792 -3356.309)" fill="none" stroke="#000" stroke-linecap="round" stroke-linejoin="round" stroke-width="2"/>
      <path id="Path_900" data-name="Path 900" d="M10449.114,3761.705" transform="translate(-10219.885 -3622.423)" fill="none" stroke="#000" stroke-linecap="round" stroke-linejoin="round" stroke-width="2"/>
      <line id="Line_280" data-name="Line 280" x1="2.843" y1="33.239" transform="translate(25.019 76.777)" fill="none" stroke="#000" stroke-linecap="round" stroke-linejoin="round" stroke-width="2"/>
      <path id="Path_901" data-name="Path 901" d="M9610.777,3696.423" transform="translate(-9580.566 -3572.639)" fill="none" stroke="#000" stroke-linecap="round" stroke-linejoin="round" stroke-width="2"/>
      <path id="Path_902" data-name="Path 902" d="M9613.259,3698.027" transform="translate(-9582.459 -3573.862)" fill="none" stroke="#000" stroke-linecap="round" stroke-linejoin="round" stroke-width="2"/>
      <path id="Path_903" data-name="Path 903" d="M9839.319,4081.082l1.071.7,1.15.6,1.217.489,1.267.369,1.3.246,1.313.12,1.313-.009,1.293-.137,1.257-.263,1.205-.386" transform="translate(-9754.854 -3865.981)" fill="none" stroke="#000" stroke-linecap="round" stroke-linejoin="round" stroke-width="2"/>
      <line id="Line_281" data-name="Line 281" x2="0.523" y2="1.725" transform="translate(106.947 212.402)" fill="none" stroke="#000" stroke-linecap="round" stroke-linejoin="round" stroke-width="2"/>
      <line id="Line_282" data-name="Line 282" x1="1.105" y2="1.189" transform="translate(70.77 203.885)" fill="none" stroke="#000" stroke-linecap="round" stroke-linejoin="round" stroke-width="2"/>
      <line id="Line_283" data-name="Line 283" x2="4.326" y2="6.092" transform="translate(224.478 132.648)" fill="none" stroke="#000" stroke-linecap="round" stroke-linejoin="round" stroke-width="2"/>
      <line id="Line_284" data-name="Line 284" x1="84.072" y2="40.442" transform="translate(36.272 75.19)" fill="none" stroke="#000" stroke-linecap="round" stroke-linejoin="round" stroke-width="2"/>
      <line id="Line_285" data-name="Line 285" x1="20.381" y1="28.217" transform="translate(211.176 109.097)" fill="none" stroke="#000" stroke-linecap="round" stroke-linejoin="round" stroke-width="2"/>
      <line id="Line_286" data-name="Line 286" x1="20.381" y1="28.217" transform="translate(178.005 50.317)" fill="none" stroke="#000" stroke-linecap="round" stroke-linejoin="round" stroke-width="2"/>
      <line id="Line_287" data-name="Line 287" x1="84.072" y2="40.442" transform="translate(28.745 69.208)" fill="none" stroke="#000" stroke-linecap="round" stroke-linejoin="round" stroke-width="2"/>
    </g>
  </g>
</svg>
