<svg xmlns="http://www.w3.org/2000/svg" width="255.142" height="205.898" viewBox="0 0 255.142 205.898">
  <g id="Group_847" data-name="Group 847" transform="translate(17.279 15.576) rotate(3)">
    <ellipse id="Ellipse_115" data-name="Ellipse 115" cx="121.001" cy="79.803" rx="121.001" ry="79.803" transform="matrix(0.999, -0.054, 0.054, 0.999, -11.424, -13.487)" fill="none" stroke="#000" stroke-linecap="round" stroke-miterlimit="10" stroke-width="2"/>
    <path id="Path_2221" data-name="Path 2221" d="M648.174,288.5c26.027,13.12,42.139,33.374,43.847,57.389,3.191,44.936-49.134,85.265-116.882,90.079s-125.254-27.71-128.447-72.646a58.247,58.247,0,0,1,6.489-30.651" transform="translate(-455.213 -291.728)" fill="none" stroke="#000" stroke-linecap="round" stroke-miterlimit="10" stroke-width="2"/>
    <path id="Path_2222" data-name="Path 2222" d="M737.742,323.751c3.43,37.629-39.363,72.291-95.579,77.409s-104.571-21.232-108-58.868a47.068,47.068,0,0,1-.169-5.736c1.143-35.353,42.4-66.806,95.748-71.673C685.957,259.752,734.312,286.108,737.742,323.751Z" transform="translate(-522.369 -273.095)" fill="none" stroke="#000" stroke-linecap="round" stroke-miterlimit="10" stroke-width="2"/>
    <path id="Path_2223" data-name="Path 2223" d="M548,347.464l3.335-6.538a48.327,48.327,0,0,1,5.922-8.974l2.318-2.781a48.651,48.651,0,0,1,5.071-5.226l4.213-3.724a48.367,48.367,0,0,1,6.976-5.143l7.565-4.594q1.692-1.029,3.476-1.917l8.5-4.246a47.9,47.9,0,0,1,6.545-2.693l8.626-2.834a48.323,48.323,0,0,1,5.718-1.495l11.4-2.248q2.148-.429,4.327-.66l10.846-1.133a48.429,48.429,0,0,1,5.02-.257h12.462a48.021,48.021,0,0,1,5.266.289l9.565,1.044a48.68,48.68,0,0,1,5.229.865l10.5,2.334a48.682,48.682,0,0,1,7.032,2.135l6.332,2.464a48.078,48.078,0,0,1,5.347,2.459l7.157,3.845a47.822,47.822,0,0,1,5.31,3.312l4.651,3.335a48.273,48.273,0,0,1,6.441,5.541l1.495,1.534a48.3,48.3,0,0,1,7.416,9.852l.487.853a48.516,48.516,0,0,1,3.708,8.232l1.527,4.517" transform="translate(-533.148 -295.185)" fill="none" stroke="#000" stroke-linecap="round" stroke-miterlimit="10" stroke-width="2"/>
    <path id="Path_2224" data-name="Path 2224" d="M544,363.881l2.549-8.343,5.1-10.429,6.026-7.88,9.966,45.194s2.318,10.893,15.76,4.867,18.541-22.481,17.382-27.58-9.271-46.584-9.271-46.584l11.356-4.635,15.3-4.172L630.911,302l2.781,48.67s1.159,12.283,22.713,14.6,23.64-13.674,23.64-13.674l-1.854-47.743,12.515,2.781,12.283,4.4,10.893,5.794-3.94,46.121s.464,14.138,7.185,21.786,10.2,9.27,12.979,8.343" transform="translate(-530.075 -302.099)" fill="none" stroke="#000" stroke-linecap="round" stroke-miterlimit="10" stroke-width="2"/>
    <line id="Line_849" data-name="Line 849" x1="3.245" y2="30.593" transform="translate(204.665 54.365)" fill="none" stroke="#000" stroke-linecap="round" stroke-miterlimit="10" stroke-width="2"/>
    <path id="Path_2225" data-name="Path 2225" d="M794.5,523.916s19.7-6.953,25.726-7.416" transform="translate(-722.519 -466.886)" fill="none" stroke="#000" stroke-linecap="round" stroke-miterlimit="10" stroke-width="2"/>
    <path id="Path_2226" data-name="Path 2226" d="M1135.5,517.5s21.554,6.258,26.421,9.734" transform="translate(-984.488 -467.655)" fill="none" stroke="#000" stroke-linecap="round" stroke-miterlimit="10" stroke-width="2"/>
    <path id="Path_2227" data-name="Path 2227" d="M621.5,374.663l9.039,46.353s1.391,5.794,12.052,0,14.369-14.6,14.138-19-9.966-45.425-9.966-45.425a3.828,3.828,0,0,1,2.086-2.086" transform="translate(-589.614 -342.432)" fill="none" stroke="#000" stroke-linecap="round" stroke-miterlimit="10" stroke-width="2"/>
    <path id="Path_2228" data-name="Path 2228" d="M632.5,434.5l8.344,41.949s1.622,4.172,2.086,4.4.464,0,.464-1.622" transform="translate(-598.065 -403.891)" fill="none" stroke="#000" stroke-linecap="round" stroke-miterlimit="10" stroke-width="2"/>
    <path id="Path_2229" data-name="Path 2229" d="M650.5,421.5l9.734,45.425s1.391,3.708,1.854,3.476.464-2.318.464-2.318" transform="translate(-611.893 -393.904)" fill="none" stroke="#000" stroke-linecap="round" stroke-miterlimit="10" stroke-width="2"/>
    <path id="Path_2230" data-name="Path 2230" d="M671.5,406.5l9.734,46.584s1.159,2.781,1.622,2.781.927-3.476.7-4.4" transform="translate(-628.026 -382.38)" fill="none" stroke="#000" stroke-linecap="round" stroke-miterlimit="10" stroke-width="2"/>
    <path id="Path_2231" data-name="Path 2231" d="M691.5,391.5l9.734,46.121s.927,3.013,1.622,2.781.464-4.867.464-4.867" transform="translate(-643.391 -370.857)" fill="none" stroke="#000" stroke-linecap="round" stroke-miterlimit="10" stroke-width="2"/>
    <path id="Path_2232" data-name="Path 2232" d="M712.5,377.5l9.039,44.73s.927,2.086,1.391,1.622a3.392,3.392,0,0,0,.7-1.159" transform="translate(-659.523 -360.101)" fill="none" stroke="#000" stroke-linecap="round" stroke-miterlimit="10" stroke-width="2"/>
    <path id="Path_2233" data-name="Path 2233" d="M945.5,304.5l1.622,47.743s1.391,6.953,15.992,8.807,20.163-4.867,20.627-7.88-2.781-47.743-2.781-47.743,1.622-.232,1.854-.232" transform="translate(-838.523 -304.02)" fill="none" stroke="#000" stroke-linecap="round" stroke-miterlimit="10" stroke-width="2"/>
    <path id="Path_2234" data-name="Path 2234" d="M956.5,304.5s2.318,45.425,2.781,46.816.7,2.549,1.159,2.549,1.159-1.159,1.159-1.159" transform="translate(-846.973 -304.02)" fill="none" stroke="#000" stroke-linecap="round" stroke-miterlimit="10" stroke-width="2"/>
    <path id="Path_2235" data-name="Path 2235" d="M986.5,306.5l2.086,47.28s1.159,4.4,1.622,4.4,1.159-1.854,1.159-1.854" transform="translate(-870.021 -305.557)" fill="none" stroke="#000" stroke-linecap="round" stroke-miterlimit="10" stroke-width="2"/>
    <path id="Path_2236" data-name="Path 2236" d="M1013.5,306.5l2.549,48.9s.7,3.476,1.622,3.476,1.391-2.318,1.391-2.318" transform="translate(-890.763 -305.557)" fill="none" stroke="#000" stroke-linecap="round" stroke-miterlimit="10" stroke-width="2"/>
    <path id="Path_2237" data-name="Path 2237" d="M1043.5,306.5l2.086,48.9s.927,3.708,1.854,3.476,1.391-3.476,1.391-3.476" transform="translate(-913.81 -305.557)" fill="none" stroke="#000" stroke-linecap="round" stroke-miterlimit="10" stroke-width="2"/>
    <path id="Path_2238" data-name="Path 2238" d="M1071.5,308.5l2.086,46.121s.464,3.013,1.622,3.013,1.391-2.318,1.391-2.318" transform="translate(-935.321 -307.093)" fill="none" stroke="#000" stroke-linecap="round" stroke-miterlimit="10" stroke-width="2"/>
    <path id="Path_2239" data-name="Path 2239" d="M1274.976,372.5a2.427,2.427,0,0,1,.7,1.391c0,.7-4.172,45.425-4.172,45.425a20.9,20.9,0,0,0,4.867,12.515c4.867,5.562,11.588,14.137,14.6,7.88.7-7.88,2.781-27.348,2.781-27.348" transform="translate(-1088.968 -356.26)" fill="none" stroke="#000" stroke-linecap="round" stroke-miterlimit="10" stroke-width="2"/>
    <path id="Path_2240" data-name="Path 2240" d="M1289.981,396.5c-.232.232-3.708,42.181-3.94,43.8s-.232,4.4.463,4.635.927-1.854.927-1.854" transform="translate(-1100.032 -374.698)" fill="none" stroke="#000" stroke-linecap="round" stroke-miterlimit="10" stroke-width="2"/>
    <path id="Path_2241" data-name="Path 2241" d="M1305.672,411.5l-4.172,44.962s.232,5.331.464,5.1a20.88,20.88,0,0,0,1.159-2.086" transform="translate(-1112.015 -386.222)" fill="none" stroke="#000" stroke-linecap="round" stroke-miterlimit="10" stroke-width="2"/>
    <path id="Path_2242" data-name="Path 2242" d="M1320.48,427.5l-4.172,45.657s-.232,3.94.232,4.4,1.391-2.549,1.391-2.549" transform="translate(-1123.347 -398.513)" fill="none" stroke="#000" stroke-linecap="round" stroke-miterlimit="10" stroke-width="2"/>
    <path id="Path_2243" data-name="Path 2243" d="M1335.9,441.5l-4.4,44.73s.232,4.172.7,4.4.7-2.318.7-2.318" transform="translate(-1135.063 -409.269)" fill="none" stroke="#000" stroke-linecap="round" stroke-miterlimit="10" stroke-width="2"/>
    <line id="Line_850" data-name="Line 850" x1="4.172" y2="41.949" transform="translate(200.377 35.94)" fill="none" stroke="#000" stroke-linecap="round" stroke-miterlimit="10" stroke-width="2"/>
    <path id="Path_2244" data-name="Path 2244" d="M601.5,693.088s3.476-8.343,5.562-11.588" transform="translate(-574.249 -593.646)" fill="none" stroke="#000" stroke-linecap="round" stroke-miterlimit="10" stroke-width="2"/>
    <line id="Line_851" data-name="Line 851" x2="8.112" y2="25.726" transform="translate(15.663 69.545)" fill="none" stroke="#000" stroke-linecap="round" stroke-miterlimit="10" stroke-width="2"/>
    <line id="Line_852" data-name="Line 852" x2="3.013" y2="19.236" transform="translate(14.967 68.618)" fill="none" stroke="#000" stroke-linecap="round" stroke-miterlimit="10" stroke-width="2"/>
    <path id="Path_2245" data-name="Path 2245" d="M719,699.681c6.234-19.327,32.7-33.886,64.863-34.75,27.385-.737,51.238,9,62.205,23.61" transform="translate(-664.517 -580.886)" fill="none" stroke="#000" stroke-linecap="round" stroke-miterlimit="10" stroke-width="2"/>
    <path id="Path_2246" data-name="Path 2246" d="M741,722.849c8.207-17.151,31.983-29.714,60.469-30.479,24.1-.649,45.349,7.5,56.847,20.124" transform="translate(-681.418 -601.969)" fill="none" stroke="#000" stroke-linecap="round" stroke-miterlimit="10" stroke-width="2"/>
    <path id="Path_2247" data-name="Path 2247" d="M804.46,757.14c8.086-14.705,26-25.2,47.048-25.77,17.9-.482,33.909,6.32,43.754,17.12" transform="translate(-730.171 -631.939)" fill="none" stroke="#000" stroke-linecap="round" stroke-miterlimit="10" stroke-width="2"/>
    <path id="Path_2248" data-name="Path 2248" d="M609.64,799.9l2.4,9.817s9.734,25.03,44.035,36.619,66.284,8.343,92.241-6.721,32.215-31.983,32.215-31.983,6.489-15.3,7.88-20.627" transform="translate(-580.503 -674.695)" fill="none" stroke="#000" stroke-linecap="round" stroke-miterlimit="10" stroke-width="2"/>
    <path id="Path_2249" data-name="Path 2249" d="M683.3,879s4.334,20.627,4.566,20.859,6.026,10.429,20.627,15.3,18.541,3.013,18.309-2.318-4.867-23.64-4.867-23.64" transform="translate(-637.091 -745.372)" fill="none" stroke="#000" stroke-linecap="round" stroke-miterlimit="10" stroke-width="2"/>
    <path id="Path_2250" data-name="Path 2250" d="M727,897s4.4,21.09,5.562,21.554.7-1.622.927-1.622" transform="translate(-670.663 -759.201)" fill="none" stroke="#000" stroke-linecap="round" stroke-miterlimit="10" stroke-width="2"/>
    <path id="Path_2251" data-name="Path 2251" d="M752,905s4.635,22.481,5.794,22.944.927-2.549.927-2.549" transform="translate(-689.869 -765.347)" fill="none" stroke="#000" stroke-linecap="round" stroke-miterlimit="10" stroke-width="2"/>
    <path id="Path_2252" data-name="Path 2252" d="M774,910l4.4,20.163s.927,3.476,1.854,3.476.927-2.318.927-2.318" transform="translate(-706.77 -769.188)" fill="none" stroke="#000" stroke-linecap="round" stroke-miterlimit="10" stroke-width="2"/>
    <path id="Path_2253" data-name="Path 2253" d="M798,914l4.4,20.859s1.159,3.013,1.854,3.013.463-2.549.463-2.549" transform="translate(-725.208 -772.261)" fill="none" stroke="#000" stroke-linecap="round" stroke-miterlimit="10" stroke-width="2"/>
    <path id="Path_2254" data-name="Path 2254" d="M821,919l3.94,17.614s.927,3.013,1.391,3.013" transform="translate(-742.877 -776.102)" fill="none" stroke="#000" stroke-linecap="round" stroke-miterlimit="10" stroke-width="2"/>
    <path id="Path_2255" data-name="Path 2255" d="M736.215,910.627s2.318,8.575,2.318,8.807.7,2.086-1.159,2.781-9.5.232-15.992-2.781-12.979-7.88-14.138-11.125S704,890,704,890c.232,0,3.013,16.455,3.94,16.919s1.159.232,1.159.232" transform="translate(-652.993 -753.823)" fill="none" stroke="#000" stroke-linecap="round" stroke-miterlimit="10" stroke-width="2"/>
    <path id="Path_2256" data-name="Path 2256" d="M1021,890.844l.464,24.335s1.159,9.966,20.859,3.94,22.713-13.674,22.713-15.992V880.54" transform="translate(-896.525 -746.556)" fill="none" stroke="#000" stroke-linecap="round" stroke-miterlimit="10" stroke-width="2"/>
    <path id="Path_2257" data-name="Path 2257" d="M1043.232,895.941l-.232,23.64s.464,5.794,16.455,1.854,18.078-11.356,18.078-11.356l-.593-22" transform="translate(-913.426 -752.348)" fill="none" stroke="#000" stroke-linecap="round" stroke-miterlimit="10" stroke-width="2"/>
    <path id="Path_2258" data-name="Path 2258" d="M1055,921l.232,19.468s-.232,3.94,1.391,3.94a1.224,1.224,0,0,0,.927-1.159" transform="translate(-922.645 -777.638)" fill="none" stroke="#000" stroke-linecap="round" stroke-miterlimit="10" stroke-width="2"/>
    <path id="Path_2259" data-name="Path 2259" d="M1083,916v22.249s.464,2.781,1.391,2.781,1.391-1.854,1.391-1.854" transform="translate(-944.155 -773.797)" fill="none" stroke="#000" stroke-linecap="round" stroke-miterlimit="10" stroke-width="2"/>
    <path id="Path_2260" data-name="Path 2260" d="M1110,911v22.018s.7,2.781,1.391,2.781,1.391-2.318,1.391-2.318" transform="translate(-964.898 -769.956)" fill="none" stroke="#000" stroke-linecap="round" stroke-miterlimit="10" stroke-width="2"/>
    <path id="Path_2261" data-name="Path 2261" d="M1136,905l.464,22.017s.464,2.086,1.159,1.854,1.159-1.622,1.159-1.622" transform="translate(-984.872 -765.347)" fill="none" stroke="#000" stroke-linecap="round" stroke-miterlimit="10" stroke-width="2"/>
    <path id="Path_2262" data-name="Path 2262" d="M1163.34,896.19l.385,20.583s.232,1.854,1.391,1.622" transform="translate(-1005.876 -758.579)" fill="none" stroke="#000" stroke-linecap="round" stroke-miterlimit="10" stroke-width="2"/>
    <path id="Path_2263" data-name="Path 2263" d="M1176.2,892.33s.186,17.537.649,18.233.7,1.622,1.159,1.391" transform="translate(-1015.755 -755.613)" fill="none" stroke="#000" stroke-linecap="round" stroke-miterlimit="10" stroke-width="2"/>
    <path id="Path_2264" data-name="Path 2264" d="M1320.988,823l-2.253,17.846s-.431,3.85.711,4.012" transform="translate(-1125.195 -702.351)" fill="none" stroke="#000" stroke-linecap="round" stroke-miterlimit="10" stroke-width="2"/>
    <path id="Path_2265" data-name="Path 2265" d="M1328.793,819l-1.622,13.442s-.7,3.708.232,3.94,3.245-3.94,3.477-4.4,4.012-7.831,4.012-7.831" transform="translate(-1131.544 -699.278)" fill="none" stroke="#000" stroke-linecap="round" stroke-miterlimit="10" stroke-width="2"/>
    <path id="Path_2266" data-name="Path 2266" d="M1336.245,816.54s-1.089,12.622-.626,13.317" transform="translate(-1138.139 -697.388)" fill="none" stroke="#000" stroke-linecap="round" stroke-miterlimit="10" stroke-width="2"/>
    <path id="Path_2267" data-name="Path 2267" d="M1340.614,815s-1.391,12.283-.927,12.283a.464.464,0,0,0,.464-.464" transform="translate(-1141.279 -696.205)" fill="none" stroke="#000" stroke-linecap="round" stroke-miterlimit="10" stroke-width="2"/>
    <path id="Path_2268" data-name="Path 2268" d="M1345.723,810.15,1345,820.313s.464,2.086.464,1.391v-1.159" transform="translate(-1145.434 -692.479)" fill="none" stroke="#000" stroke-linecap="round" stroke-miterlimit="10" stroke-width="2"/>
    <path id="Path_2269" data-name="Path 2269" d="M1353.338,805.67c-.107.308-.339,8.188-.339,8.188s0,.927.232.927,0-.927,0-.927" transform="translate(-1151.58 -689.038)" fill="none" stroke="#000" stroke-linecap="round" stroke-miterlimit="10" stroke-width="2"/>
    <path id="Path_2270" data-name="Path 2270" d="M1360.037,801.52l-.037,6.369s.464,0,.232-.464" transform="translate(-1156.957 -685.85)" fill="none" stroke="#000" stroke-linecap="round" stroke-miterlimit="10" stroke-width="2"/>
    <path id="Path_2271" data-name="Path 2271" d="M1365.244,797.354c.065-.083-.4,2.7.065,2.93s.232-.927.232-.927" transform="translate(-1160.876 -682.648)" fill="none" stroke="#000" stroke-linecap="round" stroke-miterlimit="10" stroke-width="2"/>
  </g>
</svg>
