<svg xmlns="http://www.w3.org/2000/svg" width="501.36" height="208.433" viewBox="0 0 501.36 208.433">
  <g id="Group_761" data-name="Group 761" transform="translate(-91.009 -783.221)">
    <path id="Path_2163" data-name="Path 2163" d="M329.316,915.487a1.675,1.675,0,0,0,1.674-1.587" transform="translate(135.895 74.166)" fill="none" stroke="#fff" stroke-linecap="round" stroke-miterlimit="10" stroke-width="4"/>
    <path id="Path_2164" data-name="Path 2164" d="M170.276,913.9a1.674,1.674,0,0,0,1.673,1.587" transform="translate(44.231 74.166)" fill="none" stroke="#fff" stroke-linecap="round" stroke-miterlimit="10" stroke-width="4"/>
    <path id="Path_2165" data-name="Path 2165" d="M330.637,910.288a38.54,38.54,0,0,0,14.2-3.645" transform="translate(136.657 69.983)" fill="none" stroke="#fff" stroke-linecap="round" stroke-miterlimit="10" stroke-width="4"/>
    <path id="Path_2166" data-name="Path 2166" d="M161.006,906.643a38.555,38.555,0,0,0,14.2,3.645" transform="translate(38.888 69.983)" fill="none" stroke="#fff" stroke-linecap="round" stroke-miterlimit="10" stroke-width="4"/>
    <path id="Path_2167" data-name="Path 2167" d="M132.462,868.517a80.433,80.433,0,0,0,45,60.1" transform="translate(22.436 48.009)" fill="none" stroke="#fff" stroke-linecap="round" stroke-miterlimit="10" stroke-width="4"/>
    <path id="Path_2168" data-name="Path 2168" d="M381.74,785.221a.839.839,0,0,0-.839.839c0,.035,0,.068.006.1" transform="translate(165.627)" fill="none" stroke="#fff" stroke-linecap="round" stroke-miterlimit="10" stroke-width="4"/>
    <path id="Path_2169" data-name="Path 2169" d="M120.052,786.162a.835.835,0,0,0-.728-.933.762.762,0,0,0-.1-.008" transform="translate(14.804)" fill="none" stroke="#fff" stroke-linecap="round" stroke-miterlimit="10" stroke-width="4"/>
    <path id="Path_2170" data-name="Path 2170" d="M406.02,786.141a1.339,1.339,0,0,0-1.272-.919" transform="translate(179.372 0.001)" fill="none" stroke="#fff" stroke-linecap="round" stroke-miterlimit="10" stroke-width="4"/>
    <path id="Path_2171" data-name="Path 2171" d="M96.372,785.222a1.341,1.341,0,0,0-1.274.919" transform="translate(0.901 0.001)" fill="none" stroke="#fff" stroke-linecap="round" stroke-miterlimit="10" stroke-width="4"/>
    <path id="Path_2172" data-name="Path 2172" d="M248.287,842.513l-.377-11.664-.358-11.665-.34-11.665-.323-11.668m.454,109.515h-.069m.069,0,.019-.042.016-.043m-.637-1.338.063.173.066.173.069.172.076.17.08.167.087.165.093.161.1.156m-6.2-109.43.892,25.3.891,25.3.446,12.649.446,12.65.222,6.324.224,6.326.112,3.162.11,3.162.028.79.028.791.013.4.014.4.008.2.006.2.008.2.008.2.088,1.58.136,1.573m0,0,.325,1.758.426,1.739.249.862.271.854.295.848.315.842" transform="translate(85.096 6.127)" fill="none" stroke="#fff" stroke-linecap="round" stroke-linejoin="round" stroke-width="4"/>
    <path id="Path_2173" data-name="Path 2173" d="M253.656,915.227l.107.03.106.035M251,915.227l.106.287.117.284.061.139.066.137.071.137.074.132.08.132.088.126.1.123.1.114.057.054.06.049.063.046.066.039.069.033.073.025.038.009.038.006.038,0h.038l.076,0,.073-.016.036-.011.035-.014.033-.016.033-.017.063-.039.06-.046.027-.024.028-.025.027-.027.025-.027.1-.114.085-.121.039-.063.038-.065.036-.065.033-.066.065-.134.06-.136.055-.139.05-.139.095-.282.082-.289m-8.612-119.376.99,28.061.988,28.059.495,14.03.493,14.03.247,7.015.247,7.015.123,3.507.125,3.507.061,1.753.061,1.755.008.219.008.219.009.219.009.219.022.438.027.437.014.219.014.219.016.219.017.217.032.437.033.437m0,0,.323,1.819.432,1.8.255.891.279.886.3.878.325.87m-12.959,3.093.106.287.115.284.063.139.066.139.069.136.076.132.08.132.088.128.095.121.106.114.057.054.06.05.063.044.065.039.071.033.072.025.036.009.038.006.038,0,.038,0,.076-.006.072-.016.036-.011.035-.014.035-.016.033-.017.061-.039.06-.044.028-.025.027-.025.027-.027.025-.027.1-.114.085-.121.039-.063.038-.065.036-.065.035-.066.065-.134.06-.136.054-.137.052-.14.093-.282.084-.288m-8.72-122.469,1.01,28.685L234,853.22l.506,14.342.5,14.342.254,7.171.252,7.171.126,3.586.126,3.585.065,1.794.063,1.792.016.448.016.449.008.224.009.224.009.224.01.224.041.894.043.892m0,0,.317,1.972.441,1.948.563,1.922.678,1.9m-10.417,0,.285-.941.257-.951.23-.958.2-.965.169-.973.137-.98.106-.984.073-.988m-4.108,7.74.106.287.115.284.063.139.066.139.069.136.076.134.08.131.088.128.095.121.106.115.057.052.06.05.063.044.066.039.069.033.072.025.036.009.038.006.038,0,.038,0,.076-.006.074-.016.035-.011.036-.014.033-.016.033-.017.063-.039.058-.046.028-.024.028-.025.025-.027.027-.027.095-.114.085-.121.041-.063.038-.065.035-.065.035-.066.065-.134.06-.136.055-.139.05-.139.095-.284.082-.287m-8.72-122.469,1,28.483,1,28.483.5,14.241.5,14.241.252,7.12.251,7.12.125,3.561.126,3.559.063,1.781.061,1.78.008.222.008.222.008.224.008.222.006.222.006.222,0,.222,0,.222.017.888.019.884m0,0,.3,2.18.452,2.15.6,2.122.741,2.1m50.433-122.469.109,5.85.115,5.848.121,5.848.128,5.848.134,5.848.142,5.848.147,5.848.153,5.848m0,0,.235,8.47.247,8.47.26,8.47.266,8.468.266,8.47.257,8.468.123,4.236.117,4.234.057,2.119.054,2.117.013.53.013.53,0,.132,0,.133,0,.132,0,.132,0,.263,0,.266-.008,1.059-.036,1.061m75.929-67.894.539-5.831.534-5.831.528-5.831.523-5.833.517-5.831.511-5.833.5-5.832.5-5.833M211.8,915.227l.106.287.117.284.061.139.066.137.071.137.074.132.08.132.088.126.1.123.1.114.057.054.06.049.063.046.066.039.069.033.073.025.038.009.036.006.038,0h.039l.074,0,.074-.016.035-.011.036-.014.033-.016.033-.017.063-.039.058-.046.028-.024.028-.025.027-.027.025-.027.095-.114.085-.121.041-.063.038-.065.036-.065.033-.066.065-.134.06-.136.055-.139.05-.139.093-.282.084-.289" transform="translate(68.161 6.127)" fill="none" stroke="#fff" stroke-linecap="round" stroke-linejoin="round" stroke-width="4"/>
    <path id="Path_2174" data-name="Path 2174" d="M212.685,795.851l.958,27.189.958,27.189.479,13.595.479,13.595.24,6.8.24,6.8.12,3.4.12,3.4.03.85.03.85.014.426.016.424.006.213.008.213.008.211.008.213.035,1.7-.009,1.691m0,0,.006.169.006.169.006.169.008.169.019.336.022.336.057.672.073.672.191,1.34.251,1.335.148.667.164.667.087.333.091.331.095.333.1.329.424,1.31.475,1.3M199.916,795.851l.482,11.634.468,11.634.454,11.63.438,11.63m73.722,67.372,0-1.055-.025-1.051-.009-.262-.009-.263-.009-.263-.009-.262-.021-.525-.021-.526-.082-2.1-.087-2.1-.184-4.2-.2-4.2-.208-4.2-.219-4.2-.225-4.2-.23-4.2-.471-8.4-.476-8.405-.468-8.405-.452-8.407m-70.311-.134.12,8.424.106,8.421.1,8.421.11,8.421.061,4.209.066,4.211.074,4.209.085,4.21.095,4.209.11,4.211.06,2.1.065,2.1.017.527.016.527.009.263.009.263.008.263.009.263.044,1.053.063,1.056m151.734.651.039-1.062.066-1.063.02-.266.022-.265.013-.132.011-.132.013-.132.013-.133.047-.531.049-.53.2-2.122.2-2.122.4-4.244.4-4.243.82-8.486.828-8.486.826-8.486.821-8.486.81-8.487.8-8.487" transform="translate(61.314 6.127)" fill="none" stroke="#fff" stroke-linecap="round" stroke-linejoin="round" stroke-width="4"/>
    <path id="Path_2175" data-name="Path 2175" d="M270,905.55l.009.629.009.63,0,.158,0,.158,0,.079,0,.079,0,.079v.079l0,.314-.016.314-.068.621-.112.618-.036.153-.038.153-.043.153-.044.151-.1.3-.107.295-.246.571-.287.55-.158.266-.17.262-.088.128-.091.128-.095.125-.1.125-.1.12-.1.118-.052.058-.05.058-.054.057-.052.057-.213.227-.214.222-.437.437-.448.427-.924.82-.965.776-.247.188-.249.184-.252.181-.254.177-.511.347-.519.333-1.058.626-1.083.574-1.11.522-1.137.471-.288.109-.29.106-.292.1-.293.1-.295.1-.295.1-.295.1-.3.093-1.187.358-1.192.329-2.4.582-2.415.476-2.432.37-2.451.266-2.467.164-2.486.057-.624,0-.626-.008-.626-.016-.627-.022-1.25-.065-1.245-.091-2.478-.26-2.461-.364-2.443-.467-2.424-.571-1.207-.325-1.2-.35-.6-.184-.6-.192-.15-.049-.15-.049-.148-.049-.15-.05-.3-.1-.3-.107-.593-.225-.59-.238-.295-.126-.293-.128-.292-.132-.292-.137-1.146-.575-1.118-.626-1.091-.678-1.064-.73-1.029-.777-.992-.821-.482-.427-.473-.437-.232-.224-.23-.225-.057-.057-.057-.057-.057-.058-.057-.057-.112-.118-.109-.12-.107-.121-.106-.125-.1-.128-.1-.128-.194-.263-.183-.268-.336-.553-.293-.575-.132-.3-.121-.3-.057-.153-.054-.155-.052-.154-.049-.154-.162-.624-.117-.632-.041-.318-.03-.32,0-.08,0-.08,0-.08,0-.081-.009-.161-.009-.161-.035-.643M373.42,795.851l-1.064,11.634-1.08,11.634-1.1,11.63-1.114,11.63m-1.3,54.66-2.61,8.241.006.043.009.042m-.016-.085.095-.156.088-.161.082-.164.079-.167.074-.17.069-.172.068-.175.065-.173,1.991-6.9.235-1.573.189-1.58.021-.2.019-.2.019-.2.021-.2.038-.4.039-.4.079-.791.077-.79.314-3.162.312-3.162.624-6.326.624-6.324,1.249-12.65,1.25-12.649,2.5-25.3,2.5-25.3m-173,121.248.011.014.011.014.013.014.011.016.024.028.024.03.046.057.047.058.1.114.095.115.194.225.2.222.4.437.411.424.854.817.894.776.23.188.232.184.233.183.236.18.476.352.482.341.981.649,1,.612,1.021.575,1.04.541,1.056.507,1.072.479.271.115.271.114.271.11.271.11.273.107.271.106.273.1.274.1,1.1.391,1.1.361,2.221.646,2.24.547,2.259.454,2.278.367,1.146.151,1.149.129.575.058.577.052.577.047.575.041,2.3.117,2.289.038,2.279-.039,2.272-.118,2.262-.2,2.253-.279,2.245-.366,2.234-.457.558-.128.556-.136.555-.142.555-.148,1.1-.314,1.089-.339,1.078-.362,1.067-.391.265-.1.265-.1.263-.106.263-.107.523-.219.519-.227,1.029-.474,1.015-.508,1-.541.984-.578.243-.15.243-.154.24-.154.24-.158.471-.323.465-.331.9-.689.87-.728.832-.769.8-.812.383-.424.372-.435.181-.222.18-.225.088-.115.087-.115.044-.057.044-.058.021-.03.022-.028.011-.014.011-.016.011-.014.009-.014m-69.954-7.351.112,1,.2.987.063.244.068.244.074.243.077.24.17.473.186.467.424.908.489.878.131.214.136.214.139.211.142.21.145.208.15.2.074.1.077.1.038.051.038.05.039.05.039.051m66.945,0,.019-.025.017-.025.017-.025.019-.025.035-.05.035-.051.069-.1.069-.1.136-.2.131-.207.254-.421.24-.427.224-.437.208-.446.1-.225.095-.229.091-.232.085-.232.295-.944.216-.96.136-.981.049-1m98.222-5.153M383.43,795.851l-2.685,27.189-2.685,27.189-1.343,13.595-1.341,13.595-.672,6.8-.672,6.8-.336,3.4-.336,3.4-.083.85-.084.85-.043.426-.043.424-.531,4.239m0,0-.017.169-.016.169-.016.169-.016.169-.027.336-.025.336-.039.672-.027.672-.017,1.34.031,1.335.035.667.047.667.028.333.03.331.035.333.036.329.175,1.31.218,1.3m0,0,.043.287.052.284.03.139.033.137.038.137.041.132.044.132.052.126.06.123.068.114.038.054.039.049.044.046.047.039.052.033.054.025.028.009.03.006.03,0h.03l.061,0,.06-.016.032-.011.03-.014.028-.016.03-.017.055-.039.055-.046.025-.024.027-.025.024-.027.025-.027.093-.114.085-.121.041-.063.041-.065.038-.065.036-.066.073-.134.066-.136.065-.139.061-.139.115-.282.107-.289m18.771-119.376L391.1,824.334l-2.812,28.483-1.408,14.241L385.473,881.3l-.7,7.12-.7,7.12-.352,3.561-.352,3.559-.177,1.781-.175,1.78-.022.222-.022.222-.022.224-.022.222-.024.222-.025.222-.025.222-.027.222-.11.888-.118.884m0,0-.039,2.18.09,2.15.213,2.122.329,2.1" transform="translate(62.438 6.127)" fill="none" stroke="#fff" stroke-linecap="round" stroke-linejoin="round" stroke-width="4"/>
    <path id="Path_2176" data-name="Path 2176" d="M388.553,918.32l.044.287.052.284.03.139.033.139.036.136.041.134.046.131.052.128.06.121.066.115.039.052.039.05.044.044.047.039.05.033.055.025.028.009.03.006.028,0,.032,0,.061-.006.06-.016.03-.011.032-.014.028-.016.03-.017.055-.039.054-.046.027-.024.025-.025.025-.027.025-.027.093-.114.085-.121.041-.063.041-.065.038-.065.038-.066.069-.134.068-.136.065-.139.061-.139.115-.284.107-.287m19.077-122.469-2.833,28.685-2.833,28.684-1.417,14.342L401.26,881.9l-.708,7.171-.708,7.171-.355,3.586-.355,3.585-.177,1.794L398.782,907l-.044.448-.046.449-.021.224-.022.224-.022.224-.022.224-.093.894-.1.892m0,0,0,1.972.107,1.948.208,1.922.3,1.9m0,0,.044.287.052.284.03.139.033.139.036.136.041.132.046.132.052.128.058.121.068.114.038.054.041.05.044.044.047.039.05.033.055.025.028.009.028.006.03,0,.03,0,.061-.006.061-.016.03-.011.03-.014.03-.016.028-.017.057-.039.054-.044.027-.025.025-.025.025-.027.025-.027.091-.114.087-.121.041-.063.039-.065.039-.065.036-.066.071-.134.068-.136.063-.137.061-.14.117-.282.107-.288m19.076-122.469-2.77,28.061L414.7,851.971,413.311,866l-1.386,14.03-.694,7.015-.692,7.015-.347,3.507-.345,3.507-.173,1.753-.173,1.755-.022.219-.02.219-.022.219-.02.219-.039.438-.039.437-.017.219-.019.219-.017.219-.019.217-.038.437-.039.437m0,0,.028,1.819.118,1.8.091.891.112.886.132.878.15.87m0,0,.044.287.052.284.03.139.033.137.038.137.039.132.046.132.052.126.06.123.068.114.038.054.041.049.043.046.047.039.052.033.054.025.028.009.03.006.028,0h.032l.061,0,.06-.016.03-.011.032-.014.028-.016.03-.017.055-.039.054-.046.027-.024.025-.025.025-.027.025-.027.093-.114.085-.121.041-.063.041-.065.038-.065.038-.066.069-.134.068-.136.065-.139.061-.139.115-.282.107-.289m18.771-119.376-2.5,25.3-2.5,25.3L424.473,859.1l-1.25,12.65-.624,6.324-.624,6.326-.312,3.162-.312,3.162-.079.79-.077.791-.039.4-.039.4-.019.2-.021.2-.019.2-.019.2-.14,1.58-.118,1.573m0,0,.039,1.758.12,1.739.091.862.11.854.128.848.147.842m.208,1.422.052-.044.058-.039m-.052.085h-.058M197.814,910.4l-.106-1.062-.079-1.063-.016-.266-.014-.265-.006-.132-.006-.132-.006-.132-.006-.133-.025-.531-.025-.53-.1-2.122-.1-2.122-.188-4.244-.183-4.243-.353-8.486-.345-8.486-.347-8.486-.35-8.486-.363-8.487-.374-8.487m0,0-.263-5.831-.27-5.831-.276-5.831-.281-5.833-.287-5.831-.293-5.833-.3-5.832-.3-5.833M421.682,905.366l.025-.042.027-.043m-.318-1.338.025.173.028.173.031.172.036.17.039.167.046.165.052.161.06.156m9.064-62.768,1.17-11.664,1.177-11.665,1.187-11.665,1.193-11.668m-61.1,46.528-.938,8.424-.952,8.421-.962,8.421-.96,8.421-.478,4.209-.474,4.211-.468,4.209-.462,4.21-.452,4.209-.443,4.211-.216,2.1-.214,2.1-.052.527-.054.527-.025.263-.027.263-.025.263-.027.263-.091,1.053-.071,1.056" transform="translate(57.072 6.127)" fill="none" stroke="#fff" stroke-linecap="round" stroke-linejoin="round" stroke-width="4"/>
    <path id="Path_2177" data-name="Path 2177" d="M447.9,905.366l0,.028,0,.028-.006.063-.008.065m-51.14,0,.006-.065,0-.065,0-.027,0-.027m51.065.181.008-.063.008-.063,0-.028,0-.028m.038.186-.03,0h-.03m.06,0-.073.629-.073.63-.017.158-.019.158-.008.079-.009.079-.009.079-.009.079-.043.314-.054.314-.132.621-.169.618-.049.153-.05.153-.052.153-.055.151-.115.3-.123.295-.27.571-.3.55-.162.266-.169.262-.087.128-.09.128-.091.125-.095.125-.095.12-.095.118-.049.058-.049.058-.049.057-.051.057-.2.227-.2.222-.407.437-.413.427-.845.82-.872.776-.222.188-.224.184-.225.181-.225.177-.454.347-.459.333-.927.626-.941.574-.957.522-.971.471-.246.109-.246.106-.247.1-.247.1-.247.1-.249.1-.249.1-.249.093-1,.358-1,.329-2,.582-2,.476-2,.37-2,.266-2,.164-2,.057-.5,0-.5-.008-.5-.016-.5-.022-.995-.065-.987-.091-1.955-.26-1.926-.364-1.9-.467-1.873-.571-.927-.325-.919-.35-.457-.184-.456-.192-.114-.049-.113-.049-.113-.049-.114-.05-.225-.1-.225-.107-.446-.225-.443-.238-.221-.126-.219-.128-.217-.132-.216-.137-.846-.575-.817-.626-.788-.678-.76-.73-.728-.777-.691-.821-.333-.427-.323-.437-.158-.224-.156-.225-.038-.057-.039-.057-.038-.058-.038-.057-.074-.118-.072-.12-.071-.121-.068-.125-.066-.128-.065-.128-.123-.263-.112-.268-.2-.553-.162-.575-.069-.3-.058-.3-.027-.153-.024-.155-.021-.154-.019-.154-.052-.624-.014-.632.008-.318.017-.32.006-.08.006-.08.006-.08.008-.081.013-.161.014-.161.052-.643.054-.645M152.2,795.851l.793,5.85.8,5.848.8,5.848.806,5.848.81,5.848.813,5.848.818,5.848.823,5.848m292.726,67.112.118-1.055.106-1.051.027-.262.025-.263.025-.263.025-.262.05-.525.05-.526.2-2.1.194-2.1.381-4.2.37-4.2.359-4.2.353-4.2.345-4.2.339-4.2.67-8.4.659-8.405.66-8.405.668-8.407m-303.467,0-1.639-11.664-1.624-11.665-1.611-11.665-1.6-11.668" transform="translate(30.858 6.127)" fill="none" stroke="#fff" stroke-linecap="round" stroke-linejoin="round" stroke-width="4"/>
    <path id="Path_2178" data-name="Path 2178" d="M163.74,842.639l1.2,8.47,1.209,8.47,1.215,8.47,1.22,8.468,1.22,8.47,1.215,8.468.605,4.236.6,4.234.3,2.119.3,2.117.074.53.074.53.019.132.019.133.017.132.019.132.035.263.035.266.128,1.059.107,1.061m-6.782-5.033h-.027m.027,0,0-.042,0-.043M399.9,917.1l.008.014.008.014.008.014.008.016.014.028.016.03.032.057.032.058.061.114.065.115.128.225.132.222.27.437.279.424.586.817.621.776.161.188.162.184.164.183.167.18.336.352.344.341.7.649.724.612.744.575.763.541.782.507.8.479.2.115.2.114.2.11.2.11.2.107.207.106.2.1.206.1.831.391.839.361,1.7.646,1.725.547,1.75.454,1.777.367.9.151.9.129.454.058.456.052.456.047.456.041,1.825.117,1.83.038,1.833-.039,1.838-.118,1.843-.2,1.846-.279,1.851-.366,1.852-.457.465-.128.463-.136.465-.142.463-.148.922-.314.917-.339.911-.362.9-.391.224-.1.225-.1.224-.106.224-.107.448-.219.445-.227.886-.474.88-.508.873-.541.864-.578.214-.15.214-.154.213-.154.213-.158.419-.323.416-.331.812-.689.79-.728.765-.769.736-.812.358-.424.35-.435.172-.222.17-.225.084-.115.084-.115.043-.057.041-.058.02-.03.021-.028.011-.014.01-.016.011-.014.009-.014m-55.253-7.351-.022,1,.047.987.022.244.027.244.03.243.035.24.082.473.095.467.235.908.288.878.08.214.084.214.087.211.09.21.093.208.1.2.049.1.049.1.025.051.025.05.025.05.025.051m53.686,0,.017-.025.017-.025.017-.025.017-.025.035-.05.033-.051.068-.1.066-.1.132-.2.129-.207.251-.421.243-.427.23-.437.219-.446.106-.225.1-.229.1-.232.1-.232.345-.944.285-.96.219-.981.151-1m-289.93-4.387.014-.044,0-.039m-.478-1.338.054.173.054.173.057.172.057.17.06.167.063.165.065.161.069.156m-16.714-109.43,3.61,25.3,3.61,25.3,1.8,12.649,1.8,12.65.9,6.324.9,6.326.452,3.162.451,3.162.112.79.113.791.057.4.057.4.028.2.027.2.028.2.03.2.251,1.58.287,1.573m0,0,.367,1.758.41,1.739.219.862.229.854.238.848.246.842m-4.206,11.285.088.287.091.284.049.139.049.137.05.137.054.132.055.132.057.126.06.123.065.114.032.054.035.049.035.046.035.039.036.033.036.025.017.009.017.006.017,0h.017l.033,0,.03-.016.014-.011.014-.014.013-.016.013-.017.02-.039.02-.046.009-.024.008-.025.008-.027.008-.027.027-.114L163,916.6l.009-.063.008-.065.006-.065,0-.066.009-.134.008-.136,0-.139,0-.139,0-.282,0-.289m-1.181,0-1.294-5.07-.928-5.171-7.787-54.567-7.787-54.569M156.5,918.32l.088.287.093.284.047.139.049.139.052.136.052.132.055.132.057.128.061.121.063.114.033.054.033.05.035.044.035.039.036.033.036.025.017.009.017.006.017,0,.017,0,.033-.006.03-.016.014-.011.014-.014.013-.016.013-.017.022-.039.019-.044.009-.025.008-.025.009-.027.006-.027.027-.114.02-.121.008-.063.008-.065.006-.065.006-.066.009-.134.006-.136,0-.137,0-.14v-.282l0-.288m-1.181,0-.265-.924-.252-.928-.241-.93-.229-.935-.419-1.878-.37-1.891-.165-.951-.154-.954-.036-.238-.036-.24-.035-.24-.035-.24-.068-.479-.068-.479-.274-1.917-.273-1.915-1.094-7.668-1.094-7.666L149.2,872.516l-2.188-15.333-4.376-30.665-4.376-30.667m13.6,122.469.008-.941,0-.951-.02-.958-.033-.965-.047-.973-.063-.98-.077-.984-.095-.988m-.848,7.74.088.287.091.284.047.139.05.139.05.136.052.134.055.131.058.128.06.121.063.115.033.052.033.05.035.044.036.039.035.033.036.025.017.009.019.006.017,0,.017,0,.032-.006.032-.016.014-.011.013-.014.013-.016.013-.017.022-.039.02-.046.008-.024.009-.025.008-.027.008-.027.025-.114.021-.121.008-.063.008-.065.006-.065.006-.066.009-.134.006-.136,0-.139,0-.139v-.284l0-.287" transform="translate(25.778 6.127)" fill="none" stroke="#fff" stroke-linecap="round" stroke-linejoin="round" stroke-width="4"/>
    <path id="Path_2179" data-name="Path 2179" d="M156.082,918.32l-.266-.924-.252-.928-.241-.93-.229-.935-.419-1.878-.369-1.891-.167-.951-.154-.954-.036-.238-.035-.24-.036-.24-.033-.24-.069-.479-.068-.479-.274-1.917-.273-1.915-1.094-7.668-1.094-7.666-2.188-15.333L146.6,857.183l-4.376-30.665-4.376-30.667m11.98,119.376.088.287.091.284.049.139.049.137.05.137.054.132.054.132.058.126.06.123.063.114.033.054.035.049.035.046.035.039.036.033.035.025.019.009.017.006.017,0h.017l.033,0,.03-.016.014-.011.014-.014.013-.016.011-.017.022-.039.02-.046.009-.024.008-.025.008-.027.008-.027.025-.114.021-.121.009-.063.006-.065.008-.065,0-.066.009-.134.008-.136,0-.139,0-.139,0-.282,0-.289m-1.181,0-1.294-5.07-.928-5.171-7.787-54.567-7.787-54.569m11.552,108.091,0-1.69-.039-1.715-.036-.867-.047-.872-.03-.438-.032-.438-.035-.441-.038-.441m0,0-.222-1.573-.224-1.58-.028-.2-.028-.2-.028-.2-.028-.2-.055-.4-.057-.4-.113-.791-.112-.79-.451-3.162-.452-3.162-.9-6.326-.9-6.324-1.8-12.65-1.8-12.649-3.61-25.3-3.61-25.3m14.723,109.513h-.035m-.046-.085.044.041.036.043m-.08-.084.017-.156.013-.161.009-.164,0-.167,0-.17v-.347m-.047,1.165.025.043.02.042m.035,0,0,.025,0,.027.011.066.009.065m28.318,0-.008-.063-.009-.063,0-.028,0-.028" transform="translate(20.378 6.127)" fill="none" stroke="#fff" stroke-linecap="round" stroke-linejoin="round" stroke-width="4"/>
    <path id="Path_2180" data-name="Path 2180" d="M120.953,795.851h4.493m0,0h5.194m.147,0h-.032m.112,0h1.1m1.5,0h-1.5m1.5,0h.177m.05,0h-.05m.132,0h1.1m1.5,0h-1.5m1.5,0h.178m.05,0h-.05m.132,0h1.1m1.5,0h-1.5m1.5,0h.178m.05,0h-.05" transform="translate(15.803 6.127)" fill="none" stroke="#fff" stroke-linecap="round" stroke-linejoin="round" stroke-width="4"/>
    <path id="Path_2181" data-name="Path 2181" d="M132.776,795.851h1.1m1.5,0h-1.5m1.5,0h.177m.052,0h-.052m.132,0h1.1m1.5,0h-1.5m1.5,0h.177m.052,0h-.052m.132,0h1.1m1.5,0h-1.5m1.5,0h.177m.052,0h-.052m.132,0h1.1m1.5,0h-1.5m1.5,0h.177m.052,0h-.052m.132,0h1.1m1.5,0h-1.5m1.5,0h.177m.05,0h-.05m.132,0h1.1m1.5,0h-1.5m1.5,0h.178m.05,0h-.05m.132,0h1.1m1.5,0h-1.5m1.5,0H153m.05,0H153m.132,0h1.1m.914,0h-.914m.914,0h.167m0,0h5.123m0,0h66.575m0,0h11.6m0,0h.311m.952,0h-.952m.952,0h2.653m1.92,0h-1.92m1.92,0h.4m1.562,0h-1.562m1.562,0h2.653m1.922,0h-1.922m1.922,0h.4m1.564,0h-1.564m1.564,0H255.6m1.92,0H255.6m1.92,0h.4m1.562,0h-1.562m1.562,0h2.653m1.92,0h-1.92m1.92,0h.4m1.564,0h-1.564m1.564,0h2.651m1.922,0h-1.922m1.922,0h.4m1.564,0h-1.564m1.564,0H275.2m1.92,0H275.2m1.92,0h.4m1.562,0h-1.562m1.562,0h2.653m1.922,0h-1.922m1.922,0h.4m1.564,0h-1.564m1.564,0h2.651m1.922,0H288.27m1.922,0h.4m1.564,0h-1.564m1.564,0h2.653m1.92,0h-1.92m1.92,0h.4m1.562,0h-1.562m1.562,0h2.653m1.922,0H301.34m1.922,0h.4m1.564,0h-1.564m1.564,0h2.653m1.17,0h-1.17m1.17,0h.323m0,0h11.583m0,0h83.018m0,0h9.272m0,0h.271m1.157,0h-1.157m1.157,0H416.8m.9,0h-.9m.9,0h.318m1.9,0h-1.9m1.9,0h2.128m.9,0h-.9m.9,0h.318m1.9,0h-1.9m1.9,0h2.128m.9,0h-.9m.9,0h.32m1.9,0h-1.9m1.9,0h2.127m.9,0h-.9m.9,0h.318m1.9,0h-1.9m1.9,0h2.128m.9,0h-.9m.9,0h.318m1.9,0h-1.9m1.9,0H443m.9,0H443" transform="translate(22.617 6.127)" fill="none" stroke="#fff" stroke-linecap="round" stroke-linejoin="round" stroke-width="4"/>
    <path id="Path_2182" data-name="Path 2182" d="M174.92,905.55l-.011,0h-.016m-28.318,0,.1.634.1.635.024.158.024.159.013.079.011.079.013.081.013.079.052.315.057.315.131.626.15.62.041.154.041.155.044.153.044.153.091.3.1.3.2.575.219.553.115.268.118.262.061.129.061.126.063.125.063.123.063.118.065.118.033.057.032.058.033.057.033.057.131.225.131.222.265.437.268.427.545.82.555.776.564.728.571.676.577.626.582.575.147.136.147.132.147.129.147.125.292.238.292.224.147.107.145.1.073.05.073.049.072.049.073.049.29.192.29.184.577.35.577.323,1.151.569,1.144.468,1.138.364,1.133.26.566.092.563.066.281.022.281.016.279.009.277,0,1.1-.057,1.075-.161,1.055-.266,1.033-.37,1.014-.473.99-.58.487-.329.482-.356.12-.093.12-.095.118-.1.118-.1.117-.1.117-.1.117-.106.113-.109.446-.467.427-.52.408-.572.391-.624.188-.331.184-.344.09-.178.088-.18.088-.184.087-.186.329-.774.307-.817.145-.426.139-.435.068-.222.066-.225.016-.055.016-.057.016-.058.016-.058.03-.117.03-.121.027-.121.027-.126.024-.126.024-.128.043-.26.038-.265.058-.549.036-.571.011-.293,0-.3v-.3l0-.153,0-.153-.028-.615-.049-.621-.032-.312-.038-.314-.011-.079-.011-.079-.009-.079-.011-.077-.02-.158-.022-.157-.084-.629-.085-.629m-28.354,0h.036m30.263,4.2-.123-1.055-.14-1.051-.036-.262-.038-.263-.038-.263-.036-.262-.076-.525-.076-.526-.3-2.1-.3-2.1-.612-4.2-.616-4.2-.621-4.2-.624-4.2-.627-4.2-.627-4.2-1.256-8.4-1.252-8.405-1.245-8.405-1.233-8.407m7.939,62.853,0,.028,0,.028.009.063.008.065m-28.381,0-.009-.065-.009-.065,0-.027,0-.027m337.96-109.515-.657,5.85-.654,5.848-.649,5.848-.646,5.848-.642,5.848-.638,5.848-.635,5.848-.631,5.848m0,0-.906,8.47-.9,8.47-.891,8.47-.889,8.468-.889,8.47-.894,8.468-.451,4.236-.454,4.234-.23,2.119-.23,2.117-.057.53-.058.53-.014.132-.014.133-.014.132-.016.132-.03.263-.03.266-.137,1.059-.153,1.061M129,795.851l1.665,11.634,1.663,11.634,1.663,11.63,1.661,11.63m11.112,74.72.006.014.008.014.006.014.006.016.014.028.014.03.027.057.028.058.055.114.055.115.112.225.113.222.23.437.235.424.479.817.495.776.125.188.128.184.126.183.128.18.257.352.259.341.52.649.525.612.53.575.533.541.536.507.539.479.134.115.136.114.134.11.134.11.136.107.134.106.134.1.134.1.536.391.536.361,1.072.646,1.069.547,1.067.454,1.064.367.531.151.53.129.265.058.263.052.263.047.262.041,1.04.117,1.023.038,1.009-.039.995-.118.977-.2.965-.279.947-.366.933-.457.23-.128.23-.136.229-.142.227-.148.449-.314.441-.339.435-.362.426-.391.106-.1.106-.1.1-.106.1-.107.2-.219.2-.227.4-.474.386-.508.374-.541.363-.578.088-.15.088-.154.087-.154.087-.158.169-.323.164-.331.314-.689.3-.728.276-.769.255-.812.118-.424.115-.435.054-.222.054-.225.027-.115.025-.115.013-.057.013-.058.006-.03.006-.028,0-.014,0-.016,0-.014,0-.014m-31.978-7.351.162,1,.2.987.057.244.058.244.06.243.063.24.129.473.137.467.295.908.32.878.084.214.085.214.087.211.087.21.09.208.088.2.046.1.046.1.022.051.024.05.022.05.024.051m29.793,0,.006-.025,0-.025,0-.025,0-.025.009-.05.011-.051.019-.1.019-.1.036-.2.036-.207.063-.421.057-.427.049-.437.041-.446.017-.225.016-.229.013-.232.011-.232.022-.944-.016-.96-.05-.981-.09-1m-41.189-67.372,1.088,8.424,1.085,8.421,1.089,8.421,1.1,8.421.553,4.209.556,4.211.563,4.209.566,4.21.572,4.209.579,4.211.293,2.1.293,2.1.074.527.074.527.036.263.038.263.036.263.038.263.148,1.053.148,1.056m-3.67.651-.172-1.062-.164-1.063-.041-.266-.041-.265-.019-.132-.02-.132-.019-.132-.021-.133-.079-.531-.08-.53-.317-2.122-.317-2.122-.634-4.244-.631-4.243-1.261-8.486-1.258-8.486-1.258-8.486-1.26-8.486-1.26-8.487-1.264-8.487m0,0-.869-5.831-.87-5.831-.872-5.831-.873-5.833-.875-5.831-.875-5.833-.878-5.832-.878-5.833" transform="translate(17.445 6.127)" fill="none" stroke="#fff" stroke-linecap="round" stroke-linejoin="round" stroke-width="4"/>
    <path id="Path_2183" data-name="Path 2183" d="M371.6,868.517l-.156.977-.186.97-.215.962-.243.954-.272.946-.3.938-.161.466-.168.464-.087.231-.088.231-.09.23-.092.23-.383.908-.407.891-.431.875-.454.859-.478.843-.5.827-.259.407-.265.4-.269.4-.273.4-1.129,1.532-1.186,1.459-1.241,1.388-1.293,1.319-.666.634-.678.617-.344.3-.347.3-.174.148-.175.146-.175.145-.176.144-1.42,1.1-1.443,1.024-1.465.948-1.485.874-.374.207-.375.2-.377.2-.378.195-.759.378-.763.362-1.539.68-1.555.621-.391.146-.392.142-.392.138-.391.134-.783.257-.782.241-1.562.436-1.559.376-1.556.318-1.553.26-1.549.2-1.546.145-1.542.088-1.538.03-.768-.007-.767-.021-.764-.036-.761-.051-.757-.065-.754-.08-.376-.046-.375-.049-.374-.053-.373-.057-1.477-.263-1.453-.32-1.43-.378-1.407-.435-1.384-.494-1.361-.553-1.339-.613-1.316-.675-.649-.361-.643-.378-.32-.195-.318-.2-.316-.2-.314-.209-.312-.214-.311-.219-.154-.111-.154-.113-.153-.113-.152-.115-.6-.469-.589-.487L307.4,892.16l-1.093-1.1-1.045-1.173-.995-1.25-.241-.325-.238-.33-.234-.335-.231-.339-.449-.69-.433-.706-.817-1.461-.751-1.526-.178-.392-.173-.4-.169-.4-.164-.405-.159-.41-.153-.416-.074-.21-.073-.211-.072-.213-.07-.214-.5-1.738-.4-1.79-.161-.915-.136-.928-.058-.469-.052-.472-.045-.476-.039-.478-.057-.96-.03-.966,0-.972.023-.978" transform="translate(117.908 48.009)" fill="none" stroke="#fff" stroke-linecap="round" stroke-linejoin="round" stroke-width="4"/>
    <path id="Path_2184" data-name="Path 2184" d="M254.009,868.517h69.537" transform="translate(92.491 48.009)" fill="none" stroke="#fff" stroke-linecap="round" stroke-linejoin="round" stroke-width="4"/>
    <path id="Path_2185" data-name="Path 2185" d="M287.506,868.517l-.051.977-.085.97-.12.962-.153.954-.187.946-.221.938-.123.466-.132.464-.069.231-.071.231-.073.23-.075.23-.32.908-.351.891-.382.875-.412.859-.442.843-.473.827-.248.407-.255.4-.26.4-.265.4-1.108,1.532-1.183,1.459-1.255,1.388-1.326,1.319-.69.634-.707.617-.36.3-.364.3-.184.148-.185.146-.185.145-.186.144-1.513,1.1-1.556,1.024-1.6.948-1.638.874-.416.207-.418.2-.421.2-.423.195-.852.378-.86.362-1.745.68-1.778.621-.449.146-.451.142-.452.138-.452.134-.907.257-.91.241-1.828.436-1.84.376-1.852.318-1.863.26-1.875.2-1.886.145-1.9.088-1.909.03-.959-.007-.962-.021-.963-.036-.964-.051-.963-.065-.963-.08-.481-.046-.481-.049-.481-.053-.481-.057-1.916-.263-1.9-.32-1.888-.378-1.874-.435-1.859-.494-1.844-.553-1.829-.613-1.814-.675-.9-.361-.9-.378-.447-.195-.446-.2-.444-.2-.443-.209-.442-.214-.441-.219-.22-.111-.219-.113-.219-.113-.218-.115-.864-.469-.852-.487-1.669-1.027-1.621-1.1-1.571-1.173-1.519-1.25-.372-.325-.368-.33-.365-.335-.361-.339-.706-.69-.687-.706-1.315-1.461-1.236-1.526-.3-.392-.291-.4-.286-.4-.28-.405-.274-.41-.267-.416-.131-.21-.13-.211-.128-.213-.126-.214-.936-1.738-.808-1.79-.356-.915-.324-.928-.15-.469-.142-.472-.133-.476-.125-.478-.222-.96-.187-.966-.151-.972-.115-.978" transform="translate(58.995 48.009)" fill="none" stroke="#fff" stroke-linecap="round" stroke-linejoin="round" stroke-width="4"/>
    <path id="Path_2186" data-name="Path 2186" d="M160.517,868.517h55.764" transform="translate(38.606 48.009)" fill="none" stroke="#fff" stroke-linecap="round" stroke-linejoin="round" stroke-width="4"/>
    <path id="Path_2187" data-name="Path 2187" d="M175.424,868.517l.093.977.079.97.066.962.052.954.038.946.025.938.007.466,0,.464v.693l0,.23-.017.908-.031.891-.045.875-.06.859-.074.843-.088.827-.05.407-.053.4-.055.4-.057.4L175,884.457l-.289,1.459-.325,1.388-.361,1.319-.194.634-.2.617-.105.3-.108.3-.055.148-.055.146-.056.145-.056.144-.466,1.1-.5,1.024-.527.948-.558.874-.144.207-.146.2-.148.2-.15.195-.3.378-.31.362-.637.68-.661.621-.169.146-.17.142-.171.138-.172.134-.348.257-.353.241-.718.436-.735.376-.753.318-.77.26-.788.2-.806.145-.824.088-.843.03-.428-.007-.433-.021-.437-.036-.44-.051-.444-.065-.447-.08-.225-.046-.226-.049-.226-.053-.227-.057-.912-.263-.918-.32-.924-.378-.929-.435-.934-.494-.939-.553-.942-.613-.946-.675-.474-.361-.475-.378-.237-.195-.238-.2-.238-.2-.238-.209-.239-.214-.239-.219-.12-.111-.12-.113-.119-.113-.119-.115-.476-.469-.473-.487-.939-1.027-.927-1.1-.914-1.173-.9-1.25-.222-.325-.222-.33-.22-.335-.219-.339-.432-.69-.424-.706L140,884.452l-.789-1.526-.192-.392-.19-.4-.187-.4-.185-.405-.183-.41-.18-.416-.089-.21-.088-.211-.088-.213-.087-.214-.666-1.738-.609-1.79-.283-.915-.268-.928-.128-.469-.125-.472-.121-.476-.117-.478-.22-.96-.2-.966-.185-.972-.167-.978" transform="translate(23.699 48.009)" fill="none" stroke="#fff" stroke-linecap="round" stroke-linejoin="round" stroke-width="4"/>
    <path id="Path_2188" data-name="Path 2188" d="M132.462,868.517h3.454" transform="translate(22.436 48.009)" fill="none" stroke="#fff" stroke-linecap="round" stroke-linejoin="round" stroke-width="4"/>
    <path id="Path_2189" data-name="Path 2189" d="M330.14,795.851h.319" transform="translate(136.371 6.127)" fill="none" stroke="#fff" stroke-linecap="round" stroke-linejoin="round" stroke-width="4"/>
    <path id="Path_2190" data-name="Path 2190" d="M332.241,795.851h-1.9" transform="translate(136.487 6.127)" fill="none" stroke="#fff" stroke-linecap="round" stroke-linejoin="round" stroke-width="4"/>
    <path id="Path_2191" data-name="Path 2191" d="M331.547,795.851h2.127" transform="translate(137.181 6.127)" fill="none" stroke="#fff" stroke-linecap="round" stroke-linejoin="round" stroke-width="4"/>
    <path id="Path_2192" data-name="Path 2192" d="M333.792,795.851h-.9" transform="translate(137.959 6.127)" fill="none" stroke="#fff" stroke-linecap="round" stroke-linejoin="round" stroke-width="4"/>
    <path id="Path_2193" data-name="Path 2193" d="M333.465,795.851h.319" transform="translate(138.287 6.127)" fill="none" stroke="#fff" stroke-linecap="round" stroke-linejoin="round" stroke-width="4"/>
    <path id="Path_2194" data-name="Path 2194" d="M335.565,795.851h-1.9" transform="translate(138.403 6.127)" fill="none" stroke="#fff" stroke-linecap="round" stroke-linejoin="round" stroke-width="4"/>
    <path id="Path_2195" data-name="Path 2195" d="M334.871,795.851H337" transform="translate(139.097 6.127)" fill="none" stroke="#fff" stroke-linecap="round" stroke-linejoin="round" stroke-width="4"/>
    <path id="Path_2196" data-name="Path 2196" d="M337.116,795.851h-.9" transform="translate(139.875 6.127)" fill="none" stroke="#fff" stroke-linecap="round" stroke-linejoin="round" stroke-width="4"/>
    <path id="Path_2197" data-name="Path 2197" d="M336.789,795.851h.319" transform="translate(140.203 6.127)" fill="none" stroke="#fff" stroke-linecap="round" stroke-linejoin="round" stroke-width="4"/>
    <path id="Path_2198" data-name="Path 2198" d="M338.889,795.851h-1.9" transform="translate(140.319 6.127)" fill="none" stroke="#fff" stroke-linecap="round" stroke-linejoin="round" stroke-width="4"/>
    <path id="Path_2199" data-name="Path 2199" d="M338.2,795.851h2.127" transform="translate(141.013 6.127)" fill="none" stroke="#fff" stroke-linecap="round" stroke-linejoin="round" stroke-width="4"/>
    <path id="Path_2200" data-name="Path 2200" d="M340.441,795.851h-.9" transform="translate(141.791 6.127)" fill="none" stroke="#fff" stroke-linecap="round" stroke-linejoin="round" stroke-width="4"/>
    <path id="Path_2201" data-name="Path 2201" d="M340.113,795.851h.319" transform="translate(142.119 6.127)" fill="none" stroke="#fff" stroke-linecap="round" stroke-linejoin="round" stroke-width="4"/>
    <path id="Path_2202" data-name="Path 2202" d="M342.214,795.851h-1.9" transform="translate(142.235 6.127)" fill="none" stroke="#fff" stroke-linecap="round" stroke-linejoin="round" stroke-width="4"/>
    <path id="Path_2203" data-name="Path 2203" d="M341.52,795.851h2.128" transform="translate(142.929 6.127)" fill="none" stroke="#fff" stroke-linecap="round" stroke-linejoin="round" stroke-width="4"/>
    <path id="Path_2204" data-name="Path 2204" d="M343.765,795.851h-.9" transform="translate(143.707 6.127)" fill="none" stroke="#fff" stroke-linecap="round" stroke-linejoin="round" stroke-width="4"/>
    <path id="Path_2205" data-name="Path 2205" d="M343.438,795.851h.319" transform="translate(144.035 6.127)" fill="none" stroke="#fff" stroke-linecap="round" stroke-linejoin="round" stroke-width="4"/>
    <path id="Path_2206" data-name="Path 2206" d="M345.538,795.851h-1.9" transform="translate(144.151 6.127)" fill="none" stroke="#fff" stroke-linecap="round" stroke-linejoin="round" stroke-width="4"/>
    <path id="Path_2207" data-name="Path 2207" d="M344.844,795.851h2.127" transform="translate(144.845 6.127)" fill="none" stroke="#fff" stroke-linecap="round" stroke-linejoin="round" stroke-width="4"/>
    <path id="Path_2208" data-name="Path 2208" d="M346.739,795.851h-.546" transform="translate(145.623 6.127)" fill="none" stroke="#fff" stroke-linecap="round" stroke-linejoin="round" stroke-width="4"/>
    <path id="Path_2209" data-name="Path 2209" d="M346.54,795.851h.236" transform="translate(145.823 6.127)" fill="none" stroke="#fff" stroke-linecap="round" stroke-linejoin="round" stroke-width="4"/>
    <path id="Path_2210" data-name="Path 2210" d="M346.689,795.851h9.32" transform="translate(145.909 6.127)" fill="none" stroke="#fff" stroke-linecap="round" stroke-linejoin="round" stroke-width="4"/>
    <path id="Path_2211" data-name="Path 2211" d="M352.6,795.851h36.483" transform="translate(149.316 6.127)" fill="none" stroke="#fff" stroke-linecap="round" stroke-linejoin="round" stroke-width="4"/>
    <path id="Path_2212" data-name="Path 2212" d="M375.85,795.851h0" transform="translate(162.691 6.127)" fill="none" stroke="#fff" stroke-linecap="round" stroke-linejoin="round" stroke-width="4"/>
    <path id="Path_2213" data-name="Path 2213" d="M376.638,795.851h-.8" transform="translate(162.707 6.127)" fill="none" stroke="#fff" stroke-linecap="round" stroke-linejoin="round" stroke-width="4"/>
    <path id="Path_2214" data-name="Path 2214" d="M93.535,790.536h40.4" transform="translate(0 3.064)" fill="none" stroke="#fff" stroke-linecap="round" stroke-linejoin="round" stroke-width="4"/>
    <path id="Path_2215" data-name="Path 2215" d="M381.492,790.536h40.4" transform="translate(165.968 3.064)" fill="none" stroke="#fff" stroke-linecap="round" stroke-linejoin="round" stroke-width="4"/>
    <path id="Path_2216" data-name="Path 2216" d="M119.221,785.221H325.891" transform="translate(14.804 0)" fill="none" stroke="#fff" stroke-linecap="round" stroke-linejoin="round" stroke-width="4"/>
    <path id="Path_2217" data-name="Path 2217" d="M250.327,785.221H457" transform="translate(90.369 0)" fill="none" stroke="#fff" stroke-linecap="round" stroke-linejoin="round" stroke-width="4"/>
    <path id="Path_2218" data-name="Path 2218" d="M376.344,795.851h.292" transform="translate(163.001 6.127)" fill="none" stroke="#fff" stroke-linecap="round" stroke-linejoin="round" stroke-width="4"/>
    <path id="Path_2219" data-name="Path 2219" d="M339.647,970.5a80.441,80.441,0,0,0,32.333-27.85l2.379-4.464.036-.082.035-.08.249-.629.222-.64.183-.563.172-.566.132-.47.121-.471.08-.339.077-.339.038-.173.035-.169.017-.084.014-.076.009-.044.006-.036.006-.035,0-.027.008-.033,0-.025.006-.039.006-.027.008-.042.006-.038.019-.106.022-.123.038-.21.046-.257.058-.328.066-.388.066-.385.074-.432.082-.489.09-.534.085-.522.093-.564.093-.561.1-.605.1-.608.106-.651.076-.467.08-.492.095-.574.1-.608.109-.676.112-.706.126-.805.131-.837.125-.809.129-.842.123-.813.128-.842.121-.817.126-.842.123-.821.125-.842.243-1.649.8-3.868.629-3.9,1.237-7.809,1.237-7.809,2.473-15.619,2.473-15.619,4.948-31.237,4.947-31.239" transform="translate(141.85 6.127)" fill="none" stroke="#fff" stroke-linecap="round" stroke-miterlimit="10" stroke-width="4"/>
    <line id="Line_835" data-name="Line 835" x2="2.514" transform="translate(587.856 793.6)" fill="none" stroke="#fff" stroke-linecap="round" stroke-linejoin="round" stroke-width="4"/>
    <line id="Line_836" data-name="Line 836" y1="7.458" x2="2.463" transform="translate(93.535 786.142)" fill="none" stroke="#fff" stroke-linecap="round" stroke-linejoin="round" stroke-width="4"/>
    <line id="Line_837" data-name="Line 837" x2="2.463" y2="7.458" transform="translate(585.393 786.142)" fill="none" stroke="#fff" stroke-linecap="round" stroke-linejoin="round" stroke-width="4"/>
    <line id="Line_838" data-name="Line 838" x2="36.753" transform="translate(547.366 785.222)" fill="none" stroke="#fff" stroke-linecap="round" stroke-linejoin="round" stroke-width="4"/>
    <line id="Line_839" data-name="Line 839" x2="36.753" transform="translate(97.272 785.222)" fill="none" stroke="#fff" stroke-linecap="round" stroke-linejoin="round" stroke-width="4"/>
    <line id="Line_840" data-name="Line 840" x1="1.942" y2="15.817" transform="translate(132.915 786.162)" fill="none" stroke="#fff" stroke-linecap="round" stroke-linejoin="round" stroke-width="4"/>
    <line id="Line_841" data-name="Line 841" x1="1.942" y1="15.817" transform="translate(546.535 786.162)" fill="none" stroke="#fff" stroke-linecap="round" stroke-linejoin="round" stroke-width="4"/>
    <line id="Line_842" data-name="Line 842" x2="8.84" transform="translate(539.637 801.978)" fill="none" stroke="#fff" stroke-linecap="round" stroke-linejoin="round" stroke-width="4"/>
    <line id="Line_843" data-name="Line 843" x2="3.84" transform="translate(132.915 801.978)" fill="none" stroke="#fff" stroke-linecap="round" stroke-linejoin="round" stroke-width="4"/>
    <line id="Line_844" data-name="Line 844" y1="7.796" x2="0.409" transform="translate(466.885 980.27)" fill="none" stroke="#fff" stroke-linecap="round" stroke-linejoin="round" stroke-width="4"/>
    <line id="Line_845" data-name="Line 845" x2="0.409" y2="7.796" transform="translate(214.097 980.27)" fill="none" stroke="#fff" stroke-linecap="round" stroke-linejoin="round" stroke-width="4"/>
    <path id="Path_2220" data-name="Path 2220" d="M171.337,914.907H420.37" transform="translate(44.842 74.747)" fill="none" stroke="#fff" stroke-linecap="round" stroke-linejoin="round" stroke-width="4"/>
    <line id="Line_846" data-name="Line 846" x2="18.143" y2="114.547" transform="translate(136.755 801.978)" fill="none" stroke="#fff" stroke-linecap="round" stroke-linejoin="round" stroke-width="4"/>
    <line id="Line_847" data-name="Line 847" x1="77.466" transform="translate(506.654 785.222)" fill="none" stroke="#fff" stroke-linecap="round" stroke-linejoin="round" stroke-width="4"/>
    <line id="Line_848" data-name="Line 848" x1="41.823" transform="translate(506.654 801.978)" fill="none" stroke="#fff" stroke-linecap="round" stroke-linejoin="round" stroke-width="4"/>
  </g>
</svg>
