<svg xmlns="http://www.w3.org/2000/svg" width="259.115" height="200.217" viewBox="0 0 259.115 200.217">
  <g id="Group_845" data-name="Group 845" transform="translate(1.007 1.007)">
    <path id="Path_1286" data-name="Path 1286" d="M503.418,1118.223m38.229-16.658-.2.343-.193.345-.186.348-.18.35-.175.352-.17.354-.166.355-.162.356-.314.717-.3.722-.291.726-.281.729m2.62-5.7.007-.013.005-.013,0-.013v-.013M481.4,1133.95l-3.2,4.2m0,0v.012l0,.01,0,.008,0,.007m1.415,3.368-.18-.463-.178-.455-.175-.446-.175-.435-.087-.213-.087-.209-.088-.2-.088-.2-.088-.2-.089-.189-.09-.182-.091-.174m5.957-1.924-.4.068-.4.077-.43.105-.415.124-.438.153-.417.171-.424.2-.395.223-.385.255-.341.274-.3.3-.274.315m1.652,5.321-.269-.256-.245-.265-.223-.274-.2-.283-.184-.292-.166-.3-.149-.311-.133-.32m59.4-34.3-.195.509-.2.511-.2.514-.207.518-.211.521-.213.526-.215.531-.216.536m1.311-7.03-.411.115-.4.125-.374.138-.357.154-.327.16-.309.171-.277.173-.258.183-.226.18-.207.187-.177.181-.16.186-.133.177-.117.181-.091.17-.083.172m6.732,116.385c7.611-5.263,18.271-7.734,27.3-9.179a95.159,95.159,0,0,1,29.421-.09,87.027,87.027,0,0,1,26.879,8.711m0,0,.308.179.305.181m-113.935,28.772c4.416,13.558,17.593,23.136,30.41,28.333,13.041,5.288,27.562,7.338,41.518,7.555m0,0c6.577-.5,13.047-.446,19.593-1.548a107.224,107.224,0,0,0,19.957-5.374,68.66,68.66,0,0,0,19.439-10.695c5.4-4.411,11.552-11.168,12.937-18.261" transform="translate(-455.257 -1089.76)" fill="none" stroke="#000" stroke-linecap="round" stroke-linejoin="round" stroke-width="2"/>
    <path id="Path_1287" data-name="Path 1287" d="M695.344,1098.874l-1.38.361-1.276.472" transform="translate(-606.297 -1087.902)" fill="none" stroke="#000" stroke-linecap="round" stroke-linejoin="round" stroke-width="2"/>
    <path id="Path_1288" data-name="Path 1288" d="M549.264,1101.513c-11.4,3.174-22.573,6.411-33.171,11.826a90.052,90.052,0,0,0-27.1,20.608" transform="translate(-462.857 -1089.76)" fill="none" stroke="#000" stroke-linecap="round" stroke-linejoin="round" stroke-width="2"/>
    <path id="Path_1289" data-name="Path 1289" d="M474.8,1225.505a19.833,19.833,0,0,0-1.44,1.535" transform="translate(-451.849 -1177.076)" fill="none" stroke="#000" stroke-linecap="round" stroke-linejoin="round" stroke-width="2"/>
    <path id="Path_1290" data-name="Path 1290" d="M548.972,1120.236a40.748,40.748,0,0,1-8.083,11.1A57.237,57.237,0,0,1,526,1141.415c-8.737,4.174-18.147,6.39-27.629,8.036" transform="translate(-469.46 -1102.945)" fill="none" stroke="#000" stroke-linecap="round" stroke-linejoin="round" stroke-width="2"/>
    <path id="Path_1291" data-name="Path 1291" d="M498.372,1149.45a75.1,75.1,0,0,0,5.762,28.841,53.233,53.233,0,0,0,11.013,17.193c4.737,4.772,11.447,8.5,17.993,6.967a16.333,16.333,0,0,0,8.844-5.964,31.588,31.588,0,0,0,4.892-9.647c5.285-15.731,4.755-33.594,3.687-49.947-.362-5.536-1.459-11.129-1.591-16.657" transform="translate(-469.46 -1102.945)" fill="none" stroke="#000" stroke-linecap="round" stroke-linejoin="round" stroke-width="2"/>
    <path id="Path_1292" data-name="Path 1292" d="M482.828,1229.7l-.05-1.511-.029-1.507" transform="translate(-458.459 -1177.906)" fill="none" stroke="#000" stroke-linecap="round" stroke-linejoin="round" stroke-width="2"/>
    <path id="Path_1293" data-name="Path 1293" d="M682.652,1111.27l.17,1.426.178,1.437" transform="translate(-599.23 -1096.631)" fill="none" stroke="#000" stroke-linecap="round" stroke-linejoin="round" stroke-width="2"/>
    <path id="Path_1294" data-name="Path 1294" d="M832.069,1110.788c-18.4-12.707-40-20.442-62.116-23.76-22.02-3.3-46.54-3.359-68.289,1.882" transform="translate(-612.618 -1077.94)" fill="none" stroke="#000" stroke-linecap="round" stroke-linejoin="round" stroke-width="2"/>
    <path id="Path_1295" data-name="Path 1295" d="M634.362,1454.266l1.788-1.8,4.772-3.167,5.293-2.878,5.762-2.561,6.174-2.218,6.525-1.853,6.811-1.471,7.03-1.073,7.18-.664,7.259-.25,7.266.167,7.2.583,7.065.992,6.86,1.392,6.587,1.779,6.249,2.147,5.849,2.495,7.214,3.55" transform="translate(-565.224 -1325.537)" fill="none" stroke="#000" stroke-linecap="round" stroke-linejoin="round" stroke-width="2"/>
    <path id="Path_1296" data-name="Path 1296" d="M736.875,1612.945c-6.957,14.348-22.216,22.873-37.508,27.39a119.83,119.83,0,0,1-67.409.01,78.207,78.207,0,0,1-21.851-9.965c-6.147-4.171-12.965-10.251-15.558-17.424" transform="translate(-537.186 -1449.911)" fill="none" stroke="#000" stroke-linecap="round" stroke-linejoin="round" stroke-width="2"/>
    <path id="Path_1297" data-name="Path 1297" d="M1041.362,1490.211a93.23,93.23,0,0,1-26.271,36.431,43.893,43.893,0,0,1-11.025,7.107c-2.475,1.035-5.526,1.654-7.683.059-1.828-1.35-2.364-3.818-2.646-6.073-.783-6.25-.325-12.374.188-18.616" transform="translate(-818 -1363.482)" fill="none" stroke="#000" stroke-linecap="round" stroke-linejoin="round" stroke-width="2"/>
    <path id="Path_1298" data-name="Path 1298" d="M587.923,1411.907c11.728-14.211,29.038-21.525,46.773-25.055,27.758-5.525,57.554-2.583,82.592,10.612" transform="translate(-532.522 -1288.833)" fill="none" stroke="#000" stroke-linecap="round" stroke-linejoin="round" stroke-width="2"/>
    <path id="Path_1299" data-name="Path 1299" d="M751.909,1639.829c-17.3,10.662-37.991,15.927-58.3,16.306q-1.9.035-3.807.011a123.977,123.977,0,0,1-58.777-16.1" transform="translate(-562.872 -1468.843)" fill="none" stroke="#000" stroke-linecap="round" stroke-linejoin="round" stroke-width="2"/>
    <path id="Path_1300" data-name="Path 1300" d="M1024.408,1428.723l4.9,3.058,4.072,3.2" transform="translate(-839.895 -1320.182)" fill="none" stroke="#000" stroke-linecap="round" stroke-linejoin="round" stroke-width="2"/>
    <path id="Path_1301" data-name="Path 1301" d="M980.73,1534.624l-.014.141c-.4,4.212-.779,8.433-.8,12.667-.02,3.893-.185,8.525,1.768,12.03,1.685,3.024,4.708,3.589,7.832,2.762a36.507,36.507,0,0,0,10.786-5.28c12.245-8.2,22.073-19.572,30.395-31.735" transform="translate(-808.555 -1388.128)" fill="none" stroke="#000" stroke-linecap="round" stroke-linejoin="round" stroke-width="2"/>
    <path id="Path_1302" data-name="Path 1302" d="M543.306,1132.416c1.57,20.786,3.08,42.151-3.057,62.072a41.046,41.046,0,0,1-5.932,12.584,20.461,20.461,0,0,1-11.2,7.9c-7.6,1.864-15.548-2.017-21.3-7.326-11.186-10.328-16.445-25.725-18.131-40.856" transform="translate(-459.122 -1111.522)" fill="none" stroke="#000" stroke-linecap="round" stroke-linejoin="round" stroke-width="2"/>
    <path id="Path_1303" data-name="Path 1303" d="M411.18,1280.651c-.391,5.781-1.011,10.958.212,16.74a50.432,50.432,0,0,0,6.7,16.338c6.077,9.662,14.944,17.311,24.556,23.468,17.148,10.983,36.8,17.463,56.77,20.926a213.259,213.259,0,0,0,64.559,1.532,187.56,187.56,0,0,0,60.393-18.938l.81-.416" transform="translate(-407.701 -1215.909)" fill="none" stroke="#000" stroke-linecap="round" stroke-linejoin="round" stroke-width="2"/>
    <path id="Path_1304" data-name="Path 1304" d="M1135.535,1339.179c11.048-6.877,21.553-14.734,28.731-25.812,6.475-9.993,9.771-22.429,7.128-34.039" transform="translate(-918.15 -1214.978)" fill="none" stroke="#000" stroke-linecap="round" stroke-linejoin="round" stroke-width="2"/>
    <path id="Path_1305" data-name="Path 1305" d="M971.206,1513.041l-1.294.474-1.4.364" transform="translate(-800.535 -1379.558)" fill="none" stroke="#000" stroke-linecap="round" stroke-linejoin="round" stroke-width="2"/>
    <line id="Line_472" data-name="Line 472" x1="0.88" y2="0.185" transform="translate(167.101 134.321)" fill="none" stroke="#000" stroke-linecap="round" stroke-linejoin="round" stroke-width="2"/>
    <line id="Line_473" data-name="Line 473" x1="1.294" y2="0.303" transform="translate(170.671 133.179)" fill="none" stroke="#000" stroke-linecap="round" stroke-linejoin="round" stroke-width="2"/>
    <path id="Path_1306" data-name="Path 1306" d="M678.228,1133.2l.226-.12.234-.113.242-.107.249-.1.257-.093.264-.087.272-.08.28-.073" transform="translate(-596.115 -1111.527)" fill="none" stroke="#000" stroke-linecap="round" stroke-linejoin="round" stroke-width="2"/>
    <path id="Path_1307" data-name="Path 1307" d="M1168.094,1388.285l6.949-8.312c1.07-1.28,2.025-2.638,2.971-4.011" transform="translate(-941.079 -1283.027)" fill="none" stroke="#000" stroke-linecap="round" stroke-linejoin="round" stroke-width="2"/>
    <path id="Path_1308" data-name="Path 1308" d="M1159.731,1232.954a41.347,41.347,0,0,0,5.179-15.5c2-17.665-8.743-34.834-22.64-44.772" transform="translate(-922.893 -1139.878)" fill="none" stroke="#000" stroke-linecap="round" stroke-linejoin="round" stroke-width="2"/>
    <path id="Path_1309" data-name="Path 1309" d="M1172.439,1409.041l-.454.09-.454.09" transform="translate(-943.499 -1306.321)" fill="none" stroke="#000" stroke-linecap="round" stroke-linejoin="round" stroke-width="2"/>
    <path id="Path_1310" data-name="Path 1310" d="M1001.52,1438.667c2.046-3.607,4.064-7.226,7.007-10.2a50.074,50.074,0,0,1,9.41-6.92,80.144,80.144,0,0,1,31.773-11.253q1.052-.134,2.108-.239" transform="translate(-823.777 -1307.038)" fill="none" stroke="#000" stroke-linecap="round" stroke-linejoin="round" stroke-width="2"/>
    <path id="Path_1311" data-name="Path 1311" d="M1124.925,1416.969a93.65,93.65,0,0,1-18.282,13.815" transform="translate(-897.805 -1311.905)" fill="none" stroke="#000" stroke-linecap="round" stroke-linejoin="round" stroke-width="2"/>
    <path id="Path_1312" data-name="Path 1312" d="M630.836,1640.334l-.074-.05-.074-.05" transform="translate(-562.637 -1469.129)" fill="none" stroke="#000" stroke-linecap="round" stroke-linejoin="round" stroke-width="2"/>
    <path id="Path_1313" data-name="Path 1313" d="M842.23,1180.433c.337-15.616-9.978-29.681-22.316-39.261-14.8-11.49-32.8-18.271-51.129-22.173a190.348,190.348,0,0,0-83.714,1.05" transform="translate(-600.934 -1099.152)" fill="none" stroke="#000" stroke-linecap="round" stroke-linejoin="round" stroke-width="2"/>
    <path id="Path_1314" data-name="Path 1314" d="M489.18,1473.122a123.013,123.013,0,0,0,40.237,48.323l.9.619.9.611" transform="translate(-462.987 -1351.447)" fill="none" stroke="#000" stroke-linecap="round" stroke-linejoin="round" stroke-width="2"/>
    <path id="Path_1315" data-name="Path 1315" d="M1038.495,1522.671l1.5-1.021,1.483-1.044,1.788-1.306,1.763-1.34,1.744-1.378,1.717-1.411,1.7-1.451,1.672-1.483,1.652-1.522,1.623-1.553,1.6-1.591,1.57-1.621,1.545-1.657,1.514-1.686,1.486-1.721,1.454-1.748,1.425-1.781,1.391-1.808,1.361-1.839,1.326-1.865,1.294-1.894,1.257-1.918,1.224-1.946,1.187-1.969,1.152-2,1.114-2.016,1.078-2.041,1.04-2.061,1.376-2.885" transform="translate(-849.815 -1351.444)" fill="none" stroke="#000" stroke-linecap="round" stroke-linejoin="round" stroke-width="2"/>
    <path id="Path_1316" data-name="Path 1316" d="M462.243,1248.63a49.737,49.737,0,0,0-9.055,26.205" transform="translate(-437.641 -1193.36)" fill="none" stroke="#000" stroke-linecap="round" stroke-linejoin="round" stroke-width="2"/>
    <path id="Path_1317" data-name="Path 1317" d="M483.8,1245.843l.127-.162.139-.157.15-.153.162-.148.173-.144.185-.14.2-.135.208-.131" transform="translate(-459.199 -1190.573)" fill="none" stroke="#000" stroke-linecap="round" stroke-linejoin="round" stroke-width="2"/>
    <path id="Path_1318" data-name="Path 1318" d="M486.917,1244.672l-.3.094-.3.095" transform="translate(-460.974 -1190.573)" fill="none" stroke="#000" stroke-linecap="round" stroke-linejoin="round" stroke-width="2"/>
    <path id="Path_1319" data-name="Path 1319" d="M572.3,1061.781a207.069,207.069,0,0,0-56.933,7.986c-18.923,5.558-37.674,14.606-51.886,28.52L462,1099.74" transform="translate(-443.845 -1061.781)" fill="none" stroke="#000" stroke-linecap="round" stroke-linejoin="round" stroke-width="2"/>
    <path id="Path_1320" data-name="Path 1320" d="M945.24,1099.936c-13.222-14.534-33.556-23.907-52.024-29.515a194.241,194.241,0,0,0-58.321-8.377" transform="translate(-706.44 -1061.953)" fill="none" stroke="#000" stroke-linecap="round" stroke-linejoin="round" stroke-width="2"/>
    <path id="Path_1321" data-name="Path 1321" d="M415.374,1203.228c-7.522,9.011-13.715,18.359-14.627,30.436a49.539,49.539,0,0,0,5.518,25.648c8.993,17.975,26,29.726,44.069,37.4,3.073,1.306,6.188,2.509,9.332,3.634,51.882,18.564,111.042,14.613,160.447-9.791" transform="translate(-400.63 -1161.388)" fill="none" stroke="#000" stroke-linecap="round" stroke-linejoin="round" stroke-width="2"/>
    <path id="Path_1322" data-name="Path 1322" d="M1142.521,1290.6c10.091-6.274,19.7-13.263,26.927-22.853,6.5-8.637,10.807-19.19,10.729-30-.092-12.806-6.31-25.005-14.964-34.445" transform="translate(-923.07 -1161.441)" fill="none" stroke="#000" stroke-linecap="round" stroke-linejoin="round" stroke-width="2"/>
    <path id="Path_1323" data-name="Path 1323" d="M426.962,1190.531a45.442,45.442,0,0,1-3.436,4.015q-1.746,2.164-3.305,4.469a53.561,53.561,0,0,0-5.237,9.732,68.253,68.253,0,0,0-2.594,8.441" transform="translate(-408.911 -1152.447)" fill="none" stroke="#000" stroke-linecap="round" stroke-linejoin="round" stroke-width="2"/>
    <path id="Path_1324" data-name="Path 1324" d="M1222.683,1216.845l-1.488-5.47-2.206-5.389-2.91-5.276-3.6-5.133-4.266-4.96" transform="translate(-969.332 -1152.507)" fill="none" stroke="#000" stroke-linecap="round" stroke-linejoin="round" stroke-width="2"/>
    <path id="Path_1325" data-name="Path 1325" d="M504.858,1406.328a81.542,81.542,0,0,1-20.7-12.572c-5.63-4.686-12.423-10.823-15.55-17.565l-.24-.441" transform="translate(-448.329 -1282.878)" fill="none" stroke="#000" stroke-linecap="round" stroke-linejoin="round" stroke-width="2"/>
    <path id="Path_1326" data-name="Path 1326" d="M457.875,1226.446c-3.216,3.427-4.689,7.626-5.9,11.212a39.982,39.982,0,0,0-2.082,11.449,41.938,41.938,0,0,0,5.483,21.642" transform="translate(-435.308 -1177.738)" fill="none" stroke="#000" stroke-linecap="round" stroke-linejoin="round" stroke-width="2"/>
    <path id="Path_1327" data-name="Path 1327" d="M701.811,1490.459a202.949,202.949,0,0,1-30.489,3.8,183.411,183.411,0,0,1-80.273-14.65" transform="translate(-534.723 -1356.019)" fill="none" stroke="#000" stroke-linecap="round" stroke-linejoin="round" stroke-width="2"/>
    <path id="Path_1328" data-name="Path 1328" d="M1019.032,1463.743a181.886,181.886,0,0,1-37.045,14.279" transform="translate(-810.022 -1344.843)" fill="none" stroke="#000" stroke-linecap="round" stroke-linejoin="round" stroke-width="2"/>
  </g>
</svg>
