<svg xmlns="http://www.w3.org/2000/svg" width="258.599" height="234.335" viewBox="0 0 258.599 234.335">
  <g id="Group_707" data-name="Group 707" transform="matrix(0.995, -0.105, 0.105, 0.995, -6.255, 27.019)">
    <line id="Line_243" data-name="Line 243" x1="21.641" y2="21.643" transform="translate(165.871 22.506)" fill="none" stroke="#000" stroke-linecap="round" stroke-linejoin="round" stroke-width="2"/>
    <path id="Path_830" data-name="Path 830" d="M0,17.233,12.072,8.767,24.36,0" transform="translate(203.678 96.48)" fill="none" stroke="#000" stroke-linecap="round" stroke-linejoin="round" stroke-width="2"/>
    <line id="Line_244" data-name="Line 244" y1="2.574" x2="12.596" transform="translate(215.554 140.47)" fill="none" stroke="#000" stroke-linecap="round" stroke-linejoin="round" stroke-width="2"/>
    <g id="Group_659" data-name="Group 659" transform="translate(0 0)">
      <path id="Path_831" data-name="Path 831" d="M63.026,82.62m-24.3-36.763M0,62.194,75.718,14.188A27.24,27.24,0,0,0,42.339,1.677m89.032,114L75.759,14.166" transform="translate(115.501 0)" fill="none" stroke="#000" stroke-linecap="round" stroke-linejoin="round" stroke-width="2"/>
      <path id="Path_832" data-name="Path 832" d="M29.142,0,156.877,95.388c2.425-1.593,4.979-2.762,7.015-4.884a20.04,20.04,0,0,0,3.959-6.024,22.446,22.446,0,0,0-1.218-19.7M0,144.682" transform="translate(80.183 50.921)" fill="none" stroke="#000" stroke-linecap="round" stroke-linejoin="round" stroke-width="2"/>
      <path id="Path_833" data-name="Path 833" d="M5.518,0,4.864.588l-.814.621-.937.625-1.018.6-1.054.551L0,3.463" transform="translate(160.235 44.293)" fill="none" stroke="#000" stroke-linecap="round" stroke-linejoin="round" stroke-width="2"/>
      <path id="Path_834" data-name="Path 834" d="M0,0" transform="translate(154.224 45.856)" fill="none" stroke="#000" stroke-linecap="round" stroke-linejoin="round" stroke-width="2"/>
      <path id="Path_835" data-name="Path 835" d="M0,0" transform="translate(184.991 82.3)" fill="none" stroke="#000" stroke-linecap="round" stroke-linejoin="round" stroke-width="2"/>
      <line id="Line_245" data-name="Line 245" x1="1.116" y2="1.077" transform="translate(184.953 81.376)" fill="none" stroke="#000" stroke-linecap="round" stroke-linejoin="round" stroke-width="2"/>
      <path id="Path_836" data-name="Path 836" d="M1.621,6.1,1.1,5.045.656,3.938.317,2.832.095,1.776,0,.818.037,0" transform="translate(152.374 39.335)" fill="none" stroke="#000" stroke-linecap="round" stroke-linejoin="round" stroke-width="2"/>
      <path id="Path_837" data-name="Path 837" d="M0,3.364l1.042-.476L2.1,2.338l1.018-.6.937-.625L4.309.953A7.513,7.513,0,0,0,5.43.119L5.562,0" transform="translate(198.18 113.655)" fill="none" stroke="#000" stroke-linecap="round" stroke-linejoin="round" stroke-width="2"/>
      <line id="Line_246" data-name="Line 246" y1="16.338" x2="38.723" transform="translate(115.272 45.437)" fill="none" stroke="#000" stroke-linecap="round" stroke-linejoin="round" stroke-width="2"/>
      <line id="Line_247" data-name="Line 247" x2="19.078" y2="34.824" transform="translate(160.236 47.757)" fill="none" stroke="#000" stroke-linecap="round" stroke-linejoin="round" stroke-width="2"/>
      <path id="Path_838" data-name="Path 838" d="M0,.3A5.291,5.291,0,0,1,6.241,2.616" transform="translate(153.994 45.141)" fill="none" stroke="#000" stroke-linecap="round" stroke-linejoin="round" stroke-width="2"/>
      <path id="Path_839" data-name="Path 839" d="M.234,7.044.093,5.932.014,4.775,0,3.622l.052-1.1.115-1L.341.674.565,0" transform="translate(193.006 107.199)" fill="none" stroke="#000" stroke-linecap="round" stroke-linejoin="round" stroke-width="2"/>
      <path id="Path_840" data-name="Path 840" d="M.23,0,.1.068,0,.145" transform="translate(187.395 22.506)" fill="none" stroke="#000" stroke-linecap="round" stroke-linejoin="round" stroke-width="2"/>
      <path id="Path_841" data-name="Path 841" d="M.234,7.044.093,5.932.014,4.775,0,3.623l.052-1.1.115-1L.341.674.565,0" transform="translate(134.421 110.097)" fill="none" stroke="#000" stroke-linecap="round" stroke-linejoin="round" stroke-width="2"/>
      <path id="Path_842" data-name="Path 842" d="M0,3.9l1.015-.463,1.027-.534,1-.584.922-.609.809-.607L5.43.527,5.915,0" transform="translate(96.103 91.554)" fill="none" stroke="#000" stroke-linecap="round" stroke-linejoin="round" stroke-width="2"/>
      <line id="Line_248" data-name="Line 248" x1="21.641" y2="21.643" transform="translate(165.754 22.651)" fill="none" stroke="#000" stroke-linecap="round" stroke-linejoin="round" stroke-width="2"/>
      <line id="Line_249" data-name="Line 249" x2="14.5" y2="26.467" transform="translate(171.535 54.615)" fill="none" stroke="#000" stroke-linecap="round" stroke-linejoin="round" stroke-width="2"/>
      <line id="Line_250" data-name="Line 250" x2="7.547" y2="13.776" transform="translate(203.917 114.273)" fill="none" stroke="#000" stroke-linecap="round" stroke-linejoin="round" stroke-width="2"/>
      <path id="Path_843" data-name="Path 843" d="M.066.254.054.136,0,0" transform="translate(156.274 10.858)" fill="none" stroke="#000" stroke-linecap="round" stroke-linejoin="round" stroke-width="2"/>
      <line id="Line_251" data-name="Line 251" y1="28.224" x2="3.929" transform="translate(152.411 11.112)" fill="none" stroke="#000" stroke-linecap="round" stroke-linejoin="round" stroke-width="2"/>
      <path id="Path_844" data-name="Path 844" d="M.037,0,0,.818l.095.958L.317,2.832.656,3.938,1.1,5.045,1.621,6.1" transform="translate(79.089 70.256)" fill="none" stroke="#000" stroke-linecap="round" stroke-linejoin="round" stroke-width="2"/>
      <path id="Path_845" data-name="Path 845" d="M.23,0,.1.068,0,.145" transform="translate(206.994 58.282)" fill="none" stroke="#000" stroke-linecap="round" stroke-linejoin="round" stroke-width="2"/>
      <path id="Path_846" data-name="Path 846" d="M20.925,0,10.462,11.475,0,22.95" transform="translate(186.069 58.426)" fill="none" stroke="#000" stroke-linecap="round" stroke-linejoin="round" stroke-width="2"/>
      <path id="Path_847" data-name="Path 847" d="M0,0" transform="translate(228.15 96.48)" fill="none" stroke="#000" stroke-linecap="round" stroke-linejoin="round" stroke-width="2"/>
      <path id="Path_848" data-name="Path 848" d="M5.26,3.587A11.868,11.868,0,0,0,0,0" transform="translate(197.004 107.777)" fill="none" stroke="#000" stroke-linecap="round" stroke-linejoin="round" stroke-width="2"/>
      <path id="Path_849" data-name="Path 849" d="M1.62,6.1,1.1,5.045.656,3.938.317,2.832.095,1.776,0,.818.037,0" transform="translate(22.605 94.087)" fill="none" stroke="#000" stroke-linecap="round" stroke-linejoin="round" stroke-width="2"/>
      <path id="Path_850" data-name="Path 850" d="M0,0,.054.136.066.254" transform="translate(116.62 27.588)" fill="none" stroke="#000" stroke-linecap="round" stroke-linejoin="round" stroke-width="2"/>
      <line id="Line_252" data-name="Line 252" x1="5.99" y2="25.582" transform="translate(110.697 27.842)" fill="none" stroke="#000" stroke-linecap="round" stroke-linejoin="round" stroke-width="2"/>
      <path id="Path_851" data-name="Path 851" d="M0,0" transform="translate(236.693 112.074)" fill="none" stroke="#000" stroke-linecap="round" stroke-linejoin="round" stroke-width="2"/>
      <path id="Path_852" data-name="Path 852" d="M0,0" transform="translate(102.018 91.554)" fill="none" stroke="#000" stroke-linecap="round" stroke-linejoin="round" stroke-width="2"/>
      <path id="Path_853" data-name="Path 853" d="M0,.163.1.079.246,0" transform="translate(105.206 52.514)" fill="none" stroke="#000" stroke-linecap="round" stroke-linejoin="round" stroke-width="2"/>
      <path id="Path_854" data-name="Path 854" d="M8.9,3.04A11.257,11.257,0,0,0,4.152.379,11.2,11.2,0,0,0,0,.071" transform="translate(82.054 69.424)" fill="none" stroke="#000" stroke-linecap="round" stroke-linejoin="round" stroke-width="2"/>
      <path id="Path_855" data-name="Path 855" d="M0,.294.023.166.014,0" transform="translate(208.317 85.345)" fill="none" stroke="#000" stroke-linecap="round" stroke-linejoin="round" stroke-width="2"/>
      <path id="Path_856" data-name="Path 856" d="M0,21.56l2.794-4.085,4.579-6.7,5.4-7.9L14.746,0" transform="translate(193.571 85.639)" fill="none" stroke="#000" stroke-linecap="round" stroke-linejoin="round" stroke-width="2"/>
      <path id="Path_857" data-name="Path 857" d="M0,0" transform="translate(142.815 109.71)" fill="none" stroke="#000" stroke-linecap="round" stroke-linejoin="round" stroke-width="2"/>
      <path id="Path_858" data-name="Path 858" d="M0,0" transform="translate(182.756 107.734)" fill="none" stroke="#000" stroke-linecap="round" stroke-linejoin="round" stroke-width="2"/>
      <path id="Path_859" data-name="Path 859" d="M0,.294.023.166.014,0" transform="translate(144.169 88.519)" fill="none" stroke="#000" stroke-linecap="round" stroke-linejoin="round" stroke-width="2"/>
      <path id="Path_860" data-name="Path 860" d="M0,.163.1.079.246,0" transform="translate(116.466 73.068)" fill="none" stroke="#000" stroke-linecap="round" stroke-linejoin="round" stroke-width="2"/>
      <line id="Line_253" data-name="Line 253" y1="21.285" x2="9.183" transform="translate(134.986 88.813)" fill="none" stroke="#000" stroke-linecap="round" stroke-linejoin="round" stroke-width="2"/>
      <line id="Line_254" data-name="Line 254" y1="18.323" x2="14.448" transform="translate(102.018 73.231)" fill="none" stroke="#000" stroke-linecap="round" stroke-linejoin="round" stroke-width="2"/>
      <path id="Path_861" data-name="Path 861" d="M13.584,8.808A35.085,35.085,0,0,1,8.341,6.45,34.946,34.946,0,0,1,0,0" transform="translate(107.791 99.153)" fill="none" stroke="#000" stroke-linecap="round" stroke-linejoin="round" stroke-width="2"/>
      <line id="Line_255" data-name="Line 255" x1="56.484" y2="23.831" transform="translate(24.225 76.358)" fill="none" stroke="#000" stroke-linecap="round" stroke-linejoin="round" stroke-width="2"/>
      <line id="Line_256" data-name="Line 256" x1="26.274" y2="10.716" transform="translate(23.109 84.613)" fill="none" stroke="#000" stroke-linecap="round" stroke-linejoin="round" stroke-width="2"/>
      <path id="Path_862" data-name="Path 862" d="M2.234,0,1.243.6l-.763.84L0,2.461" transform="translate(21.991 100.189)" fill="none" stroke="#000" stroke-linecap="round" stroke-linejoin="round" stroke-width="2"/>
      <path id="Path_863" data-name="Path 863" d="M0,5.72A3.785,3.785,0,0,0,1.855,4.134C2.662,2.763,2.338,1.4,1.836,0" transform="translate(207.468 137.324)" fill="none" stroke="#000" stroke-linecap="round" stroke-linejoin="round" stroke-width="2"/>
      <line id="Line_257" data-name="Line 257" x1="11.124" y1="20.305" transform="translate(198.18 117.019)" fill="none" stroke="#000" stroke-linecap="round" stroke-linejoin="round" stroke-width="2"/>
      <path id="Path_864" data-name="Path 864" d="M191.2,140.872,64.965,194.132,141.829,0,0,59.84" transform="translate(16.041 1.759)" fill="none" stroke="#000" stroke-linecap="round" stroke-linejoin="round" stroke-width="2"/>
      <path id="Path_865" data-name="Path 865" d="M4.941,2.779A5.564,5.564,0,0,0,0,0" transform="translate(193.24 114.24)" fill="none" stroke="#000" stroke-linecap="round" stroke-linejoin="round" stroke-width="2"/>
      <line id="Line_258" data-name="Line 258" x1="58.585" y2="2.898" transform="translate(134.655 114.243)" fill="none" stroke="#000" stroke-linecap="round" stroke-linejoin="round" stroke-width="2"/>
      <path id="Path_866" data-name="Path 866" d="M38.551,21.684a40.936,40.936,0,0,1-22-5.223A44.336,44.336,0,0,1,0,0" transform="translate(96.104 95.457)" fill="none" stroke="#000" stroke-linecap="round" stroke-linejoin="round" stroke-width="2"/>
      <line id="Line_259" data-name="Line 259" x1="9.198" y1="16.79" transform="translate(86.905 78.667)" fill="none" stroke="#000" stroke-linecap="round" stroke-linejoin="round" stroke-width="2"/>
      <path id="Path_867" data-name="Path 867" d="M6.2,2.6A5.312,5.312,0,0,0,0,.27" transform="translate(80.704 76.074)" fill="none" stroke="#000" stroke-linecap="round" stroke-linejoin="round" stroke-width="2"/>
      <line id="Line_260" data-name="Line 260" y1="53.063" x2="125.766" transform="translate(81.704 143.05)" fill="none" stroke="#000" stroke-linecap="round" stroke-linejoin="round" stroke-width="2"/>
      <path id="Path_868" data-name="Path 868" d="M0,0,.054.136.066.254" transform="translate(80.016 43.032)" fill="none" stroke="#000" stroke-linecap="round" stroke-linejoin="round" stroke-width="2"/>
      <path id="Path_869" data-name="Path 869" d="M.956,0,.478,13.485,0,26.97" transform="translate(79.125 43.286)" fill="none" stroke="#000" stroke-linecap="round" stroke-linejoin="round" stroke-width="2"/>
      <line id="Line_261" data-name="Line 261" y1="28.224" x2="3.929" transform="translate(22.642 65.863)" fill="none" stroke="#000" stroke-linecap="round" stroke-linejoin="round" stroke-width="2"/>
      <path id="Path_870" data-name="Path 870" d="M.066.254.055.136,0,0" transform="translate(26.504 65.609)" fill="none" stroke="#000" stroke-linecap="round" stroke-linejoin="round" stroke-width="2"/>
      <path id="Path_871" data-name="Path 871" d="M0,0C3.556,5.108,7.326,9.3,13.3,11.608a24.9,24.9,0,0,0,18.047.041" transform="translate(66.362 183.939)" fill="none" stroke="#000" stroke-linecap="round" stroke-linejoin="round" stroke-width="2"/>
      <line id="Line_262" data-name="Line 262" x2="49.069" y2="89.567" transform="translate(17.293 94.372)" fill="none" stroke="#000" stroke-linecap="round" stroke-linejoin="round" stroke-width="2"/>
      <path id="Path_872" data-name="Path 872" d="M12.05,0C6.51,2.659,2.262,7.071.651,13.142A20.219,20.219,0,0,0,2.933,28.7" transform="translate(14.455 65.609)" fill="none" stroke="#000" stroke-linecap="round" stroke-linejoin="round" stroke-width="2"/>
      <line id="Line_263" data-name="Line 263" x1="53.511" y2="22.577" transform="translate(26.505 43.032)" fill="none" stroke="#000" stroke-linecap="round" stroke-linejoin="round" stroke-width="2"/>
      <path id="Path_873" data-name="Path 873" d="M25.457,10.782A20.954,20.954,0,0,0,0,1.244" transform="translate(79.995 41.732)" fill="none" stroke="#000" stroke-linecap="round" stroke-linejoin="round" stroke-width="2"/>
      <line id="Line_264" data-name="Line 264" x1="11.26" y1="20.554" transform="translate(105.452 52.514)" fill="none" stroke="#000" stroke-linecap="round" stroke-linejoin="round" stroke-width="2"/>
      <path id="Path_874" data-name="Path 874" d="M27.47,15.451A31.453,31.453,0,0,1,0,0" transform="translate(116.713 73.068)" fill="none" stroke="#000" stroke-linecap="round" stroke-linejoin="round" stroke-width="2"/>
      <line id="Line_265" data-name="Line 265" x1="64.149" y2="3.174" transform="translate(144.182 85.345)" fill="none" stroke="#000" stroke-linecap="round" stroke-linejoin="round" stroke-width="2"/>
      <path id="Path_875" data-name="Path 875" d="M19.819,11.156A22.277,22.277,0,0,0,0,.012" transform="translate(208.331 85.324)" fill="none" stroke="#000" stroke-linecap="round" stroke-linejoin="round" stroke-width="2"/>
      <line id="Line_266" data-name="Line 266" x1="8.543" y1="15.594" transform="translate(228.15 96.48)" fill="none" stroke="#000" stroke-linecap="round" stroke-linejoin="round" stroke-width="2"/>
      <path id="Path_876" data-name="Path 876" d="M0,28.763c5.273-2.822,9.438-6.478,11.19-12.433a20.468,20.468,0,0,0,.624-8.381C11.436,5.026,10.187,2.7,9.212,0" transform="translate(227.482 112.074)" fill="none" stroke="#000" stroke-linecap="round" stroke-linejoin="round" stroke-width="2"/>
      <line id="Line_267" data-name="Line 267" y1="54.752" x2="129.769" transform="translate(97.713 140.837)" fill="none" stroke="#000" stroke-linecap="round" stroke-linejoin="round" stroke-width="2"/>
      <path id="Path_877" data-name="Path 877" d="M0,1.59A26.059,26.059,0,0,1,18.231,1.7,25.856,25.856,0,0,1,31.316,13.258" transform="translate(156.274 9.268)" fill="none" stroke="#000" stroke-linecap="round" stroke-linejoin="round" stroke-width="2"/>
      <line id="Line_268" data-name="Line 268" x2="19.599" y2="35.776" transform="translate(187.624 22.506)" fill="none" stroke="#000" stroke-linecap="round" stroke-linejoin="round" stroke-width="2"/>
      <path id="Path_878" data-name="Path 878" d="M13.178,0a16.217,16.217,0,0,1,.342,15.207C10.7,20.644,5.72,22.761,0,23.718" transform="translate(194.046 58.282)" fill="none" stroke="#000" stroke-linecap="round" stroke-linejoin="round" stroke-width="2"/>
      <line id="Line_269" data-name="Line 269" x1="50.499" y2="2.498" transform="translate(143.547 82)" fill="none" stroke="#000" stroke-linecap="round" stroke-linejoin="round" stroke-width="2"/>
      <path id="Path_879" data-name="Path 879" d="M23.11,13.007A26.005,26.005,0,0,1,0,0" transform="translate(120.437 71.496)" fill="none" stroke="#000" stroke-linecap="round" stroke-linejoin="round" stroke-width="2"/>
      <line id="Line_270" data-name="Line 270" x1="11.26" y1="20.554" transform="translate(109.174 50.944)" fill="none" stroke="#000" stroke-linecap="round" stroke-linejoin="round" stroke-width="2"/>
      <path id="Path_880" data-name="Path 880" d="M2.32,23.327A16.61,16.61,0,0,1,.47,10.949,16.573,16.573,0,0,1,8.918.363L9.718,0" transform="translate(106.903 27.588)" fill="none" stroke="#000" stroke-linecap="round" stroke-linejoin="round" stroke-width="2"/>
      <line id="Line_271" data-name="Line 271" y1="16.73" x2="39.653" transform="translate(116.62 10.858)" fill="none" stroke="#000" stroke-linecap="round" stroke-linejoin="round" stroke-width="2"/>
      <path id="Path_881" data-name="Path 881" d="M12.848,0A21.647,21.647,0,0,0,.868,13.392a21.294,21.294,0,0,0-.676,8.884c.412,3.053,1.846,5.5,2.862,8.351" transform="translate(3.193 61.599)" fill="none" stroke="#000" stroke-linecap="round" stroke-linejoin="round" stroke-width="2"/>
      <line id="Line_272" data-name="Line 272" y1="59.84" x2="141.829" transform="translate(95.231 146.309)" fill="none" stroke="#000" stroke-linecap="round" stroke-linejoin="round" stroke-width="2"/>
      <line id="Line_273" data-name="Line 273" x2="55.611" y2="101.51" transform="translate(6.23 92.233)" fill="none" stroke="#000" stroke-linecap="round" stroke-linejoin="round" stroke-width="2"/>
      <path id="Path_882" data-name="Path 882" d="M0,0A27.537,27.537,0,0,0,14.246,12.43a27.346,27.346,0,0,0,9.66,1.763c2.8,0,7.053-.135,9.443-1.764" transform="translate(61.882 193.72)" fill="none" stroke="#000" stroke-linecap="round" stroke-linejoin="round" stroke-width="2"/>
      <path id="Path_883" data-name="Path 883" d="M0,11.679l2.108-1.023,1.968-1.23L5.883,8,7.512,6.4,8.947,4.628l1.225-1.915L11.672,0" transform="translate(233.738 140.113)" fill="none" stroke="#000" stroke-linecap="round" stroke-linejoin="round" stroke-width="2"/>
      <path id="Path_884" data-name="Path 884" d="M5.467,0C3.517,3.1,1.555,6.021.664,9.638A22.711,22.711,0,0,0,2.948,26.323" transform="translate(0 71.369)" fill="none" stroke="#000" stroke-linecap="round" stroke-linejoin="round" stroke-width="2"/>
      <line id="Line_274" data-name="Line 274" y1="59.84" x2="141.829" transform="translate(91.909 151.792)" fill="none" stroke="#000" stroke-linecap="round" stroke-linejoin="round" stroke-width="2"/>
      <line id="Line_275" data-name="Line 275" x2="55.611" y2="101.51" transform="translate(2.908 97.716)" fill="none" stroke="#000" stroke-linecap="round" stroke-linejoin="round" stroke-width="2"/>
      <path id="Path_885" data-name="Path 885" d="M0,0A28.056,28.056,0,0,0,14.913,12.642a27.43,27.43,0,0,0,18.5-.162" transform="translate(58.519 199.226)" fill="none" stroke="#000" stroke-linecap="round" stroke-linejoin="round" stroke-width="2"/>
      <path id="Path_886" data-name="Path 886" d="M0,7.288Q5.963,4.913,11.934,2.558l.181-.072c1.508-.6,3.019-1.19,4.52-1.8l.015-.006a11.969,11.969,0,0,1,1.5-.536,5.507,5.507,0,0,1,2.32-.033,11.886,11.886,0,0,1,2.186.585,11.007,11.007,0,0,1,1.082.477,11.605,11.605,0,0,1,2.2,1.454q.315.263.612.548" transform="translate(137.261 38.75)" fill="none" stroke="#000" stroke-linecap="round" stroke-linejoin="round" stroke-width="2"/>
    </g>
  </g>
</svg>
