<svg xmlns="http://www.w3.org/2000/svg" width="1563.108" height="850.335" viewBox="0 0 1563.108 850.335"><g transform="translate(-228.024 -2368.141)"><text transform="translate(228.024 2644.764)" font-size="35" font-family="CeraRoundPro-Bold, Cera Round Pro" font-weight="700"><tspan x="0" y="35">polipropylen</tspan></text><text transform="translate(1437.132 2368.141)" font-size="35" font-family="CeraRoundPro-Bold, Cera Round Pro" font-weight="700"><tspan x="0" y="35">tworzywa </tspan><tspan x="0" y="85">biodegradowalne </tspan></text><path d="M10430.93,2370.888l-91.945-91.944-293.406.042v-4l294.234-.042,1.414.586,92.531,92.53Z" transform="translate(-9806.082 440.173)" fill="#e3b814"/><path d="M10339.813,2371.474h-303.842v-4h303.014l91.945-91.944,2.828,2.829-92.531,92.53Z" transform="translate(-9674.082 791.734)" fill="#e3b814"/><path d="M10095.988,2370.888l-2.828-2.829,92.531-92.53,1.409-.586,316.953-.8.01,4-316.128.8Z" transform="translate(-8819.707 213.903)" fill="#e3b814"/><text transform="translate(327.929 3092.943)" font-size="35" font-family="CeraRoundPro-Bold, Cera Round Pro" font-weight="700"><tspan x="0" y="35">biotworzywa</tspan></text><g transform="matrix(0.995, 0.105, -0.105, 0.995, 355.614, 2434.902)"><path d="M283.56,550.82a132.811,132.811,0,0,1-16.574-.972,83.942,83.942,0,0,1-17.4-3.956,50.7,50.7,0,0,1-14.745-7.936,61.587,61.587,0,0,1-9.076-8.826,51.018,51.018,0,0,1-6.138-9.279,49.72,49.72,0,0,1-5.23-18.691,66.108,66.108,0,0,1,.925-16.917,128.819,128.819,0,0,1,3.122-13.046,51.915,51.915,0,0,0,1.413-5.7c.4-2.982,3.949-11.381,9.048-21.4a436.588,436.588,0,0,1,25.219-42.723,548.388,548.388,0,0,1,42.081-55.344,529.134,529.134,0,0,1,59.537-58.824c21.677-18.489,43.609-36.574,65.185-53.752C444.62,214.6,467.857,196.851,490,180.717c50.959-37.137,95.875-65.648,133.5-84.741,36.619-18.583,75.01-37.82,107.692-52.632,16.192-7.338,29.945-13.13,42.045-17.706a254.2,254.2,0,0,1,33.214-10.462c8.409-1.9,16.66-4.1,24.638-6.234C845.39,5.12,858.9,1.51,873.555-.6a168.7,168.7,0,0,1,22.8-1.783,155.833,155.833,0,0,1,24.81,1.767c9.763,1.471,18.1,3.853,24.768,7.081a47.983,47.983,0,0,1,8.173,4.958,37.065,37.065,0,0,1,5.877,5.554,33.929,33.929,0,0,1,6.392,11.6A59.976,59.976,0,0,1,968.527,38.6c.13.871.254,1.694.383,2.429.91,5.154-.085,15.969-2.66,28.929-2.6,13.078-6.2,25.154-9.632,32.3-7.236,15.076-21.779,38.746-21.925,38.984a2,2,0,1,1-3.407-2.1c.145-.236,14.58-23.731,21.726-38.618,3.3-6.865,6.777-18.586,9.314-31.353,1.176-5.92,2.048-11.592,2.519-16.4a46.07,46.07,0,0,0,.125-11.052c-.139-.787-.266-1.635-.4-2.532-.812-5.422-1.924-12.849-7.648-19.634a38.142,38.142,0,0,0-12.734-9.49c-6.31-3.052-14.258-5.315-23.622-6.726a153.317,153.317,0,0,0-22.939-1.735c-23.589,0-44.094,5.478-65.51,11.2-8.016,2.141-16.3,4.356-24.79,6.272C768.3,27.89,698.957,62.168,625.307,99.543c-37.434,19-82.166,47.4-132.954,84.407-42.16,30.725-88.5,67.484-134.016,106.3l-.012.01c-47.92,40.253-81.3,83.844-100.866,113.325a432.551,432.551,0,0,0-24.987,42.325c-5.931,11.652-8.421,18.411-8.648,20.112a52.266,52.266,0,0,1-1.527,6.253c-1.926,6.864-4.838,17.237-3.911,28.556a45.74,45.74,0,0,0,4.8,17.2,47.013,47.013,0,0,0,5.658,8.549,57.583,57.583,0,0,0,8.487,8.248c7.176,5.714,17.321,9.433,30.151,11.052,10.407,1.313,22.567,1.251,36.142-.185a274.8,274.8,0,0,0,30.239-5.031c7.69-1.718,12.554-3.145,12.6-3.159a2,2,0,0,1,1.13,3.837c-.2.06-5.042,1.479-12.861,3.226a278.861,278.861,0,0,1-30.691,5.1A195.5,195.5,0,0,1,283.56,550.82Z" transform="translate(0 -4.01)"/><path d="M1386.5,137.266a2,2,0,0,1-1.717-3.023c.151-.254,15.141-25.467,19.287-34.942,4.563-10.43,11.351-30.448,11.351-42.849a64.989,64.989,0,0,0-3.087-19.32c-1.921-5.985-4.532-10.776-7.164-13.145a2,2,0,0,1,2.676-2.973c3.188,2.869,6.134,8.159,8.3,14.9a69.094,69.094,0,0,1,3.279,20.542c0,14.032-7.645,35.213-11.687,44.453-4.245,9.7-18.893,34.341-19.514,35.385A2,2,0,0,1,1386.5,137.266Z" transform="translate(-460.785 -13.021)"/><path d="M217.27,485.367a2,2,0,0,1-2-1.964,120.071,120.071,0,0,1,4.668-33.931,195.184,195.184,0,0,1,15.813-38.855c15.262-28.885,38.595-59.272,69.351-90.319,30.459-30.747,52.08-51.735,70.1-68.052,16.46-14.9,28.89-24.981,44.653-37.592,21.3-17.038,47.516-35.671,66.661-49.277,8.165-5.8,15.216-10.814,20.094-14.427,16.123-11.943,51.587-34.237,79.582-51.034C607.072,87.391,641.088,69.9,659.362,60.5c5.394-2.774,9.292-4.778,10.556-5.481,5.5-3.054,72.186-32.78,85.771-37.72C769.41,12.31,810.009-.384,824.4-3.98c8.989-2.247,24.662-4.364,33.2-5.425,12.784-1.589,25.608-2.813,32.671-3.12,5.949-.259,13.688.6,23,2.541,6.9,1.44,11.992,2.932,12.205,2.995l.119.035.114.049L939.656-.843a2,2,0,0,1-1.595,3.668L924.235-3.186c-.8-.23-5.626-1.6-11.812-2.89-8.848-1.846-16.448-2.694-21.978-2.454-14.279.621-51.1,4.934-65.078,8.43-14.3,3.574-54.662,16.2-68.309,21.159-5.8,2.108-22.832,9.37-45.572,19.426-19.7,8.713-37.108,16.633-39.624,18.031-1.32.734-5.04,2.646-10.669,5.541-18.234,9.377-52.174,26.831-72.937,39.289-27.912,16.747-63.245,38.956-79.259,50.818-4.909,3.636-11.975,8.658-20.157,14.473-19.106,13.578-45.272,32.173-66.48,49.14-15.707,12.566-28.092,22.607-44.467,37.433-17.967,16.267-39.539,37.209-69.945,67.9-30.479,30.767-53.578,60.836-68.656,89.372A191.19,191.19,0,0,0,223.8,450.536a116.094,116.094,0,0,0-4.525,32.795,2,2,0,0,1-1.963,2.036Z" transform="translate(-0.412 0)"/><path d="M294.155,855.658c-6.633,0-14.08-.151-20.43-.453a59.282,59.282,0,0,1-18.895-4.227,108.2,108.2,0,0,1-17.216-8.8,40.757,40.757,0,0,1-7.333-5.748,43.688,43.688,0,0,1-4.925-5.788,35.52,35.52,0,0,1-3.705-6.384,2,2,0,0,1,3.7-1.525,32.546,32.546,0,0,0,3.339,5.691,38.415,38.415,0,0,0,11.012,10.34c8.933,5.459,20.894,11.806,34.216,12.44,12.6.6,29.513.6,35.475.008,6.482-.648,21.7-3.078,25.48-4.7a2,2,0,0,1,1.576,3.677c-2.552,1.094-8.368,2.242-12.8,3.012-5.645.982-11.029,1.707-13.86,1.99C306.717,855.5,300.85,855.658,294.155,855.658Z" transform="translate(-2.871 -328.403)"/><path d="M629.609,1017.336c-11.379,0-21.929-.433-28.685-.9a80.117,80.117,0,0,1-13.635-2.271c-3.911-.971-8.046-2.234-12.289-3.752-6.567-2.35-11.277-4.55-12.229-5a108.875,108.875,0,0,1-22.842-9.263,127.458,127.458,0,0,1-17.469-11.424,110.663,110.663,0,0,1-15.035-13.8L371.052,827.88a2,2,0,0,1,2.9-2.76L510.4,968.238l.036.042A108.184,108.184,0,0,0,525,981.63c8.483,6.571,22.135,15.37,39,19.97l.179.049.167.081c.049.024,5.024,2.423,12.05,4.935,6.437,2.3,15.965,5.172,24.8,5.782,7.721.533,21.677,1.069,35.6.829,15.222-.263,26.127-1.354,31.534-3.156a2,2,0,0,1,1.265,3.795,66.848,66.848,0,0,1-13.955,2.434c-5.271.491-11.587.8-18.775.927C634.429,1017.317,632,1017.336,629.609,1017.336Z" transform="translate(-61.537 -329.584)"/><path d="M1179.725,681.37h0c14.857,0,25.473,3.958,31.554,11.762,4.607,5.912,6.217,13.57,4.786,22.762-1.539,9.883-6.6,21.551-15.039,34.679-8.017,12.47-18.952,26.076-32.5,40.439a542.467,542.467,0,0,1-45.838,42.868c-17.272,14.485-35.8,28.516-55.084,41.7-37.1,25.376-76.122,46.738-112.852,61.776a360.322,360.322,0,0,1-47.758,16.089c-14.5,3.656-27.144,5.51-37.594,5.51a56.882,56.882,0,0,1-16.314-2.06,23.563,23.563,0,0,1-11.064-6.58,25.72,25.72,0,0,1-5.718-10.995,36.412,36.412,0,0,1-.539-13.42c1.275-9.814,5.805-21.251,13.466-33.994,7.472-12.43,17.756-25.842,30.568-39.863a475.8,475.8,0,0,1,45.06-42.8,645.9,645.9,0,0,1,56.992-42.582c18.383-12.256,37.127-23.715,55.71-34.06,18.636-10.375,36.8-19.455,53.982-26.988a373.8,373.8,0,0,1,48.576-17.8C1155.416,683.539,1168.742,681.37,1179.725,681.37ZM869.4,954.958c20.513,0,50.287-7.565,83.837-21.3,36.473-14.933,75.24-36.156,112.109-61.376,38.2-26.132,73.814-55.969,100.271-84.015,13.381-14.184,24.163-27.594,32.046-39.857,8.136-12.656,13-23.8,14.451-33.131,1.255-8.057-.087-14.681-3.988-19.688-5.284-6.782-14.839-10.22-28.4-10.221-41.749,0-118.548,33.214-195.657,84.62-39.963,26.642-75,55.949-101.318,84.754-25.34,27.732-40.618,53.187-43.02,71.674-1.148,8.839.63,15.988,5.286,21.249C849.239,952.437,857.67,954.958,869.4,954.958Z" transform="translate(-244.582 -273.229)"/><path d="M1174.417,713.031h0c12.9,0,22.127,3.448,27.426,10.248,4.021,5.16,5.428,11.835,4.181,19.839-1.333,8.56-5.71,18.657-13.008,30.01-6.922,10.767-16.362,22.513-28.057,34.91a468.028,468.028,0,0,1-39.549,36.987c-14.9,12.5-30.888,24.6-47.52,35.977-32.005,21.893-65.673,40.322-97.362,53.3a310.969,310.969,0,0,1-41.218,13.886c-12.521,3.158-23.451,4.759-32.485,4.759a49.319,49.319,0,0,1-14.147-1.788,20.587,20.587,0,0,1-9.667-5.755,22.45,22.45,0,0,1-4.992-9.6,31.672,31.672,0,0,1-.471-11.674c1.1-8.5,5.023-18.4,11.648-29.419,6.452-10.734,15.332-22.313,26.391-34.417A410.551,410.551,0,0,1,954.47,823.36a557.246,557.246,0,0,1,49.168-36.737c15.858-10.572,32.027-20.457,48.057-29.381,16.077-8.95,31.746-16.784,46.572-23.283a322.582,322.582,0,0,1,41.923-15.359C1153.406,714.9,1164.921,713.031,1174.417,713.031ZM906.826,948.944c17.654,0,43.29-6.516,72.187-18.347,31.433-12.869,64.843-31.16,96.62-52.9,32.927-22.523,63.618-48.237,86.418-72.407,11.526-12.219,20.813-23.768,27.6-34.328,7-10.881,11.174-20.457,12.421-28.462,1.07-6.87-.069-12.51-3.384-16.765-4.5-5.777-12.668-8.706-24.271-8.707-35.949,0-102.113,28.622-168.561,72.921-34.441,22.961-64.634,48.218-87.315,73.04-21.813,23.872-34.962,45.768-37.026,61.654-.979,7.539.532,13.63,4.491,18.1C889.593,946.8,896.792,948.944,906.826,948.944Z" transform="translate(-261.053 -285.695)"/><path d="M814.3,933.954a73.679,73.679,0,0,1-13.309-1.1c-7.847-1.45-13.735-4.344-17.5-8.6a28.842,28.842,0,0,1-6.409-12.33,40.92,40.92,0,0,1-.6-15.084c1.434-11.014,6.511-23.845,15.091-38.137,8.379-13.957,19.91-29.011,34.275-44.744a532.39,532.39,0,0,1,50.539-48.027,722.334,722.334,0,0,1,63.935-47.757c13.477-8.979,27.263-17.66,40.975-25.8,13.668-8.115,27.383-15.767,40.764-22.741,13.467-7.019,26.717-13.416,39.383-19.013,12.867-5.686,25.262-10.6,36.84-14.618,24.3-8.425,45-12.916,61.517-13.346q1.3-.034,2.571-.034c16.727,0,28.659,4.438,35.494,13.209,4.805,6.167,6.705,14.05,5.646,23.43-.982,8.7-4.527,18.75-10.537,29.883a2,2,0,1,1-3.52-1.9c5.766-10.68,9.158-20.246,10.082-28.431.937-8.3-.687-15.209-4.827-20.522-6.355-8.156-18.063-12.07-34.8-11.635-16.1.42-36.4,4.836-60.311,13.127-46.237,16.029-102.013,45.053-157.055,81.724C897.673,751.4,858.343,784.3,828.8,816.658c-28.465,31.176-45.637,59.836-48.353,80.7-1.312,10.076.721,18.234,6.04,24.248,3.16,3.573,8.285,6.035,15.232,7.319,7.052,1.3,15.866,1.37,26.2.2a2,2,0,0,1,.451,3.974A125.441,125.441,0,0,1,814.3,933.954Z" transform="translate(-221.219 -250.098)"/><path d="M831.74,933.762a1.994,1.994,0,0,1-.8-.169,22.5,22.5,0,0,1-7.953-5.587,27.072,27.072,0,0,1-6-11.573,38.262,38.262,0,0,1-.551-14.118c1.325-10.093,5.932-21.8,13.691-34.8,7.575-12.691,17.99-26.348,30.956-40.592A475.858,475.858,0,0,1,906.691,783.5a643.915,643.915,0,0,1,57.714-43.062c12.213-8.116,24.71-15.957,37.143-23.305,12.393-7.325,24.833-14.225,36.973-20.508,12.219-6.324,24.245-12.081,35.745-17.11,11.683-5.109,22.942-9.52,33.464-13.11,22.094-7.537,40.932-11.5,55.991-11.775.559-.01,1.115-.015,1.664-.015,15.643,0,26.813,4.164,33.221,12.388a27.33,27.33,0,0,1,5.56,16.791,2,2,0,0,1-1.969,2.031h-.031a2,2,0,0,1-2-1.969,23.426,23.426,0,0,0-4.716-14.394c-5.818-7.466-16.468-11.111-31.657-10.832-14.644.268-33.072,4.158-54.773,11.561-41.978,14.32-92.551,40.451-142.4,73.578-40.475,26.9-75.947,56.58-102.583,85.842-25.64,28.169-41.138,54.173-43.64,73.222-1.228,9.354.652,16.931,5.588,22.523a18.556,18.556,0,0,0,6.56,4.571,2,2,0,0,1-.8,3.832Z" transform="translate(-236.958 -262.695)"/><path d="M358.022,810.708a13.189,13.189,0,0,1-2.444-.313,58.644,58.644,0,0,1-9.476-3.712c-2.679-1.257-7.426-3.621-9.128-5.322-.286-.286-1.047-1.047-4.2-6.24-1.841-3.033-4.127-6.974-6.438-11.1-4.169-7.436-9.1-16.693-10.442-20.377-.655-1.8-1.059-2.854-1.3-3.464a1.992,1.992,0,0,1-.576-.978c-.007-.027-.042-.17-.071-.327a2.066,2.066,0,0,1,1.373-2.5,2.022,2.022,0,0,1,2.237.759,2.946,2.946,0,0,1,.249.408c.1.2.222.465.378.843.33.8.826,2.108,1.474,3.892,1.036,2.849,5.029,10.617,10.171,19.788,2.29,4.083,4.552,7.981,6.369,10.977a41.734,41.734,0,0,0,3.607,5.487c.674.674,3.173,2.264,8,4.53a55.5,55.5,0,0,0,8.561,3.411c.626.125,1.041.184,1.3.212a2,2,0,0,1,2.6.654,2.1,2.1,0,0,1,0,2.343,2.5,2.5,0,0,1-2.227,1.026Z" transform="translate(-39.247 -302.728)"/><path d="M318.4,497.053a8.606,8.606,0,0,1-3.936-2.433,14.948,14.948,0,0,1-2.8-4.009,25.1,25.1,0,0,1-2.078-6.682,64.318,64.318,0,0,1-.684-11.824,112.47,112.47,0,0,1,1.822-17.6,120.308,120.308,0,0,1,5.867-21.165,112.14,112.14,0,0,1,11.488-22.405c10.249-15.373,24.139-34.32,37.157-50.683,7.2-9.045,13.829-16.939,19.718-23.464,6.551-7.26,12.035-12.656,16.3-16.037,6.522-5.172,15.347-13.653,25.565-23.473,17.49-16.807,39.257-37.725,63.6-55.981,22.636-16.977,50.04-36.417,75.185-53.335,15.358-10.333,30.068-19.873,43.722-28.354,15.378-9.552,29.51-17.818,42-24.567,29.635-16.01,51.573-27.13,71.129-36.057A513.451,513.451,0,0,1,786.9,74.259c10.571-3.23,20.7-6.06,30.119-8.411,8.823-2.2,17.3-4.058,25.2-5.511a252.051,252.051,0,0,1,38.575-4.352,69.808,69.808,0,0,1,15.81,1.441,87.313,87.313,0,0,1,13.681,3.994c8.2,3.123,14.122,6.714,16.1,8.365.6.5,2.435,2.029,13.175,15.684,5.254,6.68,10.125,13.071,10.174,13.135a2,2,0,0,1-3.182,2.424c-7.743-10.163-20.186-26.052-22.728-28.17-1.708-1.424-7.282-4.773-14.967-7.7-6.654-2.535-16.906-5.49-27.953-5.175a248.133,248.133,0,0,0-37.965,4.287c-7.815,1.439-16.21,3.275-24.952,5.458-9.348,2.335-19.415,5.146-29.92,8.356-44.073,13.467-82.811,32.371-134.831,60.473C602.666,165.876,535.217,212.7,492.823,244.495c-24.146,18.11-45.815,38.933-63.227,55.665-10.292,9.891-19.181,18.432-25.851,23.723-4.091,3.244-9.411,8.487-15.815,15.583-5.833,6.464-12.413,14.295-19.557,23.275-12.952,16.281-26.769,35.126-36.959,50.412a108.133,108.133,0,0,0-11.076,21.606,116.293,116.293,0,0,0-5.671,20.459c-2.274,12.543-2.033,22.932-1.135,28.017.811,4.6,2.373,7.065,3.541,8.326a5.427,5.427,0,0,0,2.246,1.6c-.031-.009-.048-.011-.048-.011Z" transform="translate(-37.278 -26.983)"/><path d="M335.26,523.945a2,2,0,0,1-1.969-1.664c-.112-.654-2.722-16.1-1.468-23.625s4.436-16.375,7.381-24.033c3.5-9.1,8.273-20.682,14.147-29.492,6.081-9.122,18.9-26.822,25.514-35.843a382.954,382.954,0,0,1,26.874-31.757c3.131-3.131,21.161-20.2,38.6-36.707,16.831-15.933,32.729-30.983,35.366-33.62,3.309-3.309,12.226-10.494,22.551-18.814,7.053-5.684,15.048-12.125,22.446-18.291,11.261-9.384,35.068-25.286,58.091-40.664,14.15-9.452,27.516-18.379,36.6-24.9,9.673-6.945,33.414-20.273,70.565-39.615,25.8-13.433,50.6-25.86,60.065-30.579l.594-.3c2.07-1.035,18.693-7.65,32.907-13.185,9.223-3.591,31.246-12.108,36.552-13.625,5.006-1.43,16.815-4.352,26.3-6.7,6.757-1.671,12.592-3.115,14.316-3.607C865.129,95.66,890.152,92,893.378,92c2.851,0,24.281.59,28.777,1.233,3.991.57,15.989,4.487,20.962,6.145.519.173,1.3.576,3.492,2.338,1.368,1.1,3.045,2.544,4.722,4.065,1.755,1.592,3.349,3.119,4.61,4.417a15.659,15.659,0,0,1,2.883,3.521c.938,1.877,3.239,9.123,5.322,15.767.4,1.285.721,2.3.849,2.683.252.757.445,2.149-.31,6.226-.386,2.083-.841,3.909-.86,3.986a2,2,0,1,1-3.881-.97c.007-.028.427-1.717.783-3.615.629-3.35.485-4.28.465-4.383-.142-.429-.446-1.4-.864-2.73-1.26-4.018-4.21-13.428-5.083-15.175-.272-.538-2.25-2.8-6.4-6.577a56.3,56.3,0,0,0-7.042-5.773c-7.822-2.607-17.226-5.538-20.218-5.965C917.633,96.627,896.658,96,893.378,96c-1.273,0-7.858.838-15.317,1.949-8.1,1.206-14.48,2.314-16.266,2.825s-7.66,1.964-14.454,3.644c-9.458,2.34-21.228,5.251-26.166,6.662-3.569,1.02-17.1,6.069-36.2,13.506-15.653,6.1-30.872,12.187-32.57,13.036l-.6.3c-17.915,8.933-108.381,54.283-130.083,69.864-9.139,6.561-22.532,15.507-36.711,24.978-22.937,15.32-46.654,31.162-57.752,40.411-7.424,6.186-15.432,12.639-22.5,18.332-10.235,8.247-19.075,15.37-22.232,18.527-2.676,2.676-18.592,17.743-35.444,33.7-17.418,16.488-35.428,33.538-38.52,36.63a377.4,377.4,0,0,0-26.477,31.294c-6.6,8.994-19.37,26.633-25.412,35.7-5.655,8.483-10.314,19.8-13.741,28.709-2.874,7.472-5.973,16.078-7.169,23.255-1.144,6.863,1.439,22.141,1.465,22.294a2,2,0,0,1-1.974,2.337Z" transform="translate(-46.174 -41.173)"/><path d="M586.4,726.966a53.435,53.435,0,0,1-13.114-1.646,61.32,61.32,0,0,1-19.213-8.7,58.957,58.957,0,0,1-8.539-6.9c-3.061-3.061-125.852-150.868-131.077-157.159A2,2,0,1,1,417.538,550C461.667,603.121,545.8,704.275,548.369,706.887a59.419,59.419,0,0,0,25.9,14.554c19.2,4.846,38.3-1.692,56.781-19.435,40.61-38.985,20.753-82.1,13.7-94.381l-.1-.178c-.712-1.158-10.113-13.29-64.951-81.378C548.47,487.3,517.216,448.643,516.9,448.257a2,2,0,1,1,3.11-2.515c.314.388,31.738,39.252,63.054,78.135,63.455,78.787,64.655,80.887,65.049,81.578l.1.179a88.734,88.734,0,0,1,11.209,35.045,73.259,73.259,0,0,1-3.538,30.855,76.392,76.392,0,0,1-8.158,16.685,99.963,99.963,0,0,1-30.878,29.814,65.626,65.626,0,0,1-16,6.943A54.11,54.11,0,0,1,586.4,726.966Z" transform="translate(-78.665 -180.161)"/><path d="M585.012,755.606q-1.226,0-2.436-.086a32.519,32.519,0,0,1-16.038-5.565,27.3,27.3,0,0,1-5.6-4.92L435.44,588.621a2,2,0,1,1,3.12-2.5l125.5,156.416a24.1,24.1,0,0,0,4.879,4.213,28.32,28.32,0,0,0,14.01,4.789c11.923.82,24.98-5.339,38.809-18.3,15.381-14.42,23.548-30.717,23.618-47.13a49.486,49.486,0,0,0-2.268-15.063,34.891,34.891,0,0,0-2.243-5.543l-78.08-93.212a2,2,0,0,1,3.066-2.568l78.323,93.5.089.155a35.909,35.909,0,0,1,2.592,6.25,53.449,53.449,0,0,1,2.522,16.264,57.727,57.727,0,0,1-5.018,23.273c-4.132,9.426-10.815,18.507-19.864,26.991-7.918,7.424-15.765,12.8-23.321,15.967A41.763,41.763,0,0,1,585.012,755.606Z" transform="translate(-86.933 -228.985)"/><path d="M598.047,739.715h-.006a5.382,5.382,0,0,1-3.149-1.23,112.766,112.766,0,0,1-17.845-16.251c-5.436-5.972-10.482-12.335-15.361-18.488-.763-.963-1.552-1.958-2.323-2.927l-17.508-21.994c-14.6-18.342-29.7-37.309-44.538-55.973l-3.866-4.863c-7.707-9.695-15.677-19.72-23.535-29.562l-.638-.8c-2.511-3.143-5.107-6.393-7.678-9.572-.132-.164-.282-.381-.582-.818-.311-.454-.7-1.02-1.086-1.536a9.237,9.237,0,0,0-.7-.857A2,2,0,0,1,460,571c1.441,0,2.421,1.212,4.316,3.977.15.22.337.492.4.569,2.578,3.186,5.177,6.44,7.69,9.586l.639.8c7.862,9.846,15.832,19.872,23.541,29.569l3.866,4.863c14.838,18.663,29.936,37.629,44.537,55.971l17.508,21.995c.773.972,1.564,1.968,2.328,2.932,9.775,12.328,19.883,25.076,32.389,33.965q.21.149.372.253a8.671,8.671,0,0,0-.592-2.262,2,2,0,1,1,3.693-1.538,13.416,13.416,0,0,1,.781,2.683,5.19,5.19,0,0,1-.525,3.885A3.347,3.347,0,0,1,598.047,739.715Z" transform="translate(-95.989 -229.772)"/><path d="M624.892,719.374a6.133,6.133,0,0,1-1.77-.284c-6.041-1.825-10.784-7.5-14.595-12.058-.41-.49-.8-.953-1.179-1.4-5.528-6.521-10.978-13.284-16.248-19.824-1.588-1.97-3.229-4.008-4.847-6.006-11.311-13.973-22.615-28.02-32.18-39.919-10.367-12.9-21.257-26.466-34.274-42.706-9.232-11.519-18.4-22.968-27.251-34.031-3.314-4.142-7.226-9.032-11.11-13.892a2,2,0,1,1,3.125-2.5c3.884,4.859,7.8,9.749,11.109,13.891,8.85,11.062,18.018,22.511,27.249,34.028,13.015,16.239,23.9,29.808,34.27,42.7,9.563,11.9,20.864,25.94,32.171,39.908,1.621,2,3.264,4.041,4.853,6.013,5.255,6.521,10.689,13.264,16.185,19.747.392.462.783.93,1.2,1.426,3.469,4.15,7.787,9.316,12.682,10.794.1.031.191.053.27.07a8.1,8.1,0,0,0-1.386-3.8,2,2,0,0,1,3.406-2.1,11.782,11.782,0,0,1,1.98,5.822,4.166,4.166,0,0,1-.869,2.926A3.545,3.545,0,0,1,624.892,719.374Z" transform="translate(-105.045 -219.929)"/><path d="M649.787,696.317c-1.376,0-3.059-.92-5.675-3.081-1.845-1.524-4.148-3.676-6.844-6.394-4.679-4.717-9.077-9.657-10-10.721-4.646-5.365-9.156-10.974-13.517-16.4-2.092-2.6-4.256-5.293-6.4-7.917l-101.9-124.539a2,2,0,1,1,3.1-2.533l101.9,124.539c2.158,2.638,4.327,5.335,6.425,7.944,4.339,5.4,8.826,10.975,13.424,16.285.791.914,4.938,5.571,9.329,10.031a71.039,71.039,0,0,0,8.742,7.933,16.906,16.906,0,0,0-1.316-3.972,2,2,0,0,1,3.635-1.669,18.591,18.591,0,0,1,1.863,7.183,3.611,3.611,0,0,1-.39,1.938A2.623,2.623,0,0,1,650.1,696.3,3,3,0,0,1,649.787,696.317Z" transform="translate(-114.495 -211.267)"/><path d="M669.951,668.856a2.762,2.762,0,0,1-.6-.066,3.449,3.449,0,0,1-1.389-.192,9.742,9.742,0,0,1-1.865-.912,43.924,43.924,0,0,1-4.1-2.9c-2.746-2.135-5.293-4.38-5.4-4.474l-.121-.106-.1-.124L528.454,504.269a2,2,0,0,1,3.092-2.538L659.364,657.414c.471.412,2.282,1.984,4.3,3.588a48.542,48.542,0,0,0,4.235,3.1c-.179-.476-.415-1.056-.726-1.759-1.242-2.8-3.305-6.716-6.132-11.625a2,2,0,1,1,3.466-2,114.809,114.809,0,0,1,6.986,13.584,13.942,13.942,0,0,1,.921,3.169,3.037,3.037,0,0,1-.758,2.71A2.426,2.426,0,0,1,669.951,668.856Z" transform="translate(-123.55 -202.211)"/><path d="M679.717,627.776a4.976,4.976,0,0,1-2.149-.576c-7.676-3.65-12.692-10.178-17.542-16.492-.9-1.169-1.826-2.377-2.749-3.536-19.871-24.953-40.03-49.665-62.43-77.067-10.247-12.533-20.274-24.8-29.8-36.448l-12.59-15.391a2,2,0,1,1,3.1-2.533l12.591,15.391c9.531,11.652,19.559,23.915,29.805,36.449,22.409,27.412,42.576,52.135,62.462,77.106.944,1.186,1.884,2.409,2.792,3.591,4.684,6.1,9.113,11.861,15.712,15.133a2,2,0,0,1,3.215-.366,2.645,2.645,0,0,1,.574,2.537,3.022,3.022,0,0,1-2.071,2.077A3.369,3.369,0,0,1,679.717,627.776Z" transform="translate(-133 -191.974)"/><path d="M947.385,446.63a73.987,73.987,0,0,1-29.34-5.973A76.169,76.169,0,0,1,898.2,428.2a54.9,54.9,0,0,1-6.861-6.952l-.065-.084-.056-.091L783.3,246.472a2,2,0,1,1,3.4-2.1l107.853,174.5a53.95,53.95,0,0,0,6.4,6.43,72.651,72.651,0,0,0,18.84,11.754c21.9,9.317,46.2,7.071,72.218-6.674,23.894-12.623,38.646-28.812,43.845-48.115a59.965,59.965,0,0,0,1.133-25.594,42.656,42.656,0,0,0-3.907-12.584c-3.008-4.813-101.329-170.035-105.513-177.067a2,2,0,1,1,3.437-2.046c1.024,1.722,102.482,172.216,105.467,176.992,1.994,3.19,8.837,20.571,3.244,41.338a67.217,67.217,0,0,1-13.774,25.843,90.073,90.073,0,0,1-13.361,12.78,125.075,125.075,0,0,1-18.7,11.988,117.493,117.493,0,0,1-23.146,9.385,88.382,88.382,0,0,1-20.457,3.274Q948.829,446.63,947.385,446.63Z" transform="translate(-223.953 -69.522)"/><path d="M950.2,471.076a50.089,50.089,0,0,1-15.074-2.2c-12.583-3.957-17.9-11.84-18.12-12.174l-.05-.081L813.28,282.021a2,2,0,0,1,3.439-2.042L920.358,454.528a22.751,22.751,0,0,0,3.818,3.987,35.27,35.27,0,0,0,12.432,6.637c10.6,3.246,29.173,3.919,57.49-11.3,21.194-11.881,33.776-24.912,37.4-38.731a29.066,29.066,0,0,0,.282-14.233,21,21,0,0,0-2.036-5.454L984.9,326.346a2,2,0,0,1,3.355-2.178l44.886,69.149a23.979,23.979,0,0,1,2.476,6.41,31.726,31.726,0,0,1,.907,7.121A34.638,34.638,0,0,1,1035.4,416c-1.727,6.693-5.426,13.294-11,19.619-6.732,7.645-16.276,14.957-28.366,21.733l-.031.017c-13.067,7.025-25.308,11.4-36.382,13.006A65.771,65.771,0,0,1,950.2,471.076Z" transform="translate(-235.765 -114.802)"/><path d="M963.008,444.995a4.618,4.618,0,0,1-.53-.031,7.321,7.321,0,0,1-4.5-2.851c-11.413-12.75-20.5-27.213-28.833-40.935-9.8-16.136-19.732-32.539-29.529-48.754-11.5-19.031-23.149-38.376-34.633-57.5l-1.972-3.284c-3.972-6.614-8.079-13.453-12.116-20.182-.051-.084-.317-.5-.6-.936-.78-1.212-2.085-3.241-3.182-5.026-.627-1.02-1.09-1.8-1.415-2.394-.207-.376-.358-.674-.461-.912a3.4,3.4,0,0,1-.189-.539,2.091,2.091,0,0,1,.528-2.006,33.2,33.2,0,0,1,10.372-6.505,2,2,0,0,1,1.486,3.714,30.861,30.861,0,0,0-8.007,4.718c.292.509.741,1.263,1.431,2.374,1,1.611,2.128,3.365,2.8,4.413.419.652.592.921.665,1.043,4.036,6.727,8.143,13.566,12.115,20.179l1.972,3.284c11.482,19.118,23.132,38.46,34.628,57.488,9.795,16.213,19.728,32.613,29.524,48.747,8.234,13.561,17.209,27.847,28.395,40.343.636.711,1.366,1.475,1.978,1.545l.054,0a4.037,4.037,0,0,0,.233-2.1,2,2,0,1,1,3.98-.4c.109,1.088.187,3.793-1.445,5.4A3.852,3.852,0,0,1,963.008,444.995Z" transform="translate(-248.357 -104.564)"/><path d="M999.534,435.487a3.816,3.816,0,0,1-.466-.029c-2.189-.27-6.031-2.4-16.4-16.6-5.55-7.6-10.858-15.846-12.062-17.83l-40.862-67.305c-14.983-24.679-30.856-51.109-51.467-85.7a2,2,0,1,1,3.436-2.048c20.6,34.578,36.473,61,51.45,85.669L974.03,398.95c1.187,1.955,6.424,10.082,11.91,17.6a128.807,128.807,0,0,0,8.4,10.545,20.844,20.844,0,0,0,4.629,4.155,11.083,11.083,0,0,0-.817-4.12,2,2,0,0,1,3.767-1.345,13.509,13.509,0,0,1,.943,6.614,3.786,3.786,0,0,1-1.009,2.153A3.248,3.248,0,0,1,999.534,435.487Z" transform="translate(-261.358 -101.414)"/><path d="M1033.037,413.353a7.188,7.188,0,0,1-3.358-1.05,28.741,28.741,0,0,1-4.358-3.094,54.942,54.942,0,0,1-6.34-6.16c-6.433-8.106-11.586-17.1-16.569-25.789-1.619-2.825-3.293-5.746-4.984-8.587l-34.373-57.785c-3.337-5.61-6.809-11.279-10.166-16.762-2.132-3.482-4.337-7.082-6.487-10.636l-3.235-5.344-5.4-8.92-4.491-7.418c-.192-.316-.6-.863-1.03-1.441-1.552-2.082-2.711-3.733-2.993-5.2q-8.981-14.836-17.964-29.67l-.97-1.6,1.533-1.073c.259-.181,6.389-4.451,10.9-5.741a2,2,0,0,1,1.1,3.846,36.764,36.764,0,0,0-8.151,4.138q8.6,14.2,17.194,28.4l.289.478v.5a5.315,5.315,0,0,0,.7,1.341c.461.718,1.046,1.5,1.563,2.2s.953,1.279,1.245,1.76l4.491,7.418,5.4,8.92,3.235,5.344c2.146,3.545,4.347,7.141,6.477,10.618,3.364,5.494,6.842,11.174,10.193,16.806l34.373,57.785c1.707,2.869,3.389,5.8,5.016,8.643,4.909,8.565,9.986,17.422,16.232,25.292a50.838,50.838,0,0,0,5.26,5.145,19.636,19.636,0,0,0,5.084,3.493,8.085,8.085,0,0,0-.167-1.26,2,2,0,0,1,3.922-.784,8.831,8.831,0,0,1,.153,3.3,3.3,3.3,0,0,1-3.33,2.894Z" transform="translate(-274.351 -90.39)"/><path d="M1063.645,394.8a7.954,7.954,0,0,1-4.312-1.538,26.5,26.5,0,0,1-4.649-4.166,86.527,86.527,0,0,1-6.779-8.719l-.218-.312c-2.741-3.915-5.172-8.1-7.523-12.155-.915-1.577-1.862-3.208-2.807-4.788-22.269-37.229-45.079-74.979-67.138-111.487l-23.931-39.6a2,2,0,0,1,3.424-2.069l23.931,39.6c22.062,36.511,44.874,74.265,67.148,111.5.959,1.6,1.912,3.245,2.833,4.833,2.309,3.979,4.7,8.093,7.34,11.869l.22.316a82.973,82.973,0,0,0,6.448,8.306,22.637,22.637,0,0,0,3.911,3.535,3.789,3.789,0,0,0,2.182.868.621.621,0,0,0,.064-.209,7.445,7.445,0,0,0-.638-3.03,2,2,0,0,1,3.714-1.485,11.387,11.387,0,0,1,.9,4.978,4.129,4.129,0,0,1-2.956,3.61A4.8,4.8,0,0,1,1063.645,394.8Z" transform="translate(-288.132 -87.24)"/><path d="M1085.123,359.842a4.04,4.04,0,0,1-2.34-.847c-7.854-5.605-12.666-13.664-17.319-21.457-.8-1.346-1.635-2.739-2.466-4.089l-85.7-139.4a2,2,0,0,1,3.408-2.095l85.7,139.4c.844,1.373,1.682,2.776,2.493,4.134,4.391,7.353,8.551,14.321,15.047,19.385a21.742,21.742,0,0,0-1.338-6,2,2,0,0,1,3.767-1.346,23.507,23.507,0,0,1,1.575,9.33,3.223,3.223,0,0,1-.785,2.11A2.764,2.764,0,0,1,1085.123,359.842Z" transform="translate(-300.337 -80.153)"/><path d="M1359.4,487.865a2.149,2.149,0,0,1-1.183-.353,2,2,0,0,1,.5-3.586,24.183,24.183,0,0,0,2.3-3.326c1.354-2.2,2.966-5.122,4.663-8.437a280.022,280.022,0,0,0,11.875-26.892c7.085-18.568,15.159-45.321,13.383-67.323-3.165-39.207-12.673-64.95-15.8-73.409-.176-.475-.327-.885-.458-1.245-.157-.433-.652-1.588-1.438-3.367a60.274,60.274,0,0,1,3.065,13.13c.716,6.052.8,14.807-2.893,22.15a21.894,21.894,0,0,1-6.892,8.141,25.443,25.443,0,0,1-11.522,4.29,24.537,24.537,0,0,1-11.477-1.45,47.92,47.92,0,0,1-11.3-6.077c-6.5-4.571-13.482-11.191-20.762-19.677a242.149,242.149,0,0,1-15.411-20.2c-3.77-5.5-5.987-9.172-6.079-9.326l-.05-.083-.042-.088-86.7-181.879a2,2,0,0,1,3.611-1.721l86.652,181.788a245.123,245.123,0,0,0,21.083,28.939c14.624,17.037,27.62,25.948,37.775,25.948a16.37,16.37,0,0,0,2.167-.141c7.264-.969,12.435-4.421,15.369-10.262,5.958-11.859,1.358-29.908-2.3-36.5C1361.52,286.061,1285.243,121.3,1282,114.3l-4.726-10.209,19.12,19.119.149.323c3.244,7.009,79.484,171.727,81.91,178.4q.192.528.451,1.226a244.5,244.5,0,0,1,7.978,25.487,294.1,294.1,0,0,1,8.055,48.987c.8,9.947-.278,21.721-3.212,34.993a245.629,245.629,0,0,1-10.713,34.84,280.788,280.788,0,0,1-12.146,27.278c-1.745,3.372-3.392,6.31-4.763,8.494-1.962,3.127-2.845,3.916-3.45,4.276A2.445,2.445,0,0,1,1359.4,487.865Zm-69.041-365.033c17.164,37.036,75.351,162.455,80.653,172.082-15.552-34.542-74.531-161.987-77.953-169.382Z" transform="translate(-389.322 -46.685)"/><path d="M1352.085,324.651a35.414,35.414,0,0,1-16.494-4.548,71.392,71.392,0,0,1-15.183-11.185,111.519,111.519,0,0,1-10.972-12,57.1,57.1,0,0,1-5.135-7.354c-1.807-3.613-82.665-173.473-86.107-180.7a2,2,0,1,1,3.612-1.719c.843,1.77,84.283,177.053,86.073,180.632a55.465,55.465,0,0,0,4.7,6.666A107.457,107.457,0,0,0,1323.146,306c7.194,6.756,17.952,14.648,28.941,14.648q.593,0,1.186-.031c6.118-.322,10.4-2.216,12.725-5.628,2.978-4.37,2.99-11.367.033-20.236-.408-1.224-4.491-10.093-27.25-55.744-12.959-25.993-25.862-51.649-25.99-51.905a2,2,0,0,1,3.573-1.8c.129.256,13.035,25.919,26,51.918,26.284,52.72,27.173,55.387,27.465,56.264a46.577,46.577,0,0,1,2.261,10.108c.529,5.568-.407,10.159-2.783,13.646-3.067,4.5-8.389,6.979-15.82,7.37Q1352.788,324.651,1352.085,324.651Z" transform="translate(-395.228 -46.685)"/><path d="M1331.365,305c-1.915,0-3.4-1.9-4.6-3.755-1.124-1.736-2.27-3.925-3.282-5.856a40.941,40.941,0,0,0-2.2-3.921c-.28-.373-.748-1-14.239-29.7-7.116-15.138-16.9-36.067-29.094-62.2-20.752-44.5-41.55-89.283-41.758-89.73a2,2,0,0,1,3.628-1.685c22.738,48.961,82.154,176.644,84.707,180.975a41.065,41.065,0,0,1,2.5,4.406c.461.88.955,1.824,1.457,2.741-.087-.2-.14-.314-.142-.318a2,2,0,0,1,3.632-1.676c.03.066.751,1.632,1.358,3.412,1.033,3.027,1.141,4.839.359,6.059A2.7,2.7,0,0,1,1331.365,305Z" transform="translate(-402.315 -47.079)"/><path d="M1352,311.72a2.373,2.373,0,0,1-1.315-.413c-.491-.328-1.161-.944-2.727-3.221-.849-1.235-1.891-2.858-3.1-4.823-2.039-3.323-3.878-6.539-3.9-6.571l-.039-.068-.033-.071-86.7-183.7a2,2,0,0,1,3.617-1.707l86.662,183.626c.16.279.807,1.4,1.686,2.892a2,2,0,0,1,3.846-.9c.049.119,1.206,2.951,2.286,5.916.643,1.767,1.125,3.212,1.43,4.3a13.539,13.539,0,0,1,.392,1.732,2.665,2.665,0,0,1-.775,2.535A2.1,2.1,0,0,1,1352,311.72Z" transform="translate(-409.402 -48.26)"/><path d="M1369.936,313.061a2.461,2.461,0,0,1-.779-.128c-.763-.254-1.569-.866-3.025-3.024-.76-1.126-1.671-2.636-2.71-4.488-1.746-3.113-3.24-6.1-3.3-6.223l-.016-.033-87.908-184.3a2,2,0,1,1,3.61-1.722l87.9,184.286c.1.191,1.053,2.094,2.273,4.345a2,2,0,0,1,3.866-.531c.032.085.792,2.116,1.455,4.3a30.869,30.869,0,0,1,.841,3.287c.236,1.294.331,2.619-.559,3.543A2.269,2.269,0,0,1,1369.936,313.061Z" transform="translate(-416.489 -49.048)"/><path d="M1385.758,309.792a3,3,0,0,1-2.235-1.307,18.123,18.123,0,0,1-1.2-1.7c-.728-1.144-1.643-2.726-2.721-4.7-1.815-3.327-3.5-6.7-3.519-6.732l-.019-.039-84.877-179.454a2,2,0,0,1,3.616-1.71l84.868,179.435c.107.213,1.062,2.115,2.267,4.394a2,2,0,0,1,3.906-.478c.028.09.7,2.236,1.289,4.54.355,1.383.608,2.54.753,3.437a10.73,10.73,0,0,1,.154,1.505,3.072,3.072,0,0,1-.508,1.91A2.187,2.187,0,0,1,1385.758,309.792Z" transform="translate(-423.97 -49.441)"/><path d="M1394.882,291.247a3.09,3.09,0,0,1-1.721-.585c-2.385-1.59-6.194-7.565-7.416-10.622-1.066-2.615-51.195-108.54-77.552-164.184a2,2,0,1,1,3.615-1.712c3.12,6.587,76.43,161.357,77.651,164.411a30.7,30.7,0,0,0,2.9,5.15c.388.57.744,1.064,1.066,1.487a2,2,0,0,1,3.345.748,12.324,12.324,0,0,1,.366,1.4c.117.6.471,2.421-.847,3.428A2.334,2.334,0,0,1,1394.882,291.247Z" transform="translate(-430.664 -49.441)"/><path d="M1069,141.945a2,2,0,0,1-.673-3.884c.255-.091,25.589-9.142,38.155-13.93a2,2,0,1,1,1.424,3.738c-12.605,4.8-37.979,13.868-38.234,13.959A2,2,0,0,1,1069,141.945Z" transform="translate(-335.774 -53.773)"/><path d="M528.783,930.346q-.51,0-1.07-.029a2,2,0,0,1,.206-3.995c2.7.139,3.29-.382,3.382-.488s.259-.448.217-1.4a30.613,30.613,0,0,0-.617-3.986c-.115-.591-.233-1.2-.351-1.849-.016-.084-.218-.916-2.171-3.885-1.319-2.006-3.2-4.634-5.6-7.811-4.061-5.387-9.633-12.408-16.559-20.868-11.509-14.057-23.008-27.5-23.692-28.295L345,712.3v-2.008c0-.5,0-1.19,3.7-10.8,1.814-4.716,3.99-10.172,4.954-12.423,1.872-4.369,11.091-21.547,13.512-25.178a2,2,0,0,1,3.328,2.219c-2.287,3.431-11.391,20.4-13.164,24.535-.918,2.143-2.95,7.232-4.727,11.839-2.412,6.255-3.436,9.231-3.6,9.943v.279L485.534,855.1c.118.138,11.974,13.977,23.825,28.453,6.969,8.513,12.576,15.581,16.665,21.008,7.013,9.307,8.212,11.957,8.46,13.322.113.623.23,1.223.342,1.8a32.917,32.917,0,0,1,.686,4.573,7.824,7.824,0,0,1-.165,2.141,4.759,4.759,0,0,1-1.028,2.063,5.276,5.276,0,0,1-2.817,1.608A11.55,11.55,0,0,1,528.783,930.346Z" transform="translate(-51.497 -265.208)"/><path d="M513.929,948.859a2.245,2.245,0,0,1-1.333-.47c-.14-.1-.3-.233-.511-.414-.343-.3-.81-.726-1.428-1.312-1.148-1.089-2.827-2.732-4.992-4.884-4.013-3.989-9.85-9.883-17.35-17.517-12.625-12.851-30.138-30.813-52.052-53.388-37.31-38.434-74.957-77.444-75.333-77.833a2,2,0,1,1,2.878-2.778c.364.378,36.853,38.188,73.566,76.014,21.561,22.215,38.979,40.087,51.77,53.121,14.43,14.7,20.915,21.152,23.768,23.893a39.788,39.788,0,0,0-1.5-6.155c-.526-1.711-3.271-7-15.735-23.234-6.88-8.959-13.575-17.139-14.17-17.865L344.848,750.869l-.746-2.237a2,2,0,1,1,3.795-1.265l.467,1.4L484.518,893.394l.043.052c.07.085,7.076,8.622,14.288,18.012,4.245,5.527,7.733,10.269,10.367,14.094,3.432,4.983,5.4,8.387,6.024,10.407A31.544,31.544,0,0,1,517,944.43c0,2.077-.729,3.5-2.167,4.214A2.023,2.023,0,0,1,513.929,948.859Z" transform="translate(-51.103 -298.676)"/><path d="M508.441,956.866a1.994,1.994,0,0,1-1.414-.586c-1.2-1.2-133.809-136.135-139.453-141.878a2,2,0,1,1,2.853-2.8C371.809,813,508.662,952.259,509.855,953.452a2,2,0,0,1-1.414,3.414Z" transform="translate(-60.159 -324.269)"/><path d="M504.441,945.26a2.5,2.5,0,0,1-1.833-.957c-.284-.271-.7-.676-1.236-1.2-1.026-1.011-2.544-2.523-4.512-4.5-3.656-3.664-9-9.049-15.884-16.008-11.592-11.718-27.71-28.056-47.907-48.561-34.387-34.912-69.147-70.278-69.495-70.631a2,2,0,0,1,2.853-2.8c46.7,47.511,135.533,137.779,139.192,141.045a2,2,0,0,1-1.177,3.617Z" transform="translate(-58.584 -319.938)"/><path d="M501.047,935.9a1.994,1.994,0,0,1-1.414-.586c-.611-.611-134.377-139.029-140.071-144.922a2,2,0,1,1,2.876-2.78c1.389,1.437,138.813,143.641,140.028,144.878a2,2,0,0,1-1.419,3.41Z" transform="translate(-57.009 -314.819)"/><path d="M135.2,141.441a1.994,1.994,0,0,1-1.436-.608L-1.436,1.392a2,2,0,0,1,.044-2.828,2,2,0,0,1,2.828.044l135.2,139.441a2,2,0,0,1-1.436,3.392Z" transform="translate(302.172 468.118)"/><path d="M915.318,938.621a51.156,51.156,0,0,1-8.428-.652,35.536,35.536,0,0,1-11.722-3.861A19.862,19.862,0,0,1,888,927.37,21.72,21.72,0,0,1,885,918.485a39.824,39.824,0,0,1,.207-10.19,2,2,0,0,1,3.965.529c-2.024,15.179,3.471,22.715,18.372,25.2,8.116,1.353,18.388.446,32.328-2.853,12.73-3.013,26.776-7.595,42.494-12.834,14.554-4.852,41.718-19.923,72.662-40.317,31.926-21.04,62.64-44.205,84.265-63.554,20.143-18.023,34.681-35.5,43.209-51.948,5.885-11.35,8.87-22.132,8.87-32.045,0-5.391-2.51-9.271-7.461-11.535a23.018,23.018,0,0,0-8.056-1.906,2,2,0,0,1,.036-4h.033a26.784,26.784,0,0,1,9.528,2.213,17.2,17.2,0,0,1,6.781,5.212,16.15,16.15,0,0,1,3.139,10.016c0,10.56-3.135,21.961-9.318,33.886-8.752,16.879-23.587,34.74-44.093,53.088-11.172,10-24.581,20.879-39.853,32.345-14.195,10.658-29.713,21.574-44.879,31.568-15,9.889-29.55,18.8-42.063,25.777-13.275,7.4-23.885,12.444-31.535,14.994-15.811,5.27-29.947,9.881-42.838,12.932a135.654,135.654,0,0,1-18.221,3.19C920.007,938.5,917.6,938.621,915.318,938.621Z" transform="translate(-264.022 -285.695)"/></g><path d="M1145.561,898.576l-13.921,9.253c-7.52,5-12.132,12.041-10.3,15.731l3.393,6.838c1.048,2.114,5.39,1.507,9.7-1.356l13.937-9.264c7.52-5,12.132-12.041,10.3-15.731l-3.389-6.831C1154.228,895.1,1149.878,895.707,1145.561,898.576Zm1.358,18.454-13.771,9.153c-1.224.814-2.457.986-2.755.386l-.9-1.82,15.986-10.626c1.143-.759,1.843-1.829,1.565-2.389s-1.429-.4-2.571.359l-15.987,10.626-.939-1.893,7.993-5.312c1.143-.76,1.843-1.829,1.565-2.39s-1.429-.4-2.571.36l-7.689,5.11c.087-2.279,2.552-5.562,6.246-8.018,4.415-2.934,8.865-3.556,9.939-1.39,4.415-2.934,8.864-3.557,9.939-1.391S1151.333,914.1,1146.919,917.03Z" transform="translate(-25.551 2077.636) rotate(3)"/><text transform="translate(1490.632 2939.824)" font-size="35" font-family="CeraRoundPro-Bold, Cera Round Pro" font-weight="700"><tspan x="0" y="35">WPC</tspan></text><path d="M.07,19.029l-.14-4L372.577,2.019l.14,4Z" transform="matrix(0.999, 0.035, -0.035, 0.999, 1176.161, 2987.853)" fill="#e3b814"/></g></svg>