<svg xmlns="http://www.w3.org/2000/svg" width="239.591" height="203.303" viewBox="0 0 239.591 203.303">
  <g id="Group_849" data-name="Group 849" transform="translate(1.041 1.032)">
    <path id="Path_1329" data-name="Path 1329" d="M2605.519,337.534a30.757,30.757,0,0,1,2.964-6.577m0,0,.008-.013.006-.013,0-.013v-.013m0,0-.006-.054-.009-.056-.022-.079-.03-.075-.044-.077-.049-.067M2555.6,361.452v.012l0,.01,0,.008,0,.006m-.284-.378.053.024.051.03.043.035.039.042.029.04.024.042.015.036.011.036,0,.029,0,.029m.011.035a26.733,26.733,0,0,1,1.786,3.83m47.728-31.476-.285.087-.28.092-.265.1-.256.109-.241.113-.231.12-.214.122-.2.129-.187.129-.176.134-.159.133-.148.137-.132.135-.121.138-.107.134-.1.136-.08.132-.074.133M2561.15,359.57a9.644,9.644,0,0,0-4.618,2.508m2.325,5.707a8.028,8.028,0,0,1-1.454-2.471m48.116-27.78-1.419,4.129m-28.573,138.7c.957,8.168,7.575,16,13.648,21.066,16.476,13.745,40.986,18.984,61.976,18.628m0,.055c22.751.029,48.615-5.209,65.177-22.017,3.723-3.778,11.2-11.956,10.455-17.761m-151.287-.073-.153-.859-.124-.86m151.869,0-.271,1.689m.267-1.692.259-2.044m-152.383,0,.259,2.041" transform="translate(-2532.439 -318.844)" fill="none" stroke="#000" stroke-linecap="round" stroke-linejoin="round" stroke-width="2"/>
    <path id="Path_1330" data-name="Path 1330" d="M2615.123,348.7a17.519,17.519,0,0,1-2.863,4.317,38.861,38.861,0,0,1-3.706,4.021c-5.785,5.47-13.132,9.244-20.65,11.745-4.414,1.468-8.98,2.306-13.487,3.422l-.011,0" transform="translate(-2545.697 -331.49)" fill="none" stroke="#000" stroke-linecap="round" stroke-linejoin="round" stroke-width="2"/>
    <path id="Path_1331" data-name="Path 1331" d="M2718.488,341.451l.194,1.841.2,1.852" transform="translate(-2645.806 -326.454)" fill="none" stroke="#000" stroke-linecap="round" stroke-linejoin="round" stroke-width="2"/>
    <path id="Path_1332" data-name="Path 1332" d="M2574.406,372.207a118.621,118.621,0,0,0,2.813,24.822,102.415,102.415,0,0,0,7.943,23.578,45.993,45.993,0,0,0,8.818,12.766c3.042,2.964,6.975,5.263,11.3,3.642,2.854-1.071,4.506-3.557,5.851-6.145,3.745-7.209,4.887-15.857,5.5-23.852a260.466,260.466,0,0,0,.668-26.943c-.24-8.9-.849-17.81-1.7-26.674q-.224-2.351-.477-4.7" transform="translate(-2545.697 -331.49)" fill="none" stroke="#000" stroke-linecap="round" stroke-linejoin="round" stroke-width="2"/>
    <path id="Path_1333" data-name="Path 1333" d="M2734.913,678.511a121.381,121.381,0,0,1,82.046,0" transform="translate(-2657.218 -555.689)" fill="none" stroke="#000" stroke-linecap="round" stroke-linejoin="round" stroke-width="2"/>
    <path id="Path_1334" data-name="Path 1334" d="M3186.294,589.121" transform="translate(-2970.838 -498.535)" fill="none" stroke="#000" stroke-linecap="round" stroke-linejoin="round" stroke-width="2"/>
    <line id="Line_474" data-name="Line 474" x1="0.056" y1="0.051" transform="translate(208.749 97.513)" fill="none" stroke="#000" stroke-linecap="round" stroke-linejoin="round" stroke-width="2"/>
    <path id="Path_1335" data-name="Path 1335" d="M3064.186,676.188c-3.3,15.8-9.256,31.193-18.716,44.27a53.817,53.817,0,0,1-6.6,8.016c-2.347,2.191-6.092,4.927-9.5,4.041-4.551-1.184-5.252-7.3-5.686-11.179a85.982,85.982,0,0,1-.322-10.243c.047-5.992.49-11.972.989-17.941l.029-.357,0-.038" transform="translate(-2857.621 -559.03)" fill="none" stroke="#000" stroke-linecap="round" stroke-linejoin="round" stroke-width="2"/>
    <line id="Line_475" data-name="Line 475" x1="0.421" y2="0.081" transform="translate(208.804 97.483)" fill="none" stroke="#000" stroke-linecap="round" stroke-linejoin="round" stroke-width="2"/>
    <path id="Path_1336" data-name="Path 1336" d="M2665.181,662.823l2.969-2.043,3.17-1.94" transform="translate(-2608.768 -546.977)" fill="none" stroke="#000" stroke-linecap="round" stroke-linejoin="round" stroke-width="2"/>
    <path id="Path_1337" data-name="Path 1337" d="M2774.6,820c-8.479,11.807-22.127,18.9-36.017,23.189a128.822,128.822,0,0,1-75.2.073c-14.118-4.327-28-11.565-36.5-23.636" transform="translate(-2582.159 -658.689)" fill="none" stroke="#000" stroke-linecap="round" stroke-linejoin="round" stroke-width="2"/>
    <path id="Path_1338" data-name="Path 1338" d="M2685.217,628.19a111.968,111.968,0,0,1,30.924-11.024,132.125,132.125,0,0,1,51.531.329q6.109,1.263,12.077,3.112a106.261,106.261,0,0,1,18.142,7.82" transform="translate(-2622.689 -516.371)" fill="none" stroke="#000" stroke-linecap="round" stroke-linejoin="round" stroke-width="2"/>
    <path id="Path_1339" data-name="Path 1339" d="M2611.026,364.7q1.211,13.317,1.439,26.705c.1,6.478-.032,12.961-.5,19.423a120.123,120.123,0,0,1-3.038,21.052,47.368,47.368,0,0,1-4.313,11.248c-1.642,2.965-4.179,6.006-7.4,7.315a9.665,9.665,0,0,1-1.121.377,11.432,11.432,0,0,1-7.536-.794,21.321,21.321,0,0,1-6.219-4.514c-5.593-5.567-9.378-12.713-12.228-20a107.726,107.726,0,0,1-4.941-16.162,111.366,111.366,0,0,1-2.384-16.8" transform="translate(-2537.619 -342.61)" fill="none" stroke="#000" stroke-linecap="round" stroke-linejoin="round" stroke-width="2"/>
    <path id="Path_1340" data-name="Path 1340" d="M2720.022,483.148a45.719,45.719,0,0,1-1.336,22.013,51.808,51.808,0,0,1-10,16.84,73.616,73.616,0,0,1-13.118,11.747,113.561,113.561,0,0,1-10.034,6.405,124.317,124.317,0,0,1-23,9.953c-3.736,1.214-7.5,2.356-11.311,3.308a188.157,188.157,0,0,1-25.7,4.549,186.108,186.108,0,0,1-26.506,1q-2.868-.1-5.734-.275a196.906,196.906,0,0,1-26.105-3.278c-5.094-.99-10.153-2.155-15.13-3.63A143.1,143.1,0,0,1,2529.57,543q-5.749-2.829-11.228-6.169a78.354,78.354,0,0,1-9.479-7.115,70.235,70.235,0,0,1-8.951-8.87,54.769,54.769,0,0,1-6.132-9.065,41.66,41.66,0,0,1-5.091-22.887c.179-2.114.583-4.2.952-6.289" transform="translate(-2486.054 -424.525)" fill="none" stroke="#000" stroke-linecap="round" stroke-linejoin="round" stroke-width="2"/>
    <path id="Path_1341" data-name="Path 1341" d="M2551.5,431.984a9.213,9.213,0,0,1,1.168-1.187" transform="translate(-2529.781 -388.532)" fill="none" stroke="#000" stroke-linecap="round" stroke-linejoin="round" stroke-width="2"/>
    <path id="Path_1342" data-name="Path 1342" d="M2555.325,361.109a94.324,94.324,0,0,1,7.7-8.088,80.522,80.522,0,0,1,9.206-7.092q3.3-2.189,6.777-4.084a126.434,126.434,0,0,1,23.266-9.592c2.014-.625,4.046-1.176,6.072-1.755" transform="translate(-2532.439 -318.844)" fill="none" stroke="#000" stroke-linecap="round" stroke-linejoin="round" stroke-width="2"/>
    <path id="Path_1343" data-name="Path 1343" d="M2725.392,482.992a72.189,72.189,0,0,1-17.322,15.458A119.322,119.322,0,0,1,2685.4,509.5a144.93,144.93,0,0,1-25.053,6.857,185.082,185.082,0,0,1-26.189,2.506,169.178,169.178,0,0,1-25.406-1.137,162.963,162.963,0,0,1-24.991-4.969,130.007,130.007,0,0,1-22.68-8.611,87.377,87.377,0,0,1-20.25-13.566,52.861,52.861,0,0,1-12.878-17.256,50.743,50.743,0,0,1-2.842-8.936,30.667,30.667,0,0,1-.158-10.712,38.893,38.893,0,0,1,3.065-10.876,55.09,55.09,0,0,1,4.761-8.125" transform="translate(-2511.063 -391.228)" fill="none" stroke="#000" stroke-linecap="round" stroke-linejoin="round" stroke-width="2"/>
    <path id="Path_1344" data-name="Path 1344" d="M2715.142,366.432l.11-.144.117-.142" transform="translate(-2643.481 -343.612)" fill="none" stroke="#000" stroke-linecap="round" stroke-linejoin="round" stroke-width="2"/>
    <path id="Path_1345" data-name="Path 1345" d="M2715.139,365.43l.195-.11.2-.1.209-.1.215-.094.221-.088.229-.083.235-.077.242-.072" transform="translate(-2643.479 -342.611)" fill="none" stroke="#000" stroke-linecap="round" stroke-linejoin="round" stroke-width="2"/>
    <line id="Line_476" data-name="Line 476" x1="0.55" y2="0.111" transform="translate(208.752 97.401)" fill="none" stroke="#000" stroke-linecap="round" stroke-linejoin="round" stroke-width="2"/>
    <path id="Path_1346" data-name="Path 1346" d="M3072.6,611.818l-1.074.19-1.067.2-.887.177-.883.185-.709.155-.706.16-.538.126-.535.129-.475.117-.472.12-.479.124-.478.127-.483.131-.481.134-1.332.386-1.314.405-1.3.424-1.281.443-1.909.708-1.862.749-1.808.787-1.756.826-1.7.862-1.641.9-1.582.933-1.52.967-1.459,1-1.394,1.033-1.328,1.065-1.258,1.093-.671.622-.649.63-.625.636-.6.644-.539.606-.519.612-.183.224-.181.225-.219.278-.215.28-.275.368-.268.37-.32.46-.311.463-.354.557-.339.56-.312.544" transform="translate(-2863.854 -514.306)" fill="none" stroke="#000" stroke-linecap="round" stroke-linejoin="round" stroke-width="2"/>
    <path id="Path_1347" data-name="Path 1347" d="M3189.94,549.78a39.016,39.016,0,0,1-3.129,7.161c-.587,1.044-1.254,2.135-1.954,3.144a11.385,11.385,0,0,1-2.33,2.863" transform="translate(-2968.22 -471.201)" fill="none" stroke="#000" stroke-linecap="round" stroke-linejoin="round" stroke-width="2"/>
    <path id="Path_1348" data-name="Path 1348" d="M2720.863,351.089a180.48,180.48,0,0,1,24.5-4.773,178.392,178.392,0,0,1,26.209-1.123,186.1,186.1,0,0,1,26.151,2.783,137.233,137.233,0,0,1,24.11,6.5,109.682,109.682,0,0,1,22.271,10.98,74.243,74.243,0,0,1,13.644,11.319,52.158,52.158,0,0,1,6.821,9.121,41.221,41.221,0,0,1,4.385,10.729c.907,3.611,1.726,7.646.147,11.182" transform="translate(-2647.456 -328.996)" fill="none" stroke="#000" stroke-linecap="round" stroke-linejoin="round" stroke-width="2"/>
    <path id="Path_1349" data-name="Path 1349" d="M2548.408,653.832l1.351,3.935.7,2.19.726,2.179.752,2.164.78,2.153.8,2.136.832,2.124.856,2.107.882,2.094.906,2.075.933,2.062.955,2.041.981,2.027,1,2.006,1.028,1.991,1.049,1.968,1.073,1.952,1.093,1.928,1.117,1.912,1.135,1.887,1.158,1.869,1.176,1.843,1.2,1.825.849,1.262.86,1.254" transform="translate(-2527.634 -543.496)" fill="none" stroke="#000" stroke-linecap="round" stroke-linejoin="round" stroke-width="2"/>
    <path id="Path_1350" data-name="Path 1350" d="M3110.933,703.743a183.687,183.687,0,0,0,16.023-28.785,192.354,192.354,0,0,0,8.136-22.674" transform="translate(-2918.477 -542.421)" fill="none" stroke="#000" stroke-linecap="round" stroke-linejoin="round" stroke-width="2"/>
    <path id="Path_1351" data-name="Path 1351" d="M2975.664,332.756c-19.914-23.451-50.444-34.3-80.162-38.235a205.4,205.4,0,0,0-26.2-1.727" transform="translate(-2750.595 -292.647)" fill="none" stroke="#000" stroke-linecap="round" stroke-linejoin="round" stroke-width="2"/>
    <path id="Path_1352" data-name="Path 1352" d="M2626.956,292.313c-19.136.621-38.381,2.766-56.671,8.665-18.327,5.911-37.169,15.942-49.365,31.2l-.432.575" transform="translate(-2508.235 -292.313)" fill="none" stroke="#000" stroke-linecap="round" stroke-linejoin="round" stroke-width="2"/>
    <path id="Path_1353" data-name="Path 1353" d="M2493.282,421.911c-11.9,11.377-15.994,29.816-10.6,45.372,9.7,28.008,43.229,42.45,69.681,49.156a191.331,191.331,0,0,0,43.95,5.723l.491.007a185.907,185.907,0,0,0,86.428-20.352" transform="translate(-2480.341 -382.358)" fill="none" stroke="#000" stroke-linecap="round" stroke-linejoin="round" stroke-width="2"/>
    <path id="Path_1354" data-name="Path 1354" d="M3144.915,500.719c8.79-5.469,17.121-11.438,23.709-19.552a48.2,48.2,0,0,0,10.44-21.891c2.406-13.987-3.174-28.68-12.98-38.939" transform="translate(-2942.088 -381.263)" fill="none" stroke="#000" stroke-linecap="round" stroke-linejoin="round" stroke-width="2"/>
    <path id="Path_1355" data-name="Path 1355" d="M2528.51,481.9a48.759,48.759,0,0,1,1.755-10.3,41.905,41.905,0,0,1,4.789-10.318c1.189-1.85,2.563-3.582,3.914-5.306" transform="translate(-2513.809 -406.025)" fill="none" stroke="#000" stroke-linecap="round" stroke-linejoin="round" stroke-width="2"/>
    <path id="Path_1356" data-name="Path 1356" d="M2562.777,453.679l.124-.14.134-.136.143-.132.153-.128.162-.124.171-.12.181-.116.19-.112" transform="translate(-2537.617 -403.73)" fill="none" stroke="#000" stroke-linecap="round" stroke-linejoin="round" stroke-width="2"/>
    <path id="Path_1357" data-name="Path 1357" d="M2565.754,452.671l-.25.066-.251.067" transform="translate(-2539.337 -403.73)" fill="none" stroke="#000" stroke-linecap="round" stroke-linejoin="round" stroke-width="2"/>
    <path id="Path_1358" data-name="Path 1358" d="M2492.09,442.654l1.941-5.991,2.875-5.865,3.784-5.69" transform="translate(-2488.504 -384.578)" fill="none" stroke="#000" stroke-linecap="round" stroke-linejoin="round" stroke-width="2"/>
    <path id="Path_1359" data-name="Path 1359" d="M3217.651,424.2c3.869,5.776,7.239,11.562,8.912,18.38" transform="translate(-2992.625 -383.947)" fill="none" stroke="#000" stroke-linecap="round" stroke-linejoin="round" stroke-width="2"/>
    <line id="Line_477" data-name="Line 477" x1="1.475" y1="3.26" transform="translate(231.191 50.44)" fill="none" stroke="#000" stroke-linecap="round" stroke-linejoin="round" stroke-width="2"/>
  </g>
</svg>
