<svg xmlns="http://www.w3.org/2000/svg" width="435.434" height="209.153" viewBox="0 0 435.434 209.153">
  <g id="Group_891" data-name="Group 891" transform="translate(-257.883 -1792.494)">
    <g id="Group_760" data-name="Group 760" transform="translate(260.438 1795.314)">
      <path id="Path_1101" data-name="Path 1101" d="M12116.589,233.1H12011.4" transform="translate(-11848.832 -228.192)" fill="none" stroke="#fff" stroke-linecap="round" stroke-linejoin="round" stroke-width="4"/>
      <path id="Path_1102" data-name="Path 1102" d="M12236.851,233.144l.193,4.066.185,4.063" transform="translate(-11959.913 -228.215)" fill="none" stroke="#fff" stroke-linecap="round" stroke-linejoin="round" stroke-width="4"/>
      <path id="Path_1103" data-name="Path 1103" d="M12010.63,233.1c-2.614,37.529,1.054,77.836,14.069,113.339q.971,2.67,2.065,5.3c5.934,14.269,16.964,35.484,34.517,36.936,6.37.527,12.729-1.991,17.775-5.914s8.915-9.162,12.246-14.616c11.061-18.1,16.774-38.986,20.337-59.9a348.876,348.876,0,0,0,4.181-75.145" transform="translate(-11848.063 -228.192)" fill="none" stroke="#fff" stroke-linecap="round" stroke-linejoin="round" stroke-width="4"/>
      <path id="Path_1104" data-name="Path 1104" d="M11992.557,241.273l.18-4.063.2-4.066" transform="translate(-11839.548 -228.215)" fill="none" stroke="#fff" stroke-linecap="round" stroke-linejoin="round" stroke-width="4"/>
      <path id="Path_1105" data-name="Path 1105" d="M11980.355,224.532l0,.029.008.027.012.025.017.023" transform="translate(-11833.537 -223.972)" fill="none" stroke="#fff" stroke-linecap="round" stroke-linejoin="round" stroke-width="4"/>
      <path id="Path_1106" data-name="Path 1106" d="M11980.068,223.428l.03.015.024.028.027.047.017.064.017.066.014.075.006.068.006.072v.061l0,.062" transform="translate(-11833.395 -223.428)" fill="none" stroke="#fff" stroke-linecap="round" stroke-linejoin="round" stroke-width="4"/>
      <path id="Path_1107" data-name="Path 1107" d="M12249.8,223.988l.006-.109.008-.106.016-.13.031-.1.041-.072.047-.04" transform="translate(-11966.292 -223.428)" fill="none" stroke="#fff" stroke-linecap="round" stroke-linejoin="round" stroke-width="4"/>
      <path id="Path_1108" data-name="Path 1108" d="M12249.721,224.636l.014-.023.014-.025.008-.027,0-.029" transform="translate(-11966.256 -223.972)" fill="none" stroke="#fff" stroke-linecap="round" stroke-linejoin="round" stroke-width="4"/>
      <path id="Path_1109" data-name="Path 1109" d="M11980.432,224.738a48.66,48.66,0,0,1,6.133,12.4" transform="translate(-11833.573 -224.073)" fill="none" stroke="#fff" stroke-linecap="round" stroke-linejoin="round" stroke-width="4"/>
      <path id="Path_1110" data-name="Path 1110" d="M12237.6,237.131c1.635-4.087,3.339-8.432,5.893-12.047l.257-.346" transform="translate(-11960.282 -224.073)" fill="none" stroke="#fff" stroke-linecap="round" stroke-linejoin="round" stroke-width="4"/>
      <path id="Path_1111" data-name="Path 1111" d="M12227.932,233.121c-3.058,0-6.116-.018-9.174-.024" transform="translate(-11951 -228.192)" fill="none" stroke="#fff" stroke-linecap="round" stroke-linejoin="round" stroke-width="4"/>
      <path id="Path_1112" data-name="Path 1112" d="M12002.479,233.1c-3.059.014-6.122.013-9.18.024" transform="translate(-11839.912 -228.192)" fill="none" stroke="#fff" stroke-linecap="round" stroke-linejoin="round" stroke-width="4"/>
      <path id="Path_1113" data-name="Path 1113" d="M11996.264,256.529a43.916,43.916,0,0,1-3.709-7.361" transform="translate(-11839.547 -236.11)" fill="none" stroke="#fff" stroke-linecap="round" stroke-linejoin="round" stroke-width="4"/>
      <path id="Path_1114" data-name="Path 1114" d="M12233.992,249.168a47.74,47.74,0,0,1-3.7,7.362" transform="translate(-11956.683 -236.11)" fill="none" stroke="#fff" stroke-linecap="round" stroke-linejoin="round" stroke-width="4"/>
      <path id="Path_1115" data-name="Path 1115" d="M11920.207,625.928h98.856" transform="translate(-11803.899 -421.744)" fill="none" stroke="#fff" stroke-linecap="round" stroke-linejoin="round" stroke-width="4"/>
      <path id="Path_1116" data-name="Path 1116" d="M12115.076,625.928h98.855" transform="translate(-11899.914 -421.744)" fill="none" stroke="#fff" stroke-linecap="round" stroke-linejoin="round" stroke-width="4"/>
      <path id="Path_1117" data-name="Path 1117" d="M11690.936,240.678h22.408" transform="translate(-11690.936 -231.927)" fill="none" stroke="#fff" stroke-linecap="round" stroke-linejoin="round" stroke-width="4"/>
      <path id="Path_1118" data-name="Path 1118" d="M12495.045,240.678h22.405" transform="translate(-12087.129 -231.927)" fill="none" stroke="#fff" stroke-linecap="round" stroke-linejoin="round" stroke-width="4"/>
      <path id="Path_1119" data-name="Path 1119" d="M11971.858,223.428h4.164" transform="translate(-11829.347 -223.428)" fill="none" stroke="#fff" stroke-linecap="round" stroke-linejoin="round" stroke-width="4"/>
      <path id="Path_1120" data-name="Path 1120" d="M11980.068,223.428h136.977" transform="translate(-11833.395 -223.428)" fill="none" stroke="#fff" stroke-linecap="round" stroke-linejoin="round" stroke-width="4"/>
      <path id="Path_1121" data-name="Path 1121" d="M12250.086,223.428h4.16" transform="translate(-11966.436 -223.428)" fill="none" stroke="#fff" stroke-linecap="round" stroke-linejoin="round" stroke-width="4"/>
      <path id="Path_1122" data-name="Path 1122" d="M12258.291,223.428h119.549" transform="translate(-11970.478 -223.428)" fill="none" stroke="#fff" stroke-linecap="round" stroke-linejoin="round" stroke-width="4"/>
      <path id="Path_1123" data-name="Path 1123" d="M11736.2,223.428h119.551" transform="translate(-11713.236 -223.428)" fill="none" stroke="#fff" stroke-linecap="round" stroke-linejoin="round" stroke-width="4"/>
      <path id="Path_1124" data-name="Path 1124" d="M12230.281,263.678h3.88" transform="translate(-11956.677 -243.259)" fill="none" stroke="#fff" stroke-linecap="round" stroke-linejoin="round" stroke-width="4"/>
      <path id="Path_1125" data-name="Path 1125" d="M11992.221,263.678h3.879" transform="translate(-11839.382 -243.259)" fill="none" stroke="#fff" stroke-linecap="round" stroke-linejoin="round" stroke-width="4"/>
      <path id="Path_1126" data-name="Path 1126" d="M11740.762,263.678h127.561" transform="translate(-11715.486 -243.259)" fill="none" stroke="#fff" stroke-linecap="round" stroke-linejoin="round" stroke-width="4"/>
      <path id="Path_1127" data-name="Path 1127" d="M12237.927,263.678h127.565" transform="translate(-11960.442 -243.259)" fill="none" stroke="#fff" stroke-linecap="round" stroke-linejoin="round" stroke-width="4"/>
      <line id="Line_406" data-name="Line 406" x1="2.727" y1="19.754" transform="translate(406.798 0.665)" fill="none" stroke="#fff" stroke-linecap="round" stroke-linejoin="round" stroke-width="4"/>
      <line id="Line_407" data-name="Line 407" x2="4.469" transform="translate(405.048 20.419)" fill="none" stroke="#fff" stroke-linecap="round" stroke-linejoin="round" stroke-width="4"/>
      <path id="Path_1128" data-name="Path 1128" d="M11736.193,223.428l.46.233.116.35v.039l-.006.042" transform="translate(-11713.235 -223.428)" fill="none" stroke="#fff" stroke-linecap="round" stroke-linejoin="round" stroke-width="4"/>
      <path id="Path_1129" data-name="Path 1129" d="M12401.088,416.227c25.009-47.808,38.744-99.139,44.8-152.549" transform="translate(-12040.835 -243.259)" fill="none" stroke="#fff" stroke-linecap="round" stroke-linejoin="round" stroke-width="4"/>
      <path id="Path_1130" data-name="Path 1130" d="M11740.762,263.678c4.029,35.561,10.98,70.189,23.309,103.878a406.372,406.372,0,0,0,21.518,48.654" transform="translate(-11715.486 -243.259)" fill="none" stroke="#fff" stroke-linecap="round" stroke-linejoin="round" stroke-width="4"/>
      <path id="Path_1131" data-name="Path 1131" d="M11829.066,564.389l3.358,8.372,1.484,7.686" transform="translate(-11758.993 -391.423)" fill="none" stroke="#fff" stroke-linecap="round" stroke-linejoin="round" stroke-width="4"/>
      <path id="Path_1132" data-name="Path 1132" d="M12391.539,580.448l1.486-7.686,3.359-8.372" transform="translate(-12036.131 -391.423)" fill="none" stroke="#fff" stroke-linecap="round" stroke-linejoin="round" stroke-width="4"/>
      <line id="Line_408" data-name="Line 408" x2="18.826" transform="translate(407.365 0)" fill="none" stroke="#fff" stroke-linecap="round" stroke-linejoin="round" stroke-width="4"/>
      <line id="Line_409" data-name="Line 409" x2="18.826" transform="translate(4.132 0)" fill="none" stroke="#fff" stroke-linecap="round" stroke-linejoin="round" stroke-width="4"/>
      <line id="Line_410" data-name="Line 410" x2="35.956" transform="translate(314.019 204.184)" fill="none" stroke="#fff" stroke-linecap="round" stroke-linejoin="round" stroke-width="4"/>
      <line id="Line_411" data-name="Line 411" x2="35.956" transform="translate(80.352 204.184)" fill="none" stroke="#fff" stroke-linecap="round" stroke-linejoin="round" stroke-width="4"/>
      <path id="Path_1133" data-name="Path 1133" d="M12380.824,622.149c2.181-.169,3.634-1.923,4.335-3.89" transform="translate(-12030.852 -417.965)" fill="none" stroke="#fff" stroke-linecap="round" stroke-linejoin="round" stroke-width="4"/>
      <path id="Path_1134" data-name="Path 1134" d="M11840.922,618.2a4.678,4.678,0,0,0,4.269,3.866" transform="translate(-11764.836 -417.938)" fill="none" stroke="#fff" stroke-linecap="round" stroke-linejoin="round" stroke-width="4"/>
      <path id="Path_1135" data-name="Path 1135" d="M12389.25,607.286l.109-1.049.11-1.049.472-4.572.472-4.572" transform="translate(-12035.003 -407.02)" fill="none" stroke="#fff" stroke-linecap="round" stroke-linejoin="round" stroke-width="4"/>
      <path id="Path_1136" data-name="Path 1136" d="M11838.615,596.045q.583,5.621,1.161,11.242" transform="translate(-11763.699 -407.02)" fill="none" stroke="#fff" stroke-linecap="round" stroke-linejoin="round" stroke-width="4"/>
      <path id="Path_1137" data-name="Path 1137" d="M12533.725,225.32l1.393,3.9,1.393,3.9" transform="translate(-12106.187 -224.36)" fill="none" stroke="#fff" stroke-linecap="round" stroke-linejoin="round" stroke-width="4"/>
      <path id="Path_1138" data-name="Path 1138" d="M11690.936,233.111l1.393-3.9,1.4-3.9" transform="translate(-11690.935 -224.36)" fill="none" stroke="#fff" stroke-linecap="round" stroke-linejoin="round" stroke-width="4"/>
      <path id="Path_1139" data-name="Path 1139" d="M12531.072,223.428l.891.319.457.641" transform="translate(-12104.881 -223.428)" fill="none" stroke="#fff" stroke-linecap="round" stroke-linejoin="round" stroke-width="4"/>
      <path id="Path_1140" data-name="Path 1140" d="M11696.43,224.387l.453-.641.887-.319" transform="translate(-11693.644 -223.428)" fill="none" stroke="#fff" stroke-linecap="round" stroke-linejoin="round" stroke-width="4"/>
      <line id="Line_412" data-name="Line 412" x2="4.469" transform="translate(20.806 20.419)" fill="none" stroke="#fff" stroke-linecap="round" stroke-linejoin="round" stroke-width="4"/>
      <line id="Line_413" data-name="Line 413" x1="2.727" y2="19.754" transform="translate(20.797 0.665)" fill="none" stroke="#fff" stroke-linecap="round" stroke-linejoin="round" stroke-width="4"/>
      <path id="Path_1141" data-name="Path 1141" d="M12492.838,224.092l-.006-.042v-.039l.116-.35.46-.233" transform="translate(-12086.04 -223.428)" fill="none" stroke="#fff" stroke-linecap="round" stroke-linejoin="round" stroke-width="4"/>
      <path id="Path_1142" data-name="Path 1142" d="M11838.615,596.045h140.247" transform="translate(-11763.699 -407.02)" fill="none" stroke="#fff" stroke-linecap="round" stroke-linejoin="round" stroke-width="4"/>
      <path id="Path_1143" data-name="Path 1143" d="M12115.076,596.045h140.244" transform="translate(-11899.914 -407.02)" fill="none" stroke="#fff" stroke-linecap="round" stroke-linejoin="round" stroke-width="4"/>
      <path id="Path_1144" data-name="Path 1144" d="M12116.769,263.681a276.943,276.943,0,0,1-7.705,72.309c-4.5,18.587-11.1,37-22.493,52.361-6.556,8.84-15.291,16.9-26.117,18.874-10.36,1.887-21.165-2.236-29.206-9.035s-13.652-16.024-18.238-25.5c-15.776-32.639-20.627-69.394-20.792-105.309q-.009-1.849,0-3.7" transform="translate(-11839.376 -243.259)" fill="none" stroke="#fff" stroke-linecap="round" stroke-linejoin="round" stroke-width="4"/>
    </g>
    <path id="Path_2162" data-name="Path 2162" d="M2294.014,2650.018h-15.568a15.226,15.226,0,0,0-15.226,15.226v15.585a8.722,8.722,0,0,0,8.722,8.722h15.585a15.226,15.226,0,0,0,15.226-15.225v-15.568A8.74,8.74,0,0,0,2294.014,2650.018Zm-6.558,33.174h-15.4a2.478,2.478,0,0,1-2.478-2.478v-4.148h17.877a2.313,2.313,0,1,0,0-4.626h-17.877v-4.313h8.938a2.313,2.313,0,1,0,0-4.625h-8.6a14.419,14.419,0,1,1,17.537,20.19Z" transform="translate(-1811.397 -790.527)" fill="#fff"/>
  </g>
</svg>
