<svg xmlns="http://www.w3.org/2000/svg" width="470.667" height="168.103" viewBox="0 0 470.667 168.103">
  <g id="Group_887" data-name="Group 887" transform="translate(-241.181 -1894.181)">
    <g id="Group_700" data-name="Group 700" transform="translate(244 1897)" style="isolation: isolate">
      <path id="Path_1145" data-name="Path 1145" d="M2912.655,5698.445a26.126,26.126,0,0,0,24.984-18.488" transform="translate(-2531.206 -5535.162)" fill="none" stroke="#fff" stroke-linecap="round" stroke-linejoin="round" stroke-width="4"/>
      <path id="Path_1146" data-name="Path 1146" d="M2212.049,5679.957a26.126,26.126,0,0,0,24.984,18.488" transform="translate(-2153.453 -5535.162)" fill="none" stroke="#fff" stroke-linecap="round" stroke-linejoin="round" stroke-width="4"/>
      <path id="Path_1147" data-name="Path 1147" d="M2943.79,5365.745h64.79" transform="translate(-2547.993 -5365.745)" fill="none" stroke="#fff" stroke-linecap="round" stroke-linejoin="round" stroke-width="4"/>
      <path id="Path_1148" data-name="Path 1148" d="M2094.531,5365.745h64.791" transform="translate(-2090.09 -5365.745)" fill="none" stroke="#fff" stroke-linecap="round" stroke-linejoin="round" stroke-width="4"/>
      <line id="Line_414" data-name="Line 414" x2="326.565" transform="translate(69.232 0)" fill="none" stroke="#fff" stroke-linecap="round" stroke-linejoin="round" stroke-width="4"/>
      <line id="Line_415" data-name="Line 415" x2="1.598" y2="5.226" transform="translate(25.51 5.225)" fill="none" stroke="#fff" stroke-linecap="round" stroke-linejoin="round" stroke-width="4"/>
      <line id="Line_416" data-name="Line 416" x1="1.598" y2="5.226" transform="translate(437.921 5.225)" fill="none" stroke="#fff" stroke-linecap="round" stroke-linejoin="round" stroke-width="4"/>
      <line id="Line_417" data-name="Line 417" x2="4.441" y2="5.225" transform="translate(460.587 0)" fill="none" stroke="#fff" stroke-linecap="round" stroke-linejoin="round" stroke-width="4"/>
      <path id="Path_1149" data-name="Path 1149" d="M2084.894,5377.082h25.51" transform="translate(-2084.893 -5371.858)" fill="none" stroke="#fff" stroke-linecap="round" stroke-linejoin="round" stroke-width="4"/>
      <line id="Line_418" data-name="Line 418" x1="4.441" y2="5.225" transform="translate(0 0)" fill="none" stroke="#fff" stroke-linecap="round" stroke-linejoin="round" stroke-width="4"/>
      <path id="Path_1150" data-name="Path 1150" d="M2943.79,5411.1h64.79" transform="translate(-2547.993 -5390.199)" fill="none" stroke="#fff" stroke-linecap="round" stroke-linejoin="round" stroke-width="4"/>
      <line id="Line_419" data-name="Line 419" x2="326.565" transform="translate(69.232 20.9)" fill="none" stroke="#fff" stroke-linecap="round" stroke-linejoin="round" stroke-width="4"/>
      <path id="Path_1151" data-name="Path 1151" d="M2094.531,5411.1h64.791" transform="translate(-2090.09 -5390.199)" fill="none" stroke="#fff" stroke-linecap="round" stroke-linejoin="round" stroke-width="4"/>
      <line id="Line_420" data-name="Line 420" x2="1.598" y2="5.226" transform="translate(25.51 26.126)" fill="none" stroke="#fff" stroke-linecap="round" stroke-linejoin="round" stroke-width="4"/>
      <line id="Line_421" data-name="Line 421" x1="1.598" y2="5.226" transform="translate(437.921 26.126)" fill="none" stroke="#fff" stroke-linecap="round" stroke-linejoin="round" stroke-width="4"/>
      <line id="Line_422" data-name="Line 422" x2="4.441" y2="5.225" transform="translate(460.587 20.9)" fill="none" stroke="#fff" stroke-linecap="round" stroke-linejoin="round" stroke-width="4"/>
      <path id="Path_1152" data-name="Path 1152" d="M2084.894,5422.437h25.51" transform="translate(-2084.893 -5396.312)" fill="none" stroke="#fff" stroke-linecap="round" stroke-linejoin="round" stroke-width="4"/>
      <line id="Line_423" data-name="Line 423" x1="4.441" y2="5.225" transform="translate(0 20.9)" fill="none" stroke="#fff" stroke-linecap="round" stroke-linejoin="round" stroke-width="4"/>
      <path id="Path_1153" data-name="Path 1153" d="M2943.79,5388.422h64.79" transform="translate(-2547.993 -5377.972)" fill="none" stroke="#fff" stroke-linecap="round" stroke-linejoin="round" stroke-width="4"/>
      <line id="Line_424" data-name="Line 424" x2="326.565" transform="translate(69.232 10.45)" fill="none" stroke="#fff" stroke-linecap="round" stroke-linejoin="round" stroke-width="4"/>
      <path id="Path_1154" data-name="Path 1154" d="M2094.531,5388.422h64.791" transform="translate(-2090.09 -5377.972)" fill="none" stroke="#fff" stroke-linecap="round" stroke-linejoin="round" stroke-width="4"/>
      <line id="Line_425" data-name="Line 425" x1="1.598" y2="5.226" transform="translate(437.921 15.676)" fill="none" stroke="#fff" stroke-linecap="round" stroke-linejoin="round" stroke-width="4"/>
      <line id="Line_426" data-name="Line 426" x2="1.598" y2="5.226" transform="translate(25.51 15.676)" fill="none" stroke="#fff" stroke-linecap="round" stroke-linejoin="round" stroke-width="4"/>
      <line id="Line_427" data-name="Line 427" x2="4.441" y2="5.225" transform="translate(460.587 10.45)" fill="none" stroke="#fff" stroke-linecap="round" stroke-linejoin="round" stroke-width="4"/>
      <path id="Path_1155" data-name="Path 1155" d="M2084.894,5399.759h25.51" transform="translate(-2084.893 -5384.084)" fill="none" stroke="#fff" stroke-linecap="round" stroke-linejoin="round" stroke-width="4"/>
      <line id="Line_428" data-name="Line 428" x1="4.441" y2="5.225" transform="translate(0 10.45)" fill="none" stroke="#fff" stroke-linecap="round" stroke-linejoin="round" stroke-width="4"/>
      <path id="Path_1156" data-name="Path 1156" d="M2943.79,5433.776h64.79" transform="translate(-2547.993 -5402.426)" fill="none" stroke="#fff" stroke-linecap="round" stroke-linejoin="round" stroke-width="4"/>
      <line id="Line_429" data-name="Line 429" x2="326.565" transform="translate(69.232 31.351)" fill="none" stroke="#fff" stroke-linecap="round" stroke-linejoin="round" stroke-width="4"/>
      <path id="Path_1157" data-name="Path 1157" d="M2094.531,5433.776h64.791" transform="translate(-2090.09 -5402.426)" fill="none" stroke="#fff" stroke-linecap="round" stroke-linejoin="round" stroke-width="4"/>
      <line id="Line_430" data-name="Line 430" x1="288.146" transform="translate(88.441 163.284)" fill="none" stroke="#fff" stroke-linecap="round" stroke-linejoin="round" stroke-width="4"/>
      <path id="Path_1158" data-name="Path 1158" d="M2271.126,5720.076h-4.861" transform="translate(-2182.686 -5556.793)" fill="none" stroke="#fff" stroke-linecap="round" stroke-linejoin="round" stroke-width="4"/>
      <path id="Path_1159" data-name="Path 1159" d="M2906.967,5720.076H2902.1" transform="translate(-2525.518 -5556.793)" fill="none" stroke="#fff" stroke-linecap="round" stroke-linejoin="round" stroke-width="4"/>
      <line id="Line_431" data-name="Line 431" x1="33.086" y2="108.22" transform="translate(406.433 36.576)" fill="none" stroke="#fff" stroke-linecap="round" stroke-linejoin="round" stroke-width="4"/>
      <line id="Line_432" data-name="Line 432" x2="33.086" y2="108.22" transform="translate(25.51 36.576)" fill="none" stroke="#fff" stroke-linecap="round" stroke-linejoin="round" stroke-width="4"/>
      <line id="Line_433" data-name="Line 433" x2="4.441" y2="5.225" transform="translate(460.587 31.351)" fill="none" stroke="#fff" stroke-linecap="round" stroke-linejoin="round" stroke-width="4"/>
      <path id="Path_1160" data-name="Path 1160" d="M2084.894,5445.114h25.51" transform="translate(-2084.893 -5408.539)" fill="none" stroke="#fff" stroke-linecap="round" stroke-linejoin="round" stroke-width="4"/>
      <path id="Path_1161" data-name="Path 1161" d="M3038.669,5377.082h25.511" transform="translate(-2599.15 -5371.858)" fill="none" stroke="#fff" stroke-linecap="round" stroke-linejoin="round" stroke-width="4"/>
      <path id="Path_1162" data-name="Path 1162" d="M3038.669,5422.437h25.511" transform="translate(-2599.15 -5396.312)" fill="none" stroke="#fff" stroke-linecap="round" stroke-linejoin="round" stroke-width="4"/>
      <path id="Path_1163" data-name="Path 1163" d="M3038.669,5399.759h25.511" transform="translate(-2599.15 -5384.084)" fill="none" stroke="#fff" stroke-linecap="round" stroke-linejoin="round" stroke-width="4"/>
      <path id="Path_1164" data-name="Path 1164" d="M3038.669,5445.114h25.511" transform="translate(-2599.15 -5408.539)" fill="none" stroke="#fff" stroke-linecap="round" stroke-linejoin="round" stroke-width="4"/>
      <line id="Line_434" data-name="Line 434" x1="4.441" y2="5.225" transform="translate(0 31.351)" fill="none" stroke="#fff" stroke-linecap="round" stroke-linejoin="round" stroke-width="4"/>
      <path id="Path_1165" data-name="Path 1165" d="M2235.129,5365.745" transform="translate(-2165.897 -5365.745)" fill="none" stroke="#fff" stroke-linecap="round" stroke-linejoin="round" stroke-width="4"/>
      <path id="Path_1166" data-name="Path 1166" d="M2155.626,5377.082" transform="translate(-2123.031 -5371.858)" fill="none" stroke="#fff" stroke-linecap="round" stroke-linejoin="round" stroke-width="4"/>
      <path id="Path_1167" data-name="Path 1167" d="M2235.129,5411.1" transform="translate(-2165.897 -5390.199)" fill="none" stroke="#fff" stroke-linecap="round" stroke-linejoin="round" stroke-width="4"/>
      <path id="Path_1168" data-name="Path 1168" d="M2155.626,5422.437" transform="translate(-2123.031 -5396.312)" fill="none" stroke="#fff" stroke-linecap="round" stroke-linejoin="round" stroke-width="4"/>
      <path id="Path_1169" data-name="Path 1169" d="M2235.129,5388.422" transform="translate(-2165.897 -5377.972)" fill="none" stroke="#fff" stroke-linecap="round" stroke-linejoin="round" stroke-width="4"/>
      <path id="Path_1170" data-name="Path 1170" d="M2155.626,5399.76" transform="translate(-2123.031 -5384.085)" fill="none" stroke="#fff" stroke-linecap="round" stroke-linejoin="round" stroke-width="4"/>
      <path id="Path_1171" data-name="Path 1171" d="M2235.129,5433.776" transform="translate(-2165.897 -5402.426)" fill="none" stroke="#fff" stroke-linecap="round" stroke-linejoin="round" stroke-width="4"/>
      <path id="Path_1172" data-name="Path 1172" d="M2276.815,5720.076" transform="translate(-2188.374 -5556.793)" fill="none" stroke="#fff" stroke-linecap="round" stroke-linejoin="round" stroke-width="4"/>
      <path id="Path_1173" data-name="Path 1173" d="M2155.626,5445.114" transform="translate(-2123.031 -5408.539)" fill="none" stroke="#fff" stroke-linecap="round" stroke-linejoin="round" stroke-width="4"/>
    </g>
    <g id="Group_699" data-name="Group 699" transform="translate(379 1948)">
      <path id="Path_1277" data-name="Path 1277" d="M2386.046,2703.389c0,4.783-3.776,8.137-9.148,8.137h-9.439a2.8,2.8,0,0,1-2.894-2.9v-21.9a2.8,2.8,0,0,1,2.894-2.895h6.923c5.162,0,8.769,3.146,8.769,7.719a6.573,6.573,0,0,1-2.056,4.993A6.938,6.938,0,0,1,2386.046,2703.389Zm-15.985-14.686v6.335h3.9c2.223,0,3.607-1.215,3.607-3.187s-1.384-3.147-3.607-3.147Zm10.364,14.475c0-2.182-1.47-3.483-3.945-3.483h-6.419v6.966h6.419C2378.954,2706.661,2380.424,2705.4,2380.424,2703.178Z" transform="translate(-2293.398 -2660.089)" fill="#fff"/>
      <path id="Path_1278" data-name="Path 1278" d="M2405.993,2681.481a3.546,3.546,0,1,1-3.524-3.441A3.493,3.493,0,0,1,2405.993,2681.481Zm-6.377,25.928v-15.985a2.832,2.832,0,1,1,5.665,0v15.985a2.833,2.833,0,1,1-5.665,0Z" transform="translate(-2303.623 -2658.362)" fill="#fff"/>
      <path id="Path_1279" data-name="Path 1279" d="M2477.418,2701.386v10.489a2.756,2.756,0,0,1-2.811,2.9,2.805,2.805,0,0,1-2.811-2.9v-9.735a3.746,3.746,0,0,0-3.859-4.026,3.833,3.833,0,0,0-3.945,4.026v9.735a2.781,2.781,0,0,1-2.811,2.9,2.814,2.814,0,0,1-2.853-2.9V2695.89a2.771,2.771,0,0,1,2.811-2.855,2.7,2.7,0,0,1,2.644,2.142,8.572,8.572,0,0,1,5.831-2.142C2474.356,2693.035,2477.418,2696.307,2477.418,2701.386Z" transform="translate(-2321.319 -2662.827)" fill="#fff"/>
      <path id="Path_1280" data-name="Path 1280" d="M2510.284,2702.77v.126a2.835,2.835,0,0,1-3.106,2.9h-11.83c.671,2.6,2.769,4.111,5.832,4.111a8.2,8.2,0,0,0,4.322-1.218,2.29,2.29,0,0,1,1.218-.377,2.24,2.24,0,0,1,2.306,2.268,2.591,2.591,0,0,1-1.426,2.264,11.782,11.782,0,0,1-6.587,1.931c-6.545,0-11.37-4.658-11.37-10.869a10.618,10.618,0,0,1,10.783-10.866A9.517,9.517,0,0,1,2510.284,2702.77Zm-14.937-.964h9.439a4.2,4.2,0,0,0-4.488-4.2A5.049,5.049,0,0,0,2495.348,2701.806Z" transform="translate(-2330.643 -2662.827)" fill="#fff"/>
      <path id="Path_1281" data-name="Path 1281" d="M2536.34,2695.8a2.7,2.7,0,0,1-2.643,2.726c-3.021.21-4.868,2.183-4.868,5.37v7.974a2.781,2.781,0,0,1-2.811,2.9,2.814,2.814,0,0,1-2.853-2.9V2695.89a2.771,2.771,0,0,1,2.81-2.855,2.72,2.72,0,0,1,2.729,2.56,6.766,6.766,0,0,1,5.076-2.349A2.423,2.423,0,0,1,2536.34,2695.8Z" transform="translate(-2340.626 -2662.827)" fill="#fff"/>
      <path id="Path_1282" data-name="Path 1282" d="M2439.134,2707.427c-.209,0-.462.041-.8.041-2.645,0-3.735-.924-3.735-3.231v-8.182h3.818a2.391,2.391,0,1,0,0-4.782H2434.6v-2.852a2.832,2.832,0,1,0-5.663,0v2.852h-8.774v-2.852a2.832,2.832,0,1,0-5.664,0v2.852h-1.176a2.391,2.391,0,1,0,0,4.782h1.176v8.687c0,5.074,2.894,7.8,8.307,7.8a5.07,5.07,0,0,0,2.454-.518,2.419,2.419,0,0,0,1.427-2.268,2.251,2.251,0,0,0-2.477-2.305c-.209,0,.022.013-.313.013-2.644,0-3.734-.924-3.734-3.231v-8.182h8.774v8.687c0,5.074,2.894,7.8,8.307,7.8a7.306,7.306,0,0,0,2.937-.547,2.417,2.417,0,0,0,1.427-2.267A2.25,2.25,0,0,0,2439.134,2707.427Z" transform="translate(-2307.194 -2660.604)" fill="#fff"/>
      <path id="Path_1283" data-name="Path 1283" d="M2310.963,2650.018h-24.136a23.607,23.607,0,0,0-23.607,23.606v24.164a13.523,13.523,0,0,0,13.523,13.523h24.163a23.606,23.606,0,0,0,23.606-23.606v-24.137A13.55,13.55,0,0,0,2310.963,2650.018Zm-10.168,51.435H2276.92a3.841,3.841,0,0,1-3.841-3.841v-6.431H2300.8a3.586,3.586,0,1,0,0-7.172h-27.716v-6.687h13.858a3.585,3.585,0,1,0,0-7.171h-13.331a22.356,22.356,0,1,1,27.189,31.3Z" transform="translate(-2263.22 -2650.018)" fill="#fff"/>
    </g>
  </g>
</svg>
