<svg xmlns="http://www.w3.org/2000/svg" width="293.973" height="178.549" viewBox="0 0 293.973 178.549">
  <g id="Group_765" data-name="Group 765" transform="translate(-288.811 -65.988)">
    <path id="Path_2273" data-name="Path 2273" d="M320.882,90.561l20.8,9.072,15,6.411M351,103.384l-17.9-7.621-12.217-5.322m62.3,46.935h-.121v-.242m198.384,97.014v-.242m0-.847v-.121m-23.227-8.468,2.542,1.21,2.419,1.21,2.419,1.21,2.419,1.089,2.54,1.089h.242m-16.935,1.694v-.121h-.121v-.242m23.467,3.75-1.815-.726-2.54-.968-2.542-1.089-2.539-1.089-2.661-1.089-2.54-1.331-2.541-1.21-2.66-1.331m20.685,15.484v.121l.12.121v.121h.122m1.452-1.089-.121.6-.363.363-.363.121m2.419-7.984.121-.242M323.785,75.925l-3.75-1.21m78.144,35.927-1.089-.6m-22.138,22.258,8.106,4.839m120.6,67.862,7.5,4.113,21.29,11.371,21.29,11.129M383.059,137.133l21.29,12.459,21.41,12.217,15.969,9.072M556.4,219.39l-.362-.121M445.961,151.891l-4.96-2.9-16.453-9.677m131.491,79.958-.848-.6M424.548,139.311l-3.265-2.056-2.784-1.935M291.729,75.562h0v-.121m29.153,15.121h-.121m.121-.121h-.121m.121,0v.121M289.915,71.207l.121,1.089.363,1.21.242.484M463.017,175.6l-21.411-12.218-21.291-12.943-21.289-13.306L377.857,122.98l-10.282-7.258L357.413,108.1M557.37,226.527l-11.734-6.169-11.855-6.169-11.734-6.29-11.855-6.411-11.734-6.411-11.855-6.411-11.734-6.411L463.017,175.6m-105-68.95,10.282,7.379,10.4,7.137,21.29,13.911,21.29,13.306,21.29,12.822,21.289,12.338m0,0,11.856,6.532,11.732,6.532,11.856,6.411,11.855,6.411,11.734,6.29,11.732,6.29,11.856,6.29,11.732,6.169m-4.112,7.5h-.242m24.556,10.4-3.024-1.089L572.37,240.2l-3.024-1.21-3.024-1.21-3.024-1.331-3.024-1.452-3.145-1.452L554.1,231.97m24.193,10.4h0m1.452-.847-.121.363-.243.363-.362.121m.726-1.089h0m0,.242,1.693-7.379m0,0v-1.089m-1.693,8.226v.242M397.091,110.037l-8.832-5.081-9.8-5.322-9.8-4.96-9.8-4.718-9.8-4.355L339.39,81.61l-9.677-3.629-5.927-2.056m-3.75-1.21-3.871-1.21-3.871-.847-3.75-.6-3.629-.363h-3.629l-3.508.242-3.387.484-3.266.726m0,0-.121.121-.122.121-.12.121v.484l.12.242.122.242.121.242m0,0,.6.726m0,0,2.419,2.3,2.54,2.177,2.419,2.177,2.54,2.056,2.539,2.056,2.541,1.935,2.54,1.935,2.54,1.694m0,0,8.831,6.048,8.95,6.048,8.953,5.806,8.83,5.685,8.951,5.685,8.831,5.443,8.951,5.443.846.363m66.774,38.588,5.322,3.024,21.411,11.855L489.75,197.5l13.911,7.5m50.08,26.612,3.024,1.573,3.145,1.573,3.024,1.331,3.024,1.331,3.024,1.331,3.024,1.21,3.024,1.089,3.024.968m0-6.9-2.661-2.177-2.782-2.056-2.782-2.177-2.782-1.935-2.661-2.056L561.6,222.9l-2.783-1.935L556.4,219.39m-1.21-.726-15.6-9.8-16.453-10.282-16.45-10.161-16.33-10.04L473.9,168.463l-16.451-9.8-11.492-6.774M418.5,135.319l-.483-.484-3.266-2.661-3.145-3.024-3.024-3.266-2.783-3.508-2.781-3.75-2.54-3.871-2.3-4.113M326.689,95.884l-2.419-1.694-2.3-1.935-.848-1.089-.241-.242v-.242l-.121-.121m0,0v-.121m-29.88-15.846.364.484.484.484m83.223,56.975,3.024,1.814,5.2,3.024m82.982,21.653-16.815-9.556L433.138,140.4,418.5,132.416l-1.21-.6m-34.111,5.564,15,8.83,28.548,16.33,15.121,8.589m61.933,34.112,8.59,4.718L540.8,225.075l13.064,6.9m8.347-13.911-14.395-9.072-27.1-16.935-27.1-16.572-27.339-16.33m115.16,75.241v-.484m0,0v-.968m-.968-1.814.968,1.814v-.484l-.243-.6-.483-.6m-.122-.242-3.265-2.419-6.169-4.476-6.169-4.234-2.782-1.814M578.9,242.373h.121m-.726,0h.6m.726-.484.484-1.935,1.331-5.685" transform="translate(0 0.885)" fill="none" stroke="#030504" stroke-linecap="round" stroke-linejoin="round" stroke-width="2"/>
    <path id="Path_2274" data-name="Path 2274" d="M290.8,75.125s-1.348-4.445-.674-5.929c1.429.351,1.213.674,1.536.836s.54-2.237.54-2.237l2.775,1.752.4-2.371,2.857,2.128.538-2.29,2.184,1.94.835-1.967,2.884,2.129.7-1.995,2.669,2.56,1-2.129,2.371,2.318,1.106-1.7,2.452,2.614,1.023-1.752,2.533,2.641,1.159-1.589L322,73.077l1.159-1.671,2.533,2.856L326.8,72.62l2.156,2.883,1.293-1.671,2.21,3.1,1.374-1.833,2.1,3.018,1.266-1.563,2.533,2.776,1.212-1.4,2.237,3.018,1.374-1.563,2.237,2.991,1.4-1.455,2.479,2.991,1.185-1.455,2.264,2.964,1.482-1.563,2.156,3.18,1.267-1.429,2.344,3.288,1.185-1.536L364.74,90.3l1.455-1.158,2.344,3.045,1.212-1.321,2.291,3.1,1.348-1.293,2.129,3.18,1.616-1.348,2.21,3.233,1.267-1.213,2.183,3.154,1.563-1.348,1.94,3.314,1.671-1.374,2.1,3.207,1.535-1.24,2.076,3.477,1.752-1.132s2.4,2.713,2.9,3.288,13.438,21.918,18.612,24.648" transform="translate(0.004 0)" fill="none" stroke="#030504" stroke-linecap="round" stroke-linejoin="round" stroke-width="2"/>
  </g>
</svg>
