<svg xmlns="http://www.w3.org/2000/svg" width="300.506" height="167.224" viewBox="0 0 300.506 167.224">
  <path id="Path_2272" data-name="Path 2272" d="M87.856,77.211h0v-.153h.153m7.039,1.071.153-.153m51.111,21.577L136.978,96.8l-12.242-3.214-12.548-3.061-12.854-2.6m0-9.182.153-.153h.153m46.826,10.865-9.488-2.6-12.242-3.061-12.548-2.6L99.333,78.741m104.823,61.976-1.53-1.53-1.683-1.836-1.224-1.224-.765-.918-.459-.612-.306-.612-.306-.459-.153-.153v-.306m184.4,91.2h-.153l-.153.153h-.153v.153m-8.416,8.263h.306M87.856,95.421h0m7.5,1.071h0m-7.5-10.253H87.55l-.459.153-.459.153V86.7m1.224-9.488H87.55l-.459.153-.459.153v.153m1.377-.612h0m-.765,21.424,0-8.723h0m12.089-1.836-4.285-.612m0,0-7.192-1.071m94.417,46.979-7.192-.459-7.651-1.377M87.244,80.73h0m12.089-1.989-4.285-.612m0,0-7.192-.918M87.244,71.4h0M194.21,135.055h0l-5.968-1.224-5.968-.612m-7.5-20.2h-.153v-.153h-.153l-.153-.153m-22.342-31.37h0l3.52.918,3.52,1.224,5.509,2.142m0,0h0l.918.459.918.459,1.071.612m-8.57-12.7h0M87.7,68.029h0m64.271,13.313M86.546,68.914l11.869,1.87,18.516,3.061,17.751,3.52,17.292,3.979m15.456,5.815h0l2.448,1.377,2.448,1.683,3.214,2.448m19.587,3.979h0M175.54,92.666h0l2.907,2.6,3.826,3.214m0,0,4.744,4.132m0,0h0l1.989,1.683,1.836,1.53,3.367,2.754m-19.434,4.438h0m22.954,20.046v-.918M181.508,110.57c6.779,1.356,13.665,2.78,19.841,6,2.964,1.546,5.66,3.518,8.468,5.319l.918.612,1.071.459m-66.218-34c1.408.6,2.788,1.723,2.334,3.451a1.673,1.673,0,0,1-.8,1.067,2.8,2.8,0,0,1-1.725.1m0,0-14.078-4.132-14.538-3.826L102.088,82.26,91.206,79.605m54.308,19.459a2.08,2.08,0,0,1,1.292.568,3.89,3.89,0,0,1,.946,1.333,1.966,1.966,0,0,1-.736,2.722,2.81,2.81,0,0,1-1.621,0m0,0-14.078-4.438-14.538-3.979L102.088,91.6,88.729,88.219m56.718,20.923a6.639,6.639,0,0,1,1.507.914,3.4,3.4,0,0,1,.937,1.582,2.262,2.262,0,0,1,.02,1.318,1.778,1.778,0,0,1-1.657,1.119,7.139,7.139,0,0,1-1.011-.138L91.114,97.9m83.2,14.811h0M208.9,145.154l-9.029-8.263c-1.313-1.2-2.712-2.416-4.141-3.523-2.118-1.642-4.288-3.189-6.28-4.989-4.227-3.821-8.583-7.517-12.9-11.247a9.624,9.624,0,0,1-1.809-1.875,2.894,2.894,0,0,1,1.621-4.644,11.328,11.328,0,0,1,4.992-.043m12.854-1.989h0l5.2,4.285,5.05,4.285,4.9,3.826,2.448,1.989m-14.078,10.1h0m62.894,50.652-5.509-3.367c-7.209-4.917-14.441-9.8-21.474-14.975q-12.8-9.42-24.692-19.994c-1.3-1.158-2.439-2.412-3.72-3.593l-1.071-1.071m-6.427-8.569v.153m0-.153-11.477-9.335-11.477-9.794m86.46,52.947h0m-43-24.943,6.733,3.826,17.751,10.406,18.516,10.712m0,0h0l13.772,7.651,10.712,5.815,10.865,5.815m0,0h0l.459.153.459.153.918.459m5.662-5.2h0m-5.662,5.2h0l7.8,4.132,7.957,3.979,11.018,5.509m-65.036-31.217L241.648,157.7l-17.6-10.559-6.58-3.979m0,0-5.2-3.214-5.05-2.908L204,135.208l-2.142-1.224-1.377-.765-.918-.459-.765-.306-.306-.153-.306-.153h-.459m0,.153v.765m144.457,78.656-9.029-4.9-9.029-4.591m0,0-10.865-5.509-8.11-4.132-7.8-3.979m0,0-.918-.459-.459-.306-.306-.153m0,0-11.018-5.662-10.712-5.815-13.772-7.8m0,0h0M325.2,199.632h0l9.029,4.744,9.029,4.9m0,0,9.641,5.356m5.2-4.438h0M376,220.6h0m-2.448,12.242.153-.153.306-.459.459-.765m0-1.683v1.683m-3.979-6.58,2.448,1.53M352.9,214.628h0l2.907,1.683,7.039,4.132,1.071.612,5.968,3.52.612.306m2.448,1.53,7.039-1.53,1.683-.306m-8.723,1.836.459,1.071m0,0,.306.612.306.612.459.918v.153m-.981,2.756c.227-.978-1.774-3.827-1.774-3.827l-2.448-1.377m0,0-.612-.459-5.968-3.367-1.071-.765-6.886-3.979-3.061-1.683m0,0-9.488-5.356M87.856,95.421a1.6,1.6,0,0,0-1.374.614m-.309.917v.306m.306-1.224-.153.306m61.976,26.78-13.772-6.58-18.057-7.5-18.516-6.886L87.244,98.481a1.325,1.325,0,0,1-1.071-1.53c0-.219-.061-.467.155-.609m9.027.15-2.6-.306-4.9-.765m11.783,1.836-1.53-.306L95.2,96.492M86.02,87.922v.153m0,0v.459l.306.459.306.459.612.306M86.479,86.7l-.306.459m0,0-.153.459v.306m0-9.029v.153m1.989-1.989-.612.153-.612.153-.153.306m-.612,1.377v.459l.306.459.306.459.612.306m-.765-3.061-.306.459m0,0h0l-.153.459v.306m9.182-.918-2.448-.306-4.744-.612m11.63,1.53-1.53-.306L95.2,77.976m-9.029-8.11a1.86,1.86,0,0,0,.517,1.29,1.55,1.55,0,0,0,.67.263c.289.083.58.155.872.228l6.214,1.561q2.571.645,5.128,1.325l3.252.862,2.591.686.8.213L116.472,79.2l10.1,3.214,9.947,3.214,8.876,3.214m6.427,36.114h0l4.744,2.3,3.673,1.683,3.214,1.224,3.061.918.612.153M145.088,109.04l-2.6-.765-9.641-2.907-9.641-2.6-9.947-2.448-9.947-2.3-3.673-.765m48.509,25.861,3.673,1.836m-64.577-35.2,7.5,2.142L105.3,94.962l10.253,3.214,10.1,3.52,10.1,3.673,9.794,3.826m.459-20.046-3.52-1.071L133,85.627l-9.794-2.3-9.794-2.142L103.465,79.2l-3.826-.612m-12.4,2.142,7.5,1.989L105.3,85.627l10.253,3.061,10.1,3.214,10.1,3.52,9.905,3.6m31.106-19.515-.306-.153h-.153m0,0-.765-.306-2.6-1.071m0,0L169.878,76.9l-4.9-1.224-5.05-1.071-1.071-.153m26.474,11.018-.918-.918-2.448-1.989-2.754-1.836-2.448-1.224m-17.9-5.05-4.132-.765-9.641-1.377-9.794-1.071-10.1-1.071-10.1-.765L105,68.794l-10.406-.612L87.7,68.029a1.464,1.464,0,0,0-1.53,1.683v.153M195.181,96.607a97.149,97.149,0,0,0-9.847-11.133m8.569,49.581.765.306,4.438,1.377.918.306m.165-32.908c-1.567-2.578-3.322-5.028-5.062-7.491m19.587,26.321a66.15,66.15,0,0,1-11.67-14.207m.04-.024a19.559,19.559,0,0,1-2.908-4.591m22.189,25.4-.459-.306-4.285-3.52-2.908-2.754m53.1,36.879-8.263-5.05-10.406-6.733-10.1-6.733-9.641-6.58-5.815-4.285-1.3-.949m38.333,54.2,3.061,1.989,11.018,6.58,11.477,6.733,9.947,5.356m0,0h.153l1.53.918m4.591-25.4h0m0,0-11.018-5.968-11.171-6.58-11.018-6.58-1.377-.918m36.267,20.965-.459-.153-1.224-.765m-4.591,25.4,8.416,4.285,11.018,5.356,7.5,3.367m5.662-23.413-2.142-1.071-9.794-5.2-10.1-5.356-4.285-2.448M324.741,218.3l2.754,1.224,7.5,2.908,7.957,2.907m0,0,7.8,2.448,1.683.459m0,0,.918.306,8.11,1.989,2.142.459M358.1,210.19l-1.836-1.224-7.651-4.285-7.957-4.285-7.8-4.285-2.448-1.224m51.57,37.951h.765l.612-.306.459-.459.306-.765V231m-2.755,1.836h.612m-9.182,0h.459M363.61,231l.459.153,6.886,1.377,1.836.306M384.115,231v-3.673m0,0-.153-.765-.306-.918-.612-.612-.765-.612-.153-.153m0,0L380.9,223.5,376,220.6m0,0-3.673-2.142-8.263-4.9L358.1,210.19m15.15,22.648h8.11" transform="translate(-84.786 -67.029)" fill="none" stroke="#030504" stroke-linecap="round" stroke-linejoin="round" stroke-width="2"/>
</svg>
