<svg xmlns="http://www.w3.org/2000/svg" width="300.27" height="176.105" viewBox="0 0 300.27 176.105">
  <g id="Group_766" data-name="Group 766" transform="translate(-418.158 -60.109)">
    <path id="Path_2275" data-name="Path 2275" d="M515.519,112.895l.612,1.019.713,1.428,5.3,9.588,5.1,9.384m.2.817-.1-.307-.1-.306v-.2m4.284-11.933-.816-.51-1.428-1.02-3.161-2.143-3.163-2.141-3.264-2.244-1.631-1.225-2.143-1.836-2.244-1.836m193.039,124.6.1.2.1.2.1.2.1.2.1.1.2.1h.1m.713-.816-.1.2v.2l-.1.1v.2l-.1.1h-.1m7.65-5.509.2-.1.1-.1.1-.1h.1M527.248,134.313v-.2m0,0v-.2l.1-.306.2-.307.611-.509.307-.1m0,0,6.833,3.264,1.735.918,7.14,3.876,2.549,1.428m-14.075-19.074-1.122-.713m15.2,19.787c34.386,16.512,68.969,33.294,101.712,52.917,13.648,8.179,27.262,16.42,40.9,24.612m18.908,13.513v1.02m-.51-3.061.1.2.1.306v.2l.1.307v.306l.1.2v.306l.1.2m-.51-2.04-.1.2-.2.2-.2.2-.1.306-.1.2-.1.306-.1.2-.1.2m0,1.02v-1.02m-17.339-13.362h0l5.916,3.571,5.915,3.672,6.528,4.284m0,0,2.346-.51,2.346-.51,3.06-.612M532.713,122.96c-4.953-4.885-10.062-10.161-13.875-15.988-3.949-6.039-7.881-12.654-12.467-18.311-4.523-5.579-12.4-13.275-18.216-16.546C477.279,66,468.079,60.34,445.5,61.451a33.964,33.964,0,0,0-17.4,6.291A22.939,22.939,0,0,0,419.859,80.8c-1.745,7.683.09,15.83,3.552,22.907a63.721,63.721,0,0,0,43.227,34.7c16.9,3.934,32.339-.937,48.809-4.475,3.159-.679,6.339-1.268,9.549-1.653m2.457,2.847.2.306.307.408.1.1M448.043,61.269c33.932,6.059,45.38,24.933,60.834,43.19l3.095,3.265,3.087,3.074m23.716,16.069-1.122-.713-2.039-1.225-1.735-1.02-1.223-.816m-4.59,12.852.1.1,3.673,3.569,3.774,3.571,4.079,3.569,4.182,3.264,2.244,1.633m6.222-14.484-.1-.1m0,0-.2-.1-4.182-3.264-4.386-3.571-2.754-2.04-1.938-1.223m155.41,88.58c-21.788-11.9-42.79-25.157-64.248-37.631-24.431-14.2-50.565-25.142-75.1-39.141q-1.267-.723-2.525-1.458m-20.781-14.837-.51-.409-.816-.713-.51-.51-.51-.408v-.1m16.931,31.416,5.917,4.385,7.548,5.1,7.445,4.794,7.447,4.589,7.853,4.692,4.589,2.55m0,0,1.02.51,8.16,4.487,4.386,2.244m0,0,73.8,38.616,5,2.346,4.591,1.938,4.9,1.938h.2m26.724,5.3h.1l.51-.1.408-.307.2-.306.2-.51m0-.1v-2.856m-9.588,4.081h.306m9.283-4.081-.2-.611-.2-.408-.408-.51-.306-.1m-27.029.51,2.754.918,5,1.631,5.2,1.428,3.977.918,1.633.307m.306,0,3.876.1H715.7m.306-5.916-1.428-1.02-4.284-2.754-4.386-2.856-4.589-2.856-5.406-3.264-1.734-1.02" transform="translate(0 0)" fill="none" stroke="#030504" stroke-linecap="round" stroke-linejoin="round" stroke-width="2"/>
    <path id="Path_2276" data-name="Path 2276" d="M498.483,107.724s-2.727,9.815-5.089,11.633" transform="translate(19.484 12.198)" fill="none" stroke="#030504" stroke-linecap="round" stroke-linejoin="round" stroke-width="2"/>
  </g>
</svg>
