<svg xmlns="http://www.w3.org/2000/svg" width="216.454" height="129.629" viewBox="0 0 216.454 129.629">
  <path id="Path_2277" data-name="Path 2277" d="M649.617,136.91l-.571,1.482-.912,2.054-1.256,2.054-1.369,1.825-1.256,1.256-1.369,1.14m2.282-18.256.685,1.141.8,1.6,5.934,10.727,5.7,10.5m.229.913L658.4,153l-.115-.343v-.228M642.2,125.84h0l.113-.228m20.768,13.465-.912-.571-1.6-1.141-3.537-2.4-3.538-2.4-3.65-2.51-1.827-1.369-2.4-2.054-2.51-2.054m140.124,99.5.115.229.115.228.113.228.115.228.113.115.229.113h.113m.8-.912-.113.228v.228l-.115.115v.228l-.113.113h-.115m8.557-6.162.229-.113.113-.115.115-.113h.113M580.81,111.349h0l.113,1.825.115.457m1.826,6.275.341.685m0,0-.456-.685m.048-.021a27.353,27.353,0,0,1-1.987-8.423m0,0v-.113m2.4,9.243a56.408,56.408,0,0,0,19.3,21.316m55.784,10.52V152.2m0,0v-.228l.115-.343.228-.343.685-.571.341-.113m-16.544-26.018L643,124.7l-.115.115-.113.113-.115.115-.113.113-.115.229-.115.113v.115m17.344,24.99,7.646,3.652,1.94,1.027,7.988,4.335,2.853,1.6m-15.747-21.339-1.256-.8m17,22.137,14.947,8.9,15.062,8.787,15.519,8.672m0,0h0l7.3,3.993,3.879,1.941,3.879,2.053m0,0h0l10.841,5.706,6.162,3.309L763.841,208m21.109,15.177v1.141m-.571-3.424.115.228.115.343v.228l.113.343v.343l.115.228v.341l.113.229m-.571-2.282-.113.228-.228.228-.229.228-.113.343-.115.228-.113.343-.115.228-.115.228m0,1.141v-1.141M763.841,208h0l6.618,3.994,6.618,4.107,7.3,4.793m0,0,2.625-.571,2.625-.571,3.422-.685M660.458,136.68l-.571-.456-.685-.685-.684-.684-.685-.8-1.826-1.826-1.825-1.94-2.282-2.625-2.168-2.4-2.282-2.738-1.825-2.282-1.6-1.712-.8-1.027-.8-.8-1.141-1.141-1.484-1.484-1.825-1.6-3.538-2.853-3.309-2.282-3.537-2.168-3.537-1.826-3.538-1.482a56.853,56.853,0,0,0-10.04-3.045,45.958,45.958,0,0,0-12.219-.926,28.846,28.846,0,0,0-9.872,1.871,12.484,12.484,0,0,0-6.787,6.856,13.877,13.877,0,0,0-.792,4.714M602.6,142.044a52.769,52.769,0,0,0,16.838,7.667,34.767,34.767,0,0,0,13.11.743c2.51-.362,4.989-1.064,7.481-1.562l2.852-.343M642.2,125.84l.343.343.113.113m.228,22.252,3.081-.115h3.31l3.309.343,3.194.571.685.228m2.054,3.766.228.343.343.456.113.115M602.34,98.08l9.622,4.14,2.853,1.256,2.852,1.484,2.853,1.6,2.853,1.825,2.738,1.94,2.625,2.282,2.624,2.4,2.512,2.51,2.4,2.624,2.738,2.853,2.968,2.738.228.115M671.184,144.1l-1.255-.8-2.282-1.369-1.94-1.141-1.369-.913M642.657,126.3l2.168,1.826,3.081,2.51,3.081,2.4,3.2,2.282,2.738,1.94,12.581,9.992m-10.3,7.011.115.113,4.107,3.994,4.222,3.994,4.565,3.993L676.889,170l2.51,1.826m6.96-16.2-.113-.115m0,0-.229-.113-4.678-3.652-4.906-3.994-3.081-2.282-2.169-1.369m21.681,15.975-.8-.571-4.109-2.738-1.6-1.141m-23.278-16.546-.571-.457-.912-.8-.571-.571-.571-.456v-.115M679.4,171.826l6.618,4.906,8.444,5.706,8.331,5.363,8.33,5.135,8.785,5.249,5.135,2.853m6.162-18.6-7.759-4.335-8.559-5.022-7.644-4.335-7.075-4.222-7.3-4.45m32.178,40.965,1.141.571,9.128,5.021,4.907,2.51m0-21.794-9.015-4.907m14.949,8.216-5.934-3.309m0,21.794,6.732,3.309,5.591,2.625,5.135,2.168,5.477,2.168h.228m5.821-16.089-3.766-2.169-5.249-2.966-5.478-2.968-5.591-2.966-2.966-1.6m47.127,34.689h.113l.571-.115.457-.341.228-.343.228-.571m0-.115v-3.194m-10.727,4.563h.343m10.384-4.563-.228-.685-.228-.456-.457-.571-.343-.115m-30.239.571,3.081,1.026,5.591,1.826,5.821,1.6,4.45,1.028,1.825.341m.343,0,4.337.115h4.45m.341-6.618-1.6-1.141-4.793-3.081-4.906-3.2-5.135-3.2-6.047-3.652-1.94-1.14" transform="translate(-579.724 -96.766)" fill="none" stroke="#030504" stroke-linecap="round" stroke-linejoin="round" stroke-width="2"/>
</svg>
