<svg xmlns="http://www.w3.org/2000/svg" width="457.973" height="127.443" viewBox="0 0 457.973 127.443">
  <g id="Group_888" data-name="Group 888" transform="translate(-1213.265 -4236.457)">
    <g id="Group_727" data-name="Group 727" transform="translate(1383 4274.892)">
      <path id="Path_1277" data-name="Path 1277" d="M2385.369,2702.773c0,4.633-3.657,7.881-8.86,7.881h-9.142a2.711,2.711,0,0,1-2.8-2.8V2686.64a2.71,2.71,0,0,1,2.8-2.8h6.7c5,0,8.493,3.047,8.493,7.475a6.366,6.366,0,0,1-1.991,4.836A6.72,6.72,0,0,1,2385.369,2702.773Zm-15.482-14.223v6.135h3.779c2.153,0,3.494-1.177,3.494-3.087s-1.341-3.048-3.494-3.048Zm10.037,14.019c0-2.114-1.423-3.373-3.821-3.373h-6.217v6.746h6.217C2378.5,2705.942,2379.925,2704.723,2379.925,2702.569Z" transform="translate(-2364.565 -2679.895)" fill="#fff"/>
      <path id="Path_1278" data-name="Path 1278" d="M2405.77,2681.373a3.435,3.435,0,1,1-3.413-3.333A3.383,3.383,0,0,1,2405.77,2681.373Zm-6.177,25.112V2691a2.743,2.743,0,1,1,5.486,0v15.482a2.744,2.744,0,1,1-5.486,0Z" transform="translate(-2375.549 -2678.04)" fill="#fff"/>
      <path id="Path_1279" data-name="Path 1279" d="M2476.817,2701.123v10.159a2.669,2.669,0,0,1-2.722,2.8,2.717,2.717,0,0,1-2.723-2.8v-9.429a3.628,3.628,0,0,0-3.738-3.9,3.713,3.713,0,0,0-3.82,3.9v9.429a2.693,2.693,0,0,1-2.722,2.8,2.725,2.725,0,0,1-2.763-2.8V2695.8a2.683,2.683,0,0,1,2.722-2.765,2.611,2.611,0,0,1,2.56,2.075,8.3,8.3,0,0,1,5.647-2.075C2473.852,2693.034,2476.817,2696.2,2476.817,2701.123Z" transform="translate(-2394.559 -2682.836)" fill="#fff"/>
      <path id="Path_1280" data-name="Path 1280" d="M2509.634,2702.463v.122a2.746,2.746,0,0,1-3.008,2.8h-11.458c.65,2.519,2.682,3.981,5.648,3.981a7.943,7.943,0,0,0,4.185-1.179,2.219,2.219,0,0,1,1.179-.365,2.169,2.169,0,0,1,2.234,2.2,2.51,2.51,0,0,1-1.381,2.193,11.414,11.414,0,0,1-6.38,1.87c-6.338,0-11.012-4.511-11.012-10.527a10.284,10.284,0,0,1,10.443-10.524A9.217,9.217,0,0,1,2509.634,2702.463Zm-14.466-.934h9.142a4.07,4.07,0,0,0-4.347-4.063A4.89,4.89,0,0,0,2495.168,2701.53Z" transform="translate(-2404.576 -2682.836)" fill="#fff"/>
      <path id="Path_1281" data-name="Path 1281" d="M2535.925,2695.718a2.614,2.614,0,0,1-2.56,2.64c-2.926.2-4.714,2.115-4.714,5.2v7.723a2.693,2.693,0,0,1-2.722,2.8,2.726,2.726,0,0,1-2.763-2.8V2695.8a2.684,2.684,0,0,1,2.722-2.765,2.634,2.634,0,0,1,2.643,2.479,6.552,6.552,0,0,1,4.916-2.275A2.347,2.347,0,0,1,2535.925,2695.718Z" transform="translate(-2415.3 -2682.836)" fill="#fff"/>
      <path id="Path_1282" data-name="Path 1282" d="M2438.245,2706.739c-.2,0-.447.04-.771.04-2.561,0-3.617-.895-3.617-3.13v-7.924h3.7a2.316,2.316,0,1,0,0-4.631h-3.7v-2.762a2.743,2.743,0,1,0-5.485,0v2.762h-8.5v-2.762a2.743,2.743,0,1,0-5.485,0v2.762h-1.139a2.316,2.316,0,1,0,0,4.631h1.139v8.414c0,4.914,2.8,7.558,8.045,7.558a4.91,4.91,0,0,0,2.376-.5,2.343,2.343,0,0,0,1.382-2.2,2.18,2.18,0,0,0-2.4-2.233c-.2,0,.021.012-.3.012-2.561,0-3.616-.895-3.616-3.13v-7.924h8.5v8.414c0,4.914,2.8,7.558,8.045,7.558a7.08,7.08,0,0,0,2.844-.529,2.342,2.342,0,0,0,1.382-2.2A2.179,2.179,0,0,0,2438.245,2706.739Z" transform="translate(-2379.385 -2680.448)" fill="#fff"/>
    </g>
    <g id="Group_726" data-name="Group 726" transform="translate(1216 4238.697)">
      <path id="Path_2024" data-name="Path 2024" d="M-628.635,862.981a1,1,0,0,0-.862.5" transform="translate(635.031 -862.981)" fill="none" stroke="#fff" stroke-linecap="round" stroke-miterlimit="10" stroke-width="4"/>
      <path id="Path_2025" data-name="Path 2025" d="M-65.613,863.476a1,1,0,0,0-.862-.5" transform="translate(512.582 -862.981)" fill="none" stroke="#fff" stroke-linecap="round" stroke-miterlimit="10" stroke-width="4"/>
      <path id="Path_2026" data-name="Path 2026" d="M-579.175,976.381a39.92,39.92,0,0,0,4.435,13.468" transform="translate(624.087 -887.644)" fill="none" stroke="#fff" stroke-linecap="round" stroke-miterlimit="10" stroke-width="4"/>
      <path id="Path_2027" data-name="Path 2027" d="M-121.363,989.849a39.936,39.936,0,0,0,4.435-13.468" transform="translate(524.519 -887.644)" fill="none" stroke="#fff" stroke-linecap="round" stroke-miterlimit="10" stroke-width="4"/>
      <path id="Path_2028" data-name="Path 2028" d="M-575.331,976.381l-.338.656-.287.682-.235.709-.183.735-.131.762-.077.79-.022.818.034.847.092.87.15.888.207.906.266.924.325.942.386.961.449.98.514,1" transform="translate(623.528 -887.644)" fill="none" stroke="#fff" stroke-linecap="round" stroke-linejoin="round" stroke-width="4"/>
      <path id="Path_2029" data-name="Path 2029" d="M-121.363,989.849l.514-1,.449-.98.387-.961.326-.943.266-.925.208-.908.082-.447.068-.443.028-.22.025-.219.021-.217.017-.216.034-.844-.023-.815-.077-.788-.131-.761-.183-.734-.235-.708-.287-.682-.338-.656" transform="translate(524.519 -887.644)" fill="none" stroke="#fff" stroke-linecap="round" stroke-linejoin="round" stroke-width="4"/>
      <path id="Path_2030" data-name="Path 2030" d="M-574.977,975.3l.446-.587.49-.559.534-.531.578-.5.623-.473.67-.444.352-.211.364-.2.187-.1.19-.1.193-.095.2-.093" transform="translate(623.174 -886.562)" fill="none" stroke="#fff" stroke-linecap="round" stroke-linejoin="round" stroke-width="4"/>
      <path id="Path_2031" data-name="Path 2031" d="M-126.056,971.406l.759.38.713.411.669.442.624.473.58.5.536.533.127.138.125.14.122.141.119.143.229.291.218.3" transform="translate(525.539 -886.562)" fill="none" stroke="#fff" stroke-linecap="round" stroke-linejoin="round" stroke-width="4"/>
      <path id="Path_2032" data-name="Path 2032" d="M-497.212,1014.495l2.385-.117,2.041-.352,1.685-.584,1.319-.813.946-1.036.566-1.255.184-1.465-.2-1.667-.582-1.859-.961-2.04-1.335-2.209-1.7-2.365-2.056-2.507-2.4-2.635" transform="translate(606.284 -891.387)" fill="none" stroke="#fff" stroke-linecap="round" stroke-linejoin="round" stroke-width="4"/>
      <path id="Path_2033" data-name="Path 2033" d="M-200.119,993.592l-2.4,2.635-2.056,2.507-1.7,2.365-1.335,2.209-.961,2.04-.582,1.859-.2,1.667.184,1.465.567,1.255.946,1.036,1.319.813,1.685.584,2.041.352,2.385.117" transform="translate(543.655 -891.387)" fill="none" stroke="#fff" stroke-linecap="round" stroke-linejoin="round" stroke-width="4"/>
      <path id="Path_2034" data-name="Path 2034" d="M-502.945,989.849l-1.083-1-1.116-.98-1.147-.961-1.178-.943-1.207-.925-1.237-.908-.629-.447-.637-.443-.321-.22-.323-.219-.324-.217-.325-.216-1.306-.844-1.316-.815-1.326-.788-1.336-.761-1.345-.734-1.355-.708-1.364-.682-1.373-.656" transform="translate(611.912 -887.644)" fill="none" stroke="#fff" stroke-linecap="round" stroke-linejoin="round" stroke-width="4"/>
      <path id="Path_2035" data-name="Path 2035" d="M-177.3,976.381l-1.374.656-1.365.682-1.356.709-1.347.735-1.338.762-1.329.79-1.319.818-1.31.847-1.291.87-1.262.888-1.234.906-1.205.924-1.176.942-1.146.961-1.115.98-1.083,1" transform="translate(541.089 -887.644)" fill="none" stroke="#fff" stroke-linecap="round" stroke-linejoin="round" stroke-width="4"/>
      <path id="Path_2036" data-name="Path 2036" d="M-538.594,971.406l1.464.38,1.477.411,1.489.442,1.5.473,1.514.5,1.526.533.384.138.384.14.385.141.385.143.77.291.771.3" transform="translate(615.261 -886.562)" fill="none" stroke="#fff" stroke-linecap="round" stroke-linejoin="round" stroke-width="4"/>
      <path id="Path_2037" data-name="Path 2037" d="M-171.676,975.3l1.536-.587,1.528-.559,1.52-.531,1.511-.5,1.5-.473,1.493-.444.743-.211.741-.2.37-.1.369-.1.369-.095.368-.093" transform="translate(535.461 -886.562)" fill="none" stroke="#fff" stroke-linecap="round" stroke-linejoin="round" stroke-width="4"/>
      <path id="Path_2038" data-name="Path 2038" d="M-162.475,862.981v.5" transform="translate(533.46 -862.981)" fill="none" stroke="#fff" stroke-linecap="round" stroke-linejoin="round" stroke-width="4"/>
      <path id="Path_2039" data-name="Path 2039" d="M-573.507,993.592l1.562,2.635,1.759,2.507,1.946,2.365,2.121,2.209,2.284,2.04,2.434,1.859,2.569,1.667,2.69,1.465,2.794,1.255,2.882,1.036,2.953.813,3.006.584,3.042.352,3.06.117" transform="translate(622.854 -891.387)" fill="none" stroke="#fff" stroke-linecap="round" stroke-linejoin="round" stroke-width="4"/>
      <path id="Path_2040" data-name="Path 2040" d="M-166.223,1014.495l3.06-.117,3.042-.352,3.007-.584,2.953-.813,2.882-1.036,2.794-1.255,2.69-1.465,2.569-1.667,2.434-1.859,2.284-2.04,2.121-2.209,1.946-2.365,1.759-2.507,1.561-2.635" transform="translate(534.275 -891.387)" fill="none" stroke="#fff" stroke-linecap="round" stroke-linejoin="round" stroke-width="4"/>
      <line id="Line_793" data-name="Line 793" x2="24.622" transform="translate(84.45 123.107)" fill="none" stroke="#fff" stroke-linecap="round" stroke-linejoin="round" stroke-width="4"/>
      <line id="Line_794" data-name="Line 794" x2="24.622" transform="translate(343.431 123.107)" fill="none" stroke="#fff" stroke-linecap="round" stroke-linejoin="round" stroke-width="4"/>
      <line id="Line_795" data-name="Line 795" y1="3.893" x2="0.547" transform="translate(407.591 84.844)" fill="none" stroke="#fff" stroke-linecap="round" stroke-linejoin="round" stroke-width="4"/>
      <line id="Line_796" data-name="Line 796" x2="0.547" y2="3.893" transform="translate(44.365 84.844)" fill="none" stroke="#fff" stroke-linecap="round" stroke-linejoin="round" stroke-width="4"/>
      <line id="Line_797" data-name="Line 797" x2="234.36" transform="translate(109.071 123.107)" fill="none" stroke="#fff" stroke-linecap="round" stroke-linejoin="round" stroke-width="4"/>
      <line id="Line_798" data-name="Line 798" x1="10.521" y2="74.862" transform="translate(414.792 9.982)" fill="none" stroke="#fff" stroke-linecap="round" stroke-linejoin="round" stroke-width="4"/>
      <path id="Path_2041" data-name="Path 2041" d="M-197.553,971.406H-126.3" transform="translate(541.089 -886.562)" fill="none" stroke="#fff" stroke-linecap="round" stroke-linejoin="round" stroke-width="4"/>
      <line id="Line_799" data-name="Line 799" x1="10.521" y1="74.862" transform="translate(27.189 9.982)" fill="none" stroke="#fff" stroke-linecap="round" stroke-linejoin="round" stroke-width="4"/>
      <path id="Path_2042" data-name="Path 2042" d="M-588.378,971.406h71.257" transform="translate(626.088 -886.562)" fill="none" stroke="#fff" stroke-linecap="round" stroke-linejoin="round" stroke-width="4"/>
      <line id="Line_800" data-name="Line 800" x2="234.569" transform="translate(108.967 84.844)" fill="none" stroke="#fff" stroke-linecap="round" stroke-linejoin="round" stroke-width="4"/>
      <line id="Line_801" data-name="Line 801" x2="289.469" transform="translate(81.517 0)" fill="none" stroke="#fff" stroke-linecap="round" stroke-linejoin="round" stroke-width="4"/>
      <path id="Path_2043" data-name="Path 2043" d="M-162.475,862.981h75.121" transform="translate(533.46 -862.981)" fill="none" stroke="#fff" stroke-linecap="round" stroke-linejoin="round" stroke-width="4"/>
      <path id="Path_2044" data-name="Path 2044" d="M-628.4,862.981h75.121" transform="translate(634.792 -862.981)" fill="none" stroke="#fff" stroke-linecap="round" stroke-linejoin="round" stroke-width="4"/>
      <line id="Line_802" data-name="Line 802" x1="5.534" y2="9.486" transform="translate(0 0.495)" fill="none" stroke="#fff" stroke-linecap="round" stroke-linejoin="round" stroke-width="4"/>
      <line id="Line_803" data-name="Line 803" x1="5.534" y1="9.486" transform="translate(446.969 0.495)" fill="none" stroke="#fff" stroke-linecap="round" stroke-linejoin="round" stroke-width="4"/>
      <path id="Path_2045" data-name="Path 2045" d="M-56.175,875.737" transform="translate(510.341 -865.755)" fill="none" stroke="#fff" stroke-linecap="round" stroke-linejoin="round" stroke-width="4"/>
      <path id="Path_2046" data-name="Path 2046" d="M-162.475,875.737h81.1" transform="translate(533.46 -865.755)" fill="none" stroke="#fff" stroke-linecap="round" stroke-linejoin="round" stroke-width="4"/>
      <line id="Line_804" data-name="Line 804" x2="289.469" transform="translate(81.517 9.982)" fill="none" stroke="#fff" stroke-linecap="round" stroke-linejoin="round" stroke-width="4"/>
      <path id="Path_2047" data-name="Path 2047" d="M-636.03,875.737h81.1" transform="translate(636.452 -865.755)" fill="none" stroke="#fff" stroke-linecap="round" stroke-linejoin="round" stroke-width="4"/>
    </g>
  </g>
</svg>
