<svg xmlns="http://www.w3.org/2000/svg" width="1428.238" height="774.372" viewBox="0 0 1428.238 774.372">
  <g id="Group_912" data-name="Group 912" transform="translate(-229.762 -2354.123)">
    <text id="polipropylen" transform="translate(229.762 2466.847)" font-size="35" font-family="CeraRoundPro-Bold, Cera Round Pro" font-weight="700"><tspan x="0" y="35">polipropylen</tspan></text>
    <text id="tworzywa_biodegradowalne_" data-name="tworzywa 
biodegradowalne " transform="translate(378 2872.82)" font-size="35" font-family="CeraRoundPro-Bold, Cera Round Pro" font-weight="700"><tspan x="0" y="35">tworzywa </tspan><tspan x="0" y="85">biodegradowalne </tspan></text>
    <path id="Path_338" data-name="Path 338" d="M10045.578,2277.007l434.766-.063" transform="translate(-9804.344 267.905)" fill="none" stroke="#e3b814" stroke-linejoin="bevel" stroke-width="4"/>
    <path id="Path_1021" data-name="Path 1021" d="M9897.971,2369.474h441.842l92.531-92.53" transform="translate(-9497.971 629.876)" fill="none" stroke="#e3b814" stroke-linejoin="bevel" stroke-width="4"/>
    <path id="Path_341" data-name="Path 341" d="M10584.7,2279.181l-397.595-2.237-92.531,92.53" transform="translate(-9034.059 175.375)" fill="none" stroke="#e3b814" stroke-linejoin="bevel" stroke-width="4"/>
    <text id="WPC" transform="translate(1470 2706.5)" font-size="35" font-family="CeraRoundPro-Bold, Cera Round Pro" font-weight="700"><tspan x="0" y="35">WPC</tspan></text>
    <text id="biotworzywa" transform="translate(1369 2376.085)" font-size="35" font-family="CeraRoundPro-Bold, Cera Round Pro" font-weight="700"><tspan x="0" y="35">biotworzywa</tspan></text>
    <path id="Path_448" data-name="Path 448" d="M0,15.292,322.869,4.018" transform="matrix(0.999, 0.035, -0.035, 0.999, 1204.468, 2769.266)" fill="none" stroke="#e3b814" stroke-linejoin="bevel" stroke-width="4"/>
    <g id="Group_769" data-name="Group 769" transform="translate(779.371 2490.254) rotate(3)">
      <path id="Path_2278" data-name="Path 2278" d="M10.831,13.419c-.9,1.728-3.241,1.725-5.674,0L.884,10.375A1.638,1.638,0,0,1,.12,8.4L4.244.488C4.562-.118,5.341-.164,6.1.375L9.234,2.6c2.336,1.663,3.375,3.961,2.514,5.611A2.031,2.031,0,0,1,9.877,9.355C11.078,10.749,11.455,12.221,10.831,13.419ZM6.361,2.97,5.167,5.26,6.935,6.514c1,.717,1.862.724,2.233.012s-.034-1.584-1.042-2.3Zm1.965,8.565C8.738,10.746,8.317,9.8,7.2,9.006L4.29,6.941,2.98,9.455l2.9,2.068C7,12.318,7.909,12.337,8.327,11.535Z" transform="translate(32.458 27.34)" fill="#1a1818"/>
      <path id="Path_2279" data-name="Path 2279" d="M7.885,2.831c-.356.683-1.379.7-2.233.094A2.07,2.07,0,0,1,4.676.547c.365-.7,1.369-.73,2.264-.094A2.071,2.071,0,0,1,7.885,2.831ZM.119,10.142l3.01-5.774c.306-.589,1.086-.639,1.828-.112a1.623,1.623,0,0,1,.736,1.937l-3.01,5.773c-.309.59-1.1.652-1.837.128A1.629,1.629,0,0,1,.119,10.142Z" transform="translate(43.604 33.77)" fill="#1a1818"/>
      <path id="Path_2280" data-name="Path 2280" d="M10.735,8.609,8.758,12.4c-.315.605-1.076.667-1.815.14a1.626,1.626,0,0,1-.727-1.949L8.047,7.071a2.155,2.155,0,0,0-.989-2.695c-1.045-.745-2.1-.664-2.542.184L2.682,8.076c-.315.605-1.095.655-1.818.14A1.639,1.639,0,0,1,.118,6.254L3.128.481C3.437-.112,4.216-.159,4.937.353a1.725,1.725,0,0,1,.8,1.625,5.328,5.328,0,0,1,3.041,1.1C10.919,4.607,11.69,6.775,10.735,8.609Z" transform="translate(62.169 50.864)" fill="#1a1818"/>
      <path id="Path_2281" data-name="Path 2281" d="M9.981,8.047l-.022.047c-.331.636-1.117.639-1.953.047L2.651,4.332c-.184,1.154.48,2.374,1.868,3.359A5.382,5.382,0,0,0,6.7,8.643a1.551,1.551,0,0,1,.624.256,1.327,1.327,0,0,1,.618,1.563c-.175.334-.49.44-1.073.359A7.753,7.753,0,0,1,3.525,9.4C.564,7.289-.742,4.054.424,1.812,1.587-.415,4.579-.615,7.352,1.356,9.915,3.181,11.042,6.016,9.981,8.047ZM3.4,2.891,7.676,5.929c.428-.92-.047-2.108-1.241-2.96A2.3,2.3,0,0,0,3.4,2.891Z" transform="translate(73.316 59.505)" fill="#1a1818"/>
      <path id="Path_2282" data-name="Path 2282" d="M9.107,4.691c-.287.546-.958.586-1.712.131-1.407-.9-2.614-.777-3.213.374l-1.5,2.879c-.318.605-1.1.655-1.818.14A1.635,1.635,0,0,1,.118,6.254L3.125.481c.309-.593,1.088-.64,1.812-.128a1.642,1.642,0,0,1,.752,1.8,3.932,3.932,0,0,1,2.741.786A1.419,1.419,0,0,1,9.107,4.691Z" transform="translate(82.78 65.521)" fill="#1a1818"/>
      <path id="Path_2283" data-name="Path 2283" d="M11.038,15.279c-.1-.069-.218-.134-.368-.243-1.2-.852-1.519-1.535-1.082-2.367l1.541-2.957,1.728,1.229c.627.446,1.27.409,1.531-.09a1.353,1.353,0,0,0-.633-1.634L12.027,7.986l.536-1.032A1.613,1.613,0,0,0,11.83,5.02c-.761-.54-1.522-.48-1.828.112l-.54,1.029-.53-.377L7.22,4.565,5.492,3.336l.536-1.029A1.616,1.616,0,0,0,5.292.369C4.535-.17,3.773-.108,3.465.485L2.928,1.514,2.4,1.137C1.771.691,1.107.716.845,1.218A1.376,1.376,0,0,0,1.5,2.862l.53.381L.392,6.38c-.954,1.831-.159,3.749,2.289,5.493a3.518,3.518,0,0,0,1.21.6.852.852,0,0,0,1.073-.359c.259-.5,0-1.145-.686-1.631a1.67,1.67,0,0,1-.147-.1C2.938,9.536,2.616,8.853,3.05,8.021L4.591,5.064,6.319,6.293l1.712,1.22.533.377L6.927,11.027c-.955,1.831-.159,3.749,2.292,5.493a5.218,5.218,0,0,0,1.432.749.849.849,0,0,0,1.073-.362C11.983,16.408,11.721,15.765,11.038,15.279Z" transform="translate(49.375 39.404)" fill="#1a1818"/>
      <path id="Path_2284" data-name="Path 2284" d="M31.115,10.666,20.189,2.9c-5.9-4.2-12.673-3.784-15.128.926L.511,12.55C-.9,15.248.7,19.384,4.085,21.785l10.939,7.779c5.9,4.2,12.676,3.784,15.131-.926L34.7,19.92C36.105,17.219,34.5,13.074,31.115,10.666ZM16.83,25.968,6.022,18.283A2.256,2.256,0,0,1,5.005,15.66l1.213-2.324L18.763,22.26c.9.636,1.924.574,2.3-.14a2.114,2.114,0,0,0-.948-2.452L7.566,10.747,8.826,8.33,15.1,12.793c.9.636,1.927.574,2.3-.14a2.106,2.106,0,0,0-.948-2.452L10.417,5.909c1.828-1.619,5.068-1.479,7.966.583,3.465,2.464,5.106,6.7,3.665,9.466,3.465,2.464,5.106,6.7,3.665,9.466S20.295,28.432,16.83,25.968Z" transform="translate(0)" fill="#1a1818"/>
    </g>
    <path id="Path_2285" data-name="Path 2285" d="M946.046,690.988h0l-.079.529-.528-.079m-23.775-7.358-.607.45M755.6,583.419l30.834,14.369,40.643,17.461,41.785,17.094L911.938,648m-4.767,31.737-.607.45-.528-.079M749.828,618.248l31.442,13.919L821.995,649.1l42.018,15.5,43.158,15.138M577.04,411.114l4.5,6.085,4.863,7.221,3.6,4.866,2.169,3.569,1.27,2.354.738,2.275.82,1.747.45.607-.158,1.057M5.288,29.939h0l.529.079.607-.45.529.079.079-.529M40.412,4.928h0l-1.057-.161M955.5,628.046h0m-25.361-7.595h0m20.594,39.331,1.057.158,1.668-.292,1.664-.288.079-.529m-9.156,32.156,1.057.158,1.668-.288,1.668-.292.079-.528m-5.079,1.4h0M959.2,617.788m-4.526,30.148h0M911.938,648l14.492,4.341m0,0,24.3,7.436M648.78,448.39l24.623,5.323,25.731,8.73m250.855,216.7h0m-42.818.6,14.493,4.338m0,0,24.382,6.908m-.9,20.415h0M608.482,435.847h0l19.99,7.33,20.309,5.213M664.213,522.1h0l.528.079-.079.529.529.079.45.611m60.938,120.026h0l-11.689-5-11.531-6.057L685.432,622.1m0,0h0l-2.937-2.063-2.934-2.066-3.384-2.67M699.2,663.647h0M941.808,722.8h0m-215.229-79.38,219.694,76.923-40.059-12.625L843.8,687.532l-59.524-21.38-57.7-22.729m-50.4-28.123h0l-7.749-6.033-7.588-7.086L651,592.05m-65.632-23.923h0M651,592.05h0l-8.7-10.5-11.555-13.1m0,0L616.5,551.71m0,0h0l-6-6.85-5.552-6.242-10.206-11.266m69.476-5.251h0M595.283,440.9l-.477,3.174m44.863,83c-22.725-8.205-45.787-16.7-65.461-31.054-9.437-6.884-17.739-15.1-26.51-22.78l-2.855-2.594L541.38,468.5M752.6,620.376c-4.55-2.811-8.741-7.406-6.273-13.14a5.833,5.833,0,0,1,3.332-3.267c1.973-.679,4.1-.041,6.012.556m0,0,46.514,21.589,48.261,20.769,49.03,19.263,36.236,14.825M758.109,585.519a7.246,7.246,0,0,1-4.17-2.632,13.547,13.547,0,0,1-2.577-5.1c-.923-3.562-.075-7.982,3.96-9.029,1.963-.508,3.754.257,5.594.855m0,0,46.359,22.646,48.179,21.3,48.871,20.323,44.424,18.6M763.576,550.725a23.316,23.316,0,0,1-4.736-3.943,11.821,11.821,0,0,1-2.416-5.958,7.926,7.926,0,0,1,.615-4.561c1.139-2.292,3.857-3.267,6.311-3.006a25.58,25.58,0,0,1,3.422,1l178.756,83.529M665.641,523.4h0M562.949,393.314l26.915,33.247c3.916,4.839,8.123,9.756,12.485,14.327,6.472,6.774,13.167,13.247,19.115,20.5,12.629,15.4,25.766,30.436,38.744,45.57a33.718,33.718,0,0,1,5.282,7.416,11.376,11.376,0,0,1,.676,8.857c-1.38,3.487-5,5.693-8.689,6.359-5.872,1.053-11.685-.92-17.279-2.447m-45.46.206h0l-15.759-17.512-15.23-17.43L548.81,476.643l-7.43-8.147m53.9-27.6h0M404.192,233.174l17.293,14.5c22.368,20.731,44.832,41.356,66.452,62.9q39.344,39.209,74.963,81.93c3.9,4.674,7.183,9.6,10.992,14.348l3.147,4.259m17.766,32.955.079-.528m-.079.528,34.822,38.223L664.213,522.1M392.861,294.211h0M528.539,402.747l-21.287-16.719L451.3,340.849l-58.439-46.638m0,0h0l-43.628-33.593-34.005-25.659-34.534-25.742m0,0h0l-1.51-.765-1.507-.769-2.934-2.062m-22.272,15.045h0m22.272-15.045h0l-24.829-18.332-25.44-17.883-35.22-24.76M397.837,286.3l58.436,46.638,55.344,45.629L532.3,395.74m0,0,16.315,13.81,15.944,12.67,10.155,8.017,6.767,5.343,4.365,3.36L588.776,441l2.485,1.455.978.686.982.69.529.079.528.079.529.079m.079-.528.4-2.646M136.821,94.044l28.662,21.61,28.823,20.556m0,0L229,160.891l25.889,18.49,24.908,17.8m0,0,2.938,2.062,1.428,1.3.978.686m0,0,35.141,25.292,34.005,25.659L397.837,286.3m0,0h0M189.254,144.645h0L160.51,123.561l-28.666-21.61m0,0L101.306,78.433M81.017,91.068h0M24.537,45.811h0M39.355,4.767l-.611.449L37.451,6.644,35.467,9.049m-.875,5.82.875-5.82M45.8,33.861,38.134,27.3m63.172,51.133h0l-9.177-7.327L69.943,53.172,66.559,50.5,47.76,35.234,45.8,33.861M38.134,27.3,13.01,28.933l-5.978.185m31.1-1.819L37.1,23.36m0,0-.741-2.275-.741-2.275L34.513,15.4l.079-.529m4.825-9.015C38.123,9.111,43.556,20,43.556,20L51.3,26.033m0,0,1.877,1.9L72.06,42.67l3.308,3.2L97.1,63.2l9.705,7.406m0,0,30.014,23.439m818.68,534a5.6,5.6,0,0,0,5.072-1.411m1.54-3,.158-1.057m-1.692,4.07.686-.978M760.958,500.934l44.187,29.894,58.518,35.292,60.423,33.411L959.2,617.788a4.625,4.625,0,0,1,2.91,5.844c-.113.752-.027,1.644-.851,2.025m-31.123-5.206,8.833,2.409,16.527,5.185m-39.774-12.464,5.131,1.853,9.811,3.1m27.286,34.386.079-.528m0,0,.24-1.585-.82-1.747-.82-1.747-1.956-1.373m1.057,10.975,1.294-1.427m0,0,.768-1.51.158-1.057m-4.688,31.208.079-.532m-7.907,5.844,2.2-.209,2.193-.213.69-.978m2.828-4.444.24-1.585-.82-1.747-.82-1.744-1.956-1.376m1.057,10.975,1.294-1.428m0,0h0l.769-1.507.158-1.057m-32.21-1.6,8.3,2.33,16.078,4.578m-39.4-11.325,5.13,1.85,9.891,2.567m26.994,32.722a6.486,6.486,0,0,0-1.112-4.729,5.413,5.413,0,0,0-2.183-1.256c-.958-.436-1.925-.841-2.893-1.242L921.19,701.4q-8.55-3.562-17.035-7.241l-10.79-4.664-8.6-3.716-2.667-1.15-33.927-15.371-33.24-16.352-32.711-16.27-29.009-15.714m-3.466-128.162h0L734.54,482.364l-11.819-7.725-10.47-5.9-10.1-4.763-2.035-.844m64.644,88.131,8.593,3.995,31.813,15.055,31.97,13.995,33.11,13.627,33.189,13.1,12.3,4.55M761.486,501.016l-11.74-8.257M954.677,647.936l-24.8-11.3-34.908-16.061L861.2,604.147l-33.079-17.406-33-17.938L763.25,550.495m-11.994,69.05,11.61,5.529,31.521,13.387,32.66,13.02,32.735,12.488,33.35,12.039,12.9,4.1m43.954-.971-24.884-10.769L890.119,652.84l-33.847-15.9-33.24-16.349L789.95,603.183l-32.362-17.588M639.94,636.9l.979.686.528.082m0,0,2.485,1.452,8.435,5.055m0,0,10.024,5.292,16.29,6.771,16.9,6.325,3.621,1.084m-85.78-51.823,2.694,3.648,7.43,8.147,8.569,7.78,7.828,5.5m59.26,26.747,13.885,4.791L745.69,678.2l33.295,8.789,34.352,8.947,34.513,7.886,34.589,7.358,35.649,7.519,23.72,4.1s5.806.988,6.164-5.024l.079-.529M585.166,568.234c8.085,15.392,17.938,29.626,28.254,43.59M609.538,436l-2.488-1.455-14.623-7.063-3.013-1.534M571.758,539.609c4.08,9.722,8.878,19.1,13.61,28.518m-54.04-101.141a231.211,231.211,0,0,1,32.965,55.162m-.154.065c3.8,5.158,5.47,11.455,7.667,17.375M508.3,440.27l1.428,1.3,12.983,14.389,8.617,11.03M366.941,311.954,392.881,333.7l32.471,28.672,31.411,28.518,29.908,27.746,17.873,17.828,4.008,3.957M404.192,233.174l-9.544-8.463-34.668-28.463-36.174-29.232-31.6-23.676m0,0-.529-.079-4.815-3.967m-29.053,85.417h0m0,0L292.8,251.06l35.2,28.542,34.664,28.463,4.283,3.888m-114.47-91.288,1.51.765,3.833,3.281M286.867,139.3,260,120.115,224.7,95.883l-24.17-15.529m-31.723,77.987,6.846,4.815,31.15,23.065,32.128,23.758,13.538,10.687M200.531,80.355,191.646,74.7,167.24,60.752l-26-14.18m0,0-25.7-12.516L109.96,31.6m0,0-3.013-1.534-27-11.085-7.166-2.7m8.236,74.792,5.714,5.186,24.221,18.782,25.278,18.94,24.75,18.861,7.828,5.5M10.264.4,7.619,0,5.347.741,3.521,2.09,2.066,4.575,1.9,5.632M12.378.717,10.264.4M42,5.165l-1.057-.158-.528-.079M72.781,16.277l-1.507-.765L48.189,7.176,42,5.165M1.9,5.632,0,18.326m0,0L.131,21.05l.583,3.332,1.8,2.433,2.327,2.515.449.607m0,0,3.833,3.281L24.537,45.811m0,0,11.582,9.31,26.02,21.215L81.017,91.068m-40.6-86.14L36.181,4.29,12.378.717" transform="translate(558.985 2355.181) rotate(3)" fill="none" stroke="#030504" stroke-linecap="round" stroke-linejoin="round" stroke-width="2"/>
  </g>
</svg>
