<svg id="Group_893" data-name="Group 893" xmlns="http://www.w3.org/2000/svg" width="269.568" height="224.281" viewBox="0 0 269.568 224.281">
  <g id="Group_776" data-name="Group 776" transform="translate(6.277 130.906) rotate(-38)">
    <ellipse id="Ellipse_115" data-name="Ellipse 115" cx="78.269" cy="51.62" rx="78.269" ry="51.62" transform="matrix(0.999, -0.054, 0.054, 0.999, 0, 8.52)" fill="none" stroke="#fff" stroke-linecap="round" stroke-miterlimit="10" stroke-width="2"/>
    <path id="Path_2221" data-name="Path 2221" d="M130.418,0c16.835,8.487,27.257,21.588,28.362,37.122C160.845,66.189,127,92.276,83.175,95.389S2.155,77.465.09,48.4a37.677,37.677,0,0,1,4.2-19.826" transform="translate(1.788 15.156)" fill="none" stroke="#fff" stroke-linecap="round" stroke-miterlimit="10" stroke-width="2"/>
    <path id="Path_2222" data-name="Path 2222" d="M131.81,38.491c2.219,24.34-25.462,46.761-61.825,50.072S2.343,74.829.125,50.485a30.449,30.449,0,0,1-.109-3.71C.754,23.906,27.439,3.561,61.949.413,98.313-2.906,129.591,14.142,131.81,38.491Z" transform="translate(14.893 11.52)" fill="none" stroke="#fff" stroke-linecap="round" stroke-miterlimit="10" stroke-width="2"/>
    <path id="Path_2223" data-name="Path 2223" d="M0,35.23,2.157,31a31.26,31.26,0,0,1,3.83-5.8l1.5-1.8a31.471,31.471,0,0,1,3.28-3.381l2.725-2.409A31.285,31.285,0,0,1,18,14.281L22.9,11.31q1.094-.666,2.249-1.24l5.5-2.746a30.986,30.986,0,0,1,4.234-1.742l5.58-1.833a31.255,31.255,0,0,1,3.7-.967L51.53,1.327q1.39-.277,2.8-.427L61.345.166A31.331,31.331,0,0,1,64.592,0h8.061a31.065,31.065,0,0,1,3.406.187l6.187.675a31.488,31.488,0,0,1,3.382.559l6.791,1.51a31.49,31.49,0,0,1,4.548,1.381l4.1,1.594A31.1,31.1,0,0,1,104.522,7.5l4.629,2.487a30.934,30.934,0,0,1,3.435,2.142l3.009,2.157a31.223,31.223,0,0,1,4.166,3.584l.967.992a31.24,31.24,0,0,1,4.8,6.373l.315.552a31.38,31.38,0,0,1,2.4,5.325l.988,2.922" transform="translate(16.997 15.831)" fill="none" stroke="#fff" stroke-linecap="round" stroke-miterlimit="10" stroke-width="2"/>
    <path id="Path_2224" data-name="Path 2224" d="M0,40.027l1.649-5.4,3.3-6.746,3.9-5.1,6.446,29.233s1.5,7.046,10.194,3.148,11.993-14.542,11.244-17.84-6-30.133-6-30.133l7.346-3,9.894-2.7L56.218,0l1.8,31.482s.75,7.946,14.692,9.445S88,32.082,88,32.082L86.8,1.2,94.9,3l7.946,2.848,7.046,3.748-2.549,29.833s.3,9.145,4.647,14.092,6.6,6,8.4,5.4" transform="translate(16.397 17.18)" fill="none" stroke="#fff" stroke-linecap="round" stroke-miterlimit="10" stroke-width="2"/>
    <line id="Line_849" data-name="Line 849" x1="2.099" y2="19.789" transform="translate(139.777 52.41)" fill="none" stroke="#fff" stroke-linecap="round" stroke-miterlimit="10" stroke-width="2"/>
    <path id="Path_2225" data-name="Path 2225" d="M0,4.8S12.743.3,16.641,0" transform="translate(53.951 49.337)" fill="none" stroke="#fff" stroke-linecap="round" stroke-miterlimit="10" stroke-width="2"/>
    <path id="Path_2226" data-name="Path 2226" d="M0,0S13.942,4.048,17.09,6.3" transform="translate(105.072 49.487)" fill="none" stroke="#fff" stroke-linecap="round" stroke-miterlimit="10" stroke-width="2"/>
    <path id="Path_2227" data-name="Path 2227" d="M0,13.043,5.847,43.026s.9,3.748,7.8,0,9.295-9.445,9.145-12.293S16.341,1.349,16.341,1.349A2.476,2.476,0,0,1,17.69,0" transform="translate(28.015 25.051)" fill="none" stroke="#fff" stroke-linecap="round" stroke-miterlimit="10" stroke-width="2"/>
    <path id="Path_2228" data-name="Path 2228" d="M0,0,5.4,27.135a15.987,15.987,0,0,0,1.349,2.848c.3.15.3,0,.3-1.049" transform="translate(29.664 37.044)" fill="none" stroke="#fff" stroke-linecap="round" stroke-miterlimit="10" stroke-width="2"/>
    <path id="Path_2229" data-name="Path 2229" d="M0,0,6.3,29.383s.9,2.4,1.2,2.249.3-1.5.3-1.5" transform="translate(32.363 35.095)" fill="none" stroke="#fff" stroke-linecap="round" stroke-miterlimit="10" stroke-width="2"/>
    <path id="Path_2230" data-name="Path 2230" d="M0,0,6.3,30.133s.75,1.8,1.049,1.8.6-2.249.45-2.848" transform="translate(35.511 32.846)" fill="none" stroke="#fff" stroke-linecap="round" stroke-miterlimit="10" stroke-width="2"/>
    <path id="Path_2231" data-name="Path 2231" d="M0,0,6.3,29.833s.6,1.949,1.049,1.8.3-3.148.3-3.148" transform="translate(38.509 30.598)" fill="none" stroke="#fff" stroke-linecap="round" stroke-miterlimit="10" stroke-width="2"/>
    <path id="Path_2232" data-name="Path 2232" d="M0,0,5.847,28.934s.6,1.349.9,1.049a2.194,2.194,0,0,0,.45-.75" transform="translate(41.658 28.499)" fill="none" stroke="#fff" stroke-linecap="round" stroke-miterlimit="10" stroke-width="2"/>
    <path id="Path_2233" data-name="Path 2233" d="M0,0,1.049,30.882s.9,4.5,10.344,5.7,13.043-3.148,13.342-5.1S22.937.6,22.937.6s1.049-.15,1.2-.15" transform="translate(76.588 17.555)" fill="none" stroke="#fff" stroke-linecap="round" stroke-miterlimit="10" stroke-width="2"/>
    <path id="Path_2234" data-name="Path 2234" d="M0,0S1.5,29.383,1.8,30.283s.45,1.649.749,1.649.75-.75.75-.75" transform="translate(78.237 17.555)" fill="none" stroke="#fff" stroke-linecap="round" stroke-miterlimit="10" stroke-width="2"/>
    <path id="Path_2235" data-name="Path 2235" d="M0,0,1.349,30.583S2.1,33.431,2.4,33.431s.75-1.2.75-1.2" transform="translate(82.734 17.855)" fill="none" stroke="#fff" stroke-linecap="round" stroke-miterlimit="10" stroke-width="2"/>
    <path id="Path_2236" data-name="Path 2236" d="M0,0,1.649,31.632S2.1,33.881,2.7,33.881s.9-1.5.9-1.5" transform="translate(86.782 17.855)" fill="none" stroke="#fff" stroke-linecap="round" stroke-miterlimit="10" stroke-width="2"/>
    <path id="Path_2237" data-name="Path 2237" d="M0,0,1.349,31.632s.6,2.4,1.2,2.249.9-2.249.9-2.249" transform="translate(91.279 17.855)" fill="none" stroke="#fff" stroke-linecap="round" stroke-miterlimit="10" stroke-width="2"/>
    <path id="Path_2238" data-name="Path 2238" d="M0,0,1.349,29.833s.3,1.949,1.049,1.949.9-1.5.9-1.5" transform="translate(95.477 18.155)" fill="none" stroke="#fff" stroke-linecap="round" stroke-miterlimit="10" stroke-width="2"/>
    <path id="Path_2239" data-name="Path 2239" d="M2.249,0A1.57,1.57,0,0,1,2.7.9C2.7,1.349,0,30.283,0,30.283a13.516,13.516,0,0,0,3.148,8.1c3.148,3.6,7.5,9.145,9.445,5.1.45-5.1,1.8-17.69,1.8-17.69" transform="translate(125.46 27.749)" fill="none" stroke="#fff" stroke-linecap="round" stroke-miterlimit="10" stroke-width="2"/>
    <path id="Path_2240" data-name="Path 2240" d="M2.638,0C2.488.15.24,27.285.09,28.334s-.15,2.848.3,3,.6-1.2.6-1.2" transform="translate(127.619 31.347)" fill="none" stroke="#fff" stroke-linecap="round" stroke-miterlimit="10" stroke-width="2"/>
    <path id="Path_2241" data-name="Path 2241" d="M2.7,0,0,29.083a22.46,22.46,0,0,0,.3,3.3,13.5,13.5,0,0,0,.75-1.349" transform="translate(129.957 33.596)" fill="none" stroke="#fff" stroke-linecap="round" stroke-miterlimit="10" stroke-width="2"/>
    <path id="Path_2242" data-name="Path 2242" d="M2.736,0,.037,29.533s-.15,2.549.15,2.848.9-1.649.9-1.649" transform="translate(132.169 35.994)" fill="none" stroke="#fff" stroke-linecap="round" stroke-miterlimit="10" stroke-width="2"/>
    <path id="Path_2243" data-name="Path 2243" d="M2.848,0,0,28.934s.15,2.7.45,2.848.45-1.5.45-1.5" transform="translate(134.455 38.093)" fill="none" stroke="#fff" stroke-linecap="round" stroke-miterlimit="10" stroke-width="2"/>
    <line id="Line_850" data-name="Line 850" x1="2.698" y2="27.135" transform="translate(137.003 40.492)" fill="none" stroke="#fff" stroke-linecap="round" stroke-miterlimit="10" stroke-width="2"/>
    <path id="Path_2244" data-name="Path 2244" d="M0,7.5A71.107,71.107,0,0,1,3.6,0" transform="translate(25.017 74.073)" fill="none" stroke="#fff" stroke-linecap="round" stroke-miterlimit="10" stroke-width="2"/>
    <line id="Line_851" data-name="Line 851" x2="5.247" y2="16.641" transform="translate(17.521 62.23)" fill="none" stroke="#fff" stroke-linecap="round" stroke-miterlimit="10" stroke-width="2"/>
    <line id="Line_852" data-name="Line 852" x2="1.949" y2="12.443" transform="translate(17.071 61.63)" fill="none" stroke="#fff" stroke-linecap="round" stroke-miterlimit="10" stroke-width="2"/>
    <path id="Path_2245" data-name="Path 2245" d="M0,22.5C4.033,10,21.151.584,41.957.025,59.671-.451,75.1,5.845,82.194,15.3" transform="translate(42.632 71.583)" fill="none" stroke="#fff" stroke-linecap="round" stroke-miterlimit="10" stroke-width="2"/>
    <path id="Path_2246" data-name="Path 2246" d="M0,19.739C5.308,8.645,20.688.518,39.114.023,54.705-.4,68.448,4.873,75.885,13.04" transform="translate(45.93 75.697)" fill="none" stroke="#fff" stroke-linecap="round" stroke-miterlimit="10" stroke-width="2"/>
    <path id="Path_2247" data-name="Path 2247" d="M0,16.685C5.231,7.172,16.816.381,30.433.016,42.009-.3,52.367,4.1,58.735,11.09" transform="translate(55.444 81.546)" fill="none" stroke="#fff" stroke-linecap="round" stroke-miterlimit="10" stroke-width="2"/>
    <path id="Path_2248" data-name="Path 2248" d="M0,8.341l1.553,6.35s6.3,16.191,28.484,23.687,42.876,5.4,59.666-4.348,20.838-20.688,20.838-20.688,4.2-9.894,5.1-13.342" transform="translate(26.237 89.889)" fill="none" stroke="#fff" stroke-linecap="round" stroke-miterlimit="10" stroke-width="2"/>
    <path id="Path_2249" data-name="Path 2249" d="M0,0S2.8,13.342,2.953,13.492A25.1,25.1,0,0,0,16.3,23.387c9.445,3.148,11.993,1.949,11.843-1.5S24.991,6.6,24.991,6.6" transform="translate(37.28 103.681)" fill="none" stroke="#fff" stroke-linecap="round" stroke-miterlimit="10" stroke-width="2"/>
    <path id="Path_2250" data-name="Path 2250" d="M0,0S2.848,13.642,3.6,13.942s.45-1.049.6-1.049" transform="translate(43.831 106.38)" fill="none" stroke="#fff" stroke-linecap="round" stroke-miterlimit="10" stroke-width="2"/>
    <path id="Path_2251" data-name="Path 2251" d="M0,0S3,14.542,3.748,14.842s.6-1.649.6-1.649" transform="translate(47.579 107.579)" fill="none" stroke="#fff" stroke-linecap="round" stroke-miterlimit="10" stroke-width="2"/>
    <path id="Path_2252" data-name="Path 2252" d="M0,0,2.848,13.043s.6,2.249,1.2,2.249.6-1.5.6-1.5" transform="translate(50.877 108.328)" fill="none" stroke="#fff" stroke-linecap="round" stroke-miterlimit="10" stroke-width="2"/>
    <path id="Path_2253" data-name="Path 2253" d="M0,0,2.848,13.492s.75,1.949,1.2,1.949.3-1.649.3-1.649" transform="translate(54.475 108.928)" fill="none" stroke="#fff" stroke-linecap="round" stroke-miterlimit="10" stroke-width="2"/>
    <path id="Path_2254" data-name="Path 2254" d="M0,0,2.549,11.394s.6,1.949.9,1.949" transform="translate(57.923 109.678)" fill="none" stroke="#fff" stroke-linecap="round" stroke-miterlimit="10" stroke-width="2"/>
    <path id="Path_2255" data-name="Path 2255" d="M20.838,13.342s1.5,5.547,1.5,5.7.45,1.349-.75,1.8-6.147.15-10.344-1.8-8.4-5.1-9.145-7.2S0,0,0,0C.15,0,1.949,10.644,2.548,10.944s.75.15.75.15" transform="translate(40.383 105.33)" fill="none" stroke="#fff" stroke-linecap="round" stroke-miterlimit="10" stroke-width="2"/>
    <path id="Path_2256" data-name="Path 2256" d="M0,6.665.3,22.406s.75,6.446,13.492,2.549S28.484,16.11,28.484,14.611V0" transform="translate(87.906 103.912)" fill="none" stroke="#fff" stroke-linecap="round" stroke-miterlimit="10" stroke-width="2"/>
    <path id="Path_2257" data-name="Path 2257" d="M.15,5.085,0,20.376s.3,3.748,10.644,1.2S22.337,14.23,22.337,14.23L21.954,0" transform="translate(91.204 105.042)" fill="none" stroke="#fff" stroke-linecap="round" stroke-miterlimit="10" stroke-width="2"/>
    <path id="Path_2258" data-name="Path 2258" d="M0,0,.15,12.593s-.15,2.549.9,2.549a.792.792,0,0,0,.6-.75" transform="translate(93.003 109.977)" fill="none" stroke="#fff" stroke-linecap="round" stroke-miterlimit="10" stroke-width="2"/>
    <path id="Path_2259" data-name="Path 2259" d="M0,0V14.392s.3,1.8.9,1.8.9-1.2.9-1.2" transform="translate(97.201 109.228)" fill="none" stroke="#fff" stroke-linecap="round" stroke-miterlimit="10" stroke-width="2"/>
    <path id="Path_2260" data-name="Path 2260" d="M0,0V14.242s.45,1.8.9,1.8.9-1.5.9-1.5" transform="translate(101.249 108.478)" fill="none" stroke="#fff" stroke-linecap="round" stroke-miterlimit="10" stroke-width="2"/>
    <path id="Path_2261" data-name="Path 2261" d="M0,0,.3,14.242s.3,1.349.75,1.2.749-1.049.749-1.049" transform="translate(105.146 107.579)" fill="none" stroke="#fff" stroke-linecap="round" stroke-miterlimit="10" stroke-width="2"/>
    <path id="Path_2262" data-name="Path 2262" d="M0,0,.249,13.314s.15,1.2.9,1.049" transform="translate(109.245 106.258)" fill="none" stroke="#fff" stroke-linecap="round" stroke-miterlimit="10" stroke-width="2"/>
    <path id="Path_2263" data-name="Path 2263" d="M0,0S.12,11.344.42,11.794s.45,1.049.75.9" transform="translate(111.173 105.679)" fill="none" stroke="#fff" stroke-linecap="round" stroke-miterlimit="10" stroke-width="2"/>
    <path id="Path_2264" data-name="Path 2264" d="M1.509,0,.052,11.543s-.279,2.49.46,2.6" transform="translate(132.529 95.286)" fill="none" stroke="#fff" stroke-linecap="round" stroke-miterlimit="10" stroke-width="2"/>
    <path id="Path_2265" data-name="Path 2265" d="M1.211,0,.162,8.7s-.45,2.4.15,2.549S2.411,8.7,2.561,8.4,5.156,3.33,5.156,3.33" transform="translate(133.768 94.686)" fill="none" stroke="#fff" stroke-linecap="round" stroke-miterlimit="10" stroke-width="2"/>
    <path id="Path_2266" data-name="Path 2266" d="M.479,0s-.7,8.164-.4,8.614" transform="translate(135.055 94.317)" fill="none" stroke="#fff" stroke-linecap="round" stroke-miterlimit="10" stroke-width="2"/>
    <path id="Path_2267" data-name="Path 2267" d="M.661,0s-.9,7.945-.6,7.945a.3.3,0,0,0,.3-.3" transform="translate(135.668 94.087)" fill="none" stroke="#fff" stroke-linecap="round" stroke-miterlimit="10" stroke-width="2"/>
    <path id="Path_2268" data-name="Path 2268" d="M.468,0,0,6.574s.3,1.349.3.9v-.75" transform="translate(136.479 93.359)" fill="none" stroke="#fff" stroke-linecap="round" stroke-miterlimit="10" stroke-width="2"/>
    <path id="Path_2269" data-name="Path 2269" d="M.219,0C.15.2,0,5.3,0,5.3s0,.6.15.6,0-.6,0-.6" transform="translate(137.678 92.688)" fill="none" stroke="#fff" stroke-linecap="round" stroke-miterlimit="10" stroke-width="2"/>
    <path id="Path_2270" data-name="Path 2270" d="M.024,0,0,4.12s.3,0,.15-.3" transform="translate(138.727 92.066)" fill="none" stroke="#fff" stroke-linecap="round" stroke-miterlimit="10" stroke-width="2"/>
    <path id="Path_2271" data-name="Path 2271" d="M.093,0C.135-.053-.165,1.746.135,1.9s.15-.6.15-.6" transform="translate(139.492 91.441)" fill="none" stroke="#fff" stroke-linecap="round" stroke-miterlimit="10" stroke-width="2"/>
  </g>
  <text id="tworzywa_biodegradowalne_" data-name="tworzywa 
biodegradowalne " transform="translate(1.05 0)" fill="#fff" font-size="11" font-family="CeraRoundPro-Bold, Cera Round Pro" font-weight="700"><tspan x="0" y="11">tworzywa </tspan><tspan x="0" y="31">biodegradowalne </tspan></text>
  <path id="Path_2288" data-name="Path 2288" d="M9999.243,2276.944h81.833l20.694,20.694" transform="translate(-9998.194 -2241.28)" fill="none" stroke="#fff" stroke-linejoin="bevel" stroke-width="2"/>
  <path id="Path_2291" data-name="Path 2291" d="M10092.992,2276.944h-73.057l-20.693,20.694" transform="translate(-9839.148 -2237.435)" fill="none" stroke="#fff" stroke-linejoin="bevel" stroke-width="2"/>
  <text id="polipropylen" transform="translate(185.569 20.614)" fill="#fff" font-size="11" font-family="CeraRoundPro-Bold, Cera Round Pro" font-weight="700"><tspan x="0" y="11">polipropylen</tspan></text>
  <path id="Path_2290" data-name="Path 2290" d="M10124.616,2297.638h-67.952l-20.693-20.694" transform="translate(-9889.09 -2077.579)" fill="none" stroke="#fff" stroke-linejoin="bevel" stroke-width="2"/>
  <text id="WPC" transform="translate(207.98 202.109)" fill="#fff" font-size="11" font-family="CeraRoundPro-Bold, Cera Round Pro" font-weight="700"><tspan x="0" y="11">WPC</tspan></text>
  <path id="Path_2289" data-name="Path 2289" d="M10025.484,2298.116l76.345-.479,20.694-20.694" transform="translate(-10024.878 -2074.835)" fill="none" stroke="#fff" stroke-linejoin="bevel" stroke-width="2"/>
  <text id="biotworzywa" transform="translate(0 202.109)" fill="#fff" font-size="11" font-family="CeraRoundPro-Bold, Cera Round Pro" font-weight="700"><tspan x="0" y="11">biotworzywa</tspan></text>
</svg>
