<svg xmlns="http://www.w3.org/2000/svg" width="338.835" height="106.116" viewBox="0 0 338.835 106.116">
  <g id="Group_699" data-name="Group 699" transform="translate(0)">
    <path id="Path_1277" data-name="Path 1277" d="M2401.754,2717.687c0,8.281-6.538,14.088-15.837,14.088h-16.342a4.846,4.846,0,0,1-5.01-5.014v-37.913a4.844,4.844,0,0,1,5.01-5.011h11.985c8.937,0,15.181,5.446,15.181,13.363a11.38,11.38,0,0,1-3.56,8.645C2398.557,2707.732,2401.754,2711.945,2401.754,2717.687Zm-27.675-25.424v10.967h6.756c3.849,0,6.245-2.1,6.245-5.518s-2.4-5.449-6.245-5.449Zm17.942,25.06c0-3.778-2.545-6.03-6.829-6.03h-11.113v12.06h11.113C2389.477,2723.353,2392.022,2721.174,2392.022,2717.323Z" transform="translate(-2241.357 -2642.723)" fill="#fff"/>
    <path id="Path_1278" data-name="Path 1278" d="M2411.178,2684a6.14,6.14,0,1,1-6.1-5.958A6.048,6.048,0,0,1,2411.178,2684Zm-11.041,44.889v-27.675a4.9,4.9,0,1,1,9.807,0v27.675a4.9,4.9,0,1,1-9.807,0Z" transform="translate(-2233.948 -2643.972)" fill="#fff"/>
    <path id="Path_1279" data-name="Path 1279" d="M2491.378,2707.493v18.159a4.772,4.772,0,0,1-4.866,5.013,4.856,4.856,0,0,1-4.867-5.013V2708.8c0-4.138-2.688-6.97-6.682-6.97a6.637,6.637,0,0,0-6.829,6.97v16.854a4.814,4.814,0,0,1-4.867,5.013,4.872,4.872,0,0,1-4.939-5.013v-27.675a4.8,4.8,0,0,1,4.866-4.943,4.666,4.666,0,0,1,4.577,3.709,14.842,14.842,0,0,1,10.1-3.709C2486.077,2693.035,2491.378,2698.7,2491.378,2707.493Z" transform="translate(-2221.128 -2640.738)" fill="#fff"/>
    <path id="Path_1280" data-name="Path 1280" d="M2525.38,2709.889v.218c0,3.051-2.181,5.013-5.378,5.013h-20.481c1.161,4.5,4.793,7.117,10.1,7.117a14.2,14.2,0,0,0,7.482-2.108,3.964,3.964,0,0,1,2.108-.653,3.877,3.877,0,0,1,3.992,3.926c0,1.6-.727,2.756-2.468,3.919a20.4,20.4,0,0,1-11.4,3.344c-11.331,0-19.685-8.064-19.685-18.818a18.383,18.383,0,0,1,18.669-18.812C2518.115,2693.035,2525.38,2700.158,2525.38,2709.889Zm-25.859-1.669h16.341c-.144-4.289-3.194-7.264-7.77-7.264C2503.8,2700.957,2500.611,2703.79,2499.521,2708.22Z" transform="translate(-2214.372 -2640.738)" fill="#fff"/>
    <path id="Path_1281" data-name="Path 1281" d="M2545.975,2697.831c0,2.615-1.816,4.431-4.576,4.719-5.23.364-8.427,3.78-8.427,9.3v13.805a4.814,4.814,0,0,1-4.866,5.013,4.872,4.872,0,0,1-4.939-5.013v-27.675a4.8,4.8,0,0,1,4.865-4.943,4.709,4.709,0,0,1,4.725,4.432,11.711,11.711,0,0,1,8.788-4.067A4.2,4.2,0,0,1,2545.975,2697.831Z" transform="translate(-2207.14 -2640.738)" fill="#fff"/>
    <path id="Path_1282" data-name="Path 1282" d="M2459.786,2723.414c-.363,0-.8.071-1.379.071-4.578,0-6.466-1.6-6.466-5.594v-14.165h6.61a4.139,4.139,0,1,0,0-8.279h-6.61v-4.937a4.9,4.9,0,1,0-9.8,0v4.938h-15.19v-4.937a4.9,4.9,0,1,0-9.806,0v4.938H2415.1a4.14,4.14,0,1,0,0,8.279h2.036v15.04c0,8.785,5.01,13.51,14.381,13.51a8.777,8.777,0,0,0,4.248-.9,4.189,4.189,0,0,0,2.471-3.926c0-2.393-1.674-3.991-4.288-3.991-.362,0,.038.022-.543.022-4.577,0-6.464-1.6-6.464-5.594v-14.165h15.19v15.04c0,8.785,5.011,13.51,14.382,13.51a12.647,12.647,0,0,0,5.083-.946,4.185,4.185,0,0,0,2.47-3.925C2464.073,2725.014,2462.4,2723.414,2459.786,2723.414Z" transform="translate(-2231.362 -2642.349)" fill="#fff"/>
    <path id="Path_1283" data-name="Path 1283" d="M2345.877,2650.018H2304.09a40.87,40.87,0,0,0-40.87,40.87v41.835a23.412,23.412,0,0,0,23.413,23.411h41.833a40.869,40.869,0,0,0,40.869-40.868v-41.789A23.459,23.459,0,0,0,2345.877,2650.018Zm-17.6,89.047h-41.335a6.651,6.651,0,0,1-6.65-6.65v-11.134h47.985a6.209,6.209,0,0,0,0-12.417h-47.985v-11.577h23.992a6.208,6.208,0,1,0,0-12.415H2281.2a23.939,23.939,0,0,1,47.073,6.207,23.993,23.993,0,1,1,0,47.986Z" transform="translate(-2263.22 -2650.018)" fill="#fff"/>
  </g>
</svg>
