<svg xmlns="http://www.w3.org/2000/svg" width="551.204" height="447.081" viewBox="0 0 551.204 447.081">
  <g id="Group_672" data-name="Group 672" transform="translate(40 0)">
    <g id="Group_668" data-name="Group 668" transform="translate(-38 2)">
      <path id="Path_1022" data-name="Path 1022" d="M14668.833,2958.145l-3.508-1.535-3.648-1.3-3.767-1.058-3.868-.81-3.947-.557-4-.3-4.036-.044-4.045.213-4.037.469-4,.724-3.943.973-3.866,1.218-3.765,1.455-3.646,1.684-3.5,1.9-3.34,2.114-3.164,2.311-2.962,2.5-2.75,2.666-2.52,2.822-2.276,2.962" transform="translate(-14450.403 -2952.538)" fill="none" stroke="#fff" stroke-linecap="round" stroke-linejoin="round" stroke-width="4"/>
      <path id="Path_1023" data-name="Path 1023" d="M14750.391,3655.762m2.537,1.22" transform="translate(-14531.207 -3316.43)" fill="none" stroke="#fff" stroke-linecap="round" stroke-linejoin="round" stroke-width="4"/>
      <path id="Path_1024" data-name="Path 1024" d="M14535.418,3307.54m-95.424-324.98-135.6,190.835m511.242-64.427-301.045-144.811m-210.2,209.238-2.02,3.085-1.752,3.191-1.476,3.279-1.189,3.349-.9,3.4-.6,3.433-.3,3.445,0,3.439.308,3.414.607,3.369.9,3.305,1.2,3.224,1.481,3.123,1.761,3.006,2.025,2.872,2.282,2.722,2.527,2.555,2.756,2.376,2.969,2.183,3.166,1.977,3.346,1.761m194.221,62.153,0,0,2.1,1.008,0,0,17.538,8.437,0,0" transform="translate(-14296.16 -2958.551)" fill="none" stroke="#fff" stroke-linecap="round" stroke-linejoin="round" stroke-width="4"/>
      <path id="Path_1025" data-name="Path 1025" d="M14503.717,3087.363m174.119,81.759-170.887-82.2m271.6,132.188,2.758,7.931.529-1.411a4.333,4.333,0,0,0,.106-2.739h0a4.521,4.521,0,0,0-1.5-2.248l-1.738-1.431-12.569-7.024m6.112,18.6-99.069,139.422-174.891-281.283-118.5,165.8m121.5-166.77,5.422-1.112-1.485-.311a6.891,6.891,0,0,0-3.062.054h0a6.891,6.891,0,0,0-2.785,1.418l-1.09.917m283.7,134.778.44-2.479-.882-.824-.98-.814,0,0-276.211-132.443-4.44.192-119.648,168.385,454.441-70.592,2.02-3.085,1.753-3.191,1.475-3.28,1.19-3.349.9-3.4.6-3.433.3-3.446,0-3.439-.306-3.414-.606-3.369-.905-3.306-1.2-3.223-1.483-3.124-1.759-3.006-2.026-2.872-2.284-2.721-2.525-2.556-2.756-2.376-2.969-2.183-3.166-1.978-3.346-1.761m-118.5,253.347,135.6-190.836m-511.241,64.427,301.042,144.811m-3.266-22.308,3.271,1.431,3.4,1.211,3.513.987,3.605.755,3.679.52,3.73.281,3.762.042,3.771-.2,3.762-.438,3.729-.674,3.677-.907,3.6-1.135,3.509-1.356,3.4-1.57,3.266-1.775,3.114-1.969,2.946-2.154,2.764-2.326,2.562-2.485,2.35-2.631,2.122-2.76m0,0,119.648-168.384m0,0,1.882-2.875,1.634-2.974,1.375-3.057,1.108-3.121.836-3.17.56-3.2.278-3.211,0-3.206-.285-3.182-.566-3.14-.843-3.081-1.115-3-1.382-2.912-1.639-2.8-1.89-2.677-2.128-2.537-2.354-2.382-2.568-2.215-2.768-2.034-2.95-1.843-3.119-1.642m0,0-275.446-132.5m0,0-3.269-1.431-3.4-1.211-3.512-.987-3.606-.754-3.679-.52-3.729-.281-3.763-.042-3.772.2-3.761.438-3.729.674-3.676.907-3.6,1.135-3.509,1.356-3.4,1.57-3.265,1.775-3.115,1.97-2.947,2.154-2.762,2.326-2.563,2.485-2.35,2.63-2.121,2.76m0,0L14329.863,3181.3m0,0-1.883,2.875-1.634,2.974-1.375,3.056-1.108,3.122-.835,3.169-.559,3.2-.279,3.211,0,3.206.286,3.181.565,3.14.843,3.082,1.115,3,1.382,2.912,1.639,2.8,1.89,2.677,2.127,2.537,2.355,2.382,2.568,2.215,2.768,2.035,2.951,1.843,3.119,1.642m0,0,275.444,132.5m3.266,22.308,3.507,1.535,3.649,1.3,3.768,1.058,3.867.81,3.947.557,4,.3,4.036.044,4.047-.213,4.034-.469,4-.723,3.944-.973,3.866-1.217,3.766-1.455,3.645-1.684,3.5-1.9,3.341-2.114,3.161-2.311,2.966-2.5,2.748-2.667,2.521-2.821,2.276-2.962m-399.127-150.59.578,3.41.881,3.347,1.181,3.265,1.473,3.166,1.755,3.047,2.029,2.911,2.293,2.759,2.542,2.59,2.775,2.407,2.994,2.211,3.2,2,3.379,1.78m512.036-65.642,1.854-3.026,1.6-3.132,1.344-3.219,1.077-3.288.8-3.338.524-3.368.244-3.379-.039-3.371-.321-3.343-.6-3.294m-142.885,224.81,135.6-190.835m-511.242,64.426L14626.1,3403.08m0,0,3.5,1.535,3.649,1.3,3.769,1.058,3.868.81,3.946.557,4,.3,4.036.045,4.048-.213,4.034-.469,4-.724,3.945-.973,3.865-1.218,3.766-1.455,3.646-1.685,3.5-1.9,3.342-2.114,3.162-2.311,2.964-2.5,2.749-2.666,2.521-2.822,2.277-2.961m-399.923-154.947.578,3.41.881,3.347,1.181,3.266,1.473,3.165,1.756,3.047,2.03,2.911,2.292,2.758,2.541,2.59,2.775,2.407,2.994,2.211,3.2,2,3.378,1.78m511.243-64.426,2.052-3.139,1.775-3.248,1.488-3.339,1.191-3.41.89-3.462.581-3.493.27-3.5-.044-3.5-.355-3.467-.667-3.417" transform="translate(-14298.138 -2972.199)" fill="none" stroke="#fff" stroke-linecap="round" stroke-linejoin="round" stroke-width="4"/>
      <path id="Path_1026" data-name="Path 1026" d="M15047.543,3857.717l-.716.616-.845.667-.871.628-.9.594-.928.552-.958.516-.979.472-1,.432-1.023.388-1.043.344-1.06.3-1.076.253-1.087.2-1.1.157-1.106.108-1.116.06-1.117.008-1.119-.041-1.119-.092-1.114-.142-1.106-.193-1.1-.243-1.088-.294-1.072-.343-1.057-.393-.779-.326-.771-.354" transform="translate(-14670.864 -3420.934)" fill="none" stroke="#fff" stroke-linecap="round" stroke-linejoin="round" stroke-width="4"/>
      <line id="Line_349" data-name="Line 349" x1="135.602" y2="190.836" transform="translate(403.355 226)" fill="none" stroke="#fff" stroke-linecap="round" stroke-linejoin="round" stroke-width="4"/>
      <line id="Line_350" data-name="Line 350" x1="301.044" y1="144.811" transform="translate(27.715 290.426)" fill="none" stroke="#fff" stroke-linecap="round" stroke-linejoin="round" stroke-width="4"/>
      <path id="Path_1027" data-name="Path 1027" d="M15052.066,3816.377l-2.276,2.961-2.521,2.822-2.749,2.666-2.965,2.5-3.161,2.311-3.341,2.114-3.5,1.9-3.646,1.684-3.765,1.455-3.865,1.217-3.945.973-4,.723-4.035.47-4.047.213-4.035-.045-4-.3-3.946-.557-3.868-.81-3.768-1.058-3.648-1.3-3.507-1.535" transform="translate(-14648.712 -3399.542)" fill="none" stroke="#fff" stroke-linecap="round" stroke-linejoin="round" stroke-width="4"/>
      <path id="Path_1028" data-name="Path 1028" d="M14690.131,3143.151l.795-1.06.916-.979,1.025-.887,1.123-.783,1.2-.669,1.273-.547,1.322-.419,1.357-.284,1.373-.146,1.375-.008,1.357.132,1.322.271,1.273.405,1.207.534" transform="translate(-14500.024 -3048.18)" fill="none" stroke="#fff" stroke-linecap="round" stroke-linejoin="round" stroke-width="4"/>
      <path id="Path_1029" data-name="Path 1029" d="M14693.284,3173.484l-2.214-1.146-2.211-1.3-2.172-1.441-2.1-1.554-1.987-1.643-1.847-1.7-1.677-1.738-1.476-1.744-1.258-1.722-1.013-1.671" transform="translate(-14492.368 -3058.763)" fill="none" stroke="#fff" stroke-linecap="round" stroke-linejoin="round" stroke-width="4"/>
      <path id="Path_1030" data-name="Path 1030" d="M15291.761,3464.226" transform="translate(-14811.345 -3217.317)" fill="none" stroke="#fff" stroke-linecap="round" stroke-linejoin="round" stroke-width="4"/>
      <path id="Path_1031" data-name="Path 1031" d="M14723.389,3163.684l1.363-2.028,1.308-2.171,1.234-2.28,1.136-2.352,1.023-2.385.894-2.38.746-2.336.592-2.254.423-2.136.253-1.983" transform="translate(-14517.233 -3050.255)" fill="none" stroke="#fff" stroke-linecap="round" stroke-linejoin="round" stroke-width="4"/>
      <path id="Path_1032" data-name="Path 1032" d="M15295.938,3438.791l1.236-2.075,1.188-2.223,1.117-2.333,1.031-2.407.928-2.441.811-2.436.678-2.39.537-2.307.385-2.186.227-2.029" transform="translate(-14813.508 -3192.343)" fill="none" stroke="#fff" stroke-linecap="round" stroke-linejoin="round" stroke-width="4"/>
      <line id="Line_351" data-name="Line 351" x1="31.592" y1="58.343" transform="translate(151.374 40.712)" fill="none" stroke="#fff" stroke-linecap="round" stroke-linejoin="round" stroke-width="4"/>
      <line id="Line_352" data-name="Line 352" y1="67.563" x2="5.779" transform="translate(215.124 23.56)" fill="none" stroke="#fff" stroke-linecap="round" stroke-linejoin="round" stroke-width="4"/>
      <path id="Path_1033" data-name="Path 1033" d="M14361.906,3385.865" transform="translate(-14330.181 -3176.768)" fill="none" stroke="#fff" stroke-linecap="round" stroke-linejoin="round" stroke-width="4"/>
      <path id="Path_1034" data-name="Path 1034" d="M14712.533,3190.284" transform="translate(-14511.617 -3075.563)" fill="none" stroke="#fff" stroke-linecap="round" stroke-linejoin="round" stroke-width="4"/>
      <path id="Path_1035" data-name="Path 1035" d="M14464.576,3539.239" transform="translate(-14383.31 -3256.134)" fill="none" stroke="#fff" stroke-linecap="round" stroke-linejoin="round" stroke-width="4"/>
      <line id="Line_353" data-name="Line 353" y1="67.563" x2="5.779" transform="translate(490.569 156.057)" fill="none" stroke="#fff" stroke-linecap="round" stroke-linejoin="round" stroke-width="4"/>
      <path id="Path_1036" data-name="Path 1036" d="M15302.913,3473.957" transform="translate(-14817.116 -3222.352)" fill="none" stroke="#fff" stroke-linecap="round" stroke-linejoin="round" stroke-width="4"/>
      <path id="Path_1037" data-name="Path 1037" d="M15300.431,3475.562" transform="translate(-14815.832 -3223.183)" fill="none" stroke="#fff" stroke-linecap="round" stroke-linejoin="round" stroke-width="4"/>
      <path id="Path_1038" data-name="Path 1038" d="M15047.377,3858.616l-2.176,1.432-2.341,1.22-2.474.992-2.571.751-2.64.5-2.67.243-2.667-.018-2.629-.278-2.556-.535-2.449-.784" transform="translate(-14671.86 -3421.399)" fill="none" stroke="#fff" stroke-linecap="round" stroke-linejoin="round" stroke-width="4"/>
      <line id="Line_354" data-name="Line 354" x1="1.063" y2="3.507" transform="translate(328.759 431.731)" fill="none" stroke="#fff" stroke-linecap="round" stroke-linejoin="round" stroke-width="4"/>
      <line id="Line_355" data-name="Line 355" x2="2.245" y2="2.417" transform="translate(401.109 414.419)" fill="none" stroke="#fff" stroke-linecap="round" stroke-linejoin="round" stroke-width="4"/>
      <line id="Line_356" data-name="Line 356" x1="8.793" y2="12.383" transform="translate(82.133 269.623)" fill="none" stroke="#fff" stroke-linecap="round" stroke-linejoin="round" stroke-width="4"/>
      <line id="Line_357" data-name="Line 357" x1="170.887" y1="82.202" transform="translate(302.59 152.832)" fill="none" stroke="#fff" stroke-linecap="round" stroke-linejoin="round" stroke-width="4"/>
      <line id="Line_358" data-name="Line 358" x1="41.427" y2="57.354" transform="translate(76.536 221.751)" fill="none" stroke="#fff" stroke-linecap="round" stroke-linejoin="round" stroke-width="4"/>
      <line id="Line_359" data-name="Line 359" x1="41.427" y2="57.354" transform="translate(143.96 102.276)" fill="none" stroke="#fff" stroke-linecap="round" stroke-linejoin="round" stroke-width="4"/>
      <line id="Line_360" data-name="Line 360" x1="170.887" y1="82.202" transform="translate(317.888 140.672)" fill="none" stroke="#fff" stroke-linecap="round" stroke-linejoin="round" stroke-width="4"/>
    </g>
  </g>
</svg>
