<svg xmlns="http://www.w3.org/2000/svg" width="556.755" height="430.122" viewBox="0 0 556.755 430.122">
  <g id="Group_764" data-name="Group 764" transform="translate(2.014 2.013)">
    <path id="Path_1286" data-name="Path 1286" d="M532.412,1137.437m82.187-35.812-.432.738-.415.742-.4.748-.387.752-.376.756-.366.76-.356.764-.349.766-.675,1.542-.648,1.552-.626,1.56-.6,1.568m5.634-12.249.015-.027.011-.028.007-.028,0-.028m-129.55,69.734-6.881,9.034m0,0,0,.026,0,.022.006.018.007.015m3.042,7.24-.386-1-.382-.979-.377-.959-.376-.935-.187-.457-.187-.45-.188-.44-.188-.43-.19-.42-.191-.406-.193-.392-.2-.375m12.807-4.137-.865.147-.853.166-.923.226-.893.266-.942.329-.9.368-.911.439-.849.479-.827.548-.732.589-.653.653-.59.676m3.552,11.439-.579-.551-.527-.571-.48-.589-.437-.608-.4-.628-.357-.647-.32-.668-.286-.687m127.7-73.729-.418,1.094-.429,1.1-.437,1.106-.446,1.113-.453,1.12-.458,1.131-.462,1.141-.465,1.153m2.818-15.113-.884.246-.863.268-.805.3-.767.33-.7.345-.665.368-.6.373-.555.393-.486.388-.445.4-.38.389-.345.4-.287.38-.25.389-.2.365-.178.369m14.474,250.209c16.362-11.314,39.279-16.628,58.7-19.733a204.585,204.585,0,0,1,63.251-.194,187.09,187.09,0,0,1,57.786,18.727m0,0,.661.385.656.388M550.4,1425.056c9.494,29.147,37.821,49.74,65.376,60.912,28.036,11.368,59.255,15.776,89.258,16.242m0,0c14.139-1.069,28.048-.959,42.122-3.327a230.529,230.529,0,0,0,42.9-11.553c14.947-5.624,29.425-12.885,41.79-22.992,11.6-9.484,24.834-24.01,27.811-39.258" transform="translate(-428.873 -1076.246)" fill="none" stroke="#fff" stroke-linecap="round" stroke-linejoin="round" stroke-width="4"/>
    <path id="Path_1287" data-name="Path 1287" d="M698.4,1098.874l-2.967.776-2.743,1.014" transform="translate(-506.962 -1075.286)" fill="none" stroke="#fff" stroke-linecap="round" stroke-linejoin="round" stroke-width="4"/>
    <path id="Path_1288" data-name="Path 1288" d="M618.563,1101.513c-24.517,6.823-48.528,13.783-71.313,25.423-21.857,11.167-42.127,25.8-58.255,44.3" transform="translate(-432.802 -1076.246)" fill="none" stroke="#fff" stroke-linecap="round" stroke-linejoin="round" stroke-width="4"/>
    <path id="Path_1289" data-name="Path 1289" d="M476.46,1225.5a42.648,42.648,0,0,0-3.1,3.3" transform="translate(-427.111 -1121.389)" fill="none" stroke="#fff" stroke-linecap="round" stroke-linejoin="round" stroke-width="4"/>
    <path id="Path_1290" data-name="Path 1290" d="M607.153,1120.236c-4.738,9.044-9.9,16.731-17.377,23.86a123.055,123.055,0,0,1-32.006,21.67c-18.782,8.973-39.014,13.737-59.4,17.275" transform="translate(-436.216 -1083.063)" fill="none" stroke="#fff" stroke-linecap="round" stroke-linejoin="round" stroke-width="4"/>
    <path id="Path_1291" data-name="Path 1291" d="M498.372,1183.042a161.453,161.453,0,0,0,12.388,62c5.66,13.592,13.3,26.513,23.677,36.961,10.184,10.258,24.608,18.276,38.682,14.979,7.585-1.777,14.181-6.712,19.013-12.823s8.036-13.355,10.517-20.74c11.361-33.819,10.223-72.221,7.926-107.377-.778-11.9-3.136-23.926-3.421-35.81" transform="translate(-436.216 -1083.063)" fill="none" stroke="#fff" stroke-linecap="round" stroke-linejoin="round" stroke-width="4"/>
    <path id="Path_1292" data-name="Path 1292" d="M482.919,1233.174l-.107-3.249-.062-3.24" transform="translate(-430.528 -1121.819)" fill="none" stroke="#fff" stroke-linecap="round" stroke-linejoin="round" stroke-width="4"/>
    <path id="Path_1293" data-name="Path 1293" d="M682.652,1111.27l.365,3.066.383,3.089" transform="translate(-503.308 -1079.799)" fill="none" stroke="#fff" stroke-linecap="round" stroke-linejoin="round" stroke-width="4"/>
    <path id="Path_1294" data-name="Path 1294" d="M982.014,1140.754c-39.557-27.318-86-43.947-133.54-51.081-47.339-7.1-100.053-7.222-146.811,4.047" transform="translate(-510.23 -1070.135)" fill="none" stroke="#fff" stroke-linecap="round" stroke-linejoin="round" stroke-width="4"/>
    <path id="Path_1295" data-name="Path 1295" d="M634.362,1474.893l3.845-3.876,10.26-6.81,11.38-6.188,12.388-5.506,13.273-4.768,14.027-3.984,14.642-3.162,15.114-2.307,15.435-1.428,15.605-.538,15.62.36,15.481,1.252,15.19,2.133,14.748,2.993,14.161,3.824,13.433,4.616,12.574,5.363,15.508,7.631" transform="translate(-485.727 -1198.146)" fill="none" stroke="#fff" stroke-linecap="round" stroke-linejoin="round" stroke-width="4"/>
    <path id="Path_1296" data-name="Path 1296" d="M900.528,1612.945c-14.956,30.845-47.762,49.172-80.637,58.884a257.614,257.614,0,0,1-144.919.023c-16.531-4.878-32.675-11.719-46.977-21.423-13.215-8.968-27.872-22.037-33.448-37.459" transform="translate(-471.231 -1262.448)" fill="none" stroke="#fff" stroke-linecap="round" stroke-linejoin="round" stroke-width="4"/>
    <path id="Path_1297" data-name="Path 1297" d="M1096.606,1490.211c-12.43,30.29-31.282,57.234-56.479,78.321-7.237,6.056-15,11.638-23.7,15.28-5.32,2.225-11.879,3.555-16.517.128-3.93-2.9-5.082-8.207-5.689-13.056-1.683-13.436-.7-26.6.4-40.021" transform="translate(-616.415 -1217.763)" fill="none" stroke="#fff" stroke-linecap="round" stroke-linejoin="round" stroke-width="4"/>
    <path id="Path_1298" data-name="Path 1298" d="M587.923,1443.757c25.214-30.551,62.427-46.274,100.555-53.864,59.674-11.878,123.731-5.554,177.559,22.813" transform="translate(-468.82 -1179.17)" fill="none" stroke="#fff" stroke-linecap="round" stroke-linejoin="round" stroke-width="4"/>
    <path id="Path_1299" data-name="Path 1299" d="M890.91,1639.829c-37.194,22.922-81.675,34.241-125.341,35.054q-4.092.075-8.185.024c-44.149-.562-87.863-12.991-126.361-34.61" transform="translate(-484.511 -1272.236)" fill="none" stroke="#fff" stroke-linecap="round" stroke-linejoin="round" stroke-width="4"/>
    <path id="Path_1300" data-name="Path 1300" d="M1024.408,1428.723l10.54,6.573,8.755,6.87" transform="translate(-627.735 -1195.377)" fill="none" stroke="#fff" stroke-linecap="round" stroke-linejoin="round" stroke-width="4"/>
    <path id="Path_1301" data-name="Path 1301" d="M981.68,1545.449l-.029.3c-.853,9.054-1.675,18.13-1.721,27.232-.042,8.368-.4,18.328,3.8,25.862,3.623,6.5,10.123,7.717,16.837,5.939,8.359-2.213,16-6.539,23.189-11.351,26.324-17.63,47.452-42.077,65.344-68.225" transform="translate(-611.532 -1230.506)" fill="none" stroke="#fff" stroke-linecap="round" stroke-linejoin="round" stroke-width="4"/>
    <path id="Path_1302" data-name="Path 1302" d="M611.852,1132.416c3.375,44.686,6.621,90.617-6.573,133.444-2.95,9.574-6.767,19.02-12.753,27.053s-14.337,14.605-24.068,16.992c-16.338,4.006-33.427-4.337-45.786-15.749-24.047-22.2-35.354-55.3-38.979-87.835" transform="translate(-430.871 -1087.498)" fill="none" stroke="#fff" stroke-linecap="round" stroke-linejoin="round" stroke-width="4"/>
    <path id="Path_1303" data-name="Path 1303" d="M411.764,1280.651c-.841,12.428-2.173,23.559.455,35.989a108.42,108.42,0,0,0,14.412,35.124c13.066,20.772,32.128,37.216,52.792,50.451,36.865,23.612,79.1,37.543,122.045,44.987,45.547,7.9,92.939,9.488,138.792,3.293A403.225,403.225,0,0,0,870.1,1409.782l1.742-.894" transform="translate(-404.286 -1141.467)" fill="none" stroke="#fff" stroke-linecap="round" stroke-linejoin="round" stroke-width="4"/>
    <path id="Path_1304" data-name="Path 1304" d="M1135.535,1408c23.751-14.785,46.335-31.676,61.767-55.492,13.919-21.484,21.007-48.218,15.323-73.178" transform="translate(-668.194 -1140.985)" fill="none" stroke="#fff" stroke-linecap="round" stroke-linejoin="round" stroke-width="4"/>
    <path id="Path_1305" data-name="Path 1305" d="M974.3,1513.041l-2.782,1.019-3,.782" transform="translate(-607.385 -1226.075)" fill="none" stroke="#fff" stroke-linecap="round" stroke-linejoin="round" stroke-width="4"/>
    <line id="Line_472" data-name="Line 472" x1="1.892" y2="0.398" transform="translate(359.239 288.769)" fill="none" stroke="#fff" stroke-linecap="round" stroke-linejoin="round" stroke-width="4"/>
    <line id="Line_473" data-name="Line 473" x1="2.783" y2="0.652" transform="translate(366.914 286.313)" fill="none" stroke="#fff" stroke-linecap="round" stroke-linejoin="round" stroke-width="4"/>
    <path id="Path_1306" data-name="Path 1306" d="M678.228,1134.085l.487-.258.5-.243.519-.229.536-.215.552-.2.568-.187.584-.172.6-.158" transform="translate(-501.698 -1087.5)" fill="none" stroke="#fff" stroke-linecap="round" stroke-linejoin="round" stroke-width="4"/>
    <path id="Path_1307" data-name="Path 1307" d="M1168.094,1402.455l14.939-17.871c2.3-2.751,4.353-5.672,6.386-8.622" transform="translate(-680.048 -1176.168)" fill="none" stroke="#fff" stroke-linecap="round" stroke-linejoin="round" stroke-width="4"/>
    <path id="Path_1308" data-name="Path 1308" d="M1179.808,1302.256c5.6-10.272,9.722-20.847,11.134-33.321,4.3-37.978-18.8-74.887-48.672-96.252" transform="translate(-670.646 -1102.158)" fill="none" stroke="#fff" stroke-linecap="round" stroke-linejoin="round" stroke-width="4"/>
    <path id="Path_1309" data-name="Path 1309" d="M1173.483,1409.041l-.976.193-.976.193" transform="translate(-681.299 -1188.211)" fill="none" stroke="#fff" stroke-linecap="round" stroke-linejoin="round" stroke-width="4"/>
    <path id="Path_1310" data-name="Path 1310" d="M1001.52,1471.562c4.4-7.754,8.738-15.535,15.064-21.919,5.822-5.876,13.216-10.558,20.23-14.878a172.293,172.293,0,0,1,68.307-24.192q2.262-.288,4.531-.514" transform="translate(-619.402 -1188.582)" fill="none" stroke="#fff" stroke-linecap="round" stroke-linejoin="round" stroke-width="4"/>
    <path id="Path_1311" data-name="Path 1311" d="M1145.947,1416.969c-11.8,11.7-25.068,21.219-39.3,29.7" transform="translate(-657.675 -1191.098)" fill="none" stroke="#fff" stroke-linecap="round" stroke-linejoin="round" stroke-width="4"/>
    <path id="Path_1312" data-name="Path 1312" d="M631.005,1640.449l-.159-.106-.158-.107" transform="translate(-484.389 -1272.384)" fill="none" stroke="#fff" stroke-linecap="round" stroke-linejoin="round" stroke-width="4"/>
    <path id="Path_1313" data-name="Path 1313" d="M1022.937,1255.843c.724-33.573-21.451-63.81-47.975-84.406-31.813-24.7-70.523-39.279-109.918-47.667a409.214,409.214,0,0,0-179.972,2.258" transform="translate(-504.189 -1081.103)" fill="none" stroke="#fff" stroke-linecap="round" stroke-linejoin="round" stroke-width="4"/>
    <path id="Path_1314" data-name="Path 1314" d="M489.18,1473.122c19.464,41.262,49.071,77.653,86.5,103.886l1.929,1.331,1.942,1.313" transform="translate(-432.869 -1211.542)" fill="none" stroke="#fff" stroke-linecap="round" stroke-linejoin="round" stroke-width="4"/>
    <path id="Path_1315" data-name="Path 1315" d="M1038.495,1579.65l3.224-2.194,3.188-2.244,3.845-2.807,3.791-2.881,3.75-2.962,3.692-3.033,3.655-3.12,3.6-3.189,3.552-3.273,3.489-3.34,3.44-3.421,3.375-3.486,3.322-3.562,3.254-3.625,3.2-3.7,3.125-3.759,3.064-3.83,2.991-3.887,2.925-3.954,2.85-4.008,2.781-4.073,2.7-4.124,2.632-4.183,2.552-4.233,2.477-4.289,2.4-4.335,2.318-4.387,2.235-4.43,2.957-6.2" transform="translate(-632.863 -1211.54)" fill="none" stroke="#fff" stroke-linecap="round" stroke-linejoin="round" stroke-width="4"/>
    <path id="Path_1316" data-name="Path 1316" d="M472.656,1248.63c-11.719,17.311-18.465,35.44-19.468,56.337" transform="translate(-419.765 -1129.809)" fill="none" stroke="#fff" stroke-linecap="round" stroke-linejoin="round" stroke-width="4"/>
    <path id="Path_1317" data-name="Path 1317" d="M483.8,1247.189l.273-.348.3-.338.323-.329.348-.319.373-.31.4-.3.422-.291.447-.281" transform="translate(-430.911 -1128.368)" fill="none" stroke="#fff" stroke-linecap="round" stroke-linejoin="round" stroke-width="4"/>
    <path id="Path_1318" data-name="Path 1318" d="M487.6,1244.672l-.64.2-.641.2" transform="translate(-431.828 -1128.368)" fill="none" stroke="#fff" stroke-linecap="round" stroke-linejoin="round" stroke-width="4"/>
    <path id="Path_1319" data-name="Path 1319" d="M699.13,1061.781c-41.284.271-82.737,5.52-122.4,17.169-40.681,11.948-80.992,31.4-111.546,61.314L462,1143.386" transform="translate(-422.973 -1061.781)" fill="none" stroke="#fff" stroke-linecap="round" stroke-linejoin="round" stroke-width="4"/>
    <path id="Path_1320" data-name="Path 1320" d="M1072.118,1143.527c-28.425-31.246-72.139-51.4-111.843-63.452-39.945-12.13-83.589-18.629-125.38-18.01" transform="translate(-558.737 -1061.87)" fill="none" stroke="#fff" stroke-linecap="round" stroke-linejoin="round" stroke-width="4"/>
    <path id="Path_1321" data-name="Path 1321" d="M432.327,1203.228c-16.171,19.373-29.484,39.47-31.445,65.433-1.433,18.977,3.347,38.12,11.862,55.139,19.333,38.644,55.9,63.906,94.741,80.412,6.606,2.807,13.3,5.394,20.062,7.813,111.538,39.91,238.722,31.415,344.934-21.05" transform="translate(-400.63 -1113.279)" fill="none" stroke="#fff" stroke-linecap="round" stroke-linejoin="round" stroke-width="4"/>
    <path id="Path_1322" data-name="Path 1322" d="M1142.521,1390.983c21.7-13.489,42.36-28.514,57.888-49.13,13.984-18.568,23.234-41.255,23.066-64.5-.2-27.53-13.566-53.758-32.171-74.051" transform="translate(-670.737 -1113.306)" fill="none" stroke="#fff" stroke-linecap="round" stroke-linejoin="round" stroke-width="4"/>
    <path id="Path_1323" data-name="Path 1323" d="M443.718,1190.531c-1.931,3.1-5.08,5.772-7.387,8.631q-3.754,4.651-7.106,9.608a115.148,115.148,0,0,0-11.259,20.923,146.743,146.743,0,0,0-5.576,18.147" transform="translate(-404.912 -1108.656)" fill="none" stroke="#fff" stroke-linecap="round" stroke-linejoin="round" stroke-width="4"/>
    <path id="Path_1324" data-name="Path 1324" d="M1239.32,1247l-3.2-11.76-4.741-11.585-6.257-11.343-7.737-11.035-9.17-10.663" transform="translate(-694.655 -1108.687)" fill="none" stroke="#fff" stroke-linecap="round" stroke-linejoin="round" stroke-width="4"/>
    <path id="Path_1325" data-name="Path 1325" d="M546.819,1441.487a175.3,175.3,0,0,1-44.509-27.028c-12.1-10.074-26.708-23.268-33.43-37.762l-.515-.947" transform="translate(-425.291 -1176.091)" fill="none" stroke="#fff" stroke-linecap="round" stroke-linejoin="round" stroke-width="4"/>
    <path id="Path_1326" data-name="Path 1326" d="M467.075,1226.446c-6.913,7.366-10.081,16.4-12.681,24.1a85.955,85.955,0,0,0-4.477,24.615c-.534,16.346,3.9,32.273,11.787,46.526" transform="translate(-418.559 -1121.732)" fill="none" stroke="#fff" stroke-linecap="round" stroke-linejoin="round" stroke-width="4"/>
    <path id="Path_1327" data-name="Path 1327" d="M829.17,1502.93a436.336,436.336,0,0,1-65.546,8.179,403.188,403.188,0,0,1-68.046-2.9c-36.123-4.618-70.989-14.519-104.529-28.59" transform="translate(-469.958 -1213.905)" fill="none" stroke="#fff" stroke-linecap="round" stroke-linejoin="round" stroke-width="4"/>
    <path id="Path_1328" data-name="Path 1328" d="M1061.627,1463.743c-25.612,13.388-51.8,23.126-79.64,30.7" transform="translate(-612.29 -1208.127)" fill="none" stroke="#fff" stroke-linecap="round" stroke-linejoin="round" stroke-width="4"/>
  </g>
</svg>
