<svg xmlns="http://www.w3.org/2000/svg" width="937.97" height="532.747" viewBox="0 0 937.97 532.747">
  <g id="Group_772" data-name="Group 772" transform="matrix(0.899, -0.438, 0.438, 0.899, -284.177, 77.329)">
    <path id="Path_2286" data-name="Path 2286" d="M414.848,501.84l5.613-3.1M410.4,494.291l6.581-3.871M103.223,446.676H100.9" transform="translate(0.281 0)" fill="none" stroke="#fff" stroke-linecap="round" stroke-linejoin="round" stroke-width="3"/>
    <path id="Path_2287" data-name="Path 2287" d="M285.446,488.678h0v.387l-.387.581M1076.9,502.227l-.193-.193v-.194M339.061,546.164h.387l.194-.194h.194l.194-.193h.194l.194-.194m-55.163-56.906h0v.194l-.387.774m-183.3-42.389h0m771.321,29.421h0m193.169,23.42h0M944.5,481.71h0M414.742,516.937l18-6.387,18.194-5.613,18.581-4.839,18.775-4.258,20.13-4.065,20.517-3.484,20.517-3.1,20.517-2.9m0,0h.194m-208.073,54,26.324-9.484,26.324-9.871m672.608-15.484h0v1.355l-.387.581-.387.581-.581.387h-1.355m-7.936-2.516-.194-.387v-2.129m.194,2.516,2.323.774,3.1,1.161m0,0,.387.194h.581l.387.194h.581l.387.194h.193m-8.129-5.033,3.29,1.742,1.161.774.581.194.194.193h.193m-14.517-18.969h-.581l-.774.194-1.355.387M340.416,545.583l-.194.194h-.194l-.194.193h-.387l-.194.194h-.194l-.194.194h-.194m23.42-7.742,1.649-.54m-1.649.54-7.936,2.71-7.742,2.516L341,545.583l-.774.194m.194-.194h0m0,0,20.13-12,20.13-11.807,20.13-11.807,20.517-11.42m68.525-29.711-36.2,16.549-23.42,12.194-5.807,3.1-1.548.774-60.777,34.84m-77.035-46.647-2.516,14.323-2.516,13.162L277.9,528.744l-1.355,7.549-1.161,6.194-.774,4.065-.194,1.355m295.754-88.262,53.615-4.065,53.809-2.71,54-.774,54,1.161,70.261,3.484,70.067,5.613,70.261,8.323,69.68,11.613M477.26,469.9l46.26-5.613,46.647-4.645M340.416,545.583l14.71-8.71,62.519-36.389,29.033-15.872,30.354-14.71m588.833,12.388h.194l.193.193h.193l.387.194.193.194.194.194h.193v.193m14.517,18.969-14.517-18.969m17.033,20.9-.387-.194-.387-.194-.387-.194-.387-.193-.193-.194-.387-.387-.194-.193-.194-.387m5.033-1.355.387.581v1.355l-.387.774-.581.387-.581.387h-.774l-.581-.194m2.516-3.29-14.71-19.549m-3.484-2.129.581.194.387.193.581.194.387.194.387.387.387.194.387.387.387.387M570.167,456.16l53.421-4.258,53.422-2.71,53.615-.581,53.615.968,71.422,3.484L926.7,458.87l71.422,8.517,70.648,11.807m-615.9-8.516,32.711-5.613,32.9-3.871,51.68-5.032m-118.844,15.1.194-.194h.387l.194-.194h.387l.194-.193h.194m-124.457,72.39,13.355-7.936,28.259-16.839,28.453-16.839,26.324-15.291,13.162-7.549,13.355-7.355m-124.457,72.39,1.548-.581m-1.548.581-17.614,3.1L292.027,548.1l-17.614-.193m0,0-16.452-1.742-16.452-3.484-16.452-4.839-15.291-6-15.1-7.355-14.9-8.516-20.517-14.13L139.7,485.581l-18-18.194-15.872-19.549m-4.258-.581,1.161-.581h1.161l.968.387.968.774m-4.645,2.516-.387-.774L100.6,449l.194-.774.387-.581.387-.387M274.026,553.132,255.832,551l-17.807-3.678-16.839-5.419-8.323-3.1-9.484-4.258L184.8,525.066,166.99,513.84l-17.033-12.581-8.129-6.968-21.485-20.71-19.162-23.227m237.493,96-1.548.387-7.742,1.742-7.742,1.548L313.9,551.39l-7.742.968-7.936.774-8.129.387h-7.936l-8.129-.387m66.39-7.549-1.742.774M570.167,482.29v-20.9m0,20.9,52.26-6.194,52.647-3.484,63.1-1.355,62.906.581m0,0,71.809,1.936m0,0,36,1.936L944.7,479m0,0,30.388,3.484,30.195,4.065,30.582,5.032,30.195,5.613m0,0,10.452,2.129m0,0-3.1-4.065-8.71-11.42M570.361,459.644l-.194.194v1.548M285.446,488.678h0m114.972,11.613h-6.775L379.9,499.9l-16.646-.968-11.613-.968-11.226-1.161-10.646-1.355L318.157,493.9l-12-1.742-12.581-2.129-8.129-1.355M801.08,474.742l44.905.968,26.9.968m0,0,18.388.774,29.033,1.936,24,2.323h.193m-374.338,3.484h.194m-72,11.42,2.71-.387L512.1,493.9l14.9-2.516,15.485-2.323,25.936-3.678,1.742-.193m.581,0,2.129-.387,31.356-3.677,33.292-3.1,32.711-2.129,32.324-1.161,32.517-.581,37.356.194,28.646.387M1066.058,500.1l10.839,2.129M944.5,481.71l17.033,1.936,24.969,3.1,24.582,3.678,25.356,4.065,21.291,3.871,8.323,1.742m10.839,2.129,3.871,1.161,1.548.387M414.935,519.26l17.614-6,18.581-5.807,18.194-4.645,17.227-3.871,5.42-.968m0,0,6.775-1.355m-135.3,41.615,2.129-.774,17.614-6.387,23.033-8.71,8.71-3.29m667.382-15.291.774.194.774.194.774.194h1.161l.774-.387.581-.581.194-.581v-1.355l-.194-.387-.193-.194m-746.74,44.711-.194.194-.581.193-.194.194h-.194m-10.646-3.1-.194.194-.581.194-.387.193h-.194m-41.615-54.97-1.548-.387L271.7,486.161l-12-2.516-12.581-2.71-13.355-3.1-13.355-3.1-13.549-3.1-13.162-3.1-13.162-2.9-12.388-2.71-11.613-2.71L145.7,457.709l-8.71-2.129-7.936-2.129-6.387-1.742-5.032-1.355-4.065-1.161-3.678-.968-2.71-.774-1.742-.387-.968-.194-.387-.194h-1.161l-.774.194-.581.387" transform="translate(0 0)" fill="none" stroke="#fff" stroke-linecap="round" stroke-linejoin="round" stroke-width="3"/>
    <line id="Line_853" data-name="Line 853" transform="translate(340.416 545.583)" fill="none" stroke="#fff" stroke-linecap="round" stroke-linejoin="round" stroke-width="3"/>
  </g>
</svg>
