<svg xmlns="http://www.w3.org/2000/svg" width="474.517" height="474.517" viewBox="0 0 474.517 474.517">
  <g id="Group_654" data-name="Group 654" transform="translate(-561.728 -1684.897)">
    <path id="Path_588" data-name="Path 588" d="M1001.827,1802.939a388.281,388.281,0,0,1-17.94,55.93,195.07,195.07,0,0,1,10.486,63.286c0,107.906-87.48,195.387-195.386,195.387-2.083,0-4.157-.045-6.225-.109-4.064-134.668,29.609-221.87,112.671-313.191-10.535,33.569-33.461,83.177-64.095,136.238q-3.679,6.367-7.365,12.568A188.079,188.079,0,0,0,967.99,1695.887c-109.5,14.467-165.072,100.123-191.479,201.632-16.831-49.008-48.494-87.941-104.207-100.143a124.575,124.575,0,0,0,74.109,177.2q-2.085-4.3-4.159-8.7c-17.26-36.73-29.622-70.747-34.7-93.491,27.481,35.869,45.083,70.063,53.612,108.438-5.391,45.169-6.677,90.53-5.787,131.832C668.462,2092.835,603.6,2015.07,603.6,1922.155c0-107.906,87.48-195.386,195.387-195.386a195.945,195.945,0,0,1,45.313,5.293,270.7,270.7,0,0,1,43.524-27.8,234.534,234.534,0,0,0-88.837-17.369c-129.931,0-235.258,105.327-235.258,235.258s105.327,235.258,235.258,235.258,235.258-105.325,235.258-235.258A234.117,234.117,0,0,0,1001.827,1802.939Z" transform="translate(0 0)" fill="none" stroke="#fff" stroke-linejoin="round" stroke-width="4"/>
    <path id="Path_589" data-name="Path 589" d="M684.5,1898.5q-2.543,2.209-5.067,4.344a86.186,86.186,0,0,0,96.49-91.363,86.187,86.187,0,0,0-104.01,82.7q2.467-2.194,5.012-4.405c21.2-18.407,41.521-33.042,55.706-40.708C723.046,1862.031,705.7,1880.091,684.5,1898.5Z" transform="translate(131.303 148.946)" fill="none" stroke="#fff" stroke-linejoin="round" stroke-width="4"/>
  </g>
</svg>
