<svg xmlns="http://www.w3.org/2000/svg" width="297.846" height="297.846" viewBox="0 0 297.846 297.846">
  <g id="Group_625" data-name="Group 625" transform="translate(-715.979 -495.395) rotate(-45)">
    <path id="Path_106" data-name="Path 106" d="M790.189,353.266c0-36.347-31.322-65.79-69.953-65.79-32.334,0-59.277,20.737-67.281,48.76h67.281c10,0,18.106,7.627,18.106,17.03s-8.11,17.016-18.106,17.016H650.282v31.744H790.189c10,0,18.108,7.627,18.108,17.03s-8.11,17.016-18.108,17.016H650.282v30.538c0,10.07,8.684,18.223,19.391,18.223H790.189c38.631,0,69.953-29.444,69.953-65.777S828.82,353.266,790.189,353.266Z" transform="translate(-599.235 681.024)" fill="none" stroke="#fff" stroke-linecap="round" stroke-linejoin="round" stroke-width="7"/>
  </g>
</svg>
